<svg width="21" height="16" viewBox="0 0 21 16" fill="none" xmlns="http://www.w3.org/2000/svg">
<path d="M18.5 0.5H2.5C1.8372 0.500794 1.20178 0.764441 0.73311 1.23311C0.264441 1.70178 0.000793929 2.3372 0 3V13C0.000793929 13.6628 0.264441 14.2982 0.73311 14.7669C1.20178 15.2356 1.8372 15.4992 2.5 15.5H18.5C19.1628 15.4993 19.7983 15.2357 20.267 14.767C20.7357 14.2983 20.9993 13.6628 21 13V3C20.9993 2.33717 20.7357 1.70168 20.267 1.23299C19.7983 0.764301 19.1628 0.500688 18.5 0.5ZM20 13C19.9995 13.3977 19.8414 13.779 19.5602 14.0602C19.279 14.3414 18.8977 14.4995 18.5 14.5H2.5C2.10231 14.4995 1.72104 14.3414 1.43984 14.0602C1.15863 13.779 1.00045 13.3977 1 13V3C1.00045 2.60231 1.15863 2.22104 1.43984 1.93984C1.72104 1.65863 2.10231 1.50045 2.5 1.5H18.5C18.8977 1.50045 19.279 1.65863 19.5602 1.93984C19.8414 2.22104 19.9995 2.60231 20 3V13ZM18 5C18 5.13261 17.9473 5.25979 17.8536 5.35355C17.7598 5.44732 17.6326 5.5 17.5 5.5H3.5C3.36739 5.5 3.24021 5.44732 3.14645 5.35355C3.05268 5.25979 3 5.13261 3 5C3 4.86739 3.05268 4.74021 3.14645 4.64645C3.24021 4.55268 3.36739 4.5 3.5 4.5H17.5C17.6326 4.5 17.7598 4.55268 17.8536 4.64645C17.9473 4.74021 18 4.86739 18 5ZM18 8C18 8.13261 17.9473 8.25979 17.8536 8.35355C17.7598 8.44732 17.6326 8.5 17.5 8.5H3.5C3.36739 8.5 3.24021 8.44732 3.14645 8.35355C3.05268 8.25979 3 8.13261 3 8C3 7.86739 3.05268 7.74021 3.14645 7.64645C3.24021 7.55268 3.36739 7.5 3.5 7.5H17.5C17.6326 7.5 17.7598 7.55268 17.8536 7.64645C17.9473 7.74021 18 7.86739 18 8ZM18 11C18 11.1326 17.9473 11.2598 17.8536 11.3536C17.7598 11.4473 17.6326 11.5 17.5 11.5H3.5C3.36739 11.5 3.24021 11.4473 3.14645 11.3536C3.05268 11.2598 3 11.1326 3 11C3 10.8674 3.05268 10.7402 3.14645 10.6464C3.24021 10.5527 3.36739 10.5 3.5 10.5H17.5C17.6326 10.5 17.7598 10.5527 17.8536 10.6464C17.9473 10.7402 18 10.8674 18 11Z" fill="#553CDF"/>
</svg>
