<svg width="60" height="61" viewBox="0 0 60 61" fill="none" xmlns="http://www.w3.org/2000/svg">
<rect y="0.148926" width="60" height="60" rx="4" fill="white"/>
<mask id="mask0_1_2741" style="mask-type:luminance" maskUnits="userSpaceOnUse" x="12" y="12" width="37" height="38">
<path d="M12 12.1489H49V49.1489H12V12.1489Z" fill="white"/>
</mask>
<g mask="url(#mask0_1_2741)">
<path d="M12.7226 23.3735H24.0607H45.641" stroke="#F8941F" stroke-width="1.5" stroke-miterlimit="10" stroke-linecap="round" stroke-linejoin="round"/>
<path d="M18.7572 20.2986C19.7036 20.2986 20.4759 19.5288 20.4759 18.5829C20.4759 17.637 19.7036 16.8673 18.7572 16.8673C17.813 16.8673 17.0406 17.637 17.0406 18.5829C17.0406 19.5288 17.813 20.2986 18.7572 20.2986Z" stroke="#F8941F" stroke-width="1.5" stroke-miterlimit="10" stroke-linecap="round" stroke-linejoin="round"/>
<path d="M33.676 16.8673H40.1409C41.0852 16.8673 41.8575 17.6391 41.8575 18.5829C41.8575 19.5268 41.0852 20.2986 40.1409 20.2986H33.676C32.7317 20.2986 31.9594 19.5268 31.9594 18.5829C31.9594 17.6391 32.7317 16.8673 33.676 16.8673Z" stroke="#F8941F" stroke-width="1.5" stroke-miterlimit="10" stroke-linecap="round" stroke-linejoin="round"/>
<path d="M25.0951 20.2986C26.0415 20.2986 26.8137 19.5288 26.8137 18.5829C26.8137 17.637 26.0415 16.8673 25.0951 16.8673C24.1508 16.8673 23.3785 17.637 23.3785 18.5829C23.3785 19.5288 24.1508 20.2986 25.0951 20.2986Z" stroke="#F8941F" stroke-width="1.5" stroke-miterlimit="10" stroke-linecap="round" stroke-linejoin="round"/>
<path d="M23.737 28.9321L22.2908 34.9841" stroke="#F8941F" stroke-width="1.5" stroke-miterlimit="10" stroke-linecap="round" stroke-linejoin="round"/>
<path d="M27.0678 34.4375L29.1142 32.1403C29.2043 32.04 29.2043 31.8763 29.1142 31.776L27.0678 29.4788" stroke="#F8941F" stroke-width="1.5" stroke-miterlimit="10" stroke-linecap="round" stroke-linejoin="round"/>
<path d="M18.9601 34.4375L16.9137 32.1403C16.8235 32.04 16.8235 31.8763 16.9137 31.776L18.9601 29.4788" stroke="#F8941F" stroke-width="1.5" stroke-miterlimit="10" stroke-linecap="round" stroke-linejoin="round"/>
<path d="M41.2327 32.126C42.0234 32.3021 42.7629 32.6133 43.4286 33.0309L44.0206 32.4413C44.3709 32.0892 44.9465 32.0892 45.2989 32.4413L46.2309 33.3729C46.5832 33.7251 46.5832 34.3004 46.2309 34.6505L45.6409 35.2421C46.0568 35.9014 46.364 36.6344 46.5423 37.4165H47.3718C47.8697 37.4165 48.2772 37.8239 48.2772 38.3193V39.6399C48.2772 40.1353 47.8697 40.5427 47.3718 40.5427H46.5382C46.3599 41.3208 46.0527 42.0496 45.6409 42.7048L46.2309 43.2944C46.5832 43.6465 46.5832 44.2219 46.2309 44.572L45.2989 45.5056C44.9465 45.8577 44.3709 45.8577 44.0206 45.5056L43.4286 44.9159C42.7711 45.3295 42.0398 45.6366 41.2573 45.8147V46.6541C41.2573 47.1516 40.8496 47.5591 40.354 47.5591H39.0327C38.5369 47.5591 38.1293 47.1516 38.1293 46.6541V45.8127C37.3509 45.6366 36.6196 45.3274 35.962 44.9159L35.3721 45.5056C35.0197 45.8577 34.4442 45.8577 34.0939 45.5056L33.1598 44.572C32.8095 44.2219 32.8095 43.6465 33.1598 43.2944L33.7518 42.7048C33.338 42.0496 33.0308 41.3208 32.8526 40.5427H32.0147C31.517 40.5427 31.1113 40.1353 31.1113 39.6399V38.3193C31.1113 37.8239 31.517 37.4165 32.0147 37.4165H32.8505C33.0267 36.6426 33.3299 35.9178 33.7375 35.2647L33.1434 34.6689C32.7911 34.3188 32.7911 33.7435 33.1434 33.3913L34.0754 32.4598C34.4278 32.1076 35.0034 32.1076 35.3537 32.4598L35.9416 33.0453C36.5972 32.6297 37.3263 32.3205 38.1048 32.1383V31.3051C38.1048 30.8075 38.5103 30.4001 39.0081 30.4001H40.3273C40.8251 30.4001 41.2327 30.8075 41.2327 31.3051V32.126Z" stroke="#F8941F" stroke-width="1.5" stroke-miterlimit="10" stroke-linecap="round" stroke-linejoin="round"/>
<path d="M39.6944 35.2564C41.751 35.2564 43.4184 36.923 43.4184 38.9805C43.4184 41.0361 41.751 42.7026 39.6944 42.7026C37.6357 42.7026 35.9682 41.0361 35.9682 38.9805C35.9682 36.923 37.6357 35.2564 39.6944 35.2564Z" stroke="#F8941F" stroke-width="1.5" stroke-miterlimit="10" stroke-linecap="round" stroke-linejoin="round"/>
<path d="M19.6913 40.5427H15.4141C13.9353 40.5427 12.7225 39.0953 12.7225 37.3284V16.9531C12.7225 15.1842 13.9331 13.7387 15.4141 13.7387H18.5319H42.9493C44.4303 13.7387 45.6409 15.1862 45.6409 16.9531V32.7833M32.0147 40.5427H26.1501" stroke="#F8941F" stroke-width="1.5" stroke-miterlimit="10" stroke-linecap="round" stroke-linejoin="round"/>
<path d="M22.9279 40.5427H22.942" stroke="#F8941F" stroke-width="1.5" stroke-miterlimit="10" stroke-linecap="round" stroke-linejoin="round"/>
</g>
</svg>
