<svg width="60" height="61" viewBox="0 0 60 61" fill="none" xmlns="http://www.w3.org/2000/svg">
<rect y="0.148926" width="60" height="60" rx="4" fill="white"/>
<path d="M25.9088 19.6033H28.636C29.0125 19.6033 29.3178 19.9085 29.3178 20.2851V29.8302H27.9542V20.9669H26.5907V29.8303H25.2271V20.2851C25.227 19.9085 25.5322 19.6033 25.9088 19.6033Z" fill="#5866EB"/>
<path d="M25.9087 14.1489H31.3631C37.0086 14.1553 41.5836 18.7304 41.59 24.3759V25.522L44.9145 31.5464C44.9699 31.6473 44.9989 31.7606 44.9991 31.8757C45.0312 32.9733 44.1675 33.889 43.0699 33.9211C43.0312 33.9223 42.9924 33.9223 42.9537 33.9211C42.4578 33.9487 41.9821 34.1268 41.5901 34.4318V36.6483C41.6329 38.1117 40.4813 39.3326 39.0179 39.3755C38.9662 39.377 38.9145 39.377 38.8629 39.3755H34.7912C34.6746 39.3836 34.0903 39.4846 34.0903 40.739V46.1934C34.0903 46.57 33.7851 46.8752 33.4085 46.8752H19.0908C18.7142 46.8752 18.409 46.57 18.409 46.1934V35.9664C18.3769 34.8689 19.2405 33.9531 20.3381 33.921C20.3768 33.9199 20.4156 33.9199 20.4543 33.921H33.4085V20.9669C33.4085 20.5904 33.7138 20.2851 34.0903 20.2851H36.1357V21.6487H34.7722V34.6029C34.7722 34.9794 34.4669 35.2847 34.0903 35.2847H20.4626C20.1189 35.2477 19.8103 35.4964 19.7734 35.8401C19.7688 35.8821 19.7686 35.9244 19.7726 35.9665V45.5117H32.7267V40.739C32.7267 38.5819 34.0644 38.0118 34.7721 38.0118H38.8629C39.5705 38.0573 40.181 37.5206 40.2265 36.813C40.23 36.7581 40.23 36.7031 40.2265 36.6482V34.1065C40.2266 33.9115 40.3102 33.7258 40.4563 33.5965C41.1397 32.9659 42.0246 32.5978 42.9537 32.5575C43.2819 32.5974 43.5803 32.3636 43.6202 32.0354C43.6205 32.0324 43.6209 32.0294 43.6212 32.0264L40.311 26.0265C40.2559 25.9255 40.2268 25.8123 40.2265 25.6972V24.3759C40.2208 19.4831 36.2558 15.5182 31.3631 15.5125H25.9087C20.8239 15.5125 16.3636 19.6544 16.3636 24.3759V34.6029H15V24.3759C15 18.9283 20.0977 14.1489 25.9087 14.1489Z" fill="#5866EB"/>
<path d="M28.6358 22.3303H31.363C31.7396 22.3303 32.0449 22.6356 32.0449 23.0121V32.5573H30.6813V23.6939H29.3177V32.5573H27.9541V23.0121C27.954 22.6356 28.2593 22.3303 28.6358 22.3303Z" fill="#5866EB"/>
<path d="M23.1815 26.4211H25.9087C26.2852 26.4211 26.5905 26.7264 26.5905 27.103V32.5573H25.2269V27.7847H23.8634V32.5573H22.4998V27.103C22.4997 26.7264 22.8049 26.4211 23.1815 26.4211Z" fill="#5866EB"/>
<path d="M20.4544 23.6938H23.1816C23.5582 23.6938 23.8635 23.9991 23.8635 24.3757V32.5572H22.4999V25.0575H21.1363V32.5572H19.7727V24.3757C19.7726 23.9991 20.0779 23.6938 20.4544 23.6938Z" fill="#5866EB"/>
</svg>
