<svg width="60" height="61" viewBox="0 0 60 61" fill="none" xmlns="http://www.w3.org/2000/svg">
<rect y="0.148926" width="60" height="60" rx="4" fill="white"/>
<path d="M13.3005 37.895L16.7855 36.1525L19.0035 30.3831C19.0296 30.3149 19.0695 30.2528 19.1206 30.2007C19.1718 30.1486 19.2332 30.1076 19.301 30.0803L33.063 24.5792C33.1592 24.5409 33.2645 24.5315 33.366 24.5523C33.4675 24.5731 33.5606 24.623 33.6341 24.6961L35.4695 26.5315C35.5416 26.605 35.5908 26.6979 35.611 26.7988C35.6313 26.8997 35.6218 27.0043 35.5838 27.1L30.0827 40.862C30.0554 40.9297 30.0144 40.9911 29.9623 41.0423C29.9102 41.0935 29.8481 41.1334 29.7799 41.1595L24.0105 43.3775L22.268 46.8625C22.2313 46.9393 22.1767 47.0062 22.1087 47.0575C22.0408 47.1088 21.9615 47.143 21.8775 47.1573C21.8492 47.1599 21.8208 47.1599 21.7925 47.1573C21.6518 47.1567 21.5172 47.1004 21.418 47.0006L13.1624 38.745C13.1016 38.6863 13.0557 38.6141 13.0284 38.5341C13.0012 38.4542 12.9934 38.369 13.0056 38.2854C13.0199 38.2015 13.0541 38.1222 13.1054 38.0542C13.1567 37.9863 13.2236 37.9317 13.3005 37.895ZM34.4708 27.0309L34.176 26.7387L27.3255 33.5892C27.777 34.2289 27.9719 35.0148 27.8719 35.7913C27.7718 36.5679 27.384 37.2787 26.7851 37.7831C26.1863 38.2875 25.4199 38.5488 24.6376 38.5154C23.8553 38.482 23.1141 38.1562 22.5604 37.6025C22.0067 37.0489 21.681 36.3076 21.6476 35.5253C21.6141 34.743 21.8754 33.9767 22.3799 33.3778C22.8843 32.7789 23.595 32.3911 24.3716 32.2911C25.1482 32.191 25.934 32.386 26.5738 32.8375L33.4242 25.987L33.132 25.6921L19.9119 30.9807L17.8267 36.4048L23.7581 42.3362L29.1822 40.2511L34.4708 27.0309ZM24.7728 33.3262C24.2954 33.3269 23.8329 33.4931 23.4643 33.7966C23.0956 34.1 22.8436 34.5218 22.7511 34.9903C22.6586 35.4587 22.7314 35.9447 22.957 36.3654C23.1826 36.7862 23.5472 37.1158 23.9885 37.2979C24.4298 37.4801 24.9207 37.5036 25.3774 37.3644C25.8341 37.2253 26.2285 36.9321 26.4933 36.5348C26.7581 36.1375 26.877 35.6607 26.8296 35.1855C26.7823 34.7104 26.5717 34.2664 26.2338 33.9292C25.8459 33.5426 25.3205 33.3257 24.7728 33.3262ZM21.6464 45.7282L22.9745 43.072L17.0963 37.1937L14.44 38.5218L21.6464 45.7282Z" fill="#EE4A62"/>
<path d="M36.8455 41.579C36.9471 41.483 37.0816 41.4295 37.2214 41.4295C37.3612 41.4295 37.4957 41.483 37.5972 41.579L38.2719 42.2537C40.0724 39.8101 41.0656 36.8657 41.1133 33.8308C41.1609 30.7958 40.2605 27.8217 38.5376 25.3228C38.0214 25.6068 37.427 25.7159 36.8436 25.6338C36.2602 25.5516 35.7191 25.2826 35.3015 24.867C34.8838 24.4515 34.6121 23.9117 34.527 23.3287C34.4419 22.7457 34.548 22.1509 34.8294 21.6333C32.3305 19.9103 29.3564 19.0099 26.3215 19.0576C23.2866 19.1052 20.3421 20.0984 17.8985 21.8989L18.5838 22.5656C18.6826 22.6652 18.738 22.7998 18.7379 22.9401C18.7383 23.0101 18.7249 23.0794 18.6984 23.1441C18.672 23.2088 18.633 23.2677 18.5838 23.3173L16.241 25.6415C16.1415 25.7405 16.0068 25.796 15.8665 25.796C15.7261 25.796 15.5915 25.7405 15.4919 25.6415L13.1624 23.312C13.113 23.2627 13.0738 23.2041 13.0471 23.1396C13.0204 23.0751 13.0066 23.006 13.0066 22.9362C13.0066 22.8663 13.0204 22.7972 13.0471 22.7327C13.0738 22.6682 13.113 22.6096 13.1624 22.5603L15.4919 20.2308C15.5915 20.1318 15.7261 20.0763 15.8665 20.0763C16.0068 20.0763 16.1415 20.1318 16.241 20.2308L17.1415 21.1259C19.3607 19.4559 21.9845 18.4067 24.7434 18.086C27.5022 17.7653 30.2967 18.1847 32.8399 19.3011L29.7772 16.2464C29.43 16.4123 29.0352 16.4499 28.6628 16.3524C28.2905 16.2549 27.9648 16.0287 27.7434 15.7139C27.522 15.3991 27.4192 15.016 27.4534 14.6327C27.4875 14.2493 27.6564 13.8905 27.93 13.6198C28.2035 13.3491 28.5641 13.184 28.9478 13.1539C29.3315 13.1238 29.7135 13.2306 30.0259 13.4553C30.3384 13.68 30.5611 14.0081 30.6547 14.3815C30.7482 14.7548 30.7065 15.1492 30.5369 15.4947L35.706 20.6717C36.2308 20.3196 36.8616 20.1607 37.4906 20.2221C38.1196 20.2835 38.7078 20.5613 39.1546 21.0082C39.6015 21.4551 39.8794 22.0433 39.9407 22.6722C40.0021 23.3012 39.8432 23.932 39.4912 24.4569L44.6682 29.6259C45.015 29.4569 45.4106 29.4163 45.7845 29.5114C46.1584 29.6065 46.4866 29.8311 46.7105 30.1452C46.9345 30.4594 47.0399 30.8428 47.0079 31.2273C46.9759 31.6118 46.8087 31.9725 46.5358 32.2453C46.263 32.5181 45.9023 32.6854 45.5178 32.7174C45.1333 32.7494 44.7499 32.644 44.4358 32.42C44.1216 32.196 43.897 31.8679 43.802 31.494C43.7069 31.12 43.7475 30.7245 43.9165 30.3776L40.8538 27.323C41.9713 29.8654 42.392 32.6595 42.0727 35.4184C41.7534 38.1772 40.7056 40.8014 39.0369 43.0214L39.9347 43.9219C40.0337 44.0214 40.0892 44.156 40.0892 44.2964C40.0892 44.4367 40.0337 44.5714 39.9347 44.6709L37.6052 47.0005C37.506 47.1002 37.3714 47.1566 37.2307 47.1572C37.1606 47.1572 37.0912 47.1434 37.0264 47.1165C36.9617 47.0896 36.9029 47.0502 36.8535 47.0005L34.5213 44.6709C34.4224 44.5714 34.3668 44.4367 34.3668 44.2964C34.3668 44.156 34.4224 44.0214 34.5213 43.9219L36.8455 41.579ZM15.8612 21.3517L14.2833 22.9295L15.8612 24.5073L17.439 22.9295L15.8612 21.3517ZM29.4744 14.387C29.3955 14.3074 29.2947 14.2531 29.1848 14.2309C29.0749 14.2087 28.9609 14.2196 28.8573 14.2623C28.7536 14.305 28.665 14.3775 28.6026 14.4706C28.5403 14.5638 28.507 14.6734 28.507 14.7855C28.507 14.8975 28.5403 15.0071 28.6026 15.1003C28.665 15.1934 28.7536 15.2659 28.8573 15.3086C28.9609 15.3513 29.0749 15.3622 29.1848 15.34C29.2947 15.3178 29.3955 15.2635 29.4744 15.1839C29.5268 15.1316 29.5683 15.0695 29.5967 15.0011C29.625 14.9327 29.6396 14.8595 29.6396 14.7855C29.6396 14.7114 29.625 14.6382 29.5967 14.5698C29.5683 14.5014 29.5268 14.4393 29.4744 14.387ZM38.3994 21.7634C38.2452 21.6084 38.0618 21.4854 37.8599 21.4015C37.6579 21.3176 37.4414 21.2744 37.2227 21.2744C37.004 21.2744 36.7875 21.3176 36.5856 21.4015C36.3836 21.4854 36.2003 21.6084 36.046 21.7634C35.8128 21.9962 35.6539 22.293 35.5894 22.6161C35.525 22.9393 35.5578 23.2743 35.6838 23.5788C35.8097 23.8832 36.0232 24.1435 36.2972 24.3266C36.5711 24.5098 36.8932 24.6075 37.2227 24.6075C37.5522 24.6075 37.8743 24.5098 38.1483 24.3266C38.4222 24.1435 38.6357 23.8832 38.7617 23.5788C38.8876 23.2743 38.9205 22.9393 38.856 22.6161C38.7915 22.293 38.6326 21.9962 38.3994 21.7634ZM44.9763 31.4853C45.0848 31.5757 45.2231 31.6224 45.3642 31.616C45.5053 31.6096 45.6389 31.5507 45.7387 31.4508C45.8386 31.351 45.8975 31.2174 45.9039 31.0763C45.9102 30.9352 45.8636 30.7969 45.7732 30.6884C45.6669 30.5839 45.5238 30.5254 45.3747 30.5254C45.2257 30.5254 45.0826 30.5839 44.9763 30.6884C44.9239 30.7407 44.8824 30.8028 44.8541 30.8712C44.8257 30.9396 44.8111 31.0128 44.8111 31.0869C44.8111 31.1609 44.8257 31.2341 44.8541 31.3025C44.8824 31.3709 44.9239 31.433 44.9763 31.4853ZM37.2227 45.8636L38.8005 44.2858L37.2227 42.708L35.6449 44.2858L37.2227 45.8636Z" fill="#EE4A62"/>
</svg>
