<svg width="60" height="61" viewBox="0 0 60 61" fill="none" xmlns="http://www.w3.org/2000/svg">
<rect y="0.148926" width="60" height="60" rx="4" fill="white"/>
<path d="M22.0953 34.6177C22.4128 34.4346 22.5215 34.0281 22.3384 33.7106C22.155 33.3934 21.7487 33.2844 21.4312 33.4676C21.1137 33.651 21.0048 34.0574 21.1882 34.3747C21.3713 34.6922 21.7778 34.8011 22.0953 34.6177Z" fill="#5866EB"/>
<path d="M19.374 39.201L22.7181 44.9937C23.4398 46.245 25.0631 46.7083 26.3469 45.9662C27.6171 45.2321 28.0537 43.609 27.3188 42.3377L25.3266 38.8866L27.0519 37.8905C27.3694 37.7069 27.4784 37.3009 27.295 36.9834L26.4314 35.4877C26.5344 35.4677 27.2114 35.3349 39.1508 32.9928C40.6268 32.9127 41.5111 31.2984 40.7656 30.0079L38.5586 26.1854L39.969 24.0492C40.1075 23.8391 40.1158 23.5691 39.99 23.3512L38.6619 21.0508C38.536 20.8329 38.2971 20.7053 38.0468 20.7201L35.492 20.8734L33.042 16.6296C32.6871 16.0149 32.0513 15.6426 31.3416 15.6338C31.333 15.6335 31.3247 15.6335 31.3162 15.6335C30.6303 15.6335 30.0078 15.9749 29.6389 16.5521L20.9641 27.603L15.3245 30.859C13.1063 32.1391 12.338 34.9847 13.6231 37.2088C14.7971 39.2425 17.2723 40.0425 19.374 39.201ZM26.1689 43.002C26.5357 43.6365 26.3186 44.4484 25.6823 44.816C25.0439 45.1851 24.2309 44.9584 23.8683 44.3299L20.548 38.5782L22.8483 37.2501C26.6911 43.9068 26.1072 42.8954 26.1689 43.002ZM24.6626 37.7362L23.9985 36.586L25.1487 35.922L25.8128 37.0721L24.6626 37.7362ZM37.7169 22.0703L38.6346 23.6599L37.8162 24.8993L36.2344 22.1593L37.7169 22.0703ZM30.7497 17.2802C30.9279 16.9886 31.2106 16.9586 31.3253 16.9617C31.4386 16.963 31.7211 16.9982 31.8915 17.2934L39.6154 30.672C39.867 31.1075 39.5612 31.6551 39.0567 31.6675C38.9661 31.6696 38.9244 31.686 38.6925 31.7293L30.5222 17.5777C30.6936 17.3573 30.7157 17.336 30.7497 17.2802ZM29.6384 18.7035L37.3148 31.9996L25.7295 34.2719L22.2069 28.1706L29.6384 18.7035ZM14.7732 36.5448C14.4817 36.0402 14.3276 35.4675 14.3276 34.888C14.3276 33.7036 14.9642 32.6006 15.9885 32.0092L21.1643 29.0209L24.4846 34.7718L19.3088 37.7603C17.7231 38.6755 15.6887 38.1302 14.7732 36.5448Z" fill="#5866EB"/>
<path d="M20.0381 35.0387C19.8547 34.7212 19.4485 34.6122 19.131 34.7956L17.9808 35.4597C17.6638 35.6428 17.2569 35.5336 17.0737 35.2166C16.8903 34.8991 16.4841 34.7902 16.1666 34.9736C15.8491 35.157 15.7401 35.5632 15.9235 35.8807C16.4701 36.8275 17.6893 37.1613 18.6449 36.6098L19.7951 35.9458C20.1126 35.7624 20.2215 35.3564 20.0381 35.0387Z" fill="#5866EB"/>
<path d="M46.0131 17.054L42.3127 19.1131C41.9924 19.2916 41.8769 19.696 42.0554 20.0163C42.2333 20.3364 42.6375 20.4524 42.9586 20.2736L46.6587 18.2145C46.9793 18.0361 47.0945 17.6317 46.916 17.3113C46.7378 16.9907 46.3334 16.8755 46.0131 17.054Z" fill="#5866EB"/>
<path d="M45.6249 23.9317L43.0592 23.2442C42.7048 23.1493 42.3406 23.3594 42.2457 23.7138C42.1507 24.0681 42.3611 24.432 42.7155 24.527L45.2814 25.2144C45.6379 25.3101 46.0002 25.0966 46.0947 24.7449C46.1896 24.3905 45.9792 24.0263 45.6249 23.9317Z" fill="#5866EB"/>
<path d="M39.1773 14.6412L38.4891 17.2072C38.3942 17.5616 38.6043 17.9255 38.9586 18.0207C39.3127 18.1154 39.6769 17.9058 39.7721 17.5512L40.46 14.9852C40.555 14.6309 40.3449 14.2667 39.9905 14.1717C39.6364 14.0768 39.2722 14.2869 39.1773 14.6412Z" fill="#5866EB"/>
</svg>
