<svg width="60" height="61" viewBox="0 0 60 61" fill="none" xmlns="http://www.w3.org/2000/svg">
<rect y="0.148926" width="60" height="60" rx="4" fill="white"/>
<path d="M17.2499 26.6963C16.2979 26.6963 15.5234 27.4708 15.5234 28.4228C15.5234 29.3748 16.2979 30.1493 17.2499 30.1493C18.202 30.1493 18.9764 29.3748 18.9764 28.4228C18.9764 27.4708 18.2019 26.6963 17.2499 26.6963ZM17.2499 28.8212C17.0302 28.8212 16.8515 28.6425 16.8515 28.4228C16.8515 28.203 17.0302 28.0243 17.2499 28.0243C17.4697 28.0243 17.6484 28.203 17.6484 28.4228C17.6484 28.6425 17.4695 28.8212 17.2499 28.8212Z" fill="#39C0FA"/>
<path d="M44.7416 24.5714H37.7823L36.113 19.1306C36.0274 18.8518 35.7698 18.6614 35.4781 18.6614H24.5213C24.2296 18.6614 23.972 18.8518 23.8864 19.1306L22.2171 24.5714H20.5646V23.1105C20.5646 22.7438 20.2672 22.4465 19.9005 22.4465H16.1819C15.8152 22.4465 15.5179 22.7438 15.5179 23.1105V24.5714H15.2577C14.0128 24.5714 13 25.5842 13 26.8291V44.8912C13 46.1362 14.0128 47.149 15.2577 47.149H44.7415C45.9864 47.149 46.9992 46.1362 46.9992 44.8912V26.8291C46.9993 25.5842 45.9865 24.5714 44.7416 24.5714ZM25.0122 19.9895H34.9873L36.3931 24.5714H23.6064L25.0122 19.9895ZM16.8461 23.7745H19.2367V24.5714H16.8461V23.7745ZM45.6712 44.8912C45.6712 45.4039 45.2542 45.8209 44.7415 45.8209H44.3265V41.1781C44.3265 40.8114 44.0291 40.5141 43.6624 40.5141C43.2957 40.5141 42.9984 40.8114 42.9984 41.1781V45.8209H15.2579C14.7452 45.8209 14.3282 45.4038 14.3282 44.8912V26.8291C14.3282 26.3165 14.7452 25.8995 15.2579 25.8995H44.7416C45.2542 25.8995 45.6713 26.3165 45.6713 26.8291V44.8912H45.6712Z" fill="#39C0FA"/>
<path d="M21.5025 35.1462C21.5015 35.1462 21.5008 35.1462 21.4998 35.1462C21.1343 35.1462 20.8372 35.4418 20.8358 35.8077L20.8357 35.8601C20.8357 36.2268 21.1331 36.5242 21.4998 36.5242C21.8665 36.5242 22.1638 36.2268 22.1638 35.8601L22.164 35.8129C22.1653 35.4462 21.8692 35.1476 21.5025 35.1462Z" fill="#39C0FA"/>
<path d="M29.9997 26.6963C28.0895 26.6963 26.2589 27.2783 24.7057 28.3793C23.1871 29.4558 22.0446 30.944 21.4018 32.6829C21.2746 33.0269 21.4504 33.4088 21.7944 33.536C22.1382 33.6631 22.5203 33.4874 22.6475 33.1433C23.7794 30.0816 26.734 28.0244 29.9997 28.0244C34.3202 28.0244 37.8354 31.5396 37.8354 35.8602C37.8354 40.1807 34.3202 43.6959 29.9997 43.6959C26.6376 43.6959 23.6544 41.5581 22.5764 38.3762C22.4588 38.0288 22.0818 37.8427 21.7343 37.9603C21.387 38.0779 21.2008 38.455 21.3185 38.8023C22.5793 42.5238 26.0679 45.024 29.9996 45.024C35.0526 45.024 39.1634 40.9131 39.1634 35.8602C39.1634 30.8072 35.0526 26.6963 29.9997 26.6963Z" fill="#39C0FA"/>
<path d="M29.9996 29.917C26.7225 29.917 24.0564 32.5831 24.0564 35.8602C24.0564 39.1374 26.7225 41.8034 29.9996 41.8034C33.2768 41.8034 35.9429 39.1374 35.9429 35.8602C35.9429 32.5831 33.2768 29.917 29.9996 29.917ZM29.9996 40.4753C27.4549 40.4753 25.3845 38.405 25.3845 35.8602C25.3845 33.3155 27.4549 31.2451 29.9996 31.2451C32.5444 31.2451 34.6147 33.3155 34.6147 35.8602C34.6147 38.405 32.5444 40.4753 29.9996 40.4753Z" fill="#39C0FA"/>
<path d="M29.9996 32.8782C28.3553 32.8782 27.0176 34.2159 27.0176 35.8601C27.0176 36.2268 27.3149 36.5242 27.6816 36.5242C28.0483 36.5242 28.3457 36.2268 28.3457 35.8601C28.3457 34.9482 29.0877 34.2063 29.9996 34.2063C30.3662 34.2063 30.6636 33.9089 30.6636 33.5422C30.6636 33.1755 30.3662 32.8782 29.9996 32.8782Z" fill="#39C0FA"/>
<path d="M42.882 27.7588H39.429C39.0623 27.7588 38.7649 28.0562 38.7649 28.4229C38.7649 28.7895 39.0623 29.0869 39.429 29.0869H42.882C43.2487 29.0869 43.5461 28.7895 43.5461 28.4229C43.5461 28.0562 43.2487 27.7588 42.882 27.7588Z" fill="#39C0FA"/>
<path d="M29.9998 13.1489C29.6331 13.1489 29.3357 13.4463 29.3357 13.813V15.9076C29.3357 16.2743 29.633 16.5717 29.9998 16.5717C30.3665 16.5717 30.6638 16.2743 30.6638 15.9076V13.813C30.6638 13.4463 30.3665 13.1489 29.9998 13.1489Z" fill="#39C0FA"/>
<path d="M34.5134 15.5733C34.254 15.3141 33.8336 15.3141 33.5742 15.5733L32.5495 16.5981C32.2902 16.8574 32.2902 17.2779 32.5495 17.5372C32.6792 17.6669 32.8491 17.7317 33.0191 17.7317C33.1891 17.7317 33.359 17.6669 33.4887 17.5372L34.5134 16.5125C34.7727 16.2532 34.7727 15.8327 34.5134 15.5733Z" fill="#39C0FA"/>
<path d="M27.4496 16.598L26.4249 15.5733C26.1655 15.3141 25.7452 15.3141 25.4857 15.5733C25.2264 15.8327 25.2264 16.2531 25.4857 16.5125L26.5105 17.5372C26.6402 17.6668 26.8101 17.7317 26.98 17.7317C27.15 17.7317 27.3199 17.6668 27.4496 17.5372C27.7089 17.2779 27.7089 16.8574 27.4496 16.598Z" fill="#39C0FA"/>
<path d="M32.1247 21.583H27.8748C27.5081 21.583 27.2107 21.8804 27.2107 22.2471C27.2107 22.6138 27.5081 22.9111 27.8748 22.9111H32.1247C32.4914 22.9111 32.7888 22.6138 32.7888 22.2471C32.7888 21.8804 32.4914 21.583 32.1247 21.583Z" fill="#39C0FA"/>
<path d="M44.1318 38.3843C44.0083 38.2607 43.837 38.1897 43.6624 38.1897C43.4877 38.1897 43.3164 38.2607 43.1929 38.3843C43.0693 38.5084 42.9983 38.6791 42.9983 38.8538C42.9983 39.0284 43.0693 39.1997 43.1929 39.3232C43.3164 39.4474 43.4877 39.5178 43.6624 39.5178C43.837 39.5178 44.0083 39.4468 44.1318 39.3232C44.2553 39.1997 44.3264 39.0284 44.3264 38.8538C44.3264 38.6791 44.2554 38.5084 44.1318 38.3843Z" fill="#39C0FA"/>
</svg>
