<svg width="60" height="61" viewBox="0 0 60 61" fill="none" xmlns="http://www.w3.org/2000/svg">
<rect y="0.148926" width="60" height="60" rx="4" fill="white"/>
<path d="M44.9077 18.4843H35.1785C34.8123 16.9151 33.8185 16.0782 32.5108 15.8689C31.36 13.6197 29.3723 13.1489 27.0185 13.1489C26.0769 13.1489 22.8862 13.3058 21.0554 15.6597C19.6954 17.3858 19.3292 19.8443 20.0092 23.0351C19.2246 23.4535 19.1723 24.3428 19.4338 25.1797C19.5908 25.9643 20.1138 28.3705 21.4215 28.632C21.5785 29.2074 21.8923 30.2535 22.5723 31.2997V33.9151L15.9815 36.4782C14.2031 37.1582 13 38.8843 13 40.8197V46.1028C13 46.4166 13.2092 46.6259 13.5231 46.6259H41.2462C41.56 46.6259 41.7692 46.4166 41.7692 46.1028V42.9643H44.9077C45.7969 42.9643 46.4769 42.2843 46.4769 41.3951V20.0535C46.4769 19.1643 45.7446 18.4843 44.9077 18.4843ZM22.1015 27.6905C21.5262 27.3243 21.5262 28.5797 20.48 24.9182C20.1662 23.8197 20.7415 23.9243 20.6892 23.9243C21.0031 23.9243 21.2646 23.6105 21.2123 23.2966C20.4277 20.2105 20.6892 17.8566 21.8923 16.3397C23.1477 14.7705 25.5015 14.0905 27.3323 14.1951H27.3846C30.68 14.0382 31.6738 16.4443 31.6738 16.4966C31.9354 17.1766 32.8246 16.4443 33.7138 17.6474C34.2369 18.3797 34.6554 19.9489 33.6092 23.192C33.5569 23.3489 33.6092 23.5058 33.6615 23.6628C33.9754 24.0812 34.6554 23.5582 34.2892 24.8658C34.2892 24.9182 33.7138 27.5858 33.0338 27.5858C32.9815 27.5858 32.8246 27.5335 32.6154 27.6382C32.5108 27.6905 32.4062 27.8474 32.4062 28.0043C32.3538 28.2135 31.4123 33.0782 27.3323 33.2351C23.2523 33.0782 22.3108 28.2135 22.2585 28.0043C22.3108 27.8997 22.2062 27.7951 22.1015 27.6905ZM29.5292 45.5797H25.2923L26.8092 41.1335C26.9662 40.6628 26.5477 40.5582 25.5015 39.0935L27.4369 38.5705L29.32 39.0935C27.5938 41.9182 27.3846 39.0412 29.5292 45.5797ZM22.8862 34.9089L26.2862 37.7858L23.0431 38.6751L21.6831 35.3797L22.8862 34.9089ZM28.4831 37.7858L31.8308 34.8566L32.9815 35.3274L31.5692 38.6751L28.4831 37.7858ZM31.2031 32.6597V34.072L27.3846 37.3674L23.5662 34.1766V32.6597C25.7108 34.8043 28.9015 34.9612 31.2031 32.6597ZM14.0462 40.8197C14.0462 39.3551 14.9877 37.9951 16.3477 37.472L20.6892 35.7982L22.2585 39.512C22.3631 39.7212 22.52 39.8258 22.7292 39.8258H22.8862L24.4031 39.4074L25.7108 41.0812L24.1415 45.5797H14.0462V40.8197ZM40.7231 45.5797H30.6277L29.0585 41.0812L30.3662 39.4074L31.7262 39.7735H31.8831C32.0923 39.7735 32.3015 39.6689 32.3538 39.4597L33.9231 35.6935L38.3692 37.4197C39.7292 37.9428 40.6708 39.3028 40.6708 40.7674V45.5797H40.7231ZM45.4308 41.3951C45.4308 41.7089 45.2215 41.9182 44.9077 41.9182H41.7692V40.7674C41.7692 38.8843 40.5662 37.1059 38.7877 36.4258L32.2492 33.9151V31.2997C32.8769 30.2535 33.2431 29.2074 33.4 28.632C34.6554 28.3705 35.2308 25.9643 35.3877 25.1797C35.6492 24.3428 35.5969 23.5058 34.8646 23.0351C35.2831 21.6751 35.44 20.472 35.44 19.4782H45.0123C45.3262 19.4782 45.5354 19.6874 45.5354 20.0012V41.3951H45.4308Z" fill="#0ECD73"/>
<path d="M43.3385 29.1489H41.2462C40.9324 29.1489 40.7231 29.3582 40.7231 29.672C40.7231 29.9858 40.9324 30.1951 41.2462 30.1951H43.3385C43.6524 30.1951 43.8616 29.9858 43.8616 29.672C43.8616 29.3582 43.6524 29.1489 43.3385 29.1489Z" fill="#0ECD73"/>
<path d="M43.3385 29.1489H41.2462C40.9324 29.1489 40.7231 29.3582 40.7231 29.672C40.7231 29.9858 40.9324 30.1951 41.2462 30.1951H43.3385C43.6524 30.1951 43.8616 29.9858 43.8616 29.672C43.8616 29.3582 43.6524 29.1489 43.3385 29.1489Z" fill="#0ECD73"/>
<path d="M43.3385 29.1489H41.2462C40.9324 29.1489 40.7231 29.3582 40.7231 29.672C40.7231 29.9858 40.9324 30.1951 41.2462 30.1951H43.3385C43.6524 30.1951 43.8616 29.9858 43.8616 29.672C43.8616 29.3582 43.6524 29.1489 43.3385 29.1489Z" fill="#0ECD73"/>
<path d="M38.6309 29.1489H37.5847C36.9047 29.1489 36.9047 30.1951 37.5847 30.1951H38.6309C38.9447 30.1951 39.1539 29.9858 39.1539 29.672C39.1539 29.3582 38.9447 29.1489 38.6309 29.1489Z" fill="#0ECD73"/>
<path d="M38.6308 29.1683C38.16 29.2206 37.0615 28.9068 37.0615 29.6914C37.0615 30.0052 37.2708 30.2145 37.5846 30.2145H38.6308C38.9446 30.2145 39.1538 30.0052 39.1538 29.6914C39.1538 29.3775 38.9446 29.1683 38.6308 29.1683Z" fill="#0ECD73"/>
<path d="M38.6308 29.1489H37.5846C37.2708 29.1489 37.0615 29.3582 37.0615 29.672C37.0615 29.9858 37.2708 30.1951 37.5846 30.1951H38.6308C38.9446 30.1951 39.1538 29.9858 39.1538 29.672C39.1538 29.3582 38.9446 29.1489 38.6308 29.1489Z" fill="#0ECD73"/>
<path d="M43.3385 29.1489H41.2462C40.9324 29.1489 40.7231 29.3582 40.7231 29.672C40.7231 29.9858 40.9324 30.1951 41.2462 30.1951H43.3385C43.6524 30.1951 43.8616 29.9858 43.8616 29.672C43.8616 29.3582 43.6524 29.1489 43.3385 29.1489Z" fill="#0ECD73"/>
</svg>
