<svg width="60" height="60" viewBox="0 0 60 60" fill="none" xmlns="http://www.w3.org/2000/svg">
<rect width="60" height="60" rx="4" fill="white"/>
<path d="M29.8467 24.2715C27.5117 24.2715 25.751 25.239 25.751 26.5215V31.4786C25.751 32.7611 27.5117 33.7286 29.8467 33.7286C32.1804 33.7286 33.9403 32.7611 33.9403 31.4786V26.568C33.941 26.5525 33.9424 26.537 33.9424 26.5215C33.9424 25.239 32.1818 24.2715 29.8467 24.2715ZM32.816 31.4786C32.816 31.9265 31.632 32.6043 29.8467 32.6043C28.0601 32.6043 26.8746 31.9265 26.8746 31.4786V30.5772C27.6101 30.9962 28.6528 31.2494 29.8467 31.2494C31.0392 31.2494 32.082 30.9962 32.816 30.5779V31.4786ZM32.816 28.9994C32.816 29.4472 31.632 30.1251 29.8467 30.1251C28.0601 30.1251 26.8746 29.4472 26.8746 28.9994V28.1001C27.6101 28.5184 28.6528 28.7715 29.8467 28.7715C31.0392 28.7715 32.0813 28.5191 32.816 28.1015V28.9994ZM32.816 26.5215V26.5462C32.7745 26.994 31.601 27.648 29.8467 27.648C28.0601 27.648 26.8746 26.9701 26.8746 26.5215C26.8746 26.0737 28.0601 25.3951 29.8467 25.3951C31.613 25.3951 32.7914 26.0582 32.8174 26.5068C32.8167 26.5117 32.816 26.5166 32.816 26.5215ZM29.8467 24.2715C27.5117 24.2715 25.751 25.239 25.751 26.5215V31.4786C25.751 32.7611 27.5117 33.7286 29.8467 33.7286C32.1804 33.7286 33.9403 32.7611 33.9403 31.4786V26.568C33.941 26.5525 33.9424 26.537 33.9424 26.5215C33.9424 25.239 32.1818 24.2715 29.8467 24.2715ZM32.816 31.4786C32.816 31.9265 31.632 32.6043 29.8467 32.6043C28.0601 32.6043 26.8746 31.9265 26.8746 31.4786V30.5772C27.6101 30.9962 28.6528 31.2494 29.8467 31.2494C31.0392 31.2494 32.082 30.9962 32.816 30.5779V31.4786ZM32.816 28.9994C32.816 29.4472 31.632 30.1251 29.8467 30.1251C28.0601 30.1251 26.8746 29.4472 26.8746 28.9994V28.1001C27.6101 28.5184 28.6528 28.7715 29.8467 28.7715C31.0392 28.7715 32.0813 28.5191 32.816 28.1015V28.9994ZM32.816 26.5215V26.5462C32.7745 26.994 31.601 27.648 29.8467 27.648C28.0601 27.648 26.8746 26.9701 26.8746 26.5215C26.8746 26.0737 28.0601 25.3951 29.8467 25.3951C31.613 25.3951 32.7914 26.0582 32.8174 26.5068C32.8167 26.5117 32.816 26.5166 32.816 26.5215ZM29.8467 24.2715C27.5117 24.2715 25.751 25.239 25.751 26.5215V31.4786C25.751 32.7611 27.5117 33.7286 29.8467 33.7286C32.1804 33.7286 33.9403 32.7611 33.9403 31.4786V26.568C33.941 26.5525 33.9424 26.537 33.9424 26.5215C33.9424 25.239 32.1818 24.2715 29.8467 24.2715ZM32.816 31.4786C32.816 31.9265 31.632 32.6043 29.8467 32.6043C28.0601 32.6043 26.8746 31.9265 26.8746 31.4786V30.5772C27.6101 30.9962 28.6528 31.2494 29.8467 31.2494C31.0392 31.2494 32.082 30.9962 32.816 30.5779V31.4786ZM32.816 28.9994C32.816 29.4472 31.632 30.1251 29.8467 30.1251C28.0601 30.1251 26.8746 29.4472 26.8746 28.9994V28.1001C27.6101 28.5184 28.6528 28.7715 29.8467 28.7715C31.0392 28.7715 32.0813 28.5191 32.816 28.1015V28.9994ZM32.816 26.5215V26.5462C32.7745 26.994 31.601 27.648 29.8467 27.648C28.0601 27.648 26.8746 26.9701 26.8746 26.5215C26.8746 26.0737 28.0601 25.3951 29.8467 25.3951C31.613 25.3951 32.7914 26.0582 32.8174 26.5068C32.8167 26.5117 32.816 26.5166 32.816 26.5215ZM29.8467 24.2715C27.5117 24.2715 25.751 25.239 25.751 26.5215V31.4786C25.751 32.7611 27.5117 33.7286 29.8467 33.7286C32.1804 33.7286 33.9403 32.7611 33.9403 31.4786V26.568C33.941 26.5525 33.9424 26.537 33.9424 26.5215C33.9424 25.239 32.1818 24.2715 29.8467 24.2715ZM32.816 31.4786C32.816 31.9265 31.632 32.6043 29.8467 32.6043C28.0601 32.6043 26.8746 31.9265 26.8746 31.4786V30.5772C27.6101 30.9962 28.6528 31.2494 29.8467 31.2494C31.0392 31.2494 32.082 30.9962 32.816 30.5779V31.4786ZM32.816 28.9994C32.816 29.4472 31.632 30.1251 29.8467 30.1251C28.0601 30.1251 26.8746 29.4472 26.8746 28.9994V28.1001C27.6101 28.5184 28.6528 28.7715 29.8467 28.7715C31.0392 28.7715 32.0813 28.5191 32.816 28.1015V28.9994ZM32.816 26.5215V26.5462C32.7745 26.994 31.601 27.648 29.8467 27.648C28.0601 27.648 26.8746 26.9701 26.8746 26.5215C26.8746 26.0737 28.0601 25.3951 29.8467 25.3951C31.613 25.3951 32.7914 26.0582 32.8174 26.5068C32.8167 26.5117 32.816 26.5166 32.816 26.5215ZM43.6294 30.7958C43.0802 30.1455 42.4608 29.4908 41.7816 28.839C42.4545 28.1922 43.0676 27.5432 43.6125 26.8984C46.0355 24.029 46.8377 21.5272 45.8717 19.8524C44.9049 18.1776 42.3363 17.6207 38.64 18.2844C37.6676 18.4588 36.6431 18.7119 35.5835 19.0361C35.561 18.9447 35.5385 18.8533 35.5146 18.7626C36.5672 18.2662 37.297 17.1953 37.297 15.9564C37.297 14.2471 35.9063 12.857 34.1977 12.857C33.8117 12.857 33.4425 12.928 33.1015 13.0574C32.1263 11.7102 31.0083 11.0015 29.8467 11.0015C27.9131 11.0015 26.1462 12.947 24.8728 16.4795C24.6127 17.2009 24.3785 17.9722 24.1697 18.7858C23.4033 18.5755 22.6587 18.4033 21.9422 18.2753C18.2459 17.6115 15.6774 18.1684 14.7106 19.8426C13.7438 21.5167 14.5453 24.0191 16.969 26.8893C17.5167 27.5376 18.1341 28.1908 18.8105 28.8405C18.7345 28.9136 18.6586 28.9867 18.5841 29.0605C18.293 28.858 17.966 28.7055 17.6138 28.6105C16.8136 28.3961 15.9776 28.5065 15.2611 28.9206C14.5439 29.334 14.0306 30.002 13.8162 30.8022C13.6017 31.6023 13.7121 32.4376 14.1263 33.1548C14.3189 33.4888 14.5664 33.7722 14.8484 34.0028C14.1699 35.5244 14.1143 36.8483 14.6944 37.8524C15.3954 39.066 16.9374 39.6925 19.1402 39.6918C19.977 39.6918 20.9093 39.6018 21.926 39.419C22.6249 39.2938 23.3513 39.1272 24.0973 38.9233C24.3237 39.8444 24.5824 40.7141 24.8728 41.5199C26.1462 45.0531 27.9131 46.9987 29.8467 46.9987C31.7803 46.9987 33.5466 45.0531 34.8192 41.5199C35.1356 40.6417 35.4148 39.6883 35.6545 38.6744C35.8817 38.7433 36.1066 38.8087 36.3309 38.8712C36.2353 40.03 36.7971 41.1979 37.8687 41.8173C38.3559 42.0986 38.8882 42.2322 39.4142 42.2322C40.4857 42.2322 41.5306 41.676 42.1043 40.6832C42.2949 40.3534 42.4207 39.9983 42.4805 39.6341C44.1342 39.4619 45.307 38.848 45.8878 37.8426C46.8546 36.1684 46.0524 33.666 43.6294 30.7958ZM15.1001 32.5923C14.8357 32.1353 14.7654 31.603 14.9025 31.0933C15.0389 30.5835 15.3659 30.1581 15.8236 29.8944C16.1281 29.7187 16.4656 29.6287 16.808 29.6287C16.9795 29.6287 17.1525 29.6512 17.3227 29.6969C17.8324 29.8333 18.2592 30.1602 18.5236 30.618C19.0685 31.5608 18.7444 32.7723 17.8008 33.3172C16.8565 33.8615 15.645 33.5366 15.1001 32.5923ZM21.7277 38.313C18.5784 38.8783 16.3699 38.5056 15.6682 37.2906C15.2056 36.489 15.458 35.4259 15.837 34.5463C16.1527 34.6511 16.4838 34.7052 16.8178 34.7052C17.3438 34.7052 17.8753 34.5716 18.3626 34.2911C19.8434 33.4354 20.3517 31.5348 19.4967 30.0555C19.4581 29.988 19.4166 29.924 19.3737 29.8607C19.4602 29.7756 19.5481 29.6905 19.6367 29.6062C20.685 30.5441 21.8529 31.4708 23.1136 32.3652C23.2472 34.2918 23.4954 36.1326 23.8484 37.8264C23.1185 38.0268 22.4091 38.1906 21.7277 38.313ZM23.0356 30.921C22.1173 30.2404 21.2574 29.5436 20.467 28.8412C21.2644 28.1331 22.1285 27.4335 23.0496 26.7515C23.0159 27.4919 22.9983 28.2414 22.9983 28.9994C22.9983 29.6455 23.0109 30.2868 23.0356 30.921ZM23.1382 25.3002C21.8712 26.1967 20.6963 27.1283 19.6367 28.0762C18.9701 27.4384 18.364 26.7986 17.8275 26.1644C15.7631 23.7189 14.982 21.6201 15.6837 20.4051C16.3861 19.1894 18.5946 18.816 21.7432 19.3813C22.4393 19.5065 23.1642 19.6738 23.9109 19.8805C23.5453 21.5568 23.2852 23.3842 23.1382 25.3002ZM34.1977 13.9813C35.2868 13.9813 36.1727 14.8672 36.1727 15.9564C36.1727 17.0462 35.2868 17.9336 34.1977 17.9336C33.1071 17.9336 32.2205 17.0462 32.2205 15.9564C32.2205 14.8672 33.1071 13.9813 34.1977 13.9813ZM35.2882 23.8546C34.777 23.5333 34.2553 23.219 33.7231 22.9117C33.0157 22.5032 32.3049 22.1165 31.5954 21.7522C32.6691 21.2692 33.7287 20.8452 34.7595 20.4873C34.9802 21.5575 35.1567 22.6846 35.2882 23.8546ZM25.9303 16.8613C27.0152 13.8512 28.4426 12.1251 29.8467 12.1251C30.7742 12.1251 31.568 12.8753 32.1375 13.6424C31.4991 14.2105 31.0962 15.0367 31.0962 15.9564C31.0962 17.6664 32.4877 19.0572 34.1977 19.0572C34.275 19.0572 34.3517 19.0537 34.4276 19.048C34.4564 19.1591 34.4838 19.2716 34.5113 19.3848C33.1451 19.8538 31.7304 20.4339 30.3017 21.1124C28.5762 20.2926 26.8725 19.6162 25.2483 19.1043C25.4501 18.3119 25.6779 17.5609 25.9303 16.8613ZM24.9909 20.2012C26.2861 20.6132 27.6354 21.1335 29.0072 21.7515C28.2907 22.1186 27.5735 22.5088 26.8592 22.9215C25.9901 23.4236 25.1477 23.9446 24.337 24.4804C24.4833 22.9757 24.7027 21.5378 24.9909 20.2012ZM24.3054 33.183C25.1309 33.73 25.9894 34.2622 26.8746 34.7734C27.5841 35.1833 28.2963 35.5701 29.0072 35.935C27.6136 36.5629 26.2439 37.0909 24.9298 37.5065C24.6506 36.153 24.4411 34.7003 24.3054 33.183ZM33.7617 41.1388C32.6775 44.1489 31.2502 45.8751 29.8467 45.8751C28.4426 45.8751 27.0152 44.1489 25.9303 41.1388C25.6477 40.3548 25.3959 39.5062 25.1766 38.6069C26.8219 38.0915 28.5502 37.4059 30.3002 36.5741C31.7501 37.2625 33.1866 37.851 34.5823 38.327C34.3474 39.3311 34.0739 40.274 33.7617 41.1388ZM34.8192 37.221C33.7645 36.8568 32.6845 36.4251 31.5933 35.9343C32.2978 35.5715 33.0038 35.1876 33.7076 34.7819C34.2574 34.464 34.7974 34.1378 35.3255 33.8052C35.2017 34.9935 35.0323 36.1375 34.8192 37.221ZM35.4499 32.3898C34.7074 32.8764 33.9375 33.3503 33.1451 33.808C32.198 34.3551 31.2459 34.862 30.2995 35.3261C29.3475 34.8592 28.3906 34.3508 27.4371 33.8003C26.3079 33.1478 25.2244 32.463 24.2013 31.7556C24.1493 30.8528 24.1226 29.9317 24.1226 28.9994C24.1226 27.9531 24.1563 26.9216 24.221 25.9147C25.2342 25.2158 26.3051 24.5394 27.4209 23.8954C28.38 23.3413 29.344 22.8287 30.3009 22.3605C31.2523 22.8259 32.2085 23.335 33.1613 23.8848C33.9389 24.3341 34.6941 24.7989 35.4239 25.2763C35.5195 26.485 35.5688 27.7302 35.5688 28.9994C35.5688 30.1511 35.5287 31.2859 35.4499 32.3898ZM38.839 19.3905C41.9876 18.8251 44.1961 19.1985 44.8978 20.4149C45.5988 21.6299 44.8177 23.7287 42.7533 26.1728C42.2203 26.8042 41.6177 27.4398 40.9561 28.074C39.6406 26.8977 38.1373 25.739 36.4983 24.64C36.3549 23.0629 36.132 21.5505 35.8345 20.1344C36.878 19.8116 37.8849 19.562 38.839 19.3905ZM36.6066 26.0758C37.8863 26.9708 39.0689 27.8997 40.1264 28.8397C39.0745 29.7756 37.8982 30.7009 36.6249 31.5932C36.6699 30.7417 36.6931 29.8747 36.6931 28.9994C36.6931 28.0094 36.6635 27.0327 36.6066 26.0758ZM41.1312 40.1207C40.5856 41.0643 39.3741 41.3891 38.4312 40.8435C37.4876 40.2986 37.1634 39.0871 37.7077 38.1435C38.2526 37.2006 39.4641 36.8765 40.4077 37.42C40.8654 37.6844 41.1924 38.1112 41.3288 38.6209C41.4659 39.1307 41.3956 39.6637 41.1312 40.1207ZM44.914 37.2801C44.4506 38.083 43.4051 38.3959 42.4559 38.5056C42.4439 38.4473 42.4306 38.3882 42.4144 38.3298C42.2006 37.5304 41.6874 36.8617 40.9695 36.4469C39.4894 35.5933 37.5895 36.1023 36.7345 37.581V37.5817C36.6952 37.6492 36.66 37.7174 36.627 37.7863C36.3844 37.7188 36.1411 37.6478 35.895 37.5719C36.1812 36.1445 36.3935 34.6166 36.5271 33.0233C38.1556 31.9286 39.649 30.7755 40.9561 29.604C41.6248 30.2432 42.233 30.8851 42.7702 31.5215C44.8345 33.9662 45.6157 36.0651 44.914 37.2801ZM29.8467 24.2715C27.5117 24.2715 25.751 25.239 25.751 26.5215V31.4786C25.751 32.7611 27.5117 33.7286 29.8467 33.7286C32.1804 33.7286 33.9403 32.7611 33.9403 31.4786V26.568C33.941 26.5525 33.9424 26.537 33.9424 26.5215C33.9424 25.239 32.1818 24.2715 29.8467 24.2715ZM32.816 31.4786C32.816 31.9265 31.632 32.6043 29.8467 32.6043C28.0601 32.6043 26.8746 31.9265 26.8746 31.4786V30.5772C27.6101 30.9962 28.6528 31.2494 29.8467 31.2494C31.0392 31.2494 32.082 30.9962 32.816 30.5779V31.4786ZM32.816 28.9994C32.816 29.4472 31.632 30.1251 29.8467 30.1251C28.0601 30.1251 26.8746 29.4472 26.8746 28.9994V28.1001C27.6101 28.5184 28.6528 28.7715 29.8467 28.7715C31.0392 28.7715 32.0813 28.5191 32.816 28.1015V28.9994ZM32.816 26.5215V26.5462C32.7745 26.994 31.601 27.648 29.8467 27.648C28.0601 27.648 26.8746 26.9701 26.8746 26.5215C26.8746 26.0737 28.0601 25.3951 29.8467 25.3951C31.613 25.3951 32.7914 26.0582 32.8174 26.5068C32.8167 26.5117 32.816 26.5166 32.816 26.5215ZM29.8467 24.2715C27.5117 24.2715 25.751 25.239 25.751 26.5215V31.4786C25.751 32.7611 27.5117 33.7286 29.8467 33.7286C32.1804 33.7286 33.9403 32.7611 33.9403 31.4786V26.568C33.941 26.5525 33.9424 26.537 33.9424 26.5215C33.9424 25.239 32.1818 24.2715 29.8467 24.2715ZM32.816 31.4786C32.816 31.9265 31.632 32.6043 29.8467 32.6043C28.0601 32.6043 26.8746 31.9265 26.8746 31.4786V30.5772C27.6101 30.9962 28.6528 31.2494 29.8467 31.2494C31.0392 31.2494 32.082 30.9962 32.816 30.5779V31.4786ZM32.816 28.9994C32.816 29.4472 31.632 30.1251 29.8467 30.1251C28.0601 30.1251 26.8746 29.4472 26.8746 28.9994V28.1001C27.6101 28.5184 28.6528 28.7715 29.8467 28.7715C31.0392 28.7715 32.0813 28.5191 32.816 28.1015V28.9994ZM32.816 26.5215V26.5462C32.7745 26.994 31.601 27.648 29.8467 27.648C28.0601 27.648 26.8746 26.9701 26.8746 26.5215C26.8746 26.0737 28.0601 25.3951 29.8467 25.3951C31.613 25.3951 32.7914 26.0582 32.8174 26.5068C32.8167 26.5117 32.816 26.5166 32.816 26.5215ZM29.8467 24.2715C27.5117 24.2715 25.751 25.239 25.751 26.5215V31.4786C25.751 32.7611 27.5117 33.7286 29.8467 33.7286C32.1804 33.7286 33.9403 32.7611 33.9403 31.4786V26.568C33.941 26.5525 33.9424 26.537 33.9424 26.5215C33.9424 25.239 32.1818 24.2715 29.8467 24.2715ZM32.816 31.4786C32.816 31.9265 31.632 32.6043 29.8467 32.6043C28.0601 32.6043 26.8746 31.9265 26.8746 31.4786V30.5772C27.6101 30.9962 28.6528 31.2494 29.8467 31.2494C31.0392 31.2494 32.082 30.9962 32.816 30.5779V31.4786ZM32.816 28.9994C32.816 29.4472 31.632 30.1251 29.8467 30.1251C28.0601 30.1251 26.8746 29.4472 26.8746 28.9994V28.1001C27.6101 28.5184 28.6528 28.7715 29.8467 28.7715C31.0392 28.7715 32.0813 28.5191 32.816 28.1015V28.9994ZM32.816 26.5215V26.5462C32.7745 26.994 31.601 27.648 29.8467 27.648C28.0601 27.648 26.8746 26.9701 26.8746 26.5215C26.8746 26.0737 28.0601 25.3951 29.8467 25.3951C31.613 25.3951 32.7914 26.0582 32.8174 26.5068C32.8167 26.5117 32.816 26.5166 32.816 26.5215ZM29.8467 24.2715C27.5117 24.2715 25.751 25.239 25.751 26.5215V31.4786C25.751 32.7611 27.5117 33.7286 29.8467 33.7286C32.1804 33.7286 33.9403 32.7611 33.9403 31.4786V26.568C33.941 26.5525 33.9424 26.537 33.9424 26.5215C33.9424 25.239 32.1818 24.2715 29.8467 24.2715ZM32.816 31.4786C32.816 31.9265 31.632 32.6043 29.8467 32.6043C28.0601 32.6043 26.8746 31.9265 26.8746 31.4786V30.5772C27.6101 30.9962 28.6528 31.2494 29.8467 31.2494C31.0392 31.2494 32.082 30.9962 32.816 30.5779V31.4786ZM32.816 28.9994C32.816 29.4472 31.632 30.1251 29.8467 30.1251C28.0601 30.1251 26.8746 29.4472 26.8746 28.9994V28.1001C27.6101 28.5184 28.6528 28.7715 29.8467 28.7715C31.0392 28.7715 32.0813 28.5191 32.816 28.1015V28.9994ZM32.816 26.5215V26.5462C32.7745 26.994 31.601 27.648 29.8467 27.648C28.0601 27.648 26.8746 26.9701 26.8746 26.5215C26.8746 26.0737 28.0601 25.3951 29.8467 25.3951C31.613 25.3951 32.7914 26.0582 32.8174 26.5068C32.8167 26.5117 32.816 26.5166 32.816 26.5215ZM29.8467 24.2715C27.5117 24.2715 25.751 25.239 25.751 26.5215V31.4786C25.751 32.7611 27.5117 33.7286 29.8467 33.7286C32.1804 33.7286 33.9403 32.7611 33.9403 31.4786V26.568C33.941 26.5525 33.9424 26.537 33.9424 26.5215C33.9424 25.239 32.1818 24.2715 29.8467 24.2715ZM32.816 31.4786C32.816 31.9265 31.632 32.6043 29.8467 32.6043C28.0601 32.6043 26.8746 31.9265 26.8746 31.4786V30.5772C27.6101 30.9962 28.6528 31.2494 29.8467 31.2494C31.0392 31.2494 32.082 30.9962 32.816 30.5779V31.4786ZM32.816 28.9994C32.816 29.4472 31.632 30.1251 29.8467 30.1251C28.0601 30.1251 26.8746 29.4472 26.8746 28.9994V28.1001C27.6101 28.5184 28.6528 28.7715 29.8467 28.7715C31.0392 28.7715 32.0813 28.5191 32.816 28.1015V28.9994ZM32.816 26.5215V26.5462C32.7745 26.994 31.601 27.648 29.8467 27.648C28.0601 27.648 26.8746 26.9701 26.8746 26.5215C26.8746 26.0737 28.0601 25.3951 29.8467 25.3951C31.613 25.3951 32.7914 26.0582 32.8174 26.5068C32.8167 26.5117 32.816 26.5166 32.816 26.5215Z" fill="#428DFF"/>
<path d="M36.1727 15.9563C36.1727 17.0461 35.2868 17.9335 34.1976 17.9335C33.1071 17.9335 32.2205 17.0461 32.2205 15.9563C32.2205 14.8671 33.1071 13.9812 34.1976 13.9812C35.2868 13.9812 36.1727 14.8671 36.1727 15.9563Z" fill="#E8EDFC"/>
<path d="M41.1312 40.1205C40.5855 41.0641 39.374 41.389 38.4312 40.8433C37.4876 40.2984 37.1634 39.0869 37.7076 38.1433C38.2526 37.2004 39.464 36.8763 40.4076 37.4198C40.8654 37.6842 41.1923 38.111 41.3287 38.6208C41.4658 39.1305 41.3955 39.6635 41.1312 40.1205Z" fill="#E8EDFC"/>
<path d="M17.8007 33.3173C16.8564 33.8615 15.6449 33.5366 15.1 32.5923C14.8357 32.1353 14.7653 31.603 14.9024 31.0933C15.0389 30.5835 15.3658 30.1581 15.8235 29.8944C16.128 29.7187 16.4655 29.6287 16.8079 29.6287C16.9795 29.6287 17.1524 29.6512 17.3226 29.6969C17.8324 29.8333 18.2592 30.1602 18.5235 30.618C19.0685 31.5609 18.7443 32.7723 17.8007 33.3173Z" fill="#E8EDFC"/>
<path d="M32.8173 26.5067C32.8166 26.5116 32.8159 26.5165 32.8159 26.5214V26.546C32.7744 26.9939 31.6009 27.6478 29.8466 27.6478C28.06 27.6478 26.8745 26.97 26.8745 26.5214C26.8745 26.0735 28.06 25.395 29.8466 25.395C31.6129 25.395 32.7913 26.0581 32.8173 26.5067Z" fill="#E8EDFC"/>
</svg>
