<svg width="60" height="60" viewBox="0 0 60 60" fill="none" xmlns="http://www.w3.org/2000/svg">
<rect width="60" height="60" rx="4" fill="white"/>
<g clip-path="url(#clip0_18_830)">
<path d="M26.2542 30.4971C26.4186 30.4971 26.571 30.4109 26.6558 30.2701L27.5014 28.8654L28.6221 30.6461C28.7097 30.7854 28.8628 30.8681 29.0286 30.8651C29.1932 30.8617 29.3439 30.7722 29.4256 30.6293L31.2297 27.4771L33.6527 31.8927C33.7336 32.0401 33.8872 32.1329 34.0553 32.1359C34.0581 32.1359 34.0609 32.1359 34.0636 32.1359C34.2286 32.1359 34.3817 32.0491 34.4663 31.9071L35.9759 29.3729H39.616C39.8749 29.3729 40.0848 29.1631 40.0848 28.9042C40.0848 28.6453 39.8749 28.4354 39.616 28.4354H35.7095C35.5443 28.4354 35.3913 28.5224 35.3068 28.6643L34.0803 30.7232L31.6493 26.2928C31.5676 26.1441 31.4121 26.0511 31.2425 26.0496C31.2411 26.0496 31.2397 26.0496 31.2383 26.0496C31.0703 26.0496 30.915 26.1395 30.8314 26.2854L28.9997 29.4861L27.8893 27.7216C27.8034 27.5852 27.6536 27.5026 27.4926 27.5026C27.4911 27.5026 27.4895 27.5026 27.4879 27.5026C27.3252 27.5041 27.1749 27.5901 27.091 27.7295L25.9893 29.5596H23.3252C23.0663 29.5596 22.8564 29.7694 22.8564 30.0283C22.8564 30.2872 23.0663 30.4971 23.3252 30.4971H26.2542Z" fill="#F8B81F"/>
<path d="M40.4434 17.4873C40.1845 17.4873 39.9747 17.6972 39.9747 17.9561V19.3388H38.592C38.3332 19.3388 38.1233 19.5487 38.1233 19.8076C38.1233 20.0664 38.3332 20.2763 38.592 20.2763H39.9747V21.6591C39.9747 21.918 40.1845 22.1279 40.4434 22.1279C40.7023 22.1279 40.9122 21.918 40.9122 21.6591V20.2763H42.2948C42.5537 20.2763 42.7635 20.0664 42.7635 19.8076C42.7635 19.5487 42.5537 19.3388 42.2948 19.3388H40.9122V17.9561C40.9122 17.6972 40.7023 17.4873 40.4434 17.4873Z" fill="#F8B81F"/>
<path d="M42.0975 33.5476C44.3812 31.1062 45.0357 27.4144 43.7804 24.2494C45.1274 23.2341 46 21.6209 46 19.8075C46 16.7435 43.5074 14.2507 40.4435 14.2507C39.1849 14.2507 37.9525 14.6827 36.9731 15.467C36.7711 15.6288 36.7384 15.9238 36.9002 16.1259C37.0621 16.3279 37.3571 16.3605 37.5591 16.1987C38.3846 15.5376 39.382 15.1882 40.4434 15.1882C42.9903 15.1882 45.0624 17.2605 45.0624 19.8075C45.0624 22.3557 42.9904 24.4287 40.4434 24.4287C38.072 24.4287 36.1131 22.6325 35.8529 20.3294C35.8524 20.324 35.8516 20.3187 35.8509 20.3133C35.8327 20.1471 35.8226 19.9785 35.8226 19.8075C35.8226 19.084 35.9852 18.3922 36.3057 17.751C36.4214 17.5195 36.3276 17.2379 36.0961 17.1221C35.8643 17.0064 35.5829 17.1002 35.4671 17.3317C35.0809 18.1042 34.8851 18.9372 34.8851 19.8075C34.8851 19.8862 34.8872 19.9645 34.8904 20.0425C33.7068 20.4655 32.602 21.1614 31.6761 22.0719L31.158 22.5813C31.1555 22.5788 31.1536 22.5769 31.1511 22.5744L30.6418 22.0725C28.9936 20.4475 26.8361 19.5394 24.7218 19.5832C22.9624 19.6194 21.4055 20.3088 20.2199 21.5763C20.043 21.7657 20.053 22.0625 20.2424 22.2394C20.4317 22.4157 20.728 22.4063 20.9049 22.2169C21.9136 21.1382 23.2399 20.5513 24.7411 20.5207C26.6036 20.4825 28.5143 21.2919 29.9836 22.74L30.4936 23.2425C30.7399 23.485 30.9499 23.6057 31.1593 23.6057C31.3668 23.6057 31.5736 23.4869 31.8155 23.2494L32.3336 22.74C33.1122 21.9748 34.0305 21.3789 35.0136 20.9967C35.5597 23.4922 37.7866 25.3661 40.4434 25.3661C41.3529 25.3661 42.2121 25.1464 42.9707 24.7571C44.0094 27.5509 43.413 30.765 41.4161 32.9031L34.6869 39.7914L34.13 39.9001C33.995 39.9264 33.8756 39.9501 33.7669 39.972C33.0606 40.1151 32.8919 40.1489 32.065 40.0214L28.0556 39.2882C27.5094 39.0995 27.5644 38.6645 27.595 38.5339C27.6431 38.3307 27.8319 38.0026 28.2375 38.0639C28.2413 38.0645 28.245 38.0651 28.2487 38.0657C28.4294 38.0889 28.6231 38.1139 28.8256 38.1395C29.585 38.2376 30.445 38.3482 31.2087 38.4264C32.7712 38.5845 33.655 37.7645 33.8388 36.8807C34.0256 35.9801 33.5125 34.7826 31.9438 34.282C31.925 34.2764 31.9056 34.2714 31.8856 34.2676L29.3038 33.7939C27.9025 33.537 26.8125 33.7351 25.1625 34.0351C24.7263 34.1145 24.2313 34.2039 23.68 34.2945L22.4563 34.4957L22.0794 34.1101L20.9012 32.9039C18.6994 30.5432 18.2112 26.8457 19.7162 23.9101C19.8344 23.6801 19.7431 23.3976 19.5131 23.2795C19.2825 23.1614 19 23.252 18.8819 23.4826C17.1994 26.7651 17.7494 30.9039 20.22 33.5476C20.2225 33.5501 20.225 33.5526 20.2269 33.5551L21.3269 34.6814L19.2783 35.0181V34.9646C19.2783 34.6027 18.9589 34.3082 18.5664 34.3082H14.71C14.3185 34.3082 14 34.6027 14 34.9646V43.2124C14 43.5744 14.3185 43.8688 14.71 43.8688H18.5665C18.959 43.8688 19.2783 43.5744 19.2783 43.2124V43.1556L23.4937 44.3026L27.385 45.3601C28.2731 45.6357 28.9888 45.7495 29.6419 45.7495C30.6756 45.7495 31.5538 45.4657 32.7138 45.0907C32.8169 45.0576 32.9225 45.0232 33.0312 44.9882L40.6994 42.5295C41.5881 42.2445 42.2206 41.6045 42.3906 40.8176C42.5225 40.2076 42.3388 39.6051 41.8988 39.2057C41.5425 38.8826 40.705 38.4189 39.0906 38.9295L36.3069 39.4739L42.0906 33.5551C42.0931 33.5526 42.095 33.5501 42.0975 33.5476ZM14.9375 42.9313V35.2457H18.3408V35.5677C18.3408 35.5687 18.3406 35.5697 18.3406 35.5707V42.5419C18.3406 42.5425 18.3408 42.543 18.3408 42.5435V42.9313H14.9375ZM39.35 39.8307C40.215 39.5532 40.9144 39.5782 41.2694 39.9001C41.4606 40.0739 41.5356 40.3364 41.4744 40.6189C41.3756 41.0745 40.9787 41.4551 40.4131 41.6364L32.7444 44.0957C32.635 44.1307 32.5287 44.1651 32.425 44.1989C30.5906 44.7914 29.67 45.0895 27.655 44.4626C27.65 44.4607 27.6444 44.4595 27.6388 44.4576L19.2783 42.1839V35.9682L23.8319 35.2201C24.3906 35.1282 24.89 35.037 25.3306 34.957C26.9337 34.6657 27.9019 34.4901 29.1344 34.7164L31.6863 35.1845C32.6813 35.5114 33.0244 36.192 32.9206 36.6901C32.8013 37.2657 32.1662 37.5814 31.3037 37.4939C30.5525 37.417 29.6988 37.307 28.9456 37.2101C28.7444 37.1839 28.5512 37.1589 28.3719 37.1364C27.4756 37.0039 26.8438 37.6307 26.6825 38.3201C26.6481 38.467 26.6344 38.6232 26.6444 38.7807C26.6788 39.3507 27.0194 39.942 27.7969 40.1901C27.8162 40.1964 28.075 40.2445 28.075 40.2445L31.9031 40.9445C31.9069 40.9451 31.9112 40.9457 31.9156 40.9464C32.7056 41.0695 33.0475 41.0589 33.5319 40.9732C33.6588 40.9507 34.1763 40.8457 34.3094 40.8201L35.1531 40.6551C35.1531 40.6551 39.3325 39.8364 39.35 39.8307Z" fill="#F8B81F"/>
</g>
<defs>
<clipPath id="clip0_18_830">
<rect width="32" height="32" fill="white" transform="translate(14 14)"/>
</clipPath>
</defs>
</svg>
