<svg width="30" height="33" viewBox="0 0 30 33" fill="none" xmlns="http://www.w3.org/2000/svg">
<path d="M10.9088 5.72803H13.6361C14.0126 5.72803 14.3179 6.0333 14.3179 6.40985V15.955H12.9543V7.09167H11.5907V15.9551H10.2271V6.40985C10.2271 6.0333 10.5323 5.72803 10.9088 5.72803Z" fill="#5866EB"/>
<path d="M10.9088 0.273682H16.3631C22.0087 0.280073 26.5837 4.85511 26.5901 10.5007V11.6468L29.9146 17.6712C29.9699 17.7721 29.999 17.8854 29.9991 18.0005C30.0312 19.098 29.1676 20.0138 28.07 20.0459C28.0313 20.047 27.9925 20.047 27.9537 20.0459C27.4579 20.0734 26.9822 20.2516 26.5902 20.5565V22.773C26.633 24.2364 25.4814 25.4574 24.018 25.5002C23.9663 25.5018 23.9146 25.5018 23.863 25.5002H19.7913C19.6747 25.5084 19.0904 25.6093 19.0904 26.8638V32.3182C19.0904 32.6947 18.7851 33 18.4086 33H4.09083C3.71429 33 3.40902 32.6947 3.40902 32.3182V22.0912C3.37693 20.9936 4.2406 20.0779 5.33814 20.0458C5.37688 20.0446 5.41567 20.0446 5.45441 20.0458H18.4086V7.09168C18.4086 6.71514 18.7139 6.40986 19.0904 6.40986H21.1358V7.77344H19.7722V20.7276C19.7722 21.1042 19.467 21.4094 19.0904 21.4094H5.46265C5.11897 21.3725 4.81037 21.6211 4.77342 21.9648C4.76888 22.0068 4.76863 22.0492 4.77265 22.0913V31.6364H17.7268V26.8638C17.7268 24.7066 19.0645 24.1366 19.7722 24.1366H23.863C24.5705 24.1821 25.181 23.6454 25.2265 22.9378C25.23 22.8829 25.23 22.8279 25.2265 22.7729V20.2312C25.2267 20.0362 25.3103 19.8505 25.4563 19.7212C26.1398 19.0907 27.0246 18.7226 27.9537 18.6822C28.282 18.7221 28.5803 18.4884 28.6202 18.1602C28.6206 18.1572 28.6209 18.1541 28.6212 18.1511L25.3111 12.1513C25.2559 12.0503 25.2268 11.9371 25.2265 11.822V10.5007C25.2209 5.60788 21.2559 1.64294 16.3631 1.63726H10.9088C5.82392 1.63726 1.36362 5.77918 1.36362 10.5007V20.7276H4.76837e-05V10.5007C4.76837e-05 5.05306 5.09781 0.273682 10.9088 0.273682Z" fill="#5866EB"/>
<path d="M13.6359 8.45508H16.3631C16.7396 8.45508 17.0449 8.76035 17.0449 9.1369V18.682H15.6813V9.81865H14.3178V18.682H12.9542V9.1369C12.9541 8.76035 13.2593 8.45508 13.6359 8.45508Z" fill="#5866EB"/>
<path d="M8.1813 12.5459H10.9085C11.2851 12.5459 11.5903 12.8512 11.5903 13.2277V18.6821H10.2268V13.9095H8.86318V18.6821H7.49961V13.2277C7.49948 12.8512 7.80469 12.5459 8.1813 12.5459Z" fill="#5866EB"/>
<path d="M5.45425 9.8186H8.18146C8.55801 9.8186 8.86328 10.1239 8.86328 10.5004V18.682H7.49971V11.1822H6.13613V18.682H4.77256V10.5004C4.77243 10.1239 5.07771 9.8186 5.45425 9.8186Z" fill="#5866EB"/>
</svg>
