<svg width="35" height="35" viewBox="0 0 35 35" fill="none" xmlns="http://www.w3.org/2000/svg">
<path d="M1.07937 25.7358L4.50629 23.9933L6.68729 18.2239C6.71296 18.1557 6.75219 18.0936 6.80253 18.0415C6.85286 17.9894 6.91322 17.9484 6.97983 17.9211L20.5125 12.42C20.6071 12.3817 20.7107 12.3723 20.8105 12.3931C20.9102 12.4139 21.0019 12.4638 21.0741 12.5369L22.8789 14.3723C22.9498 14.4458 22.9981 14.5387 23.0181 14.6396C23.038 14.7405 23.0287 14.8452 22.9913 14.9408L17.5819 28.7028C17.555 28.7706 17.5147 28.8319 17.4635 28.8831C17.4122 28.9343 17.3512 28.9742 17.2841 29.0003L11.6109 31.2183L9.89741 34.7033C9.86133 34.7801 9.80762 34.847 9.7408 34.8983C9.67397 34.9496 9.596 34.9839 9.51345 34.9981C9.48565 35.0008 9.45767 35.0008 9.42987 34.9981C9.29154 34.9975 9.1591 34.9412 9.06158 34.8414L0.943544 26.5858C0.883797 26.5272 0.838652 26.4549 0.811852 26.375C0.785051 26.2951 0.777369 26.2098 0.789438 26.1262C0.803455 26.0423 0.837112 25.963 0.887569 25.8951C0.938026 25.8271 1.00381 25.7725 1.07937 25.7358ZM21.8968 14.8717L21.6069 14.5795L14.8706 21.43C15.3146 22.0697 15.5063 22.8556 15.4079 23.6322C15.3095 24.4087 14.9282 25.1195 14.3393 25.6239C13.7504 26.1283 12.9968 26.3896 12.2275 26.3562C11.4583 26.3228 10.7294 25.997 10.185 25.4434C9.64052 24.8897 9.3202 24.1484 9.28732 23.3662C9.25444 22.5839 9.51141 21.8175 10.0074 21.2186C10.5034 20.6198 11.2023 20.2319 11.966 20.1319C12.7296 20.0318 13.5024 20.2268 14.1314 20.6783L20.8677 13.8278L20.5804 13.533L7.58059 18.8216L5.53018 24.2456L11.3627 30.177L16.6964 28.0919L21.8968 14.8717ZM12.3605 21.167C11.891 21.1677 11.4363 21.334 11.0738 21.6374C10.7113 21.9408 10.4634 22.3627 10.3725 22.8311C10.2815 23.2995 10.3531 23.7855 10.5749 24.2063C10.7968 24.627 11.1553 24.9566 11.5892 25.1387C12.0232 25.3209 12.5059 25.3444 12.955 25.2052C13.4041 25.0661 13.7919 24.7729 14.0523 24.3756C14.3127 23.9783 14.4296 23.5015 14.383 23.0264C14.3365 22.5513 14.1294 22.1073 13.7971 21.77C13.4157 21.3834 12.899 21.1665 12.3605 21.167ZM9.28621 33.5691L10.5922 30.9128L4.81189 25.0345L2.19991 26.3627L9.28621 33.5691Z" fill="#EE4A62"/>
<path d="M24.2319 29.4199C24.3318 29.3238 24.4641 29.2703 24.6015 29.2703C24.739 29.2703 24.8712 29.3238 24.9711 29.4199L25.6346 30.0946C27.405 27.6509 28.3817 24.7065 28.4285 21.6716C28.4753 18.6367 27.59 15.6625 25.8958 13.1636C25.3882 13.4476 24.8037 13.5568 24.23 13.4746C23.6564 13.3924 23.1243 13.1234 22.7136 12.7078C22.3029 12.2923 22.0357 11.7526 21.952 11.1696C21.8683 10.5866 21.9727 9.99169 22.2494 9.47408C19.7922 7.75116 16.8676 6.85077 13.8833 6.89838C10.8989 6.94599 8.00357 7.93925 5.60068 9.73971L6.27457 10.4064C6.37171 10.506 6.42617 10.6407 6.42606 10.781C6.42646 10.8509 6.41328 10.9202 6.38728 10.9849C6.36129 11.0496 6.32298 11.1085 6.27457 11.1581L3.9708 13.4824C3.87292 13.5813 3.74052 13.6368 3.60251 13.6368C3.4645 13.6368 3.3321 13.5813 3.23422 13.4824L0.943516 11.1528C0.894947 11.1035 0.856415 11.0449 0.830128 10.9804C0.803837 10.9159 0.790302 10.8468 0.790302 10.777C0.790302 10.7072 0.803837 10.638 0.830128 10.5735C0.856415 10.509 0.894947 10.4505 0.943516 10.4011L3.23422 8.07158C3.3321 7.97264 3.4645 7.9171 3.60251 7.9171C3.74052 7.9171 3.87292 7.97264 3.9708 8.07158L4.85626 8.96674C7.03856 7.29674 9.61861 6.24753 12.3315 5.92683C15.0443 5.60613 17.7923 6.02551 20.2931 7.1419L17.2814 4.08721C16.94 4.25314 16.5517 4.2907 16.1856 4.19322C15.8195 4.09575 15.4992 3.86954 15.2815 3.55474C15.0638 3.23993 14.9627 2.85687 14.9963 2.47352C15.0299 2.09017 15.1959 1.73131 15.4649 1.46061C15.734 1.1899 16.0886 1.02485 16.4659 0.99474C16.8432 0.964627 17.2187 1.0714 17.526 1.29611C17.8332 1.52082 18.0523 1.84895 18.1443 2.22227C18.2363 2.5956 18.1952 2.99 18.0285 3.33549L23.1114 8.51252C23.6275 8.16046 24.2477 8.00155 24.8662 8.06293C25.4848 8.1243 26.0631 8.40216 26.5025 8.84903C26.942 9.29591 27.2152 9.88408 27.2756 10.5131C27.3359 11.1421 27.1796 11.7728 26.8335 12.2977L31.9242 17.4667C32.2653 17.2977 32.6542 17.2572 33.0219 17.3522C33.3896 17.4473 33.7123 17.6719 33.9325 17.986C34.1528 18.3002 34.2564 18.6836 34.2249 19.0681C34.1935 19.4526 34.029 19.8133 33.7607 20.0861C33.4925 20.3589 33.1378 20.5262 32.7597 20.5582C32.3816 20.5902 32.0046 20.4848 31.6956 20.2608C31.3867 20.0368 31.1659 19.7087 31.0724 19.3348C30.9789 18.9608 31.0188 18.5653 31.185 18.2185L28.1734 15.1638C29.2723 17.7063 29.686 20.5004 29.372 23.2592C29.058 26.018 28.0277 28.6422 26.3868 30.8622L27.2697 31.7627C27.3669 31.8622 27.4216 31.9969 27.4216 32.1372C27.4216 32.2776 27.3669 32.4122 27.2697 32.5117L24.9789 34.8413C24.8814 34.941 24.749 34.9974 24.6107 34.998C24.5417 34.998 24.4735 34.9842 24.4098 34.9573C24.3461 34.9304 24.2884 34.891 24.2398 34.8413L21.9464 32.5117C21.8491 32.4122 21.7945 32.2776 21.7945 32.1372C21.7945 31.9969 21.8491 31.8622 21.9464 31.7627L24.2319 29.4199ZM3.59729 9.19252L2.04577 10.7703L3.59729 12.3481L5.1488 10.7703L3.59729 9.19252ZM16.9837 2.22783C16.9061 2.14825 16.8069 2.0939 16.6989 2.0717C16.5908 2.0495 16.4787 2.06043 16.3768 2.10312C16.2749 2.1458 16.1877 2.21832 16.1264 2.31146C16.0651 2.4046 16.0323 2.51417 16.0323 2.62627C16.0323 2.73837 16.0651 2.84794 16.1264 2.94108C16.1877 3.03422 16.2749 3.10674 16.3768 3.14942C16.4787 3.19211 16.5908 3.20305 16.6989 3.18084C16.8069 3.15864 16.9061 3.10429 16.9837 3.02471C17.0352 2.97241 17.076 2.9103 17.1039 2.84193C17.1318 2.77356 17.1461 2.70028 17.1461 2.62627C17.1461 2.55226 17.1318 2.47898 17.1039 2.41061C17.076 2.34224 17.0352 2.28013 16.9837 2.22783ZM25.7599 9.60424C25.6082 9.44924 25.4279 9.32624 25.2294 9.24231C25.0308 9.15838 24.8179 9.11517 24.6028 9.11517C24.3878 9.11517 24.1749 9.15838 23.9763 9.24231C23.7777 9.32624 23.5974 9.44924 23.4457 9.60424C23.2164 9.83705 23.0602 10.1338 22.9968 10.4569C22.9334 10.7801 22.9656 11.1151 23.0895 11.4196C23.2134 11.7241 23.4233 11.9843 23.6927 12.1674C23.9621 12.3506 24.2788 12.4483 24.6028 12.4483C24.9268 12.4483 25.2436 12.3506 25.513 12.1674C25.7823 11.9843 25.9922 11.7241 26.1161 11.4196C26.24 11.1151 26.2723 10.7801 26.2089 10.4569C26.1455 10.1338 25.9892 9.83705 25.7599 9.60424ZM32.2272 19.3261C32.3338 19.4166 32.4699 19.4632 32.6086 19.4568C32.7473 19.4504 32.8787 19.3915 32.9769 19.2917C33.0751 19.1918 33.133 19.0582 33.1393 18.9171C33.1456 18.7761 33.0997 18.6377 33.0108 18.5292C32.9062 18.4248 32.7655 18.3662 32.619 18.3662C32.4724 18.3662 32.3317 18.4248 32.2272 18.5292C32.1757 18.5815 32.1348 18.6437 32.107 18.712C32.0791 18.7804 32.0648 18.8537 32.0648 18.9277C32.0648 19.0017 32.0791 19.075 32.107 19.1433C32.1348 19.2117 32.1757 19.2738 32.2272 19.3261ZM24.6028 33.7044L26.1543 32.1266L24.6028 30.5488L23.0513 32.1266L24.6028 33.7044Z" fill="#EE4A62"/>
</svg>
