<svg width="34" height="34" viewBox="0 0 34 34" fill="none" xmlns="http://www.w3.org/2000/svg">
<path d="M4.24993 13.5474C3.29787 13.5474 2.52344 14.3219 2.52344 15.2739C2.52344 16.2259 3.29793 17.0004 4.24993 17.0004C5.202 17.0004 5.97643 16.2259 5.97643 15.2739C5.97643 14.3219 5.20193 13.5474 4.24993 13.5474ZM4.24993 15.6723C4.0302 15.6723 3.8515 15.4936 3.8515 15.2739C3.8515 15.0541 4.0302 14.8754 4.24993 14.8754C4.46967 14.8754 4.64837 15.0541 4.64837 15.2739C4.64837 15.4936 4.46954 15.6723 4.24993 15.6723Z" fill="#39C0FA"/>
<path d="M31.7416 11.4225H24.7823L23.113 5.98168C23.0274 5.70284 22.7698 5.51245 22.4781 5.51245H11.5213C11.2296 5.51245 10.972 5.70284 10.8864 5.98168L9.21706 11.4225H7.5646V9.9616C7.5646 9.59491 7.26723 9.29754 6.90054 9.29754H3.18192C2.81523 9.29754 2.51786 9.59491 2.51786 9.9616V11.4225H2.25775C1.01276 11.4225 0 12.4353 0 13.6802V31.7423C0 32.9872 1.01283 34.0001 2.25775 34.0001H31.7415C32.9864 34.0001 33.9992 32.9872 33.9992 31.7423V13.6802C33.9993 12.4353 32.9865 11.4225 31.7416 11.4225ZM12.0122 6.84058H21.9873L23.3931 11.4225H10.6064L12.0122 6.84058ZM3.84612 10.6256H6.23668V11.4225H3.84612V10.6256ZM32.6712 31.7423C32.6712 32.255 32.2542 32.672 31.7415 32.672H31.3265V28.0292C31.3265 27.6625 31.0291 27.3652 30.6624 27.3652C30.2957 27.3652 29.9984 27.6625 29.9984 28.0292V32.6719H2.25788C1.74522 32.6719 1.32819 32.2549 1.32819 31.7423V13.6802C1.32819 13.1676 1.74522 12.7505 2.25788 12.7505H31.7416C32.2542 12.7505 32.6713 13.1676 32.6713 13.6802V31.7423H32.6712Z" fill="#39C0FA"/>
<path d="M8.50272 21.9973C8.50179 21.9973 8.501 21.9973 8.50007 21.9973C8.13457 21.9973 7.83747 22.2929 7.83607 22.6588L7.83594 22.7112C7.83594 23.0779 8.13331 23.3752 8.5 23.3752C8.8667 23.3752 9.16406 23.0779 9.16406 22.7112L9.1642 22.664C9.16559 22.2973 8.86948 21.9987 8.50272 21.9973Z" fill="#39C0FA"/>
<path d="M16.9997 13.5474C15.0895 13.5474 13.2589 14.1294 11.7057 15.2304C10.1871 16.3069 9.04464 17.795 8.40177 19.534C8.2746 19.8779 8.45037 20.2599 8.79443 20.3871C9.13821 20.5142 9.52031 20.3385 9.64755 19.9944C10.7794 16.9327 13.734 14.8755 16.9997 14.8755C21.3202 14.8755 24.8354 18.3906 24.8354 22.7112C24.8354 27.0318 21.3202 30.547 16.9997 30.547C13.6376 30.547 10.6544 28.4091 9.57636 25.2272C9.45875 24.8799 9.08183 24.6938 8.73433 24.8114C8.38702 24.929 8.20082 25.3061 8.31849 25.6534C9.57928 29.3748 13.0679 31.8751 16.9996 31.8751C22.0526 31.8751 26.1634 27.7642 26.1634 22.7112C26.1634 17.6582 22.0526 13.5474 16.9997 13.5474Z" fill="#39C0FA"/>
<path d="M16.9999 16.7681C13.7227 16.7681 11.0566 19.4341 11.0566 22.7113C11.0566 25.9884 13.7227 28.6545 16.9999 28.6545C20.277 28.6545 22.9431 25.9884 22.9431 22.7113C22.9431 19.4341 20.277 16.7681 16.9999 16.7681ZM16.9999 27.3264C14.4551 27.3264 12.3848 25.256 12.3848 22.7113C12.3848 20.1665 14.4551 18.0962 16.9999 18.0962C19.5446 18.0962 21.615 20.1665 21.615 22.7113C21.615 25.256 19.5446 27.3264 16.9999 27.3264Z" fill="#39C0FA"/>
<path d="M16.9996 19.7292C15.3553 19.7292 14.0176 21.067 14.0176 22.7112C14.0176 23.0779 14.3149 23.3753 14.6816 23.3753C15.0483 23.3753 15.3457 23.0779 15.3457 22.7112C15.3457 21.7993 16.0877 21.0574 16.9996 21.0574C17.3662 21.0574 17.6636 20.76 17.6636 20.3933C17.6636 20.0266 17.3662 19.7292 16.9996 19.7292Z" fill="#39C0FA"/>
<path d="M29.8818 14.6099H26.4287C26.062 14.6099 25.7646 14.9072 25.7646 15.2739C25.7646 15.6406 26.062 15.938 26.4287 15.938H29.8818C30.2485 15.938 30.5458 15.6406 30.5458 15.2739C30.5458 14.9072 30.2485 14.6099 29.8818 14.6099Z" fill="#39C0FA"/>
<path d="M17 0C16.6333 0 16.3359 0.297367 16.3359 0.664062V2.75871C16.3359 3.12541 16.6332 3.42278 17 3.42278C17.3667 3.42278 17.6641 3.12541 17.6641 2.75871V0.664062C17.6641 0.297367 17.3667 0 17 0Z" fill="#39C0FA"/>
<path d="M21.5134 2.42442C21.254 2.16517 20.8336 2.16517 20.5742 2.42442L19.5495 3.44913C19.2902 3.70845 19.2902 4.12893 19.5495 4.38832C19.6792 4.51794 19.8491 4.58282 20.0191 4.58282C20.1891 4.58282 20.359 4.51794 20.4887 4.38832L21.5134 3.3636C21.7727 3.10429 21.7727 2.6838 21.5134 2.42442Z" fill="#39C0FA"/>
<path d="M14.4493 3.44907L13.4247 2.42442C13.1653 2.16517 12.745 2.16517 12.4855 2.42442C12.2262 2.68373 12.2262 3.10422 12.4855 3.3636L13.5102 4.38825C13.6399 4.51788 13.8098 4.58275 13.9798 4.58275C14.1497 4.58275 14.3196 4.51788 14.4493 4.38825C14.7087 4.12893 14.7087 3.70845 14.4493 3.44907Z" fill="#39C0FA"/>
<path d="M19.1249 8.43408H14.875C14.5083 8.43408 14.2109 8.73145 14.2109 9.09814C14.2109 9.46484 14.5083 9.76221 14.875 9.76221H19.1249C19.4916 9.76221 19.789 9.46484 19.789 9.09814C19.789 8.73145 19.4916 8.43408 19.1249 8.43408Z" fill="#39C0FA"/>
<path d="M31.1315 25.2353C31.0081 25.1118 30.8368 25.0408 30.6621 25.0408C30.4875 25.0408 30.3161 25.1118 30.1926 25.2353C30.0691 25.3595 29.998 25.5302 29.998 25.7048C29.998 25.8795 30.069 26.0508 30.1926 26.1743C30.3161 26.2984 30.4875 26.3689 30.6621 26.3689C30.8368 26.3689 31.0081 26.2978 31.1315 26.1743C31.2551 26.0508 31.3262 25.8795 31.3262 25.7048C31.3262 25.5302 31.2551 25.3595 31.1315 25.2353Z" fill="#39C0FA"/>
</svg>
