<svg width="34" height="34" viewBox="0 0 34 34" fill="none" xmlns="http://www.w3.org/2000/svg">
<path d="M31.9077 5.85858H22.1785C21.8123 4.28935 20.8185 3.45242 19.5108 3.24319C18.36 0.993962 16.3723 0.523193 14.0185 0.523193C13.0769 0.523193 9.88615 0.680117 8.05538 3.03396C6.69538 4.76012 6.32923 7.21858 7.00923 10.4093C6.22462 10.8278 6.17231 11.717 6.43385 12.554C6.59077 13.3386 7.11385 15.7447 8.42154 16.0063C8.57846 16.5817 8.89231 17.6278 9.57231 18.674V21.2893L2.98154 23.8524C1.20308 24.5324 0 26.2586 0 28.194V33.477C0 33.7909 0.209231 34.0001 0.523077 34.0001H28.2462C28.56 34.0001 28.7692 33.7909 28.7692 33.477V30.3386H31.9077C32.7969 30.3386 33.4769 29.6586 33.4769 28.7693V7.42781C33.4769 6.53858 32.7446 5.85858 31.9077 5.85858ZM9.10154 15.0647C8.52615 14.6986 8.52615 15.954 7.48 12.2924C7.16615 11.194 7.74154 11.2986 7.68923 11.2986C8.00308 11.2986 8.26462 10.9847 8.21231 10.6709C7.42769 7.58473 7.68923 5.23089 8.89231 3.71396C10.1477 2.14473 12.5015 1.46473 14.3323 1.56935H14.3846C17.68 1.41242 18.6738 3.81858 18.6738 3.87089C18.9354 4.55089 19.8246 3.81858 20.7138 5.02166C21.2369 5.75396 21.6554 7.32319 20.6092 10.5663C20.5569 10.7232 20.6092 10.8801 20.6615 11.037C20.9754 11.4555 21.6554 10.9324 21.2892 12.2401C21.2892 12.2924 20.7138 14.9601 20.0338 14.9601C19.9815 14.9601 19.8246 14.9078 19.6154 15.0124C19.5108 15.0647 19.4062 15.2217 19.4062 15.3786C19.3538 15.5878 18.4123 20.4524 14.3323 20.6093C10.2523 20.4524 9.31077 15.5878 9.25846 15.3786C9.31077 15.274 9.20615 15.1693 9.10154 15.0647ZM16.5292 32.954H12.2923L13.8092 28.5078C13.9662 28.037 13.5477 27.9324 12.5015 26.4678L14.4369 25.9447L16.32 26.4678C14.5938 29.2924 14.3846 26.4155 16.5292 32.954ZM9.88615 22.2832L13.2862 25.1601L10.0431 26.0493L8.68308 22.754L9.88615 22.2832ZM15.4831 25.1601L18.8308 22.2309L19.9815 22.7017L18.5692 26.0493L15.4831 25.1601ZM18.2031 20.034V21.4463L14.3846 24.7417L10.5662 21.5509V20.034C12.7108 22.1786 15.9015 22.3355 18.2031 20.034ZM1.04615 28.194C1.04615 26.7293 1.98769 25.3693 3.34769 24.8463L7.68923 23.1724L9.25846 26.8863C9.36308 27.0955 9.52 27.2001 9.72923 27.2001H9.88615L11.4031 26.7817L12.7108 28.4555L11.1415 32.954H1.04615V28.194ZM27.7231 32.954H17.6277L16.0585 28.4555L17.3662 26.7817L18.7262 27.1478H18.8831C19.0923 27.1478 19.3015 27.0432 19.3538 26.834L20.9231 23.0678L25.3692 24.794C26.7292 25.317 27.6708 26.677 27.6708 28.1417V32.954H27.7231ZM32.4308 28.7693C32.4308 29.0832 32.2215 29.2924 31.9077 29.2924H28.7692V28.1417C28.7692 26.2586 27.5662 24.4801 25.7877 23.8001L19.2492 21.2893V18.674C19.8769 17.6278 20.2431 16.5817 20.4 16.0063C21.6554 15.7447 22.2308 13.3386 22.3877 12.554C22.6492 11.717 22.5969 10.8801 21.8646 10.4093C22.2831 9.04935 22.44 7.84627 22.44 6.85242H32.0123C32.3262 6.85242 32.5354 7.06166 32.5354 7.3755V28.7693H32.4308Z" fill="#0ECD73"/>
<path d="M30.3385 16.5232H28.2462C27.9324 16.5232 27.7231 16.7324 27.7231 17.0463C27.7231 17.3601 27.9324 17.5693 28.2462 17.5693H30.3385C30.6524 17.5693 30.8616 17.3601 30.8616 17.0463C30.8616 16.7324 30.6524 16.5232 30.3385 16.5232Z" fill="#0ECD73"/>
<path d="M30.3385 16.5232H28.2462C27.9324 16.5232 27.7231 16.7324 27.7231 17.0463C27.7231 17.3601 27.9324 17.5693 28.2462 17.5693H30.3385C30.6524 17.5693 30.8616 17.3601 30.8616 17.0463C30.8616 16.7324 30.6524 16.5232 30.3385 16.5232Z" fill="#0ECD73"/>
<path d="M30.3385 16.5232H28.2462C27.9324 16.5232 27.7231 16.7324 27.7231 17.0463C27.7231 17.3601 27.9324 17.5693 28.2462 17.5693H30.3385C30.6524 17.5693 30.8616 17.3601 30.8616 17.0463C30.8616 16.7324 30.6524 16.5232 30.3385 16.5232Z" fill="#0ECD73"/>
<path d="M25.6309 16.5232H24.5847C23.9047 16.5232 23.9047 17.5693 24.5847 17.5693H25.6309C25.9447 17.5693 26.1539 17.3601 26.1539 17.0463C26.1539 16.7324 25.9447 16.5232 25.6309 16.5232Z" fill="#0ECD73"/>
<path d="M25.6308 16.5426C25.16 16.5949 24.0615 16.281 24.0615 17.0656C24.0615 17.3795 24.2708 17.5887 24.5846 17.5887H25.6308C25.9446 17.5887 26.1538 17.3795 26.1538 17.0656C26.1538 16.7518 25.9446 16.5426 25.6308 16.5426Z" fill="#0ECD73"/>
<path d="M25.6308 16.5232H24.5846C24.2708 16.5232 24.0615 16.7324 24.0615 17.0463C24.0615 17.3601 24.2708 17.5693 24.5846 17.5693H25.6308C25.9446 17.5693 26.1538 17.3601 26.1538 17.0463C26.1538 16.7324 25.9446 16.5232 25.6308 16.5232Z" fill="#0ECD73"/>
<path d="M30.3385 16.5232H28.2462C27.9324 16.5232 27.7231 16.7324 27.7231 17.0463C27.7231 17.3601 27.9324 17.5693 28.2462 17.5693H30.3385C30.6524 17.5693 30.8616 17.3601 30.8616 17.0463C30.8616 16.7324 30.6524 16.5232 30.3385 16.5232Z" fill="#0ECD73"/>
</svg>
