<svg width="36" height="36" viewBox="0 0 36 36" fill="none" xmlns="http://www.w3.org/2000/svg">
<path d="M17.8465 13.2715C15.5114 13.2715 13.7508 14.239 13.7508 15.5215V20.4786C13.7508 21.7611 15.5114 22.7286 17.8465 22.7286C20.1802 22.7286 21.9401 21.7611 21.9401 20.4786V15.568C21.9408 15.5525 21.9422 15.537 21.9422 15.5215C21.9422 14.239 20.1816 13.2715 17.8465 13.2715ZM20.8158 20.4786C20.8158 20.9265 19.6317 21.6043 17.8465 21.6043C16.0598 21.6043 14.8744 20.9265 14.8744 20.4786V19.5772C15.6098 19.9962 16.6526 20.2494 17.8465 20.2494C19.039 20.2494 20.0817 19.9962 20.8158 19.5779V20.4786ZM20.8158 17.9994C20.8158 18.4472 19.6317 19.1251 17.8465 19.1251C16.0598 19.1251 14.8744 18.4472 14.8744 17.9994V17.1001C15.6098 17.5184 16.6526 17.7715 17.8465 17.7715C19.039 17.7715 20.081 17.5191 20.8158 17.1015V17.9994ZM20.8158 15.5215V15.5462C20.7743 15.994 19.6008 16.648 17.8465 16.648C16.0598 16.648 14.8744 15.9701 14.8744 15.5215C14.8744 15.0737 16.0598 14.3951 17.8465 14.3951C19.6127 14.3951 20.7912 15.0582 20.8172 15.5068C20.8165 15.5117 20.8158 15.5166 20.8158 15.5215ZM17.8465 13.2715C15.5114 13.2715 13.7508 14.239 13.7508 15.5215V20.4786C13.7508 21.7611 15.5114 22.7286 17.8465 22.7286C20.1802 22.7286 21.9401 21.7611 21.9401 20.4786V15.568C21.9408 15.5525 21.9422 15.537 21.9422 15.5215C21.9422 14.239 20.1816 13.2715 17.8465 13.2715ZM20.8158 20.4786C20.8158 20.9265 19.6317 21.6043 17.8465 21.6043C16.0598 21.6043 14.8744 20.9265 14.8744 20.4786V19.5772C15.6098 19.9962 16.6526 20.2494 17.8465 20.2494C19.039 20.2494 20.0817 19.9962 20.8158 19.5779V20.4786ZM20.8158 17.9994C20.8158 18.4472 19.6317 19.1251 17.8465 19.1251C16.0598 19.1251 14.8744 18.4472 14.8744 17.9994V17.1001C15.6098 17.5184 16.6526 17.7715 17.8465 17.7715C19.039 17.7715 20.081 17.5191 20.8158 17.1015V17.9994ZM20.8158 15.5215V15.5462C20.7743 15.994 19.6008 16.648 17.8465 16.648C16.0598 16.648 14.8744 15.9701 14.8744 15.5215C14.8744 15.0737 16.0598 14.3951 17.8465 14.3951C19.6127 14.3951 20.7912 15.0582 20.8172 15.5068C20.8165 15.5117 20.8158 15.5166 20.8158 15.5215ZM17.8465 13.2715C15.5114 13.2715 13.7508 14.239 13.7508 15.5215V20.4786C13.7508 21.7611 15.5114 22.7286 17.8465 22.7286C20.1802 22.7286 21.9401 21.7611 21.9401 20.4786V15.568C21.9408 15.5525 21.9422 15.537 21.9422 15.5215C21.9422 14.239 20.1816 13.2715 17.8465 13.2715ZM20.8158 20.4786C20.8158 20.9265 19.6317 21.6043 17.8465 21.6043C16.0598 21.6043 14.8744 20.9265 14.8744 20.4786V19.5772C15.6098 19.9962 16.6526 20.2494 17.8465 20.2494C19.039 20.2494 20.0817 19.9962 20.8158 19.5779V20.4786ZM20.8158 17.9994C20.8158 18.4472 19.6317 19.1251 17.8465 19.1251C16.0598 19.1251 14.8744 18.4472 14.8744 17.9994V17.1001C15.6098 17.5184 16.6526 17.7715 17.8465 17.7715C19.039 17.7715 20.081 17.5191 20.8158 17.1015V17.9994ZM20.8158 15.5215V15.5462C20.7743 15.994 19.6008 16.648 17.8465 16.648C16.0598 16.648 14.8744 15.9701 14.8744 15.5215C14.8744 15.0737 16.0598 14.3951 17.8465 14.3951C19.6127 14.3951 20.7912 15.0582 20.8172 15.5068C20.8165 15.5117 20.8158 15.5166 20.8158 15.5215ZM17.8465 13.2715C15.5114 13.2715 13.7508 14.239 13.7508 15.5215V20.4786C13.7508 21.7611 15.5114 22.7286 17.8465 22.7286C20.1802 22.7286 21.9401 21.7611 21.9401 20.4786V15.568C21.9408 15.5525 21.9422 15.537 21.9422 15.5215C21.9422 14.239 20.1816 13.2715 17.8465 13.2715ZM20.8158 20.4786C20.8158 20.9265 19.6317 21.6043 17.8465 21.6043C16.0598 21.6043 14.8744 20.9265 14.8744 20.4786V19.5772C15.6098 19.9962 16.6526 20.2494 17.8465 20.2494C19.039 20.2494 20.0817 19.9962 20.8158 19.5779V20.4786ZM20.8158 17.9994C20.8158 18.4472 19.6317 19.1251 17.8465 19.1251C16.0598 19.1251 14.8744 18.4472 14.8744 17.9994V17.1001C15.6098 17.5184 16.6526 17.7715 17.8465 17.7715C19.039 17.7715 20.081 17.5191 20.8158 17.1015V17.9994ZM20.8158 15.5215V15.5462C20.7743 15.994 19.6008 16.648 17.8465 16.648C16.0598 16.648 14.8744 15.9701 14.8744 15.5215C14.8744 15.0737 16.0598 14.3951 17.8465 14.3951C19.6127 14.3951 20.7912 15.0582 20.8172 15.5068C20.8165 15.5117 20.8158 15.5166 20.8158 15.5215ZM31.6291 19.7958C31.08 19.1455 30.4605 18.4908 29.7813 17.839C30.4542 17.1922 31.0673 16.5432 31.6123 15.8984C34.0352 13.029 34.8375 10.5272 33.8714 8.8524C32.9046 7.17756 30.3361 6.62068 26.6398 7.28443C25.6673 7.45881 24.6429 7.71193 23.5833 8.03608C23.5608 7.94467 23.5383 7.85326 23.5144 7.76256C24.567 7.26615 25.2968 6.19529 25.2968 4.95639C25.2968 3.24709 23.906 1.85701 22.1974 1.85701C21.8114 1.85701 21.4423 1.92803 21.1012 2.0574C20.126 0.710215 19.008 0.00146484 17.8465 0.00146484C15.9129 0.00146484 14.1459 1.94701 12.8726 5.47951C12.6124 6.20092 12.3783 6.97225 12.1695 7.78576C11.403 7.57553 10.6584 7.40326 9.94195 7.27529C6.24563 6.61154 3.67711 7.16842 2.71031 8.84256C1.74352 10.5167 2.54508 13.0191 4.96875 15.8893C5.51648 16.5376 6.13383 17.1908 6.81024 17.8405C6.7343 17.9136 6.65836 17.9867 6.58383 18.0605C6.29273 17.858 5.96578 17.7055 5.61352 17.6105C4.81336 17.3961 3.97734 17.5065 3.26086 17.9206C2.54367 18.334 2.03039 19.002 1.81594 19.8022C1.60148 20.6023 1.71188 21.4376 2.12602 22.1548C2.31867 22.4888 2.56617 22.7722 2.84812 23.0028C2.16961 24.5244 2.11406 25.8483 2.69414 26.8524C3.39516 28.066 4.93711 28.6925 7.14 28.6918C7.97672 28.6918 8.90906 28.6018 9.92578 28.419C10.6247 28.2938 11.351 28.1272 12.097 27.9233C12.3234 28.8444 12.5822 29.7141 12.8726 30.5199C14.1459 34.0531 15.9129 35.9987 17.8465 35.9987C19.7801 35.9987 21.5463 34.0531 22.819 30.5199C23.1354 29.6417 23.4145 28.6883 23.6543 27.6744C23.8814 27.7433 24.1064 27.8087 24.3307 27.8712C24.2351 29.03 24.7969 30.1979 25.8684 30.8173C26.3557 31.0986 26.888 31.2322 27.4139 31.2322C28.4855 31.2322 29.5303 30.676 30.1041 29.6832C30.2946 29.3534 30.4205 28.9983 30.4802 28.6341C32.134 28.4619 33.3068 27.848 33.8876 26.8426C34.8544 25.1684 34.0521 22.666 31.6291 19.7958ZM3.09984 21.5923C2.83547 21.1353 2.76516 20.603 2.90227 20.0933C3.03867 19.5835 3.36563 19.1581 3.82336 18.8944C4.12781 18.7187 4.46531 18.6287 4.80773 18.6287C4.9793 18.6287 5.15227 18.6512 5.32242 18.6969C5.83219 18.8333 6.25898 19.1602 6.52336 19.618C7.06828 20.5608 6.74414 21.7723 5.80055 22.3172C4.85625 22.8615 3.64477 22.5366 3.09984 21.5923ZM9.7275 27.313C6.5782 27.8783 4.36969 27.5056 3.66797 26.2906C3.20531 25.489 3.45773 24.4259 3.83672 23.5463C4.15242 23.6511 4.48359 23.7052 4.81758 23.7052C5.34352 23.7052 5.87508 23.5716 6.36234 23.2911C7.84313 22.4354 8.35148 20.5348 7.49648 19.0555C7.45781 18.988 7.41633 18.924 7.37344 18.8607C7.45992 18.7756 7.54781 18.6905 7.63641 18.6062C8.68477 19.5441 9.85266 20.4708 11.1134 21.3652C11.247 23.2918 11.4952 25.1326 11.8481 26.8264C11.1183 27.0268 10.4088 27.1906 9.7275 27.313ZM11.0353 19.921C10.117 19.2404 9.25711 18.5436 8.4668 17.8412C9.26414 17.1331 10.1283 16.4335 11.0494 15.7515C11.0156 16.4919 10.998 17.2414 10.998 17.9994C10.998 18.6455 11.0107 19.2868 11.0353 19.921ZM11.138 14.3002C9.87094 15.1967 8.69602 16.1283 7.63641 17.0762C6.96984 16.4384 6.36375 15.7986 5.82727 15.1644C3.76289 12.7189 2.98172 10.6201 3.68344 9.40506C4.38586 8.18936 6.59438 7.816 9.74297 8.38131C10.4391 8.50647 11.164 8.67381 11.9107 8.88053C11.5451 10.5568 11.2849 12.3842 11.138 14.3002ZM22.1974 2.98131C23.2866 2.98131 24.1725 3.86725 24.1725 4.95639C24.1725 6.04623 23.2866 6.93358 22.1974 6.93358C21.1069 6.93358 20.2202 6.04623 20.2202 4.95639C20.2202 3.86725 21.1069 2.98131 22.1974 2.98131ZM23.288 12.8546C22.7768 12.5333 22.2551 12.219 21.7228 11.9117C21.0155 11.5032 20.3046 11.1165 19.5952 10.7522C20.6688 10.2692 21.7284 9.84521 22.7592 9.48732C22.98 10.5575 23.1565 11.6846 23.288 12.8546ZM13.9301 5.86131C15.015 2.85123 16.4423 1.12506 17.8465 1.12506C18.7739 1.12506 19.5677 1.87529 20.1373 2.6424C19.4988 3.21053 19.0959 4.0367 19.0959 4.95639C19.0959 6.66639 20.4874 8.05717 22.1974 8.05717C22.2748 8.05717 22.3514 8.05365 22.4273 8.04803C22.4562 8.15912 22.4836 8.27162 22.511 8.38483C21.1448 8.85381 19.7302 9.43389 18.3014 10.1124C16.5759 9.29256 14.8723 8.61615 13.248 8.10428C13.4498 7.31186 13.6777 6.56092 13.9301 5.86131ZM12.9907 9.20115C14.2859 9.61318 15.6352 10.1335 17.007 10.7515C16.2905 11.1186 15.5733 11.5088 14.8589 11.9215C13.9898 12.4236 13.1475 12.9446 12.3368 13.4804C12.483 11.9757 12.7024 10.5378 12.9907 9.20115ZM12.3052 22.183C13.1306 22.73 13.9891 23.2622 14.8744 23.7734C15.5838 24.1833 16.2961 24.5701 17.007 24.935C15.6134 25.5629 14.2437 26.0909 12.9295 26.5065C12.6504 25.153 12.4409 23.7003 12.3052 22.183ZM21.7615 30.1388C20.6773 33.1489 19.2499 34.8751 17.8465 34.8751C16.4423 34.8751 15.015 33.1489 13.9301 30.1388C13.6474 29.3548 13.3957 28.5062 13.1763 27.6069C14.8216 27.0915 16.5499 26.4059 18.3 25.5741C19.7498 26.2625 21.1863 26.851 22.582 27.327C22.3472 28.3311 22.0737 29.274 21.7615 30.1388ZM22.819 26.221C21.7643 25.8568 20.6843 25.4251 19.593 24.9343C20.2976 24.5715 21.0035 24.1876 21.7073 23.7819C22.2572 23.464 22.7972 23.1378 23.3252 22.8052C23.2015 23.9935 23.032 25.1375 22.819 26.221ZM23.4497 21.3898C22.7072 21.8764 21.9373 22.3503 21.1448 22.808C20.1977 23.3551 19.2457 23.862 18.2993 24.3261C17.3473 23.8592 16.3903 23.3508 15.4369 22.8003C14.3077 22.1478 13.2241 21.463 12.2011 20.7556C12.1491 19.8528 12.1223 18.9317 12.1223 17.9994C12.1223 16.9531 12.1561 15.9216 12.2208 14.9147C13.234 14.2158 14.3048 13.5394 15.4207 12.8954C16.3798 12.3413 17.3438 11.8287 18.3007 11.3605C19.252 11.8259 20.2083 12.335 21.161 12.8848C21.9387 13.3341 22.6938 13.7989 23.4237 14.2763C23.5193 15.485 23.5685 16.7302 23.5685 17.9994C23.5685 19.1511 23.5284 20.2859 23.4497 21.3898ZM26.8387 8.39045C29.9873 7.82514 32.1959 8.1985 32.8976 9.4149C33.5986 10.6299 32.8174 12.7287 30.753 15.1728C30.2201 15.8042 29.6175 16.4398 28.9559 17.074C27.6403 15.8977 26.137 14.739 24.498 13.64C24.3546 12.0629 24.1317 10.5505 23.8343 9.13436C24.8777 8.81162 25.8846 8.56201 26.8387 8.39045ZM24.6063 15.0758C25.886 15.9708 27.0687 16.8997 28.1262 17.8397C27.0743 18.7756 25.898 19.7009 24.6246 20.5932C24.6696 19.7417 24.6928 18.8747 24.6928 17.9994C24.6928 17.0094 24.6633 16.0327 24.6063 15.0758ZM29.1309 29.1207C28.5853 30.0643 27.3738 30.3891 26.4309 29.8435C25.4873 29.2986 25.1632 28.0871 25.7074 27.1435C26.2523 26.2006 27.4638 25.8765 28.4074 26.42C28.8652 26.6844 29.1921 27.1112 29.3285 27.6209C29.4656 28.1307 29.3953 28.6637 29.1309 29.1207ZM32.9137 26.2801C32.4504 27.083 31.4048 27.3959 30.4556 27.5056C30.4437 27.4473 30.4303 27.3882 30.4141 27.3298C30.2004 26.5304 29.6871 25.8617 28.9692 25.4469C27.4891 24.5933 25.5893 25.1023 24.7343 26.581V26.5817C24.6949 26.6492 24.6598 26.7174 24.6267 26.7863C24.3841 26.7188 24.1409 26.6478 23.8948 26.5719C24.1809 25.1445 24.3933 23.6166 24.5269 22.0233C26.1553 20.9286 27.6488 19.7755 28.9559 18.604C29.6245 19.2432 30.2327 19.8851 30.7699 20.5215C32.8343 22.9662 33.6155 25.0651 32.9137 26.2801ZM17.8465 13.2715C15.5114 13.2715 13.7508 14.239 13.7508 15.5215V20.4786C13.7508 21.7611 15.5114 22.7286 17.8465 22.7286C20.1802 22.7286 21.9401 21.7611 21.9401 20.4786V15.568C21.9408 15.5525 21.9422 15.537 21.9422 15.5215C21.9422 14.239 20.1816 13.2715 17.8465 13.2715ZM20.8158 20.4786C20.8158 20.9265 19.6317 21.6043 17.8465 21.6043C16.0598 21.6043 14.8744 20.9265 14.8744 20.4786V19.5772C15.6098 19.9962 16.6526 20.2494 17.8465 20.2494C19.039 20.2494 20.0817 19.9962 20.8158 19.5779V20.4786ZM20.8158 17.9994C20.8158 18.4472 19.6317 19.1251 17.8465 19.1251C16.0598 19.1251 14.8744 18.4472 14.8744 17.9994V17.1001C15.6098 17.5184 16.6526 17.7715 17.8465 17.7715C19.039 17.7715 20.081 17.5191 20.8158 17.1015V17.9994ZM20.8158 15.5215V15.5462C20.7743 15.994 19.6008 16.648 17.8465 16.648C16.0598 16.648 14.8744 15.9701 14.8744 15.5215C14.8744 15.0737 16.0598 14.3951 17.8465 14.3951C19.6127 14.3951 20.7912 15.0582 20.8172 15.5068C20.8165 15.5117 20.8158 15.5166 20.8158 15.5215ZM17.8465 13.2715C15.5114 13.2715 13.7508 14.239 13.7508 15.5215V20.4786C13.7508 21.7611 15.5114 22.7286 17.8465 22.7286C20.1802 22.7286 21.9401 21.7611 21.9401 20.4786V15.568C21.9408 15.5525 21.9422 15.537 21.9422 15.5215C21.9422 14.239 20.1816 13.2715 17.8465 13.2715ZM20.8158 20.4786C20.8158 20.9265 19.6317 21.6043 17.8465 21.6043C16.0598 21.6043 14.8744 20.9265 14.8744 20.4786V19.5772C15.6098 19.9962 16.6526 20.2494 17.8465 20.2494C19.039 20.2494 20.0817 19.9962 20.8158 19.5779V20.4786ZM20.8158 17.9994C20.8158 18.4472 19.6317 19.1251 17.8465 19.1251C16.0598 19.1251 14.8744 18.4472 14.8744 17.9994V17.1001C15.6098 17.5184 16.6526 17.7715 17.8465 17.7715C19.039 17.7715 20.081 17.5191 20.8158 17.1015V17.9994ZM20.8158 15.5215V15.5462C20.7743 15.994 19.6008 16.648 17.8465 16.648C16.0598 16.648 14.8744 15.9701 14.8744 15.5215C14.8744 15.0737 16.0598 14.3951 17.8465 14.3951C19.6127 14.3951 20.7912 15.0582 20.8172 15.5068C20.8165 15.5117 20.8158 15.5166 20.8158 15.5215ZM17.8465 13.2715C15.5114 13.2715 13.7508 14.239 13.7508 15.5215V20.4786C13.7508 21.7611 15.5114 22.7286 17.8465 22.7286C20.1802 22.7286 21.9401 21.7611 21.9401 20.4786V15.568C21.9408 15.5525 21.9422 15.537 21.9422 15.5215C21.9422 14.239 20.1816 13.2715 17.8465 13.2715ZM20.8158 20.4786C20.8158 20.9265 19.6317 21.6043 17.8465 21.6043C16.0598 21.6043 14.8744 20.9265 14.8744 20.4786V19.5772C15.6098 19.9962 16.6526 20.2494 17.8465 20.2494C19.039 20.2494 20.0817 19.9962 20.8158 19.5779V20.4786ZM20.8158 17.9994C20.8158 18.4472 19.6317 19.1251 17.8465 19.1251C16.0598 19.1251 14.8744 18.4472 14.8744 17.9994V17.1001C15.6098 17.5184 16.6526 17.7715 17.8465 17.7715C19.039 17.7715 20.081 17.5191 20.8158 17.1015V17.9994ZM20.8158 15.5215V15.5462C20.7743 15.994 19.6008 16.648 17.8465 16.648C16.0598 16.648 14.8744 15.9701 14.8744 15.5215C14.8744 15.0737 16.0598 14.3951 17.8465 14.3951C19.6127 14.3951 20.7912 15.0582 20.8172 15.5068C20.8165 15.5117 20.8158 15.5166 20.8158 15.5215ZM17.8465 13.2715C15.5114 13.2715 13.7508 14.239 13.7508 15.5215V20.4786C13.7508 21.7611 15.5114 22.7286 17.8465 22.7286C20.1802 22.7286 21.9401 21.7611 21.9401 20.4786V15.568C21.9408 15.5525 21.9422 15.537 21.9422 15.5215C21.9422 14.239 20.1816 13.2715 17.8465 13.2715ZM20.8158 20.4786C20.8158 20.9265 19.6317 21.6043 17.8465 21.6043C16.0598 21.6043 14.8744 20.9265 14.8744 20.4786V19.5772C15.6098 19.9962 16.6526 20.2494 17.8465 20.2494C19.039 20.2494 20.0817 19.9962 20.8158 19.5779V20.4786ZM20.8158 17.9994C20.8158 18.4472 19.6317 19.1251 17.8465 19.1251C16.0598 19.1251 14.8744 18.4472 14.8744 17.9994V17.1001C15.6098 17.5184 16.6526 17.7715 17.8465 17.7715C19.039 17.7715 20.081 17.5191 20.8158 17.1015V17.9994ZM20.8158 15.5215V15.5462C20.7743 15.994 19.6008 16.648 17.8465 16.648C16.0598 16.648 14.8744 15.9701 14.8744 15.5215C14.8744 15.0737 16.0598 14.3951 17.8465 14.3951C19.6127 14.3951 20.7912 15.0582 20.8172 15.5068C20.8165 15.5117 20.8158 15.5166 20.8158 15.5215ZM17.8465 13.2715C15.5114 13.2715 13.7508 14.239 13.7508 15.5215V20.4786C13.7508 21.7611 15.5114 22.7286 17.8465 22.7286C20.1802 22.7286 21.9401 21.7611 21.9401 20.4786V15.568C21.9408 15.5525 21.9422 15.537 21.9422 15.5215C21.9422 14.239 20.1816 13.2715 17.8465 13.2715ZM20.8158 20.4786C20.8158 20.9265 19.6317 21.6043 17.8465 21.6043C16.0598 21.6043 14.8744 20.9265 14.8744 20.4786V19.5772C15.6098 19.9962 16.6526 20.2494 17.8465 20.2494C19.039 20.2494 20.0817 19.9962 20.8158 19.5779V20.4786ZM20.8158 17.9994C20.8158 18.4472 19.6317 19.1251 17.8465 19.1251C16.0598 19.1251 14.8744 18.4472 14.8744 17.9994V17.1001C15.6098 17.5184 16.6526 17.7715 17.8465 17.7715C19.039 17.7715 20.081 17.5191 20.8158 17.1015V17.9994ZM20.8158 15.5215V15.5462C20.7743 15.994 19.6008 16.648 17.8465 16.648C16.0598 16.648 14.8744 15.9701 14.8744 15.5215C14.8744 15.0737 16.0598 14.3951 17.8465 14.3951C19.6127 14.3951 20.7912 15.0582 20.8172 15.5068C20.8165 15.5117 20.8158 15.5166 20.8158 15.5215Z" fill="#428DFF"/>
<path d="M24.1725 4.95628C24.1725 6.04612 23.2865 6.93347 22.1974 6.93347C21.1069 6.93347 20.2202 6.04612 20.2202 4.95628C20.2202 3.86714 21.1069 2.9812 22.1974 2.9812C23.2865 2.9812 24.1725 3.86714 24.1725 4.95628Z" fill="#E8EDFC"/>
<path d="M29.1309 29.1205C28.5853 30.0641 27.3738 30.389 26.4309 29.8433C25.4873 29.2984 25.1632 28.0869 25.7074 27.1433C26.2523 26.2004 27.4638 25.8763 28.4074 26.4198C28.8651 26.6842 29.1921 27.111 29.3285 27.6208C29.4656 28.1305 29.3953 28.6635 29.1309 29.1205Z" fill="#E8EDFC"/>
<path d="M5.80073 22.3173C4.85643 22.8615 3.64495 22.5366 3.10003 21.5923C2.83565 21.1353 2.76534 20.603 2.90245 20.0933C3.03885 19.5835 3.36581 19.1581 3.82354 18.8944C4.128 18.7187 4.4655 18.6287 4.80792 18.6287C4.97948 18.6287 5.15245 18.6512 5.3226 18.6969C5.83237 18.8333 6.25917 19.1602 6.52354 19.618C7.06846 20.5609 6.74432 21.7723 5.80073 22.3173Z" fill="#E8EDFC"/>
<path d="M20.8173 15.5067C20.8166 15.5116 20.8159 15.5165 20.8159 15.5214V15.546C20.7744 15.9939 19.6009 16.6478 17.8466 16.6478C16.06 16.6478 14.8745 15.97 14.8745 15.5214C14.8745 15.0735 16.06 14.395 17.8466 14.395C19.6129 14.395 20.7913 15.0581 20.8173 15.5067Z" fill="#E8EDFC"/>
</svg>
