<svg width="32" height="32" viewBox="0 0 32 32" fill="none" xmlns="http://www.w3.org/2000/svg">
<path d="M12.2542 16.4971C12.4186 16.4971 12.571 16.4109 12.6558 16.2701L13.5014 14.8654L14.6221 16.6461C14.7097 16.7854 14.8628 16.8681 15.0286 16.8651C15.1932 16.8617 15.3439 16.7722 15.4256 16.6293L17.2297 13.4771L19.6527 17.8927C19.7336 18.0401 19.8872 18.1329 20.0553 18.1359C20.0581 18.1359 20.0609 18.1359 20.0636 18.1359C20.2286 18.1359 20.3817 18.0491 20.4663 17.9071L21.9759 15.3729H25.616C25.8749 15.3729 26.0848 15.1631 26.0848 14.9042C26.0848 14.6453 25.8749 14.4354 25.616 14.4354H21.7095C21.5443 14.4354 21.3913 14.5224 21.3068 14.6643L20.0803 16.7232L17.6493 12.2928C17.5676 12.1441 17.4121 12.0511 17.2425 12.0496C17.2411 12.0496 17.2397 12.0496 17.2383 12.0496C17.0703 12.0496 16.915 12.1395 16.8314 12.2854L14.9997 15.4861L13.8893 13.7216C13.8034 13.5852 13.6536 13.5026 13.4926 13.5026C13.4911 13.5026 13.4895 13.5026 13.4879 13.5026C13.3252 13.5041 13.1749 13.5901 13.091 13.7295L11.9893 15.5596H9.3252C9.06632 15.5596 8.85645 15.7694 8.85645 16.0283C8.85645 16.2872 9.06632 16.4971 9.3252 16.4971H12.2542Z" fill="#F8B81F"/>
<path d="M26.4437 3.4873C26.1848 3.4873 25.9749 3.69718 25.9749 3.95605V5.3388H24.5923C24.3334 5.3388 24.1235 5.54868 24.1235 5.80755C24.1235 6.06643 24.3334 6.2763 24.5923 6.2763H25.9749V7.65912C25.9749 7.91799 26.1848 8.12787 26.4437 8.12787C26.7025 8.12787 26.9124 7.91799 26.9124 7.65912V6.2763H28.295C28.5539 6.2763 28.7638 6.06643 28.7638 5.80755C28.7638 5.54868 28.5539 5.3388 28.295 5.3388H26.9124V3.95605C26.9124 3.69718 26.7025 3.4873 26.4437 3.4873Z" fill="#F8B81F"/>
<path d="M28.0975 19.5476C30.3812 17.1062 31.0357 13.4144 29.7804 10.2494C31.1274 9.23411 32 7.62092 32 5.80755C32 2.74348 29.5074 0.250732 26.4435 0.250732C25.1849 0.250732 23.9525 0.68267 22.9731 1.46698C22.7711 1.6288 22.7384 1.9238 22.9002 2.12586C23.0621 2.32786 23.3571 2.36055 23.5591 2.19873C24.3846 1.53761 25.382 1.18823 26.4434 1.18823C28.9903 1.18823 31.0624 3.26048 31.0624 5.80755C31.0624 8.35567 28.9904 10.4287 26.4434 10.4287C24.072 10.4287 22.1131 8.63255 21.8529 6.32936C21.8524 6.32405 21.8516 6.31867 21.8509 6.3133C21.8327 6.14711 21.8226 5.97848 21.8226 5.80755C21.8226 5.08405 21.9852 4.39217 22.3057 3.75105C22.4214 3.51948 22.3276 3.23792 22.0961 3.12211C21.8643 3.00642 21.5829 3.10023 21.4671 3.33173C21.0809 4.10417 20.8851 4.93717 20.8851 5.80748C20.8851 5.88623 20.8872 5.96448 20.8904 6.04248C19.7068 6.46555 18.602 7.16136 17.6761 8.07192L17.158 8.5813C17.1555 8.5788 17.1536 8.57692 17.1511 8.57442L16.6418 8.07255C14.9936 6.44755 12.8361 5.53942 10.7218 5.58317C8.96238 5.61942 7.4055 6.3088 6.21987 7.5763C6.043 7.76567 6.053 8.06255 6.24237 8.23942C6.43175 8.41567 6.728 8.4063 6.90487 8.21692C7.91362 7.13817 9.23987 6.5513 10.7411 6.52067C12.6036 6.48255 14.5143 7.29192 15.9836 8.74005L16.4936 9.24255C16.7399 9.48505 16.9499 9.60567 17.1593 9.60567C17.3668 9.60567 17.5736 9.48692 17.8155 9.24942L18.3336 8.74005C19.1122 7.9748 20.0305 7.37892 21.0136 6.99673C21.5597 9.49223 23.7866 11.3661 26.4434 11.3661C27.3529 11.3661 28.2121 11.1464 28.9707 10.7571C30.0094 13.5509 29.413 16.765 27.4161 18.9031L20.6869 25.7914L20.13 25.9001C19.995 25.9264 19.8756 25.9501 19.7669 25.972C19.0606 26.1151 18.8919 26.1489 18.065 26.0214L14.0556 25.2882C13.5094 25.0995 13.5644 24.6645 13.595 24.5339C13.6431 24.3307 13.8319 24.0026 14.2375 24.0639C14.2413 24.0645 14.245 24.0651 14.2487 24.0657C14.4294 24.0889 14.6231 24.1139 14.8256 24.1395C15.585 24.2376 16.445 24.3482 17.2087 24.4264C18.7712 24.5845 19.655 23.7645 19.8388 22.8807C20.0256 21.9801 19.5125 20.7826 17.9438 20.282C17.925 20.2764 17.9056 20.2714 17.8856 20.2676L15.3038 19.7939C13.9025 19.537 12.8125 19.7351 11.1625 20.0351C10.7263 20.1145 10.2313 20.2039 9.68 20.2945L8.45625 20.4957L8.07938 20.1101L6.90125 18.9039C4.69938 16.5432 4.21125 12.8457 5.71625 9.91011C5.83437 9.68011 5.74312 9.39761 5.51312 9.27948C5.2825 9.16136 5 9.25198 4.88188 9.48261C3.19938 12.7651 3.74937 16.9039 6.22 19.5476C6.2225 19.5501 6.225 19.5526 6.22687 19.5551L7.32688 20.6814L5.27825 21.0181V20.9646C5.27825 20.6027 4.95894 20.3082 4.56644 20.3082H0.71C0.3185 20.3082 0 20.6027 0 20.9646V29.2124C0 29.5744 0.3185 29.8688 0.71 29.8688H4.5665C4.959 29.8688 5.27831 29.5744 5.27831 29.2124V29.1556L9.49375 30.3026L13.385 31.3601C14.2731 31.6357 14.9888 31.7495 15.6419 31.7495C16.6756 31.7495 17.5538 31.4657 18.7138 31.0907C18.8169 31.0576 18.9225 31.0232 19.0312 30.9882L26.6994 28.5295C27.5881 28.2445 28.2206 27.6045 28.3906 26.8176C28.5225 26.2076 28.3388 25.6051 27.8988 25.2057C27.5425 24.8826 26.705 24.4189 25.0906 24.9295L22.3069 25.4739L28.0906 19.5551C28.0931 19.5526 28.095 19.5501 28.0975 19.5476ZM0.9375 28.9313V21.2457H4.34075V21.5677C4.34075 21.5687 4.34062 21.5697 4.34062 21.5707V28.5419C4.34062 28.5425 4.34075 28.543 4.34075 28.5435V28.9313H0.9375ZM25.35 25.8307C26.215 25.5532 26.9144 25.5782 27.2694 25.9001C27.4606 26.0739 27.5356 26.3364 27.4744 26.6189C27.3756 27.0745 26.9787 27.4551 26.4131 27.6364L18.7444 30.0957C18.635 30.1307 18.5287 30.1651 18.425 30.1989C16.5906 30.7914 15.67 31.0895 13.655 30.4626C13.65 30.4607 13.6444 30.4595 13.6388 30.4576L5.27825 28.1839V21.9682L9.83187 21.2201C10.3906 21.1282 10.89 21.037 11.3306 20.957C12.9337 20.6657 13.9019 20.4901 15.1344 20.7164L17.6863 21.1845C18.6813 21.5114 19.0244 22.192 18.9206 22.6901C18.8013 23.2657 18.1662 23.5814 17.3037 23.4939C16.5525 23.417 15.6988 23.307 14.9456 23.2101C14.7444 23.1839 14.5512 23.1589 14.3719 23.1364C13.4756 23.0039 12.8438 23.6307 12.6825 24.3201C12.6481 24.467 12.6344 24.6232 12.6444 24.7807C12.6788 25.3507 13.0194 25.942 13.7969 26.1901C13.8162 26.1964 14.075 26.2445 14.075 26.2445L17.9031 26.9445C17.9069 26.9451 17.9112 26.9457 17.9156 26.9464C18.7056 27.0695 19.0475 27.0589 19.5319 26.9732C19.6588 26.9507 20.1763 26.8457 20.3094 26.8201L21.1531 26.6551C21.1531 26.6551 25.3325 25.8364 25.35 25.8307Z" fill="#F8B81F"/>
</svg>
