<svg width="99" height="99" viewBox="0 0 99 99" fill="none" xmlns="http://www.w3.org/2000/svg">
<path d="M12.9754 25.562L23.7588 26.7995L24.9892 37.5758L35.7655 38.8061L36.9958 49.5824L47.5812 50.7916L47.5883 50.7845L47.6802 50.7916L48.9176 61.575L59.6939 62.8053L60.9243 73.5816L71.7006 74.812L72.931 85.5883L83.5234 86.8046L84.4498 85.8782L73.8573 84.662L72.6269 73.8857L61.8506 72.6553L60.6202 61.879L49.8439 60.6487L48.6065 49.8653L48.4863 49.8582L37.9221 48.6561L36.6988 37.8728L25.9155 36.6495L24.6922 25.8661L13.9017 24.6357L12.6784 13.8523L12.5511 13.8382L11.6178 14.7716L11.745 14.7857L12.9754 25.562Z" fill="#FF2F8B" fill-opacity="0.4"/>
<path d="M4.87905 21.6517L6.10943 32.428L16.8928 33.6655L18.1232 44.4418L28.8995 45.6721L30.1298 56.4484L40.7223 57.6505L40.8142 57.6576L42.0517 68.441L52.828 69.6713L54.0583 80.4476L64.8347 81.678L66.065 92.4543L76.6575 93.6705L77.5838 92.7442L66.9913 91.528L65.761 80.7517L54.9846 79.5213L53.7543 68.745L42.978 67.5146L41.7405 56.7313L41.6274 56.7171L41.6203 56.7242L31.0562 55.5221L29.8328 44.7387L19.0495 43.5154L17.8262 32.7321L7.03573 31.5017L5.81243 20.7183L5.68518 20.7042L4.75887 21.6305L4.87905 21.6517Z" fill="#FF2F8B" fill-opacity="0.4"/>
<path d="M26.757 11.7804L37.5475 13.0108L38.7707 23.7942L49.5541 25.0174L50.7774 35.8008L61.3699 37.0029L61.3769 36.9959L61.4618 37.01L62.6993 47.7934L73.4756 49.0237L74.7059 59.8L85.4822 61.0304L86.7126 71.8067L97.305 73.023L98.2384 72.0896L87.6389 70.8804L86.4085 60.1041L75.6322 58.8737L74.4019 48.0974L63.6256 46.8671L62.3881 36.0837L62.275 36.0695L62.2679 36.0766L51.7037 34.8745L50.4804 24.0911L39.6971 22.8679L38.4738 12.0845L27.6833 10.8541L26.46 0.0707234L26.3327 0.0566106L25.4064 0.982919L25.5337 0.997032L26.757 11.7804Z" fill="#FF2F8B" fill-opacity="0.4"/>
<path d="M19.8909 18.6465L30.6814 19.8769L31.9047 30.6602L42.688 31.8835L43.9114 42.6669L54.5038 43.869L54.5109 43.8619L54.5957 43.8761L55.8332 54.6595L66.6095 55.8898L67.8398 66.6661L78.6161 67.8965L79.8465 78.6728L90.4461 79.8819L91.3724 78.9556L80.7728 77.7465L79.5495 66.9631L68.7661 65.7398L67.5429 54.9564L56.7595 53.7332L55.5291 42.9427L55.4089 42.9356L55.4018 42.9427L44.8447 41.7336L43.6143 30.9572L32.838 29.7269L31.6077 18.9506L20.8243 17.7131L19.5939 6.93681L19.4667 6.92268L18.5404 7.84899L18.6676 7.86312L19.8909 18.6465Z" fill="#FF2F8B" fill-opacity="0.4"/>
</svg>
