<svg width="74" height="74" viewBox="0 0 74 74" fill="none" xmlns="http://www.w3.org/2000/svg">
<path fill-rule="evenodd" clip-rule="evenodd" d="M14.1294 34.6875H27.75C28.9766 34.6875 30.153 35.1748 31.0204 36.0421C31.8877 36.9095 32.375 38.0859 32.375 39.3125V53.1875C32.375 54.4141 31.8877 55.5905 31.0204 56.4579C30.153 57.3252 28.9766 57.8125 27.75 57.8125H13.875C12.6484 57.8125 11.472 57.3252 10.6046 56.4579C9.73728 55.5905 9.25 54.4141 9.25 53.1875V37.8094C9.2514 33.6223 10.2864 29.5003 12.263 25.8092C14.2397 22.118 17.097 18.9719 20.5812 16.65L24.7206 13.875L27.2644 17.7137L23.125 20.4887C20.7208 22.0999 18.679 24.1948 17.1301 26.6396C15.5811 29.0844 14.5592 31.8254 14.1294 34.6875ZM46.5044 34.6875H60.125C61.3516 34.6875 62.528 35.1748 63.3954 36.0421C64.2627 36.9095 64.75 38.0859 64.75 39.3125V53.1875C64.75 54.4141 64.2627 55.5905 63.3954 56.4579C62.528 57.3252 61.3516 57.8125 60.125 57.8125H46.25C45.0234 57.8125 43.847 57.3252 42.9796 56.4579C42.1123 55.5905 41.625 54.4141 41.625 53.1875V37.8094C41.6264 33.6223 42.6614 29.5003 44.638 25.8092C46.6147 22.118 49.472 18.9719 52.9562 16.65L57.1188 13.875L59.6394 17.7137L55.5 20.4887C53.0958 22.0999 51.054 24.1948 49.5051 26.6396C47.9561 29.0844 46.9342 31.8254 46.5044 34.6875Z" fill="#D9D9D9"/>
</svg>
