<svg width="298" height="298" viewBox="0 0 298 298" fill="none" xmlns="http://www.w3.org/2000/svg">
<path fill-rule="evenodd" clip-rule="evenodd" d="M241.101 139.688H186.25C181.31 139.688 176.573 141.65 173.08 145.143C169.587 148.635 167.625 153.373 167.625 158.312V214.188C167.625 219.127 169.587 223.865 173.08 227.357C176.573 230.85 181.31 232.812 186.25 232.812H242.125C247.065 232.812 251.802 230.85 255.295 227.357C258.788 223.865 260.75 219.127 260.75 214.188V152.259C260.744 135.398 256.577 118.799 248.616 103.934C240.656 89.07 229.15 76.4005 215.119 67.05L198.449 55.875L188.206 71.3337L204.875 82.5087C214.557 88.9969 222.779 97.4331 229.017 107.278C235.254 117.124 239.37 128.162 241.101 139.688ZM110.726 139.688H55.875C50.9353 139.688 46.198 141.65 42.7051 145.143C39.2123 148.635 37.25 153.373 37.25 158.312V214.188C37.25 219.127 39.2123 223.865 42.7051 227.357C46.198 230.85 50.9353 232.812 55.875 232.812H111.75C116.69 232.812 121.427 230.85 124.92 227.357C128.413 223.865 130.375 219.127 130.375 214.188V152.259C130.369 135.398 126.202 118.799 118.241 103.934C110.281 89.07 98.7751 76.4005 84.7438 67.05L67.9812 55.875L57.8306 71.3337L74.5 82.5087C84.182 88.9969 92.4043 97.4331 98.6418 107.278C104.879 117.124 108.995 128.162 110.726 139.688Z" fill="#D9D9D9"/>
</svg>
