<svg width="36" height="29" viewBox="0 0 36 29" fill="none" xmlns="http://www.w3.org/2000/svg">
<path fill-rule="evenodd" clip-rule="evenodd" d="M32.835 13.5H24C23.2044 13.5 22.4413 13.8161 21.8787 14.3787C21.3161 14.9413 21 15.7044 21 16.5V25.5C21 26.2956 21.3161 27.0587 21.8787 27.6213C22.4413 28.1839 23.2044 28.5 24 28.5H33C33.7956 28.5 34.5587 28.1839 35.1213 27.6213C35.6839 27.0587 36 26.2956 36 25.5V15.525C35.9991 12.8091 35.3278 10.1353 34.0456 7.74108C32.7634 5.34684 30.9101 3.30611 28.65 1.8L25.965 0L24.315 2.49L27 4.29C28.5595 5.33508 29.8839 6.69392 30.8886 8.27975C31.8933 9.86557 32.5562 11.6435 32.835 13.5ZM11.835 13.5H3C2.20435 13.5 1.44129 13.8161 0.878681 14.3787C0.316071 14.9413 0 15.7044 0 16.5V25.5C0 26.2956 0.316071 27.0587 0.878681 27.6213C1.44129 28.1839 2.20435 28.5 3 28.5H12C12.7956 28.5 13.5587 28.1839 14.1213 27.6213C14.6839 27.0587 15 26.2956 15 25.5V15.525C14.9991 12.8091 14.3278 10.1353 13.0456 7.74108C11.7634 5.34684 9.91008 3.30611 7.65 1.8L4.95 0L3.315 2.49L6 4.29C7.55951 5.33508 8.88392 6.69392 9.88862 8.27975C10.8933 9.86557 11.5562 11.6435 11.835 13.5Z" fill="#D9D9D9"/>
</svg>
