<svg width="55" height="47" viewBox="0 0 55 47" fill="none" xmlns="http://www.w3.org/2000/svg">
<path d="M35.058 19.1796C29.4743 15.707 25.4061 8.60051 24.2495 0C23.0928 8.60051 19.0247 15.707 13.4808 19.1796C12.4039 19.866 9.6918 20.9158 9.6918 20.9158C9.6918 20.9158 12.4039 21.9656 13.4808 22.6521C19.0645 26.1246 23.1327 33.2311 24.2495 41.8316C25.4061 33.1907 29.4743 26.0842 35.058 22.6117C36.1349 21.9253 38.847 20.8754 38.847 20.8754C38.847 20.8754 36.1349 19.866 35.058 19.1796Z" fill="#FFD335"/>
<path d="M8.33575 32.262H7.57796V31.4948C7.57796 31.4948 7.57795 27.2551 6.26178 27.2551C4.94561 27.2551 4.94561 31.4948 4.94561 31.4948V32.262H4.18782C4.18782 32.262 0 32.262 0 33.5945C0 34.9269 4.18782 34.9269 4.18782 34.9269H4.94561V35.6941C4.94561 35.6941 4.94561 39.9338 6.26178 39.9338C7.57795 39.9338 7.57796 35.6941 7.57796 35.6941V34.9269H8.33575C8.33575 34.9269 12.5236 34.9269 12.5236 33.5945C12.5236 32.262 8.33575 32.262 8.33575 32.262Z" fill="#FFD335"/>
<path d="M52.4873 34.1194C48.8579 32.1409 46.1856 28.0627 45.4278 23.177C44.67 28.0627 42.0377 32.1409 38.3684 34.1194C37.6505 34.5232 35.8956 35.0885 35.8956 35.0885C35.8956 35.0885 37.6505 35.6942 38.3684 36.0576C41.9978 38.0361 44.67 42.1143 45.4278 47C46.1856 42.1143 48.818 38.0361 52.4873 36.0576C53.2052 35.6538 54.9601 35.0885 54.9601 35.0885C54.9601 35.0885 53.2052 34.4828 52.4873 34.1194Z" fill="#FFD335"/>
<path d="M47.5417 12.5172C47.5417 13.6882 46.5845 14.6573 45.4278 14.6573C44.2712 14.6573 43.314 13.6882 43.314 12.5172C43.314 11.3463 44.2712 10.3772 45.4278 10.3772C46.5845 10.3772 47.5417 11.3463 47.5417 12.5172Z" fill="#FFD335"/>
</svg>
