<svg width="138" height="26" viewBox="0 0 138 26" fill="none" xmlns="http://www.w3.org/2000/svg">
<path d="M25.2192 12.0132L24.0312 18.9008C22.4578 19.7819 20.9748 21.0578 19.7735 22.6684C18.9682 23.7493 18.3702 24.8808 17.9662 26.0074V18.9802C18.4526 18.8358 18.8061 18.4241 18.8061 17.9354C18.8061 17.3239 18.2586 16.8304 17.5862 16.8304C16.9138 16.8304 16.3663 17.3263 16.3663 17.9354C16.3663 18.4241 16.7197 18.8358 17.2061 18.9802V26.0074C16.8021 24.8808 16.2041 23.7493 15.3988 22.6684C14.1975 21.0578 12.7145 19.7819 11.1411 18.9008L9.95312 12.0132L17.145 14.6276C17.2858 14.6782 17.4347 14.7047 17.5888 14.7047C17.743 14.7047 17.8891 14.6782 18.0327 14.6276L25.2192 12.0132Z" fill="url(#paint0_linear_417_13988)"/>
<path d="M34.2534 9.73813L33.6155 9.99332V8.64517L31.3671 9.50702V10.8961L17.9588 16.2791C17.7222 16.3754 17.4485 16.3754 17.212 16.2791L2.06547 10.1979C1.57113 10.0005 1.2522 9.55998 1.2522 9.07609V8.50554C1.2522 8.22387 1.40369 7.97591 1.66681 7.82184C1.92993 7.66776 2.2462 7.6485 2.53324 7.76165L16.7415 13.4672C17.2757 13.6815 17.887 13.6815 18.4212 13.4672L34.7159 6.92387C35.0029 6.80832 35.1305 6.50739 35.0029 6.2498C34.9178 6.08128 34.7451 5.97535 34.5564 5.95369C34.5112 5.91998 34.4607 5.88869 34.4022 5.86702L18.0146 0.012207L1.90866 6.68554C1.60568 6.71924 1.31067 6.81072 1.0449 6.96239C0.457537 7.30184 0.109375 7.87721 0.109375 8.50072V9.07128C0.109375 9.9572 0.69142 10.7613 1.59505 11.1248L16.7415 17.2059C17.0073 17.3142 17.2943 17.3672 17.5814 17.3672C17.8684 17.3672 18.1555 17.3142 18.4212 17.2059L31.3644 12.0083V17.3768L32.5126 15.2391L33.6155 16.515V11.1031L34.7185 10.6602C35.0056 10.5446 35.1331 10.2437 35.0056 9.98609C34.878 9.73813 34.5404 9.62258 34.2534 9.73813Z" fill="url(#paint1_linear_417_13988)"/>
<path d="M49.9186 19.3921H46.918V7.25391H49.9186V19.3921ZM56.8367 19.3921H47.7578V16.9461H56.8367V19.3921Z" fill="white"/>
<path d="M62.7995 19.5751C61.6514 19.5751 60.7052 19.3825 59.9584 18.9949C59.2116 18.6074 58.6588 18.0609 58.2973 17.3555C57.9385 16.6501 57.7578 15.8196 57.7578 14.8638C57.7578 13.8864 57.9598 13.0414 58.3664 12.3264C58.7731 11.6138 59.3551 11.0649 60.1152 10.6774C60.8753 10.2922 61.7763 10.0972 62.8155 10.0972C63.8281 10.0972 64.6919 10.2657 65.4068 10.6051C66.1191 10.9446 66.6666 11.4116 67.0466 12.0087C67.4267 12.6057 67.6154 13.3038 67.6154 14.1007C67.6154 14.3535 67.5994 14.6014 67.5649 14.8446C67.5303 15.0853 67.5011 15.2851 67.4745 15.4416H59.0761V13.7925H64.9151L64.7158 13.937C64.7689 13.5879 64.7264 13.2942 64.5856 13.0583C64.4447 12.8224 64.2188 12.6418 63.9052 12.5142C63.5916 12.3866 63.1955 12.324 62.7145 12.324C61.8879 12.324 61.3218 12.4925 61.0135 12.832C60.7079 13.169 60.5538 13.6529 60.5538 14.2812V15.0781C60.5538 15.5861 60.6175 15.9953 60.7425 16.3107C60.87 16.6236 61.0986 16.8548 61.4335 16.9992C61.7657 17.1436 62.2334 17.2159 62.8341 17.2159C63.4347 17.2159 63.8706 17.1533 64.1444 17.0257C64.4181 16.8981 64.5537 16.6959 64.5537 16.419V16.3107H67.5144V16.4912C67.5144 17.1436 67.3204 17.6998 66.935 18.1572C66.547 18.617 66.0021 18.9661 65.2952 19.2068C64.5909 19.4524 63.759 19.5751 62.7995 19.5751Z" fill="white"/>
<path d="M71.9569 19.5752C71.0639 19.5752 70.3145 19.3633 69.7058 18.942C69.0999 18.5183 68.7969 17.8972 68.7969 17.0763C68.7969 16.6045 68.9191 16.1952 69.1663 15.8437C69.4135 15.4946 69.7723 15.2082 70.2453 14.9843C70.7184 14.7604 71.3005 14.6015 71.9941 14.5052L75.6353 14.0165V15.7739L72.5549 16.2096C72.2466 16.2578 72.0207 16.33 71.8745 16.4263C71.7284 16.5226 71.6539 16.667 71.6539 16.862C71.6539 17.1028 71.7603 17.2737 71.9729 17.37C72.1855 17.4663 72.5124 17.5145 72.9536 17.5145C73.3655 17.5145 73.7642 17.4687 74.1443 17.3796C74.5243 17.2882 74.8353 17.1196 75.0745 16.8717C75.3137 16.6237 75.4333 16.265 75.4333 15.7932L75.7123 18.1669H75.3721C75.1994 18.3835 74.9628 18.6026 74.6625 18.8193C74.3622 19.0359 73.9928 19.2189 73.5516 19.3633C73.1157 19.5006 72.5842 19.5752 71.9569 19.5752ZM78.2771 19.3922H75.4971V17.7985L75.4359 17.2737V13.742C75.4359 13.21 75.2818 12.8658 74.9761 12.7093C74.6705 12.5528 74.216 12.4733 73.6154 12.4733C73.0147 12.4733 72.5815 12.5648 72.3157 12.7454C72.05 12.9259 71.9171 13.2461 71.9171 13.7059V13.9058H69.0573V13.7059C69.0573 12.9813 69.254 12.3482 69.6474 11.8041C70.0407 11.26 70.5882 10.8411 71.2872 10.545C71.9862 10.2489 72.8101 10.1021 73.7562 10.1021C74.7423 10.1021 75.5715 10.2561 76.2465 10.5643C76.9189 10.8724 77.4266 11.3154 77.7668 11.8956C78.107 12.4758 78.2771 13.1763 78.2771 13.9972V19.3922Z" fill="white"/>
<path d="M83.034 19.3922H80.0547V10.2802H82.8347V12.8706L83.034 12.962V19.3922ZM83.034 13.6867H82.4732V11.7487H82.9543C83.2068 11.2889 83.5629 10.9013 84.0254 10.5811C84.4851 10.2609 85.0672 10.1021 85.7742 10.1021C86.4811 10.1021 87.0446 10.2441 87.4645 10.5282C87.8844 10.8122 88.1874 11.1974 88.3734 11.6885C88.5595 12.1772 88.6525 12.7309 88.6525 13.3448V14.1778H85.6732V13.6891C85.6732 13.1932 85.5801 12.8561 85.3941 12.6756C85.2081 12.495 84.8732 12.4035 84.3948 12.4035C83.9403 12.4035 83.6001 12.495 83.3742 12.6756C83.1483 12.8537 83.034 13.1908 83.034 13.6867Z" fill="white"/>
<path d="M92.8934 19.3922H89.9141V10.2801H92.6941V12.8536L92.8934 12.9451V19.3922ZM99.9338 19.3922H96.9332V14.1561C96.9332 13.5277 96.7923 13.0848 96.5132 12.8248C96.2342 12.5648 95.7133 12.4348 94.9532 12.4348C94.4721 12.4348 94.0841 12.4901 93.7837 12.5985C93.4834 12.7068 93.2602 12.8922 93.114 13.1498C92.9678 13.4098 92.8934 13.7685 92.8934 14.2283H92.4735L92.2343 11.8738H92.8137C92.9997 11.5224 93.2442 11.2166 93.5445 10.9494C93.8449 10.6846 94.2143 10.4751 94.6555 10.3235C95.0967 10.1718 95.6096 10.0972 96.1943 10.0972C97.074 10.0972 97.7863 10.2536 98.3338 10.569C98.8813 10.882 99.2826 11.3081 99.5431 11.8449C99.8035 12.3818 99.9338 12.9716 99.9338 13.612V19.3922Z" fill="white"/>
<path d="M104.712 19.3921H101.711V7.25391H104.712V19.3921ZM112.071 14.5026H102.551V12.0759H112.071V14.5026ZM113.551 19.3921H110.551V7.25391H113.551V19.3921Z" fill="white"/>
<path d="M119.091 19.5748C118.225 19.5748 117.512 19.4183 116.952 19.1029C116.391 18.79 115.984 18.3663 115.732 17.8342C115.479 17.3022 115.352 16.71 115.352 16.06V10.2822H118.331V15.5183C118.331 16.1587 118.474 16.604 118.761 16.8592C119.048 17.112 119.564 17.2396 120.311 17.2396C120.792 17.2396 121.185 17.1842 121.491 17.0759C121.797 16.9676 122.02 16.7822 122.161 16.5246C122.302 16.2646 122.371 15.9059 122.371 15.4461H123.03V17.8005H122.469C122.283 18.152 122.036 18.4602 121.73 18.725C121.425 18.9898 121.052 19.1992 120.619 19.3509C120.189 19.4978 119.678 19.5748 119.091 19.5748ZM125.353 19.3918H122.573V16.8183L122.373 16.7268V10.2798H125.353V19.3918Z" fill="white"/>
<path d="M129.975 19.3921H127.195V7.25391H130.175V17.235L129.975 17.4709V19.3921ZM133.375 19.575C132.588 19.575 131.907 19.445 131.336 19.185C130.762 18.925 130.342 18.5471 130.076 18.0535H129.656L129.797 15.5715H130.177C130.177 15.9711 130.265 16.2937 130.438 16.5417C130.611 16.7896 130.86 16.9702 131.187 17.0858C131.514 17.2013 131.918 17.2567 132.397 17.2567C132.824 17.2567 133.181 17.2085 133.468 17.1122C133.755 17.0159 133.981 16.8715 134.148 16.6765C134.315 16.4839 134.43 16.2335 134.499 15.9254C134.565 15.6172 134.6 15.2585 134.6 14.8469C134.6 14.4352 134.565 14.0765 134.499 13.7684C134.432 13.4602 134.315 13.2074 134.148 13.0076C133.981 12.8078 133.755 12.6609 133.468 12.5646C133.181 12.4684 132.824 12.4202 132.397 12.4202C131.915 12.4202 131.514 12.478 131.187 12.5911C130.86 12.7067 130.611 12.8848 130.438 13.1256C130.265 13.3663 130.177 13.6937 130.177 14.103H129.797L129.656 11.5487H130.297C130.523 11.1611 130.9 10.8241 131.426 10.5352C131.953 10.2463 132.596 10.0995 133.356 10.0995C134.743 10.0995 135.793 10.528 136.505 11.385C137.218 12.2421 137.576 13.3952 137.576 14.8445C137.576 16.2696 137.22 17.4132 136.505 18.2774C135.79 19.1417 134.749 19.575 133.375 19.575Z" fill="white"/>
<defs>
<linearGradient id="paint0_linear_417_13988" x1="9.94911" y1="19.0116" x2="25.2188" y2="19.0116" gradientUnits="userSpaceOnUse">
<stop stop-color="white"/>
<stop offset="1" stop-color="white"/>
</linearGradient>
<linearGradient id="paint1_linear_417_13988" x1="0.113388" y1="8.70102" x2="35.0583" y2="8.70102" gradientUnits="userSpaceOnUse">
<stop stop-color="white"/>
<stop offset="1" stop-color="white"/>
</linearGradient>
</defs>
</svg>
