<svg width="94" height="94" viewBox="0 0 94 94" fill="none" xmlns="http://www.w3.org/2000/svg">
<rect y="0.378601" width="93.3391" height="93.3391" fill="#553CDF"/>
<path d="M67.3598 35.538C66.9624 34.9844 66.645 34.3776 66.4168 33.7354C66.2847 33.0369 66.2521 32.3232 66.3199 31.6155C66.4853 30.3813 66.2965 29.1255 65.7755 27.9946C65.0495 26.9688 64.0461 26.1712 62.883 25.6954C62.246 25.407 61.6533 25.0295 61.1225 24.5743C60.6676 24.0432 60.2901 23.4505 60.0013 22.8137C59.5257 21.6502 58.7281 20.6465 57.7022 19.9202C56.5716 19.4004 55.3167 19.212 54.0833 19.3767C53.3753 19.4446 52.6612 19.412 51.9624 19.2799C51.3198 19.0521 50.7126 18.7348 50.1588 18.3374C49.151 17.5562 47.9401 17.0809 46.67 16.9681C45.3998 17.0807 44.1886 17.5558 43.1807 18.337C42.6271 18.7342 42.0202 19.0515 41.3781 19.2795C40.6794 19.4105 39.9659 19.4431 39.2582 19.3763C38.024 19.2113 36.7683 19.4001 35.6372 19.9208C34.6116 20.6469 33.8142 21.6504 33.3386 22.8137C33.0502 23.4507 32.6727 24.0434 32.2175 24.5742C31.6864 25.0291 31.0937 25.4066 30.4569 25.6954C29.2934 26.1711 28.2896 26.9686 27.5634 27.9946C27.0437 29.1252 26.8552 30.3801 27.0199 31.6135C27.0878 32.3215 27.0552 33.0355 26.9231 33.7344C26.6951 34.377 26.3777 34.9842 25.9801 35.538C25.199 36.5458 24.7239 37.7568 24.6113 39.0268C24.7239 40.297 25.199 41.5082 25.9802 42.5161C26.3776 43.0697 26.695 43.6765 26.9232 44.3187C27.0553 45.0172 27.0879 45.7309 27.02 46.4386C26.8547 47.6728 27.0435 48.9286 27.5645 50.0595C28.2904 51.0853 29.2938 51.8829 30.457 52.3586C31.094 52.6471 31.6867 53.0246 32.2175 53.4798C32.6723 54.0107 33.0498 54.6033 33.3386 55.2399C33.6215 55.8122 33.9471 56.3625 34.3126 56.8859L28.6827 72.3538C28.6181 72.5313 28.6051 72.7234 28.6449 72.908C28.6848 73.0926 28.776 73.2622 28.908 73.3972C29.04 73.5323 29.2075 73.6273 29.3911 73.6714C29.5747 73.7154 29.7671 73.7067 29.946 73.6462L35.2678 71.8486L38.1896 76.6474C38.2792 76.7944 38.405 76.9159 38.5551 77.0002C38.7051 77.0844 38.8743 77.1287 39.0464 77.1287C39.0787 77.1287 39.112 77.1267 39.1453 77.1238C39.3333 77.1052 39.5122 77.0339 39.6613 76.918C39.8105 76.802 39.9239 76.6463 39.9883 76.4688L45.6399 60.9434C46.3136 61.1336 47.0268 61.1336 47.7004 60.9434L53.352 76.4688C53.4165 76.6463 53.5299 76.802 53.679 76.918C53.8282 77.0339 54.0071 77.1052 54.1951 77.1238C54.2284 77.1267 54.2617 77.1287 54.294 77.1287C54.4661 77.1287 54.6353 77.0844 54.7853 77.0002C54.9354 76.9159 55.0612 76.7944 55.1507 76.6474L58.0726 71.8486L63.3944 73.6461C63.5734 73.7066 63.7657 73.7153 63.9494 73.6713C64.133 73.6272 64.3005 73.5322 64.4325 73.3971C64.5645 73.2621 64.6557 73.0925 64.6955 72.9079C64.7354 72.7233 64.7223 72.5312 64.6578 72.3537L59.0274 56.8851C59.3927 56.3617 59.7182 55.8118 60.0013 55.2398C60.2898 54.6028 60.6673 54.0101 61.1225 53.4793C61.6535 53.0244 62.2463 52.6469 62.8831 52.3581C64.0466 51.8825 65.0503 51.0849 65.7766 50.059C66.2963 48.9284 66.4847 47.6735 66.32 46.4401C66.2521 45.7321 66.2847 45.018 66.4169 44.3192C66.6448 43.6766 66.9623 43.0694 67.3599 42.5156C68.1409 41.5078 68.616 40.2968 68.7286 39.0268C68.616 37.7568 68.1409 36.5458 67.3598 35.538ZM38.818 73.8224L36.564 70.1202C36.4455 69.9257 36.2642 69.7773 36.0501 69.6995C35.836 69.6218 35.6018 69.6192 35.3861 69.6923L31.2805 71.0788L35.9382 58.2811C36.9984 58.6707 38.1351 58.8062 39.2571 58.6767C39.9651 58.6094 40.6791 58.642 41.378 58.7736C42.0206 59.0015 42.6278 59.319 43.1816 59.7166C43.385 59.8461 43.5956 59.9783 43.8106 60.1076L38.818 73.8224ZM57.9539 69.6923C57.7381 69.6192 57.5039 69.6218 57.2898 69.6995C57.0757 69.7773 56.8945 69.9257 56.776 70.1202L54.522 73.8224L49.5298 60.1082C49.7448 59.9778 49.9553 59.8461 50.1588 59.7166C50.7124 59.3192 51.3192 59.0018 51.9614 58.7736C52.66 58.642 53.3736 58.6094 54.0813 58.6767C55.2039 58.8068 56.3413 58.6709 57.4017 58.2802L62.0595 71.0788L57.9539 69.6923ZM65.6678 41.4385C65.1544 42.1613 64.7539 42.958 64.48 43.8012C64.2887 44.6941 64.2332 45.6108 64.3155 46.5203C64.4422 47.375 64.3475 48.2479 64.0404 49.0555C63.4887 49.7352 62.7705 50.2607 61.9557 50.5809C61.1345 50.9572 60.3755 51.4565 59.7046 52.0615C59.099 52.732 58.5994 53.4911 58.2232 54.3125C57.903 55.1274 57.3774 55.8455 56.6976 56.3972C55.8899 56.7035 55.0173 56.7982 54.1626 56.6723C53.2531 56.5905 52.3364 56.646 51.4434 56.8368C50.6006 57.1109 49.8043 57.5114 49.0817 58.0246C48.3842 58.5818 47.5525 58.9458 46.67 59.0801C45.7875 58.9458 44.9558 58.5818 44.2583 58.0246C43.5355 57.5112 42.7388 57.1107 41.8956 56.8368C41.3329 56.6984 40.7545 56.6344 40.1752 56.6463C39.8403 56.6463 39.5064 56.66 39.1765 56.6727C38.3218 56.7989 37.449 56.7042 36.6413 56.3976C35.9615 55.8459 35.436 55.1278 35.1159 54.3129C34.7396 53.4916 34.2403 52.7324 33.6353 52.0615C32.9648 51.4558 32.2057 50.9563 31.3842 50.58C30.5694 50.2598 29.8513 49.7343 29.2996 49.0545C28.9926 48.2469 28.8978 47.3741 29.0245 46.5194C29.1067 45.6099 29.0513 44.6932 28.8599 43.8002C28.5858 42.9574 28.1854 42.1611 27.6722 41.4385C27.115 40.741 26.751 39.9093 26.6167 39.0268C26.751 38.1443 27.115 37.3126 27.6722 36.6151C28.1856 35.8923 28.5861 35.0956 28.8599 34.2524C29.0513 33.3595 29.1068 32.4428 29.0245 31.5333C28.8978 30.6786 28.9925 29.8057 29.2996 28.9981C29.8513 28.3184 30.5694 27.7929 31.3842 27.4727C32.2054 27.0963 32.9645 26.5971 33.6353 25.9921C34.2409 25.3216 34.7405 24.5625 35.1168 23.741C35.437 22.9262 35.9625 22.2081 36.6423 21.6564C37.4499 21.3496 38.3227 21.2548 39.1774 21.3813C40.0869 21.463 41.0035 21.4075 41.8966 21.2167C42.7394 20.9427 43.5357 20.5422 44.2583 20.029C44.9558 19.4718 45.7875 19.1078 46.67 18.9735C47.5525 19.1078 48.3842 19.4718 49.0817 20.029C49.8045 20.5424 50.6012 20.9429 51.4444 21.2167C52.3374 21.4075 53.254 21.463 54.1635 21.3813C55.0182 21.2546 55.891 21.3494 56.6986 21.6564C57.3784 22.2081 57.9039 22.9262 58.2241 23.741C58.6004 24.5622 59.0997 25.3213 59.7046 25.9921C60.3751 26.5977 61.1343 27.0973 61.9557 27.4736C62.7705 27.7938 63.4887 28.3193 64.0404 28.9991C64.3474 29.8067 64.4421 30.6795 64.3155 31.5342C64.2332 32.4437 64.2887 33.3604 64.48 34.2534C64.7541 35.0962 65.1546 35.8925 65.6678 36.6151C66.2249 37.3126 66.5889 38.1443 66.7233 39.0268C66.5889 39.9093 66.2249 40.741 65.6678 41.4385Z" fill="white"/>
<path d="M46.6696 22.9841C43.4967 22.9841 40.395 23.925 37.7568 25.6878C35.1186 27.4506 33.0624 29.9561 31.8481 32.8875C30.6339 35.8189 30.3162 39.0446 30.9352 42.1566C31.5542 45.2685 33.0821 48.1271 35.3257 50.3707C37.5693 52.6143 40.4279 54.1422 43.5398 54.7612C46.6518 55.3802 49.8775 55.0625 52.8089 53.8483C55.7403 52.634 58.2458 50.5778 60.0086 47.9396C61.7714 45.3014 62.7123 42.1997 62.7123 39.0268C62.7074 34.7735 61.0156 30.6958 58.0081 27.6883C55.0006 24.6808 50.9229 22.989 46.6696 22.9841ZM46.6696 53.0641C43.8933 53.0641 41.1793 52.2408 38.8709 50.6984C36.5625 49.156 34.7633 46.9636 33.7008 44.3986C32.6384 41.8337 32.3604 39.0112 32.902 36.2882C33.4436 33.5653 34.7806 31.0641 36.7437 29.1009C38.7069 27.1377 41.2081 25.8008 43.9311 25.2592C46.654 24.7176 49.4765 24.9955 52.0415 26.058C54.6064 27.1204 56.7988 28.9196 58.3412 31.2281C59.8837 33.5365 60.7069 36.2505 60.7069 39.0268C60.7027 42.7484 59.2225 46.3164 56.5909 48.948C53.9593 51.5796 50.3913 53.0599 46.6696 53.0641Z" fill="white"/>
<path d="M50.2671 34.0242L47.5685 28.5566C47.4764 28.4 47.345 28.2702 47.1874 28.18C47.0297 28.0898 46.8512 28.0424 46.6696 28.0424C46.488 28.0424 46.3095 28.0898 46.1518 28.18C45.9941 28.2702 45.8628 28.4 45.7707 28.5566L43.0721 34.0242L37.0376 34.9015C36.8525 34.9285 36.6787 35.0066 36.5357 35.1271C36.3927 35.2476 36.2862 35.4058 36.2284 35.5836C36.1705 35.7614 36.1636 35.9519 36.2083 36.1335C36.253 36.3151 36.3476 36.4805 36.4814 36.6112L40.8484 40.8676L39.8174 46.8788C39.7858 47.0632 39.8065 47.2527 39.877 47.426C39.9476 47.5993 40.0652 47.7493 40.2166 47.8593C40.3679 47.9692 40.5471 48.0345 40.7336 48.048C40.9202 48.0614 41.1069 48.0224 41.2724 47.9353L46.6696 45.0977L52.0667 47.9352C52.2323 48.0223 52.4189 48.0613 52.6055 48.0479C52.7921 48.0344 52.9712 47.9691 53.1226 47.8592C53.274 47.7492 53.3916 47.5992 53.4622 47.4259C53.5327 47.2526 53.5534 47.0631 53.5218 46.8787L52.4908 40.8675L56.8578 36.6111C56.9916 36.4804 57.0862 36.315 57.1309 36.1334C57.1756 35.9518 57.1686 35.7613 57.1108 35.5835C57.0529 35.4057 56.9465 35.2475 56.8035 35.127C56.6605 35.0065 56.4867 34.9284 56.3016 34.9014L50.2671 34.0242ZM50.7135 39.8004C50.5973 39.9138 50.5103 40.0539 50.4602 40.2084C50.4101 40.3629 50.3982 40.5273 50.4257 40.6874L51.2021 45.2152L47.1366 43.0776C46.9926 43.0017 46.8323 42.9621 46.6696 42.9621C46.5068 42.9621 46.3465 43.0017 46.2025 43.0776L42.1375 45.2152L42.914 40.6874C42.9415 40.5273 42.9296 40.3629 42.8795 40.2084C42.8293 40.0539 42.7424 39.9138 42.6261 39.8004L39.3361 36.5935L43.8824 35.9327C44.0433 35.9095 44.1961 35.8474 44.3277 35.7518C44.4592 35.6563 44.5655 35.5302 44.6374 35.3843L46.6696 31.2662L48.7023 35.3845C48.7742 35.5304 48.8805 35.6565 49.012 35.752C49.1436 35.8476 49.2964 35.9097 49.4573 35.9329L54.0036 36.5937L50.7135 39.8004Z" fill="white"/>
</svg>
