<svg width="85" height="85" viewBox="0 0 85 85" fill="none" xmlns="http://www.w3.org/2000/svg">
<rect y="0.378662" width="84.5237" height="84.5237" fill="white"/>
<g clip-path="url(#clip0_75_1263)">
<path d="M41.9228 41.7706C45.0691 41.7706 47.7933 40.6421 50.0198 38.4156C52.2455 36.1895 53.3744 33.4657 53.3744 30.319C53.3744 27.1734 52.2459 24.4492 50.0194 22.2224C47.7929 19.9966 45.0688 18.8682 41.9228 18.8682C38.776 18.8682 36.0523 19.9966 33.8261 22.2227C31.6 24.4488 30.4712 27.173 30.4712 30.319C30.4712 33.4657 31.6 36.1899 33.8261 38.416C36.053 40.6417 38.7771 41.7706 41.9228 41.7706ZM35.7965 24.1928C37.5046 22.4846 39.5084 21.6543 41.9228 21.6543C44.3368 21.6543 46.3409 22.4846 48.0494 24.1928C49.7575 25.9012 50.5882 27.9054 50.5882 30.319C50.5882 32.7334 49.7575 34.7371 48.0494 36.4456C46.3409 38.1541 44.3368 38.9844 41.9228 38.9844C39.5091 38.9844 37.5054 38.1537 35.7965 36.4456C34.088 34.7375 33.2574 32.7334 33.2574 30.319C33.2574 27.9054 34.088 25.9012 35.7965 24.1928Z" fill="black"/>
<path d="M61.9602 55.4275C61.896 54.5011 61.7661 53.4905 61.5749 52.4233C61.382 51.3482 61.1335 50.3318 60.8361 49.4028C60.5285 48.4427 60.1109 47.4945 59.594 46.5858C59.0583 45.6427 58.4286 44.8215 57.722 44.1457C56.9831 43.4387 56.0784 42.8703 55.0323 42.4557C53.9898 42.0433 52.8345 41.8343 51.5986 41.8343C51.1133 41.8343 50.6439 42.0335 49.7374 42.6237C49.1795 42.9875 48.527 43.4083 47.7986 43.8736C47.1758 44.2705 46.3321 44.6423 45.2899 44.9789C44.2732 45.3079 43.2408 45.4748 42.2215 45.4748C41.203 45.4748 40.1706 45.3079 39.1531 44.9789C38.1121 44.6426 37.268 44.2708 36.6463 43.874C35.9248 43.413 35.2719 42.9922 34.7056 42.6233C33.7999 42.0331 33.3305 41.834 32.8452 41.834C31.609 41.834 30.454 42.0433 29.4119 42.4561C28.3665 42.87 27.4614 43.4384 26.7218 44.1461C26.0152 44.8222 25.3855 45.6431 24.8501 46.5858C24.3339 47.4945 23.916 48.4423 23.6084 49.4032C23.3114 50.3322 23.0629 51.3482 22.8699 52.4233C22.6784 53.489 22.5489 54.5 22.4847 55.4286C22.4216 56.3365 22.3896 57.2814 22.3896 58.2362C22.3896 60.718 23.1786 62.7272 24.7344 64.209C26.2709 65.6711 28.3037 66.4126 30.7765 66.4126H53.6695C56.1415 66.4126 58.1743 65.6711 59.7112 64.209C61.2673 62.7283 62.0563 60.7184 62.0563 58.2358C62.0559 57.2778 62.0237 56.3329 61.9602 55.4275ZM57.7902 62.1903C56.7749 63.1567 55.4269 63.6264 53.6691 63.6264H30.7765C29.0183 63.6264 27.6704 63.1567 26.6554 62.1907C25.6597 61.2429 25.1758 59.949 25.1758 58.2362C25.1758 57.3453 25.2052 56.4656 25.264 55.6212C25.3213 54.7927 25.4384 53.8826 25.6122 52.9156C25.7838 51.9605 26.0021 51.0642 26.2619 50.2527C26.5111 49.4746 26.8509 48.7042 27.2724 47.962C27.6747 47.2547 28.1376 46.6478 28.6483 46.1589C29.126 45.7015 29.7282 45.3271 30.4377 45.0464C31.0939 44.7867 31.8313 44.6445 32.6319 44.6231C32.7294 44.6749 32.9032 44.774 33.1847 44.9575C33.7574 45.3308 34.4176 45.7566 35.1474 46.2227C35.9701 46.7472 37.03 47.221 38.2964 47.6298C39.591 48.0484 40.9113 48.2609 42.2219 48.2609C43.5325 48.2609 44.8532 48.0484 46.1471 47.6301C47.4145 47.2206 48.474 46.7472 49.2978 46.222C50.0447 45.7446 50.6863 45.3311 51.2591 44.9575C51.5406 44.7743 51.7143 44.6749 51.8119 44.6231C52.6128 44.6445 53.3503 44.7867 54.0068 45.0464C54.716 45.3271 55.3181 45.7018 55.7958 46.1589C56.3066 46.6475 56.7694 47.2543 57.1717 47.9624C57.5936 48.7042 57.9338 49.475 58.1826 50.2523C58.4427 51.0649 58.6615 51.9608 58.8327 52.9152C59.0061 53.8841 59.1236 54.7945 59.1809 55.6216V55.6223C59.24 56.4635 59.2698 57.3427 59.2701 58.2362C59.2698 59.9494 58.7859 61.2429 57.7902 62.1903Z" fill="black"/>
</g>
<defs>
<clipPath id="clip0_75_1263">
<rect width="47.5446" height="47.5446" fill="white" transform="translate(18.4897 18.8682)"/>
</clipPath>
</defs>
</svg>
