<svg width="50" height="50" viewBox="0 0 50 50" fill="none" xmlns="http://www.w3.org/2000/svg">
<circle cx="25" cy="25" r="25" fill="#DDD8F9"/>
<path fill-rule="evenodd" clip-rule="evenodd" d="M14.5 28.5H35.5C35.9639 28.4994 36.4087 28.3148 36.7367 27.9867C37.0648 27.6587 37.2494 27.2139 37.25 26.75V16.25C37.2488 15.7862 37.0641 15.3418 36.7361 15.0139C36.4082 14.6859 35.9638 14.5012 35.5 14.5H14.5C14.0362 14.5012 13.5918 14.6859 13.2639 15.0139C12.9359 15.3418 12.7512 15.7862 12.75 16.25V26.75C12.7512 27.2138 12.9359 27.6582 13.2639 27.9861C13.5918 28.3141 14.0362 28.4988 14.5 28.5ZM14.5 16.25H35.5V26.75H14.5V16.25ZM23.0555 24.4101C23.6311 24.7947 24.3078 25 25 25C25.9279 24.999 26.8176 24.6299 27.4737 23.9737C28.1299 23.3176 28.499 22.4279 28.5 21.5C28.5 20.8078 28.2947 20.1311 27.9101 19.5555C27.5256 18.9799 26.9789 18.5313 26.3394 18.2664C25.6999 18.0015 24.9961 17.9322 24.3172 18.0673C23.6383 18.2023 23.0146 18.5356 22.5251 19.0251C22.0356 19.5146 21.7023 20.1383 21.5673 20.8172C21.4322 21.4961 21.5015 22.1999 21.7664 22.8394C22.0313 23.4789 22.4799 24.0256 23.0555 24.4101ZM24.0278 20.0449C24.3155 19.8526 24.6539 19.75 25 19.75C25.464 19.7505 25.9088 19.935 26.2369 20.2631C26.565 20.5912 26.7495 21.036 26.75 21.5C26.75 21.8461 26.6474 22.1845 26.4551 22.4722C26.2628 22.76 25.9895 22.9843 25.6697 23.1168C25.3499 23.2492 24.9981 23.2839 24.6586 23.2164C24.3191 23.1489 24.0073 22.9822 23.7626 22.7374C23.5178 22.4927 23.3512 22.1809 23.2836 21.8414C23.2161 21.5019 23.2508 21.1501 23.3832 20.8303C23.5157 20.5105 23.74 20.2372 24.0278 20.0449ZM32 19.75C31.6539 19.75 31.3155 19.8526 31.0278 20.0449C30.74 20.2372 30.5157 20.5105 30.3832 20.8303C30.2508 21.1501 30.2161 21.5019 30.2836 21.8414C30.3512 22.1809 30.5178 22.4927 30.7626 22.7374C31.0073 22.9822 31.3191 23.1489 31.6586 23.2164C31.9981 23.2839 32.3499 23.2492 32.6697 23.1168C32.9895 22.9843 33.2628 22.76 33.4551 22.4722C33.6474 22.1845 33.75 21.8461 33.75 21.5C33.75 21.0359 33.5656 20.5908 33.2374 20.2626C32.9093 19.9344 32.4641 19.75 32 19.75ZM12.75 30.25H37.25V32H12.75V30.25ZM12.75 33.75H37.25V35.5H12.75V33.75ZM18 19.75C17.6539 19.75 17.3155 19.8526 17.0278 20.0449C16.74 20.2372 16.5157 20.5105 16.3832 20.8303C16.2508 21.1501 16.2161 21.5019 16.2836 21.8414C16.3512 22.1809 16.5178 22.4927 16.7626 22.7374C17.0073 22.9822 17.3191 23.1489 17.6586 23.2164C17.9981 23.2839 18.3499 23.2492 18.6697 23.1168C18.9895 22.9843 19.2628 22.76 19.4551 22.4722C19.6474 22.1845 19.75 21.8461 19.75 21.5C19.75 21.0359 19.5656 20.5908 19.2374 20.2626C18.9092 19.9344 18.4641 19.75 18 19.75Z" fill="#553CDF"/>
</svg>
