<svg width="50" height="50" viewBox="0 0 50 50" fill="none" xmlns="http://www.w3.org/2000/svg">
<circle cx="25" cy="25" r="25" fill="#DDD8F9"/>
<g clip-path="url(#clip0_410_5132)">
<path d="M11.8204 34.0234H15.9219V36.4843C15.9219 36.9374 16.2892 37.3046 16.7422 37.3046H38.1797C38.6327 37.3046 39 36.9374 39 36.4843V15.1562C39 14.7032 38.6327 14.3359 38.1797 14.3359H34.0781V13.5156C34.0781 13.0626 33.7109 12.6953 33.2578 12.6953C32.8048 12.6953 32.4375 13.0626 32.4375 13.5156V14.3359H28.2813V13.5156C28.2813 13.0626 27.914 12.6953 27.461 12.6953C27.0079 12.6953 26.6407 13.0626 26.6407 13.5156V14.3359H22.5391V13.5156C22.5391 13.0626 22.1718 12.6953 21.7188 12.6953C21.2658 12.6953 20.8985 13.0626 20.8985 13.5156V14.3359H16.7422C16.2892 14.3359 15.9219 14.7032 15.9219 15.1562V20.0781C15.9219 26.1238 13.4093 30.7747 11.2952 32.5729C11.0299 32.794 10.9315 33.1576 11.049 33.4824C11.1666 33.8071 11.475 34.0234 11.8204 34.0234ZM37.3594 35.664H17.5626V34.0234H33.2578C33.4497 34.0234 33.6356 33.9561 33.783 33.8333C34.7691 33.0119 36.2966 31.0564 37.3594 28.5518V35.664ZM17.5626 15.9766H20.8985V16.7969C20.8985 17.2499 21.2658 17.6172 21.7188 17.6172C22.1718 17.6172 22.5391 17.2499 22.5391 16.7969V15.9766H26.6407V16.7969C26.6407 17.2499 27.0079 17.6172 27.461 17.6172C27.914 17.6172 28.2813 17.2499 28.2813 16.7969V15.9766H32.4375V16.7969C32.4375 17.2499 32.8048 17.6172 33.2578 17.6172C33.7109 17.6172 34.0781 17.2499 34.0781 16.7969V15.9766H37.3594V19.2578H17.5626V15.9766ZM17.5485 20.8979H37.3448C37.16 26.1017 35.1628 30.196 32.9362 32.3828H13.6863C16.2092 29.1682 17.4132 24.9826 17.5485 20.8979Z" fill="#553CDF"/>
</g>
<defs>
<clipPath id="clip0_410_5132">
<rect width="28" height="28" fill="white" transform="translate(11 11)"/>
</clipPath>
</defs>
</svg>
