<svg width="50" height="50" viewBox="0 0 50 50" fill="none" xmlns="http://www.w3.org/2000/svg">
<circle cx="25" cy="25" r="25" fill="#DDD8F9"/>
<path fill-rule="evenodd" clip-rule="evenodd" d="M33.4584 14.9424C33.0267 14.654 32.5192 14.5 32 14.5C31.3038 14.5 30.6361 14.7766 30.1438 15.2688C29.6516 15.7611 29.375 16.4288 29.375 17.125C29.375 17.6442 29.529 18.1517 29.8174 18.5834C30.1058 19.0151 30.5158 19.3515 30.9955 19.5502C31.4751 19.7489 32.0029 19.8008 32.5121 19.6996C33.0213 19.5983 33.489 19.3483 33.8562 18.9812C34.2233 18.614 34.4733 18.1463 34.5746 17.6371C34.6758 17.1279 34.6239 16.6001 34.4252 16.1205C34.2265 15.6408 33.8901 15.2308 33.4584 14.9424ZM29.5694 13.4873C30.2888 13.0066 31.1347 12.75 32 12.75C33.1603 12.75 34.2731 13.2109 35.0936 14.0314C35.9141 14.8519 36.375 15.9647 36.375 17.125C36.375 17.9903 36.1184 18.8362 35.6377 19.5556C35.1569 20.2751 34.4737 20.8358 33.6742 21.167C32.8748 21.4981 31.9951 21.5847 31.1465 21.4159C30.2978 21.2471 29.5183 20.8304 28.9064 20.2186C28.2946 19.6067 27.8779 18.8272 27.7091 17.9785C27.5403 17.1299 27.6269 16.2502 27.958 15.4508C28.2892 14.6513 28.8499 13.9681 29.5694 13.4873ZM32 23.25H33.75C34.9099 23.2513 36.0219 23.7127 36.8421 24.5329C37.6623 25.3531 38.1237 26.4651 38.125 27.625V31.125H36.375V27.625C36.3742 26.929 36.0974 26.2618 35.6053 25.7697C35.1132 25.2776 34.446 25.0008 33.75 25H32V23.25ZM31.125 37.25H29.375V35.5C29.3742 34.804 29.0974 34.1368 28.6053 33.6447C28.1132 33.1526 27.446 32.8758 26.75 32.875H23.25C22.554 32.8758 21.8868 33.1526 21.3947 33.6447C20.9026 34.1368 20.6258 34.804 20.625 35.5V37.25H18.875V35.5C18.8764 34.3401 19.3377 33.2281 20.1579 32.4079C20.9781 31.5877 22.0901 31.1264 23.25 31.125H26.75C27.9099 31.1264 29.0219 31.5877 29.8421 32.4079C30.6623 33.2281 31.1236 34.3401 31.125 35.5V37.25ZM26.4584 22.8174C26.0267 22.529 25.5192 22.375 25 22.375C24.3038 22.375 23.6361 22.6516 23.1438 23.1438C22.6516 23.6361 22.375 24.3038 22.375 25C22.375 25.5192 22.529 26.0267 22.8174 26.4584C23.1058 26.8901 23.5158 27.2265 23.9955 27.4252C24.4751 27.6239 25.0029 27.6758 25.5121 27.5746C26.0213 27.4733 26.489 27.2233 26.8562 26.8562C27.2233 26.489 27.4733 26.0213 27.5746 25.5121C27.6758 25.0029 27.6239 24.4751 27.4252 23.9955C27.2265 23.5158 26.8901 23.1058 26.4584 22.8174ZM22.5694 21.3623C23.2888 20.8816 24.1347 20.625 25 20.625C26.1603 20.625 27.2731 21.0859 28.0936 21.9064C28.9141 22.7269 29.375 23.8397 29.375 25C29.375 25.8653 29.1184 26.7112 28.6377 27.4306C28.1569 28.1501 27.4737 28.7108 26.6742 29.042C25.8748 29.3731 24.9951 29.4597 24.1465 29.2909C23.2978 29.1221 22.5183 28.7054 21.9064 28.0936C21.2946 27.4817 20.8779 26.7022 20.7091 25.8535C20.5403 25.0049 20.6269 24.1252 20.958 23.3258C21.2892 22.5263 21.8499 21.8431 22.5694 21.3623ZM18 23.25H16.25C15.0901 23.2514 13.9781 23.7127 13.1579 24.5329C12.3377 25.3531 11.8764 26.4651 11.875 27.625V31.125H13.625V27.625C13.6258 26.929 13.9026 26.2618 14.3947 25.7697C14.8868 25.2776 15.554 25.0008 16.25 25H18V23.25ZM19.4584 14.9424C19.0267 14.654 18.5192 14.5 18 14.5C17.3038 14.5 16.6361 14.7766 16.1438 15.2688C15.6516 15.7611 15.375 16.4288 15.375 17.125C15.375 17.6442 15.5289 18.1517 15.8174 18.5834C16.1058 19.0151 16.5158 19.3515 16.9955 19.5502C17.4751 19.7489 18.0029 19.8008 18.5121 19.6996C19.0213 19.5983 19.489 19.3483 19.8562 18.9812C20.2233 18.614 20.4733 18.1463 20.5746 17.6371C20.6758 17.1279 20.6239 16.6001 20.4252 16.1205C20.2265 15.6408 19.89 15.2308 19.4584 14.9424ZM15.5694 13.4873C16.2888 13.0066 17.1347 12.75 18 12.75C19.1603 12.75 20.2731 13.2109 21.0936 14.0314C21.9141 14.8519 22.375 15.9647 22.375 17.125C22.375 17.9903 22.1184 18.8362 21.6377 19.5556C21.1569 20.2751 20.4737 20.8358 19.6742 21.167C18.8748 21.4981 17.9951 21.5847 17.1465 21.4159C16.2978 21.2471 15.5183 20.8304 14.9064 20.2186C14.2945 19.6067 13.8779 18.8272 13.7091 17.9785C13.5402 17.1299 13.6269 16.2502 13.958 15.4508C14.2892 14.6513 14.8499 13.9681 15.5694 13.4873Z" fill="#553CDF"/>
</svg>
