<svg width="50" height="50" viewBox="0 0 50 50" fill="none" xmlns="http://www.w3.org/2000/svg">
<circle cx="25" cy="25" r="25" fill="#DDD8F9"/>
<path d="M32 23.25H30.25V18C30.25 16.6076 29.6969 15.2723 28.7123 14.2877C27.7277 13.3031 26.3924 12.75 25 12.75C23.6076 12.75 22.2723 13.3031 21.2877 14.2877C20.3031 15.2723 19.75 16.6076 19.75 18V23.25H18C17.5359 23.25 17.0908 23.4344 16.7626 23.7626C16.4344 24.0908 16.25 24.5359 16.25 25V35.5C16.25 35.9641 16.4344 36.4092 16.7626 36.7374C17.0908 37.0656 17.5359 37.25 18 37.25H32C32.4641 37.25 32.9092 37.0656 33.2374 36.7374C33.5656 36.4092 33.75 35.9641 33.75 35.5V25C33.75 24.5359 33.5656 24.0908 33.2374 23.7626C32.9092 23.4344 32.4641 23.25 32 23.25ZM21.5 18C21.5 17.0717 21.8687 16.1815 22.5251 15.5251C23.1815 14.8687 24.0717 14.5 25 14.5C25.9283 14.5 26.8185 14.8687 27.4749 15.5251C28.1313 16.1815 28.5 17.0717 28.5 18V23.25H21.5V18ZM32 35.5H18V25H32V35.5Z" fill="#961111"/>
<path d="M32 23.25H30.25V18C30.25 16.6076 29.6969 15.2723 28.7123 14.2877C27.7277 13.3031 26.3924 12.75 25 12.75C23.6076 12.75 22.2723 13.3031 21.2877 14.2877C20.3031 15.2723 19.75 16.6076 19.75 18V23.25H18C17.5359 23.25 17.0908 23.4344 16.7626 23.7626C16.4344 24.0908 16.25 24.5359 16.25 25V35.5C16.25 35.9641 16.4344 36.4092 16.7626 36.7374C17.0908 37.0656 17.5359 37.25 18 37.25H32C32.4641 37.25 32.9092 37.0656 33.2374 36.7374C33.5656 36.4092 33.75 35.9641 33.75 35.5V25C33.75 24.5359 33.5656 24.0908 33.2374 23.7626C32.9092 23.4344 32.4641 23.25 32 23.25ZM21.5 18C21.5 17.0717 21.8687 16.1815 22.5251 15.5251C23.1815 14.8687 24.0717 14.5 25 14.5C25.9283 14.5 26.8185 14.8687 27.4749 15.5251C28.1313 16.1815 28.5 17.0717 28.5 18V23.25H21.5V18ZM32 35.5H18V25H32V35.5Z" fill="#553CDF"/>
</svg>
