<svg width="30" height="30" viewBox="0 0 30 30" fill="none" xmlns="http://www.w3.org/2000/svg">
<g clip-path="url(#clip0_204_1951)">
<path d="M1.875 2.80922L9.38156 2.80925V0.940811C9.38156 0.422842 9.80109 0.00331116 10.3191 0.00331116C10.837 0.00331116 11.2566 0.422842 11.2566 0.940811V2.80878H18.7566V0.940811C18.7566 0.422842 19.1761 0.00331116 19.6941 0.00331116C20.212 0.00331116 20.6316 0.422842 20.6316 0.940811V2.80878H28.125C29.1605 2.80878 30 3.64831 30 4.68378V28.1213C30 29.1567 29.1605 29.9963 28.125 29.9963H1.875C0.839531 29.9963 0 29.1567 0 28.1213V4.68378C0 3.64875 0.839531 2.80922 1.875 2.80922ZM1.875 28.1213H28.125V4.68378H20.6316V5.62831C20.6316 6.14625 20.212 6.56581 19.6941 6.56581C19.1761 6.56581 18.7566 6.14625 18.7566 5.62831V4.68425H11.2566V5.62878C11.2566 6.14675 10.837 6.56628 10.3191 6.56628C9.80109 6.56628 9.38156 6.14675 9.38156 5.62878V4.68425H1.875V28.1213ZM8.4375 14.9967H6.5625C6.045 14.9967 5.625 14.5767 5.625 14.0592V12.1842C5.625 11.6667 6.045 11.2467 6.5625 11.2467H8.4375C8.955 11.2467 9.375 11.6667 9.375 12.1842V14.0592C9.375 14.5767 8.955 14.9967 8.4375 14.9967ZM8.4375 22.4963H6.5625C6.045 22.4963 5.625 22.0767 5.625 21.5588V19.6838C5.625 19.1663 6.045 18.7463 6.5625 18.7463H8.4375C8.955 18.7463 9.375 19.1663 9.375 19.6838V21.5588C9.375 22.0772 8.955 22.4963 8.4375 22.4963ZM14.0625 18.7463H15.9375C16.455 18.7463 16.875 19.1663 16.875 19.6838V21.5588C16.875 22.0767 16.455 22.4963 15.9375 22.4963H14.0625C13.545 22.4963 13.125 22.0767 13.125 21.5588V19.6838C13.125 19.1667 13.545 18.7463 14.0625 18.7463ZM14.0625 11.2467H15.9375C16.455 11.2467 16.875 11.6667 16.875 12.1842V14.0592C16.875 14.5767 16.455 14.9967 15.9375 14.9967H14.0625C13.545 14.9967 13.125 14.5767 13.125 14.0592V12.1842C13.125 11.6663 13.545 11.2467 14.0625 11.2467ZM21.5625 11.2467H23.4375C23.955 11.2467 24.375 11.6667 24.375 12.1842V14.0592C24.375 14.5767 23.955 14.9967 23.4375 14.9967H21.5625C21.045 14.9967 20.625 14.5767 20.625 14.0592V12.1842C20.625 11.6663 21.045 11.2467 21.5625 11.2467ZM21.5625 18.7463H23.4375C23.955 18.7463 24.375 19.1663 24.375 19.6838V21.5588C24.375 22.0767 23.955 22.4963 23.4375 22.4963H21.5625C21.045 22.4963 20.625 22.0767 20.625 21.5588V19.6838C20.625 19.1667 21.045 18.7463 21.5625 18.7463Z" fill="black"/>
</g>
<defs>
<clipPath id="clip0_204_1951">
<rect width="30" height="30" fill="white" transform="matrix(-1 0 0 1 30 0)"/>
</clipPath>
</defs>
</svg>
