<svg width="20" height="20" viewBox="0 0 20 20" fill="none" xmlns="http://www.w3.org/2000/svg">
<path fill-rule="evenodd" clip-rule="evenodd" d="M4.72782 12.5321L10 18.75L15.2744 12.5295C15.3023 12.4964 15.4898 12.2499 15.4898 12.2499L15.4908 12.2483C16.391 11.0624 16.8773 9.61389 16.875 8.125C16.875 6.30164 16.1507 4.55295 14.8614 3.26364C13.5721 1.97433 11.8234 1.25 10 1.25C8.17664 1.25 6.42796 1.97433 5.13865 3.26364C3.84934 4.55295 3.12501 6.30164 3.12501 8.125C3.1229 9.6145 3.60951 11.0636 4.51019 12.2499C4.51019 12.2499 4.69788 12.4964 4.72782 12.5321ZM5.5379 11.5364C5.52003 11.5128 5.508 11.497 5.50782 11.4969C4.77156 10.5271 4.37362 9.34261 4.37501 8.125C4.37501 6.63316 4.96764 5.20242 6.02253 4.14752C7.07742 3.09263 8.50816 2.5 10 2.5C11.4919 2.5 12.9226 3.09263 13.9775 4.14752C15.0324 5.20242 15.625 6.63316 15.625 8.125C15.6264 9.34195 15.2288 10.5258 14.493 11.4951C14.4927 11.4956 14.3462 11.6892 14.3188 11.7237L10 16.8174L5.68694 11.7309C5.66321 11.7013 5.58243 11.595 5.5379 11.5364ZM8.26384 10.7233C8.77775 11.0667 9.38194 11.25 10 11.25C10.8285 11.2491 11.6228 10.9195 12.2087 10.3337C12.7945 9.74782 13.1241 8.95351 13.125 8.125C13.125 7.50694 12.9417 6.90275 12.5983 6.38884C12.255 5.87494 11.7669 5.4744 11.1959 5.23788C10.6249 5.00135 9.99654 4.93947 9.39034 5.06005C8.78415 5.18063 8.22733 5.47825 7.79029 5.91529C7.35325 6.35233 7.05563 6.90915 6.93505 7.51534C6.81447 8.12154 6.87635 8.74987 7.11288 9.32089C7.3494 9.89191 7.74994 10.38 8.26384 10.7233ZM8.95831 6.566C9.26665 6.35997 9.62916 6.25 10 6.25C10.4971 6.25055 10.9737 6.44827 11.3252 6.79978C11.6767 7.15129 11.8745 7.62789 11.875 8.125C11.875 8.49584 11.765 8.85835 11.559 9.1667C11.353 9.47504 11.0601 9.71536 10.7175 9.85728C10.3749 9.99919 9.99792 10.0363 9.63421 9.96397C9.27049 9.89163 8.9364 9.71305 8.67418 9.45083C8.41195 9.1886 8.23338 8.85451 8.16103 8.4908C8.08868 8.12708 8.12581 7.75008 8.26773 7.40747C8.40964 7.06486 8.64997 6.77202 8.95831 6.566Z" fill="#553CDF"/>
</svg>
