<svg width="36" height="26" viewBox="0 0 36 26" fill="none" xmlns="http://www.w3.org/2000/svg">
<path d="M25.222 12.0132L24.034 18.9008C22.4606 19.7819 20.9776 21.0578 19.7763 22.6684C18.971 23.7493 18.373 24.8808 17.969 26.0074V18.9802C18.4554 18.8358 18.8089 18.4241 18.8089 17.9354C18.8089 17.3239 18.2614 16.8304 17.589 16.8304C16.9166 16.8304 16.3691 17.3263 16.3691 17.9354C16.3691 18.4241 16.7226 18.8358 17.2089 18.9802V26.0074C16.8049 24.8808 16.207 23.7493 15.4017 22.6684C14.2004 21.0578 12.7173 19.7819 11.1439 18.9008L9.95593 12.0132L17.1478 14.6276C17.2886 14.6782 17.4375 14.7047 17.5916 14.7047C17.7458 14.7047 17.892 14.6782 18.0355 14.6276L25.222 12.0132Z" fill="url(#paint0_linear_113_1256)"/>
<path d="M34.2557 9.73813L33.6178 9.99332V8.64517L31.3694 9.50702V10.8961L17.961 16.2791C17.7245 16.3754 17.4507 16.3754 17.2142 16.2791L2.06773 10.1979C1.57339 10.0005 1.25446 9.55998 1.25446 9.07609V8.50554C1.25446 8.22387 1.40595 7.97591 1.66907 7.82184C1.93218 7.66776 2.24846 7.6485 2.53549 7.76165L16.7438 13.4672C17.278 13.6815 17.8893 13.6815 18.4235 13.4672L34.7181 6.92387C35.0052 6.80832 35.1327 6.50739 35.0051 6.2498C34.9201 6.08128 34.7473 5.97535 34.5587 5.95369C34.5135 5.91998 34.463 5.88869 34.4045 5.86702L18.0169 0.012207L1.91092 6.68554C1.60794 6.71924 1.31293 6.81072 1.04716 6.96239C0.459795 7.30184 0.111633 7.87721 0.111633 8.50072V9.07128C0.111633 9.9572 0.693678 10.7613 1.59731 11.1248L16.7438 17.2059C17.0096 17.3142 17.2966 17.3672 17.5836 17.3672C17.8707 17.3672 18.1577 17.3142 18.4235 17.2059L31.3667 12.0083V17.3768L32.5148 15.2391L33.6178 16.515V11.1031L34.7208 10.6602C35.0078 10.5446 35.1354 10.2437 35.0078 9.98609C34.8802 9.73813 34.5427 9.62258 34.2557 9.73813Z" fill="url(#paint1_linear_113_1256)"/>
<defs>
<linearGradient id="paint0_linear_113_1256" x1="9.95192" y1="19.0116" x2="25.2216" y2="19.0116" gradientUnits="userSpaceOnUse">
<stop stop-color="#553CDF"/>
<stop offset="1" stop-color="#9030F1"/>
</linearGradient>
<linearGradient id="paint1_linear_113_1256" x1="0.115646" y1="8.70102" x2="35.0606" y2="8.70102" gradientUnits="userSpaceOnUse">
<stop stop-color="#553CDF"/>
<stop offset="1" stop-color="#9030F1"/>
</linearGradient>
</defs>
</svg>
