<svg width="47" height="56" viewBox="0 0 47 56" fill="none" xmlns="http://www.w3.org/2000/svg">
<path d="M38.7064 30.2287C38.6431 23.2725 44.4618 19.8883 44.7279 19.7307C41.4325 14.976 36.3248 14.3263 34.5299 14.2745C30.2401 13.8278 26.0789 16.8149 23.8936 16.8149C21.6648 16.8149 18.2996 14.3177 14.6728 14.3911C10.0056 14.4623 5.63945 17.1364 3.24481 21.289C-1.69712 29.756 1.98861 42.1986 6.72336 49.0426C9.09183 52.3966 11.8594 56.137 15.4819 56.0053C19.0259 55.8629 20.3497 53.7715 24.6264 53.7715C28.8639 53.7715 30.107 56.0053 33.8015 55.9211C37.605 55.8629 39.9996 52.5542 42.2852 49.1721C45.0223 45.3325 46.1215 41.5468 46.1651 41.3526C46.0778 41.3224 38.7805 38.5641 38.7064 30.2287ZM31.7275 9.77232C33.6336 7.41329 34.9378 4.2039 34.5757 0.947021C31.8169 1.06789 28.3667 2.83554 26.3799 5.14276C24.6221 7.17588 23.0518 10.5083 23.4575 13.6422C26.5565 13.8709 29.7385 12.0946 31.7275 9.77232Z" fill="#221859"/>
</svg>
