<svg width="62" height="62" viewBox="0 0 62 62" fill="none" xmlns="http://www.w3.org/2000/svg">
<path d="M25.3513 22.8277C24.8987 22.3751 24.8987 21.6537 25.3513 21.2011C25.8039 20.7486 26.5323 20.7415 26.9849 21.1941C27.4304 21.6396 27.4304 22.375 26.9778 22.8276C26.5323 23.2731 25.7968 23.2732 25.3513 22.8277ZM21.2003 26.9787C20.7477 26.5261 20.7548 25.7977 21.2003 25.3522C21.6529 24.8996 22.3742 24.8996 22.8268 25.3522C23.2723 25.7977 23.2793 26.5261 22.8267 26.9787C22.3742 27.4313 21.6458 27.4242 21.2003 26.9787Z" fill="#B6B6B6" fill-opacity="0.7"/>
<path d="M33.9931 23.167C33.5405 22.7144 33.5405 21.9931 33.9931 21.5264C34.4386 21.0809 35.1741 21.0808 35.6267 21.5334C36.0722 21.9789 36.0722 22.7144 35.6267 23.1599C35.1741 23.6125 34.4386 23.6125 33.9931 23.167ZM29.842 27.3181C29.3894 26.8655 29.3824 26.1371 29.835 25.6845C30.2876 25.2319 31.016 25.239 31.4685 25.6916C31.9141 26.1371 31.9211 26.8655 31.4685 27.3181C31.023 27.7636 30.2875 27.7636 29.842 27.3181ZM25.691 31.4691C25.2384 31.0165 25.2384 30.2811 25.691 29.8427C26.1436 29.3901 26.8649 29.39 27.3175 29.8426C27.763 30.2881 27.7701 31.0165 27.3175 31.4691C26.872 31.9146 26.1365 31.9146 25.691 31.4691ZM21.5328 35.6273C21.0802 35.1747 21.0874 34.4463 21.5258 33.9937C21.9784 33.5411 22.7068 33.5482 23.1593 34.0008C23.6049 34.4463 23.6119 35.1747 23.1593 35.6273C22.7138 36.0728 21.9783 36.0728 21.5328 35.6273Z" fill="#B6B6B6" fill-opacity="0.7"/>
<path d="M42.5005 23.358C42.0549 22.9125 42.0479 22.1841 42.5005 21.7315C42.946 21.286 43.6815 21.286 44.127 21.7315C44.5796 22.1841 44.5795 22.9195 44.1269 23.3579C43.6743 23.8105 42.953 23.8106 42.5005 23.358ZM38.3424 27.5161C37.8968 27.0706 37.8897 26.3422 38.3423 25.8896C38.7878 25.4441 39.5233 25.4441 39.9688 25.8896C40.4214 26.3422 40.4143 27.0706 39.9688 27.5161C39.5233 27.9616 38.7949 27.9687 38.3424 27.5161ZM34.1913 31.6672C33.7457 31.2217 33.7457 30.4862 34.1913 30.0407C34.6438 29.5881 35.3723 29.5951 35.8178 30.0407C36.2704 30.4932 36.2703 31.2145 35.8177 31.6671C35.3722 32.1126 34.6368 32.1127 34.1913 31.6672ZM30.0331 35.8112C29.5876 35.3656 29.5876 34.6302 30.0331 34.1846C30.4857 33.7321 31.2141 33.7391 31.6596 34.1846C32.1122 34.6372 32.1122 35.3585 31.6596 35.8111C31.2141 36.2708 30.4928 36.2708 30.0331 35.8112ZM25.875 39.9693C25.4295 39.5238 25.4295 38.7883 25.875 38.3428C26.3276 37.8902 27.063 37.8902 27.5085 38.3357C27.9611 38.7883 27.9611 39.5096 27.5015 39.9693C27.063 40.4218 26.3346 40.429 25.875 39.9693ZM21.731 44.1274C21.2855 43.6819 21.2855 42.9464 21.731 42.5009C22.1765 42.0554 22.912 42.0554 23.3575 42.5009C23.8101 42.9535 23.803 43.6819 23.3646 44.1345C22.912 44.5729 22.1836 44.58 21.731 44.1274Z" fill="#B6B6B6" fill-opacity="0.7"/>
<path d="M51.1421 23.6972C50.6895 23.2447 50.6824 22.5163 51.135 22.0637C51.5805 21.6182 52.3089 21.6111 52.7685 22.0708C53.214 22.5163 53.214 23.2518 52.7685 23.6973C52.3159 24.1499 51.5876 24.1428 51.1421 23.6972ZM46.991 27.8484C46.5384 27.3958 46.5313 26.6674 46.9839 26.2148C47.4294 25.7693 48.1578 25.7622 48.6175 26.2218C49.063 26.6673 49.063 27.4028 48.6175 27.8484C48.1649 28.3009 47.4365 28.2939 46.991 27.8484ZM42.8329 32.0064C42.3803 31.5539 42.3732 30.8255 42.8258 30.3729C43.2713 29.9274 43.9997 29.9203 44.4593 30.38C44.9048 30.8255 44.9048 31.561 44.4593 32.0065C44.0138 32.452 43.2784 32.452 42.8329 32.0064ZM38.6818 36.1575C38.2292 35.705 38.2292 34.9695 38.6747 34.524C39.1273 34.0714 39.8557 34.0643 40.3153 34.524C40.7608 34.9695 40.7609 35.705 40.3083 36.1575C39.8628 36.6031 39.1273 36.6031 38.6818 36.1575ZM34.5237 40.3156C34.0711 39.8631 34.0711 39.1276 34.5237 38.6751C34.9762 38.2225 35.6976 38.2224 36.1572 38.6821C36.6027 39.1276 36.6098 39.856 36.1572 40.3086C35.7117 40.7541 34.9762 40.7541 34.5237 40.3156ZM30.3726 44.4667C29.92 44.0142 29.92 43.2787 30.3655 42.8332C30.8181 42.3806 31.5465 42.3735 32.0061 42.8332C32.4516 43.2787 32.4517 44.0142 32.0062 44.4597C31.5536 44.9123 30.8181 44.9123 30.3726 44.4667ZM26.2144 48.6107C25.7618 48.1581 25.7619 47.4368 26.2145 46.9843C26.6671 46.5317 27.3884 46.5316 27.848 46.9913C28.2935 47.4368 28.2935 48.1723 27.848 48.6178C27.3954 49.0704 26.667 49.0633 26.2144 48.6107ZM22.0704 52.7689C21.6179 52.3163 21.6108 51.5879 22.0634 51.1353C22.5089 50.6898 23.2373 50.6827 23.6969 51.1424C24.1424 51.5879 24.1425 52.3233 23.697 52.7689C23.2444 53.2214 22.516 53.2144 22.0704 52.7689Z" fill="#B6B6B6" fill-opacity="0.7"/>
<path d="M59.3665 23.6194C58.921 23.1739 58.9209 22.4385 59.3664 21.9929C59.819 21.5404 60.5474 21.5474 60.9929 21.9929C61.4455 22.4455 61.4526 23.1739 61 23.6265C60.5474 24.0649 59.8191 24.072 59.3665 23.6194ZM55.2154 27.7705C54.7699 27.325 54.7628 26.5966 55.2154 26.144C55.668 25.6914 56.3964 25.6985 56.8419 26.144C57.2945 26.5966 57.3015 27.325 56.8489 27.7775C56.3893 28.2231 55.668 28.2231 55.2154 27.7705ZM51.0643 31.9216C50.6188 31.4761 50.6117 30.7476 51.0643 30.2951C51.5098 29.8495 52.2453 29.8495 52.6908 30.2951C53.1434 30.7476 53.1434 31.4831 52.6979 31.9286C52.2382 32.3741 51.5169 32.3742 51.0643 31.9216ZM46.9062 36.0797C46.4607 35.6342 46.4536 34.9058 46.9062 34.4532C47.3517 34.0077 48.0872 34.0077 48.5327 34.4532C48.9853 34.9058 48.9852 35.6412 48.5397 36.0867C48.0871 36.5252 47.3588 36.5323 46.9062 36.0797ZM42.7551 40.2308C42.3096 39.7853 42.3096 39.0498 42.7622 38.5972C43.2148 38.1446 43.9431 38.1517 44.3887 38.5972C44.8412 39.0498 44.8483 39.7781 44.3957 40.2307C43.9361 40.6762 43.2077 40.6834 42.7551 40.2308ZM38.604 44.3818C38.1585 43.9363 38.1585 43.2008 38.604 42.7553C39.0566 42.3027 39.7851 42.3098 40.2306 42.7553C40.6832 43.2079 40.6902 43.9363 40.2376 44.3889C39.785 44.8273 39.0566 44.8344 38.604 44.3818ZM34.4459 48.54C34.0004 48.0945 34.0004 47.359 34.4459 46.9135C34.8985 46.4609 35.6269 46.4679 36.0724 46.9135C36.525 47.366 36.532 48.0944 36.0724 48.5541C35.6269 48.9855 34.8985 48.9926 34.4459 48.54ZM30.2949 52.691C29.8493 52.2455 29.8423 51.5171 30.2949 51.0645C30.7404 50.619 31.4759 50.619 31.9214 51.0645C32.374 51.5171 32.3739 52.2525 31.9284 52.6981C31.4687 53.1436 30.7474 53.1436 30.2949 52.691ZM26.1438 56.8421C25.6983 56.3966 25.6912 55.6682 26.1438 55.2156C26.5893 54.7701 27.3248 54.7701 27.7703 55.2156C28.2229 55.6682 28.2229 56.4036 27.7773 56.8491C27.3177 57.2946 26.5964 57.2947 26.1438 56.8421ZM21.9927 60.9931C21.5472 60.5476 21.5401 59.8192 21.9927 59.3666C22.4453 58.914 23.1808 58.9141 23.6263 59.3596C24.0789 59.8122 24.0789 60.5476 23.6263 61.0002C23.1666 61.4457 22.4453 61.4457 21.9927 60.9931Z" fill="#B6B6B6" fill-opacity="0.7"/>
<path d="M19.5106 21.1305C19.058 20.6779 19.058 19.9425 19.5035 19.4969C19.9561 19.0444 20.6845 19.0373 21.1371 19.504C21.5826 19.9495 21.5897 20.6779 21.1371 21.1305C20.6845 21.5831 19.9561 21.576 19.5106 21.1305Z" fill="#B6B6B6" fill-opacity="0.7"/>
</svg>
