<svg width="73" height="71" viewBox="0 0 73 71" fill="none" xmlns="http://www.w3.org/2000/svg">
<path d="M68.4652 19.3168C68.4652 18.5699 67.8648 17.9695 67.1179 17.9695C66.371 17.9695 65.7705 18.5699 65.7705 19.3168C65.7705 20.0637 66.371 20.6641 67.1179 20.6641C67.8502 20.6641 68.4652 20.0637 68.4652 19.3168Z" fill="#D1D1D1"/>
<path d="M62.622 22.4656C61.8751 22.4656 61.2747 23.066 61.2747 23.8129C61.2747 24.5598 61.8751 25.1602 62.622 25.1602C63.3689 25.1602 63.9693 24.5598 63.9693 23.8129C63.9693 23.0807 63.3542 22.4656 62.622 22.4656Z" fill="#D1D1D1"/>
<path d="M70.252 32.8046C70.252 33.5515 70.8525 34.1519 71.5994 34.1519C71.819 34.1519 72.0094 34.0934 72.1851 34.0055C72.1705 33.1707 72.1412 32.3506 72.068 31.5451C71.9216 31.4866 71.7604 31.4573 71.5847 31.4573C70.8671 31.4573 70.252 32.0577 70.252 32.8046Z" fill="#D1D1D1"/>
<path d="M68.4652 37.3009C68.4652 36.5541 67.8648 35.9536 67.1179 35.9536C66.371 35.9536 65.7705 36.5541 65.7705 37.3009C65.7705 38.0478 66.371 38.6483 67.1179 38.6483C67.8502 38.6483 68.4652 38.0478 68.4652 37.3009Z" fill="#D1D1D1"/>
<path d="M67.1029 26.9614C66.356 26.9614 65.7556 27.5619 65.7556 28.3088C65.7556 29.0556 66.356 29.6561 67.1029 29.6561C67.8498 29.6561 68.4502 29.0556 68.4502 28.3088C68.4649 27.5619 67.8498 26.9614 67.1029 26.9614Z" fill="#D1D1D1"/>
<path d="M62.622 31.4573C61.8751 31.4573 61.2747 32.0577 61.2747 32.8046C61.2747 33.5515 61.8751 34.1519 62.622 34.1519C63.3689 34.1519 63.9693 33.5515 63.9693 32.8046C63.9693 32.0577 63.3542 31.4573 62.622 31.4573Z" fill="#D1D1D1"/>
<path d="M70.955 24.9991C70.7939 24.384 70.6035 23.7836 70.4131 23.1978C70.3106 23.3881 70.252 23.5932 70.252 23.8275C70.252 24.3254 70.5449 24.7648 70.955 24.9991Z" fill="#D1D1D1"/>
<path d="M65.8291 54.9042C65.9756 54.6845 66.122 54.4648 66.2831 54.2451C66.0634 54.4062 65.9023 54.6405 65.8291 54.9042Z" fill="#D1D1D1"/>
<path d="M65.7556 46.2926C65.7556 47.0395 66.356 47.64 67.1029 47.64C67.8498 47.64 68.4502 47.0395 68.4502 46.2926C68.4502 45.5458 67.8498 44.9453 67.1029 44.9453C66.3707 44.9453 65.7556 45.5458 65.7556 46.2926Z" fill="#D1D1D1"/>
<path d="M71.6872 40.4644C71.6579 40.4644 71.6286 40.4497 71.5994 40.4497C70.8525 40.4497 70.252 41.0501 70.252 41.797C70.252 42.3828 70.6328 42.8808 71.1454 43.0565C71.365 42.2071 71.5408 41.3431 71.6872 40.4644Z" fill="#D1D1D1"/>
<path d="M53.63 4.48169C52.8831 4.48169 52.2827 5.08213 52.2827 5.82902C52.2827 6.57591 52.8831 7.17635 53.63 7.17635C54.3769 7.17635 54.9773 6.57591 54.9773 5.82902C54.9773 5.09677 54.3769 4.48169 53.63 4.48169Z" fill="#D1D1D1"/>
<path d="M47.7864 1.34743C47.7864 2.09432 48.3868 2.69476 49.1337 2.69476C49.8806 2.69476 50.481 2.09432 50.481 1.34743C50.481 1.33279 50.481 1.30351 50.481 1.28886C49.7341 0.966672 48.9726 0.659113 48.1964 0.380859C47.9328 0.629823 47.7864 0.966662 47.7864 1.34743Z" fill="#D1D1D1"/>
<path d="M44.6381 4.48169C43.8912 4.48169 43.2908 5.08213 43.2908 5.82902C43.2908 6.57591 43.8912 7.17635 44.6381 7.17635C45.385 7.17635 45.9855 6.57591 45.9855 5.82902C45.9855 5.09677 45.385 4.48169 44.6381 4.48169Z" fill="#D1D1D1"/>
<path d="M53.63 22.4656C52.8831 22.4656 52.2827 23.066 52.2827 23.8129C52.2827 24.5598 52.8831 25.1602 53.63 25.1602C54.3769 25.1602 54.9773 24.5598 54.9773 23.8129C54.9773 23.0807 54.3769 22.4656 53.63 22.4656Z" fill="#D1D1D1"/>
<path d="M62.622 16.1827C63.3661 16.1827 63.9693 15.5795 63.9693 14.8354C63.9693 14.0913 63.3661 13.488 62.622 13.488C61.8779 13.488 61.2747 14.0913 61.2747 14.8354C61.2747 15.5795 61.8779 16.1827 62.622 16.1827Z" fill="#D1D1D1"/>
<path d="M53.63 16.1827C54.3769 16.1827 54.9773 15.5823 54.9773 14.8354C54.9773 14.0885 54.3769 13.488 53.63 13.488C52.8831 13.488 52.2827 14.0885 52.2827 14.8354C52.2827 15.5676 52.8831 16.1827 53.63 16.1827Z" fill="#D1D1D1"/>
<path d="M49.1337 20.6641C49.8806 20.6641 50.481 20.0637 50.481 19.3168C50.481 18.5699 49.8806 17.9695 49.1337 17.9695C48.3868 17.9695 47.7864 18.5699 47.7864 19.3168C47.7864 20.0637 48.3868 20.6641 49.1337 20.6641Z" fill="#D1D1D1"/>
<path d="M59.4732 19.3168C59.4732 18.5699 58.8728 17.9695 58.1259 17.9695C57.379 17.9695 56.7786 18.5699 56.7786 19.3168C56.7786 20.0637 57.379 20.6641 58.1259 20.6641C58.8581 20.6641 59.4732 20.0637 59.4732 19.3168Z" fill="#D1D1D1"/>
<path d="M49.1337 11.6866C49.8806 11.6866 50.481 11.0862 50.481 10.3393C50.481 9.59238 49.8806 8.99194 49.1337 8.99194C48.3868 8.99194 47.7864 9.59238 47.7864 10.3393C47.7864 11.0715 48.3868 11.6866 49.1337 11.6866Z" fill="#D1D1D1"/>
<path d="M56.7786 10.3393C56.7786 11.0862 57.379 11.6866 58.1259 11.6866C58.8728 11.6866 59.4732 11.0862 59.4732 10.3393C59.4732 9.59238 58.8728 8.99194 58.1259 8.99194C57.379 8.99194 56.7786 9.59238 56.7786 10.3393Z" fill="#D1D1D1"/>
<path d="M44.6381 22.4656C43.8912 22.4656 43.2908 23.066 43.2908 23.8129C43.2908 24.5598 43.8912 25.1602 44.6381 25.1602C45.385 25.1602 45.9855 24.5598 45.9855 23.8129C45.9855 23.0807 45.385 22.4656 44.6381 22.4656Z" fill="#D1D1D1"/>
<path d="M53.63 40.4497C52.8831 40.4497 52.2827 41.0501 52.2827 41.797C52.2827 42.5439 52.8831 43.1444 53.63 43.1444C54.3769 43.1444 54.9773 42.5439 54.9773 41.797C54.9773 41.0501 54.3769 40.4497 53.63 40.4497Z" fill="#D1D1D1"/>
<path d="M53.63 31.4573C52.8831 31.4573 52.2827 32.0577 52.2827 32.8046C52.2827 33.5515 52.8831 34.1519 53.63 34.1519C54.3769 34.1519 54.9773 33.5515 54.9773 32.8046C54.9773 32.0577 54.3769 31.4573 53.63 31.4573Z" fill="#D1D1D1"/>
<path d="M50.481 37.3009C50.481 36.5541 49.8806 35.9536 49.1337 35.9536C48.3868 35.9536 47.7864 36.5541 47.7864 37.3009C47.7864 38.0478 48.3868 38.6483 49.1337 38.6483C49.8806 38.6483 50.481 38.0478 50.481 37.3009Z" fill="#D1D1D1"/>
<path d="M58.1259 35.9536C57.379 35.9536 56.7786 36.5541 56.7786 37.3009C56.7786 38.0478 57.379 38.6483 58.1259 38.6483C58.8728 38.6483 59.4732 38.0478 59.4732 37.3009C59.4732 36.5541 58.8581 35.9536 58.1259 35.9536Z" fill="#D1D1D1"/>
<path d="M49.1337 26.9614C48.3868 26.9614 47.7864 27.5619 47.7864 28.3088C47.7864 29.0556 48.3868 29.6561 49.1337 29.6561C49.8806 29.6561 50.481 29.0556 50.481 28.3088C50.481 27.5619 49.8806 26.9614 49.1337 26.9614Z" fill="#D1D1D1"/>
<path d="M58.1259 26.9614C57.379 26.9614 56.7786 27.5619 56.7786 28.3088C56.7786 29.0556 57.379 29.6561 58.1259 29.6561C58.8728 29.6561 59.4732 29.0556 59.4732 28.3088C59.4732 27.5619 58.8581 26.9614 58.1259 26.9614Z" fill="#D1D1D1"/>
<path d="M44.6381 40.4497C43.8912 40.4497 43.2908 41.0501 43.2908 41.797C43.2908 42.5439 43.8912 43.1444 44.6381 43.1444C45.385 43.1444 45.9855 42.5439 45.9855 41.797C45.9855 41.0501 45.385 40.4497 44.6381 40.4497Z" fill="#D1D1D1"/>
<path d="M62.622 52.1361C63.3689 52.1361 63.9693 51.5356 63.9693 50.7887C63.9693 50.0418 63.3689 49.4414 62.622 49.4414C61.8751 49.4414 61.2747 50.0418 61.2747 50.7887C61.26 51.5356 61.8751 52.1361 62.622 52.1361Z" fill="#D1D1D1"/>
<path d="M53.63 52.1361C54.3769 52.1361 54.9773 51.5356 54.9773 50.7887C54.9773 50.0418 54.3769 49.4414 53.63 49.4414C52.8831 49.4414 52.2827 50.0418 52.2827 50.7887C52.2827 51.5356 52.8831 52.1361 53.63 52.1361Z" fill="#D1D1D1"/>
<path d="M49.1337 53.9375C48.3868 53.9375 47.7864 54.5379 47.7864 55.2848C47.7864 56.0317 48.3868 56.6322 49.1337 56.6322C49.8806 56.6322 50.481 56.0317 50.481 55.2848C50.481 54.5379 49.8806 53.9375 49.1337 53.9375Z" fill="#D1D1D1"/>
<path d="M59.4732 55.2848C59.4732 54.5379 58.8728 53.9375 58.1259 53.9375C57.379 53.9375 56.7786 54.5379 56.7786 55.2848C56.7786 56.0317 57.379 56.6322 58.1259 56.6322C58.8581 56.6322 59.4732 56.0317 59.4732 55.2848Z" fill="#D1D1D1"/>
<path d="M49.1337 44.9453C48.3868 44.9453 47.7864 45.5458 47.7864 46.2926C47.7864 47.0395 48.3868 47.64 49.1337 47.64C49.8806 47.64 50.481 47.0395 50.481 46.2926C50.481 45.5458 49.8806 44.9453 49.1337 44.9453Z" fill="#D1D1D1"/>
<path d="M58.1259 44.9453C57.379 44.9453 56.7786 45.5458 56.7786 46.2926C56.7786 47.0395 57.379 47.64 58.1259 47.64C58.8728 47.64 59.4732 47.0395 59.4732 46.2926C59.4732 45.5458 58.8581 44.9453 58.1259 44.9453Z" fill="#D1D1D1"/>
<path d="M44.6381 49.4414C43.8912 49.4414 43.2908 50.0418 43.2908 50.7887C43.2908 51.5356 43.8912 52.1361 44.6381 52.1361C45.385 52.1361 45.9855 51.5356 45.9855 50.7887C45.9855 50.0418 45.385 49.4414 44.6381 49.4414Z" fill="#D1D1D1"/>
<path d="M62.622 43.1444C63.3689 43.1444 63.9693 42.5439 63.9693 41.797C63.9693 41.0501 63.3689 40.4497 62.622 40.4497C61.8751 40.4497 61.2747 41.0501 61.2747 41.797C61.2747 42.5439 61.8751 43.1444 62.622 43.1444Z" fill="#D1D1D1"/>
<path d="M47.7864 64.2768C47.7864 65.0237 48.3868 65.6241 49.1337 65.6241C49.8806 65.6241 50.481 65.0237 50.481 64.2768C50.481 63.5299 49.8806 62.9294 49.1337 62.9294C48.3868 62.9294 47.7864 63.5299 47.7864 64.2768Z" fill="#D1D1D1"/>
<path d="M56.8079 63.9839C57.2911 63.647 57.7598 63.2956 58.2285 62.9441C58.1992 62.9441 58.1552 62.9294 58.1259 62.9294C57.4816 62.9294 56.9397 63.3834 56.8079 63.9839Z" fill="#D1D1D1"/>
<path d="M44.6381 67.4255C43.8912 67.4255 43.2908 68.026 43.2908 68.7729C43.2908 69.139 43.4372 69.4758 43.6862 69.7248C44.4478 69.5637 45.1946 69.3733 45.9268 69.1683C45.9708 69.0511 45.9855 68.9193 45.9855 68.7875C45.9855 68.026 45.385 67.4255 44.6381 67.4255Z" fill="#D1D1D1"/>
<path d="M62.9881 58.4917C62.8709 58.4624 62.7391 58.4331 62.6073 58.4331C61.8604 58.4331 61.26 59.0335 61.26 59.7804C61.26 59.9269 61.2893 60.0733 61.3332 60.2198C61.919 59.6633 62.4609 59.0921 62.9881 58.4917Z" fill="#D1D1D1"/>
<path d="M53.63 61.1278C54.3769 61.1278 54.9773 60.5273 54.9773 59.7804C54.9773 59.0335 54.3769 58.4331 53.63 58.4331C52.8831 58.4331 52.2827 59.0335 52.2827 59.7804C52.2827 60.5273 52.8831 61.1278 53.63 61.1278Z" fill="#D1D1D1"/>
<path d="M35.6457 4.48169C34.8988 4.48169 34.2983 5.08213 34.2983 5.82902C34.2983 6.57591 34.8988 7.17635 35.6457 7.17635C36.3926 7.17635 36.993 6.57591 36.993 5.82902C36.993 5.09677 36.3926 4.48169 35.6457 4.48169Z" fill="#D1D1D1"/>
<path d="M32.4974 1.34733C32.4974 0.60044 31.897 0 31.1501 0C30.4032 0 29.8027 0.60044 29.8027 1.34733C29.8027 2.09422 30.4032 2.69466 31.1501 2.69466C31.897 2.69466 32.4974 2.07958 32.4974 1.34733Z" fill="#D1D1D1"/>
<path d="M41.4894 1.34733C41.4894 0.60044 40.8889 0 40.142 0C39.3951 0 38.7947 0.60044 38.7947 1.34733C38.7947 2.09422 39.3951 2.69466 40.142 2.69466C40.8889 2.69466 41.4894 2.07958 41.4894 1.34733Z" fill="#D1D1D1"/>
<path d="M44.6381 16.1827C45.385 16.1827 45.9855 15.5823 45.9855 14.8354C45.9855 14.0885 45.385 13.488 44.6381 13.488C43.8912 13.488 43.2908 14.0885 43.2908 14.8354C43.2908 15.5676 43.8912 16.1827 44.6381 16.1827Z" fill="#D1D1D1"/>
<path d="M35.6457 16.1827C36.3926 16.1827 36.993 15.5823 36.993 14.8354C36.993 14.0885 36.3926 13.488 35.6457 13.488C34.8988 13.488 34.2983 14.0885 34.2983 14.8354C34.2983 15.5676 34.8988 16.1827 35.6457 16.1827Z" fill="#D1D1D1"/>
<path d="M31.1501 20.6641C31.897 20.6641 32.4974 20.0637 32.4974 19.3168C32.4974 18.5699 31.897 17.9695 31.1501 17.9695C30.4032 17.9695 29.8027 18.5699 29.8027 19.3168C29.8027 20.0637 30.4032 20.6641 31.1501 20.6641Z" fill="#D1D1D1"/>
<path d="M40.142 20.6641C40.8889 20.6641 41.4894 20.0637 41.4894 19.3168C41.4894 18.5699 40.8889 17.9695 40.142 17.9695C39.3951 17.9695 38.7947 18.5699 38.7947 19.3168C38.7947 20.0637 39.3951 20.6641 40.142 20.6641Z" fill="#D1D1D1"/>
<path d="M31.1501 11.6866C31.897 11.6866 32.4974 11.0862 32.4974 10.3393C32.4974 9.59238 31.897 8.99194 31.1501 8.99194C30.4032 8.99194 29.8027 9.59238 29.8027 10.3393C29.8027 11.0715 30.4032 11.6866 31.1501 11.6866Z" fill="#D1D1D1"/>
<path d="M40.142 11.6866C40.8889 11.6866 41.4894 11.0862 41.4894 10.3393C41.4894 9.59238 40.8889 8.99194 40.142 8.99194C39.3951 8.99194 38.7947 9.59238 38.7947 10.3393C38.7947 11.0715 39.3951 11.6866 40.142 11.6866Z" fill="#D1D1D1"/>
<path d="M35.6457 40.4497C34.8988 40.4497 34.2983 41.0501 34.2983 41.797C34.2983 42.5439 34.8988 43.1444 35.6457 43.1444C36.3926 43.1444 36.993 42.5439 36.993 41.797C36.993 41.0501 36.3926 40.4497 35.6457 40.4497Z" fill="#D1D1D1"/>
<path d="M44.6381 34.1519C45.385 34.1519 45.9855 33.5515 45.9855 32.8046C45.9855 32.0577 45.385 31.4573 44.6381 31.4573C43.8912 31.4573 43.2908 32.0577 43.2908 32.8046C43.2908 33.5515 43.8912 34.1519 44.6381 34.1519Z" fill="#D1D1D1"/>
<path d="M35.6457 31.4573C34.8988 31.4573 34.2983 32.0577 34.2983 32.8046C34.2983 33.5515 34.8988 34.1519 35.6457 34.1519C36.3926 34.1519 36.993 33.5515 36.993 32.8046C36.993 32.0577 36.3926 31.4573 35.6457 31.4573Z" fill="#D1D1D1"/>
<path d="M31.1501 35.9536C30.4032 35.9536 29.8027 36.5541 29.8027 37.3009C29.8027 38.0478 30.4032 38.6483 31.1501 38.6483C31.897 38.6483 32.4974 38.0478 32.4974 37.3009C32.4974 36.5541 31.897 35.9536 31.1501 35.9536Z" fill="#D1D1D1"/>
<path d="M40.142 35.9536C39.3951 35.9536 38.7947 36.5541 38.7947 37.3009C38.7947 38.0478 39.3951 38.6483 40.142 38.6483C40.8889 38.6483 41.4894 38.0478 41.4894 37.3009C41.4894 36.5541 40.8889 35.9536 40.142 35.9536Z" fill="#D1D1D1"/>
<path d="M31.1501 26.9614C30.4032 26.9614 29.8027 27.5619 29.8027 28.3088C29.8027 29.0556 30.4032 29.6561 31.1501 29.6561C31.897 29.6561 32.4974 29.0556 32.4974 28.3088C32.4974 27.5619 31.897 26.9614 31.1501 26.9614Z" fill="#D1D1D1"/>
<path d="M40.142 26.9614C39.3951 26.9614 38.7947 27.5619 38.7947 28.3088C38.7947 29.0556 39.3951 29.6561 40.142 29.6561C40.8889 29.6561 41.4894 29.0556 41.4894 28.3088C41.4894 27.5619 40.8889 26.9614 40.142 26.9614Z" fill="#D1D1D1"/>
<path d="M26.654 40.4497C25.9071 40.4497 25.3066 41.0501 25.3066 41.797C25.3066 42.5439 25.9071 43.1444 26.654 43.1444C27.4008 43.1444 28.0013 42.5439 28.0013 41.797C28.0013 41.0501 27.4008 40.4497 26.654 40.4497Z" fill="#D1D1D1"/>
<path d="M26.654 31.4573C25.9071 31.4573 25.3066 32.0577 25.3066 32.8046C25.3066 33.5515 25.9071 34.1519 26.654 34.1519C27.4008 34.1519 28.0013 33.5515 28.0013 32.8046C28.0013 32.0577 27.4008 31.4573 26.654 31.4573Z" fill="#D1D1D1"/>
<path d="M35.6457 25.1749C36.3926 25.1749 36.993 24.5745 36.993 23.8276C36.993 23.0807 36.3926 22.4802 35.6457 22.4802C34.8988 22.4802 34.2983 23.0807 34.2983 23.8276C34.2983 24.5598 34.8988 25.1749 35.6457 25.1749Z" fill="#D1D1D1"/>
<path d="M35.6457 58.4331C34.8988 58.4331 34.2983 59.0335 34.2983 59.7804C34.2983 60.5273 34.8988 61.1278 35.6457 61.1278C36.3926 61.1278 36.993 60.5273 36.993 59.7804C36.993 59.0335 36.3926 58.4331 35.6457 58.4331Z" fill="#D1D1D1"/>
<path d="M35.6457 49.4414C34.8988 49.4414 34.2983 50.0418 34.2983 50.7887C34.2983 51.5356 34.8988 52.1361 35.6457 52.1361C36.3926 52.1361 36.993 51.5356 36.993 50.7887C36.993 50.0418 36.3926 49.4414 35.6457 49.4414Z" fill="#D1D1D1"/>
<path d="M31.1501 53.9375C30.4032 53.9375 29.8027 54.5379 29.8027 55.2848C29.8027 56.0317 30.4032 56.6322 31.1501 56.6322C31.897 56.6322 32.4974 56.0317 32.4974 55.2848C32.4974 54.5379 31.897 53.9375 31.1501 53.9375Z" fill="#D1D1D1"/>
<path d="M40.142 53.9375C39.3951 53.9375 38.7947 54.5379 38.7947 55.2848C38.7947 56.0317 39.3951 56.6322 40.142 56.6322C40.8889 56.6322 41.4894 56.0317 41.4894 55.2848C41.4894 54.5379 40.8889 53.9375 40.142 53.9375Z" fill="#D1D1D1"/>
<path d="M31.1501 44.9453C30.4032 44.9453 29.8027 45.5458 29.8027 46.2926C29.8027 47.0395 30.4032 47.64 31.1501 47.64C31.897 47.64 32.4974 47.0395 32.4974 46.2926C32.4974 45.5458 31.897 44.9453 31.1501 44.9453Z" fill="#D1D1D1"/>
<path d="M40.142 44.9453C39.3951 44.9453 38.7947 45.5458 38.7947 46.2926C38.7947 47.0395 39.3951 47.64 40.142 47.64C40.8889 47.64 41.4894 47.0395 41.4894 46.2926C41.4894 45.5458 40.8889 44.9453 40.142 44.9453Z" fill="#D1D1D1"/>
<path d="M26.654 49.4414C25.9071 49.4414 25.3066 50.0418 25.3066 50.7887C25.3066 51.5356 25.9071 52.1361 26.654 52.1361C27.4008 52.1361 28.0013 51.5356 28.0013 50.7887C28.0013 50.0418 27.4008 49.4414 26.654 49.4414Z" fill="#D1D1D1"/>
<path d="M35.6457 67.4255C34.8988 67.4255 34.2983 68.026 34.2983 68.7729C34.2983 69.5198 34.8988 70.1202 35.6457 70.1202C36.3926 70.1202 36.993 69.5198 36.993 68.7729C36.993 68.026 36.3926 67.4255 35.6457 67.4255Z" fill="#D1D1D1"/>
<path d="M29.8027 64.2768C29.8027 65.0237 30.4032 65.6241 31.1501 65.6241C31.897 65.6241 32.4974 65.0237 32.4974 64.2768C32.4974 63.5299 31.897 62.9294 31.1501 62.9294C30.4032 62.9294 29.8027 63.5299 29.8027 64.2768Z" fill="#D1D1D1"/>
<path d="M38.7947 64.2768C38.7947 65.0237 39.3951 65.6241 40.142 65.6241C40.8889 65.6241 41.4894 65.0237 41.4894 64.2768C41.4894 63.5299 40.8889 62.9294 40.142 62.9294C39.3951 62.9294 38.7947 63.5299 38.7947 64.2768Z" fill="#D1D1D1"/>
<path d="M26.654 67.4255C25.9071 67.4255 25.3066 68.026 25.3066 68.7729C25.3066 68.8168 25.3212 68.8461 25.3212 68.89C26.1267 69.139 26.9322 69.3587 27.767 69.5491C27.9134 69.3294 28.0159 69.0658 28.0159 68.7729C28.0013 68.026 27.4008 67.4255 26.654 67.4255Z" fill="#D1D1D1"/>
<path d="M44.6381 61.1278C45.385 61.1278 45.9855 60.5273 45.9855 59.7804C45.9855 59.0335 45.385 58.4331 44.6381 58.4331C43.8912 58.4331 43.2908 59.0335 43.2908 59.7804C43.2908 60.5273 43.8912 61.1278 44.6381 61.1278Z" fill="#D1D1D1"/>
<path d="M17.662 4.48169C16.9151 4.48169 16.3147 5.08213 16.3147 5.82902C16.3147 6.57591 16.9151 7.17635 17.662 7.17635C18.4089 7.17635 19.0093 6.57591 19.0093 5.82902C19.0093 5.09677 18.4089 4.48169 17.662 4.48169Z" fill="#D1D1D1"/>
<path d="M22.1579 2.69457C22.9048 2.69457 23.5052 2.09413 23.5052 1.34724C23.5052 1.08363 23.432 0.849316 23.3002 0.644287C22.4654 0.966476 21.6453 1.3033 20.8545 1.68407C21.0009 2.25522 21.5282 2.69457 22.1579 2.69457Z" fill="#D1D1D1"/>
<path d="M26.654 16.1827C27.4008 16.1827 28.0013 15.5823 28.0013 14.8354C28.0013 14.0885 27.4008 13.488 26.654 13.488C25.9071 13.488 25.3066 14.0885 25.3066 14.8354C25.3066 15.5676 25.9071 16.1827 26.654 16.1827Z" fill="#D1D1D1"/>
<path d="M17.662 16.1827C18.4061 16.1827 19.0093 15.5795 19.0093 14.8354C19.0093 14.0913 18.4061 13.488 17.662 13.488C16.9179 13.488 16.3147 14.0913 16.3147 14.8354C16.3147 15.5795 16.9179 16.1827 17.662 16.1827Z" fill="#D1D1D1"/>
<path d="M14.5132 19.3168C14.5132 18.5699 13.9128 17.9695 13.1659 17.9695C12.419 17.9695 11.8186 18.5699 11.8186 19.3168C11.8186 20.0637 12.419 20.6641 13.1659 20.6641C13.9128 20.6641 14.5132 20.0637 14.5132 19.3168Z" fill="#D1D1D1"/>
<path d="M22.1576 20.6641C22.9045 20.6641 23.5049 20.0637 23.5049 19.3168C23.5049 18.5699 22.9045 17.9695 22.1576 17.9695C21.4107 17.9695 20.8103 18.5699 20.8103 19.3168C20.8103 20.0637 21.4107 20.6641 22.1576 20.6641Z" fill="#D1D1D1"/>
<path d="M11.8186 10.3393C11.8186 11.0862 12.419 11.6866 13.1659 11.6866C13.9128 11.6866 14.5132 11.0862 14.5132 10.3393C14.5132 9.59238 13.9128 8.99194 13.1659 8.99194C12.419 8.99194 11.8186 9.59238 11.8186 10.3393Z" fill="#D1D1D1"/>
<path d="M22.1576 11.6866C22.9045 11.6866 23.5049 11.0862 23.5049 10.3393C23.5049 9.59238 22.9045 8.99194 22.1576 8.99194C21.4107 8.99194 20.8103 9.59238 20.8103 10.3393C20.8103 11.0715 21.4107 11.6866 22.1576 11.6866Z" fill="#D1D1D1"/>
<path d="M26.654 7.19078C27.4008 7.19078 28.0013 6.59034 28.0013 5.84345C28.0013 5.09656 27.4008 4.49609 26.654 4.49609C25.9071 4.49609 25.3066 5.09656 25.3066 5.84345C25.3066 6.59034 25.9071 7.19078 26.654 7.19078Z" fill="#D1D1D1"/>
<path d="M17.662 40.4497C16.9151 40.4497 16.3147 41.0501 16.3147 41.797C16.3147 42.5439 16.9151 43.1444 17.662 43.1444C18.4089 43.1444 19.0093 42.5439 19.0093 41.797C19.0093 41.0501 18.4089 40.4497 17.662 40.4497Z" fill="#D1D1D1"/>
<path d="M17.662 31.4573C16.9151 31.4573 16.3147 32.0577 16.3147 32.8046C16.3147 33.5515 16.9151 34.1519 17.662 34.1519C18.4089 34.1519 19.0093 33.5515 19.0093 32.8046C19.0093 32.0577 18.4089 31.4573 17.662 31.4573Z" fill="#D1D1D1"/>
<path d="M13.1659 35.9536C12.419 35.9536 11.8186 36.5541 11.8186 37.3009C11.8186 38.0478 12.419 38.6483 13.1659 38.6483C13.9128 38.6483 14.5132 38.0478 14.5132 37.3009C14.5132 36.5541 13.9128 35.9536 13.1659 35.9536Z" fill="#D1D1D1"/>
<path d="M22.1576 35.9536C21.4107 35.9536 20.8103 36.5541 20.8103 37.3009C20.8103 38.0478 21.4107 38.6483 22.1576 38.6483C22.9045 38.6483 23.5049 38.0478 23.5049 37.3009C23.5049 36.5541 22.9045 35.9536 22.1576 35.9536Z" fill="#D1D1D1"/>
<path d="M13.1659 26.9614C12.419 26.9614 11.8186 27.5619 11.8186 28.3088C11.8186 29.0556 12.419 29.6561 13.1659 29.6561C13.9128 29.6561 14.5132 29.0556 14.5132 28.3088C14.5132 27.5619 13.9128 26.9614 13.1659 26.9614Z" fill="#D1D1D1"/>
<path d="M22.1576 26.9614C21.4107 26.9614 20.8103 27.5619 20.8103 28.3088C20.8103 29.0556 21.4107 29.6561 22.1576 29.6561C22.9045 29.6561 23.5049 29.0556 23.5049 28.3088C23.5049 27.5619 22.9045 26.9614 22.1576 26.9614Z" fill="#D1D1D1"/>
<path d="M8.66982 40.4497C7.92293 40.4497 7.32251 41.0501 7.32251 41.797C7.32251 42.5439 7.92293 43.1444 8.66982 43.1444C9.41671 43.1444 10.0172 42.5439 10.0172 41.797C10.0172 41.0501 9.41671 40.4497 8.66982 40.4497Z" fill="#D1D1D1"/>
<path d="M8.66982 31.4573C7.92293 31.4573 7.32251 32.0577 7.32251 32.8046C7.32251 33.5515 7.92293 34.1519 8.66982 34.1519C9.41671 34.1519 10.0172 33.5515 10.0172 32.8046C10.0172 32.0577 9.41671 31.4573 8.66982 31.4573Z" fill="#D1D1D1"/>
<path d="M26.654 25.1749C27.4008 25.1749 28.0013 24.5745 28.0013 23.8276C28.0013 23.0807 27.4008 22.4802 26.654 22.4802C25.9071 22.4802 25.3066 23.0807 25.3066 23.8276C25.3066 24.5598 25.9071 25.1749 26.654 25.1749Z" fill="#D1D1D1"/>
<path d="M17.662 25.1749C18.4089 25.1749 19.0093 24.5745 19.0093 23.8276C19.0093 23.0807 18.4089 22.4802 17.662 22.4802C16.9151 22.4802 16.3147 23.0807 16.3147 23.8276C16.3147 24.5598 16.9151 25.1749 17.662 25.1749Z" fill="#D1D1D1"/>
<path d="M17.662 49.4414C16.9151 49.4414 16.3147 50.0418 16.3147 50.7887C16.3147 51.5356 16.9151 52.1361 17.662 52.1361C18.4089 52.1361 19.0093 51.5356 19.0093 50.7887C19.0093 50.0418 18.4089 49.4414 17.662 49.4414Z" fill="#D1D1D1"/>
<path d="M13.1659 53.9375C12.419 53.9375 11.8186 54.5379 11.8186 55.2848C11.8186 56.0317 12.419 56.6322 13.1659 56.6322C13.9128 56.6322 14.5132 56.0317 14.5132 55.2848C14.5132 54.5379 13.9128 53.9375 13.1659 53.9375Z" fill="#D1D1D1"/>
<path d="M22.1576 53.9375C21.4107 53.9375 20.8103 54.5379 20.8103 55.2848C20.8103 56.0317 21.4107 56.6322 22.1576 56.6322C22.9045 56.6322 23.5049 56.0317 23.5049 55.2848C23.5049 54.5379 22.9045 53.9375 22.1576 53.9375Z" fill="#D1D1D1"/>
<path d="M13.1659 44.9453C12.419 44.9453 11.8186 45.5458 11.8186 46.2926C11.8186 47.0395 12.419 47.64 13.1659 47.64C13.9128 47.64 14.5132 47.0395 14.5132 46.2926C14.5132 45.5458 13.9128 44.9453 13.1659 44.9453Z" fill="#D1D1D1"/>
<path d="M22.1576 44.9453C21.4107 44.9453 20.8103 45.5458 20.8103 46.2926C20.8103 47.0395 21.4107 47.64 22.1576 47.64C22.9045 47.64 23.5049 47.0395 23.5049 46.2926C23.5049 45.5458 22.9045 44.9453 22.1576 44.9453Z" fill="#D1D1D1"/>
<path d="M9.92955 59.2684C9.79774 58.9608 9.56341 58.7119 9.27051 58.5654C9.47554 58.8144 9.69523 59.0487 9.92955 59.2684Z" fill="#D1D1D1"/>
<path d="M10.0172 50.7887C10.0172 50.0418 9.41671 49.4414 8.66982 49.4414C7.92293 49.4414 7.32251 50.0418 7.32251 50.7887C7.32251 51.5356 7.92293 52.1361 8.66982 52.1361C9.41671 52.1361 10.0172 51.5356 10.0172 50.7887Z" fill="#D1D1D1"/>
<path d="M20.8103 64.2768C20.8103 65.0237 21.4107 65.6241 22.1576 65.6241C22.9045 65.6241 23.5049 65.0237 23.5049 64.2768C23.5049 63.5299 22.9045 62.9294 22.1576 62.9294C21.4107 62.9294 20.8103 63.5299 20.8103 64.2768Z" fill="#D1D1D1"/>
<path d="M26.654 61.1278C27.4008 61.1278 28.0013 60.5273 28.0013 59.7804C28.0013 59.0335 27.4008 58.4331 26.654 58.4331C25.9071 58.4331 25.3066 59.0335 25.3066 59.7804C25.3066 60.5273 25.9071 61.1278 26.654 61.1278Z" fill="#D1D1D1"/>
<path d="M17.662 61.1278C18.4089 61.1278 19.0093 60.5273 19.0093 59.7804C19.0093 59.0335 18.4089 58.4331 17.662 58.4331C16.9151 58.4331 16.3147 59.0335 16.3147 59.7804C16.3147 60.5273 16.9151 61.1278 17.662 61.1278Z" fill="#D1D1D1"/>
<path d="M8.66982 16.1827C9.41671 16.1827 10.0172 15.5823 10.0172 14.8354C10.0172 14.0885 9.41671 13.488 8.66982 13.488C7.92293 13.488 7.32251 14.0885 7.32251 14.8354C7.32251 15.5676 7.92293 16.1827 8.66982 16.1827Z" fill="#D1D1D1"/>
<path d="M4.17379 20.6641C4.92068 20.6641 5.52118 20.0637 5.52118 19.3168C5.52118 18.5699 4.92068 17.9695 4.17379 17.9695C4.08592 17.9695 4.01272 17.9841 3.92485 17.9988C3.60266 18.6431 3.28045 19.3022 2.98755 19.9612C3.22187 20.3859 3.66121 20.6641 4.17379 20.6641Z" fill="#D1D1D1"/>
<path d="M0.556396 40.7717C0.658911 41.3136 0.761383 41.8555 0.878542 42.3973C0.966412 42.2216 1.02505 42.0165 1.02505 41.7969C1.03969 41.3868 0.849295 41.0207 0.556396 40.7717Z" fill="#D1D1D1"/>
<path d="M1.03982 32.8049C1.03982 32.2044 0.644403 31.7065 0.117185 31.5308C0.0439599 32.3802 0 33.2442 0 34.1083C0.585798 33.9765 1.03982 33.4492 1.03982 32.8049Z" fill="#D1D1D1"/>
<path d="M4.17373 38.6483C4.92062 38.6483 5.52112 38.0478 5.52112 37.3009C5.52112 36.5541 4.92062 35.9536 4.17373 35.9536C3.42683 35.9536 2.82642 36.5541 2.82642 37.3009C2.82642 38.0478 3.44148 38.6483 4.17373 38.6483Z" fill="#D1D1D1"/>
<path d="M2.82642 28.3088C2.82642 29.0556 3.42683 29.6561 4.17373 29.6561C4.92062 29.6561 5.52112 29.0556 5.52112 28.3088C5.52112 27.5619 4.92062 26.9614 4.17373 26.9614C3.44148 26.9614 2.82642 27.5619 2.82642 28.3088Z" fill="#D1D1D1"/>
<path d="M8.66982 25.1749C9.41671 25.1749 10.0172 24.5745 10.0172 23.8276C10.0172 23.0807 9.41671 22.4802 8.66982 22.4802C7.92293 22.4802 7.32251 23.0807 7.32251 23.8276C7.32251 24.5598 7.92293 25.1749 8.66982 25.1749Z" fill="#D1D1D1"/>
<path d="M2.82642 46.2926C2.82642 47.0395 3.42683 47.64 4.17373 47.64C4.92062 47.64 5.52112 47.0395 5.52112 46.2926C5.52112 45.5458 4.92062 44.9453 4.17373 44.9453C3.44148 44.9453 2.82642 45.5458 2.82642 46.2926Z" fill="#D1D1D1"/>
</svg>
