<svg width="48" height="54" viewBox="0 0 48 54" fill="none" xmlns="http://www.w3.org/2000/svg">
<path d="M1.60074 1.33911C0.986853 1.95373 0.782227 2.9781 0.782227 4.20734V49.4844C0.782227 50.7136 1.19148 51.738 1.80536 52.3526L2.00999 52.5575L27.3838 27.1532V26.7434L1.60074 1.33911Z" fill="url(#paint0_linear_53_4953)"/>
<path d="M35.5689 35.7577L27.1792 27.3579V26.7433L35.5689 18.3435L35.7736 18.5484L45.8003 24.2848C48.6651 25.9238 48.6651 28.5872 45.8003 30.2262L35.5689 35.7577Z" fill="url(#paint1_linear_53_4953)"/>
<path d="M35.7734 35.5529L27.179 26.9482L1.60059 52.5574C2.62372 53.5818 4.05612 53.5818 5.89776 52.7623L35.7734 35.5529Z" fill="url(#paint2_linear_53_4953)"/>
<path d="M35.7734 18.3435L5.89776 1.339C4.05612 0.314631 2.62372 0.519504 1.60059 1.54387L27.179 26.9482L35.7734 18.3435Z" fill="url(#paint3_linear_53_4953)"/>
<path opacity="0.2" d="M35.5687 35.3479L5.89776 52.1475C4.26074 53.1719 2.82835 52.967 1.80521 52.1475L1.60059 52.3524L1.80521 52.5573C2.82835 53.3768 4.26074 53.5816 5.89776 52.5573L35.5687 35.3479Z" fill="black"/>
<path opacity="0.12" d="M1.60074 52.1477C0.986853 51.5331 0.782227 50.5087 0.782227 49.2794V49.4843C0.782227 50.7136 1.19148 51.7379 1.80536 52.3526V52.1477H1.60074ZM45.8003 29.6116L35.5689 35.3481L35.7735 35.5529L45.8003 29.8165C47.2327 28.997 47.8465 27.9726 47.8465 26.9482C47.8465 27.9726 47.028 28.7921 45.8003 29.6116Z" fill="black"/>
<path opacity="0.25" d="M5.89791 1.5439L45.8003 24.2849C47.028 25.1043 47.8465 25.9238 47.8465 26.9482C47.8465 25.9238 47.2327 24.8995 45.8003 24.08L5.89791 1.33902C3.03313 -0.299964 0.782227 0.929276 0.782227 4.20725V4.41213C0.782227 1.33902 3.03313 -0.0950906 5.89791 1.5439Z" fill="white"/>
<defs>
<linearGradient id="paint0_linear_53_4953" x1="24.9283" y1="3.81808" x2="-9.45562" y2="38.1586" gradientUnits="userSpaceOnUse">
<stop stop-color="#00A0FF"/>
<stop offset="0.007" stop-color="#00A1FF"/>
<stop offset="0.26" stop-color="#00BEFF"/>
<stop offset="0.512" stop-color="#00D2FF"/>
<stop offset="0.76" stop-color="#00DFFF"/>
<stop offset="1" stop-color="#00E3FF"/>
</linearGradient>
<linearGradient id="paint1_linear_53_4953" x1="49.5532" y1="26.9502" x2="0.0394641" y2="26.9502" gradientUnits="userSpaceOnUse">
<stop stop-color="#FFE000"/>
<stop offset="0.409" stop-color="#FFBD00"/>
<stop offset="0.775" stop-color="#FFA500"/>
<stop offset="1" stop-color="#FF9C00"/>
</linearGradient>
<linearGradient id="paint2_linear_53_4953" x1="31.1222" y1="31.6521" x2="-15.5029" y2="78.2212" gradientUnits="userSpaceOnUse">
<stop stop-color="#FF3A44"/>
<stop offset="1" stop-color="#C31162"/>
</linearGradient>
<linearGradient id="paint3_linear_53_4953" x1="-4.749" y1="-13.6659" x2="16.0723" y2="7.13034" gradientUnits="userSpaceOnUse">
<stop stop-color="#32A071"/>
<stop offset="0.069" stop-color="#2DA771"/>
<stop offset="0.476" stop-color="#15CF74"/>
<stop offset="0.801" stop-color="#06E775"/>
<stop offset="1" stop-color="#00F076"/>
</linearGradient>
</defs>
</svg>
