<svg width="138" height="51" viewBox="0 0 138 51" fill="none" xmlns="http://www.w3.org/2000/svg">
<path d="M17.7668 44.0433H14.1901L12.2309 37.9971H5.42078L3.55447 44.0433H0.0722656L6.82091 23.4592H10.9882L17.7668 44.0433ZM11.6402 35.4604L9.86843 30.0855C9.68101 29.5364 9.32822 28.2433 8.81164 26.2078H8.74864C8.54075 27.0833 8.20844 28.3764 7.75328 30.0855L6.01139 35.4604H11.6402ZM35.088 36.4395C35.088 38.9638 34.3903 40.9591 32.9934 42.4239C31.7429 43.7278 30.1884 44.379 28.3347 44.379C26.3329 44.379 24.8934 43.6783 24.0193 42.2739V50.0617H20.6615V34.0792C20.6615 32.4938 20.619 30.8682 20.5371 29.2008H23.4901L23.6776 31.5534H23.7406C24.8603 29.7808 26.5597 28.8945 28.8402 28.8945C30.6231 28.8945 32.1114 29.5859 33.3021 30.9702C34.4911 32.3577 35.088 34.1797 35.088 36.4395ZM31.6673 36.5602C31.6673 35.1155 31.3365 33.9245 30.6719 32.9857C29.9458 32.0097 28.9709 31.5209 27.7488 31.5209C26.9204 31.5209 26.1675 31.7931 25.495 32.3298C24.821 32.8712 24.38 33.5781 24.1737 34.4535C24.0816 34.7809 24.0292 35.1179 24.0177 35.4573V37.9337C24.0177 39.0118 24.3548 39.9228 25.0289 40.6683C25.7029 41.4108 26.5786 41.7835 27.6559 41.7835C28.9206 41.7835 29.9049 41.3025 30.6089 40.3482C31.3145 39.3907 31.6673 38.1286 31.6673 36.5602ZM52.4707 36.4395C52.4707 38.9638 51.773 40.9591 50.376 42.4239C49.124 43.7278 47.5711 44.379 45.7158 44.379C43.714 44.379 42.2745 43.6783 41.4004 42.2739V50.0617H38.0426V34.0792C38.0426 32.4938 38.0001 30.8682 37.9182 29.2008H40.8712L41.0587 31.5534H41.1217C42.2399 29.7808 43.9392 28.8945 46.2213 28.8945C48.0026 28.8945 49.4909 29.5859 50.6847 30.9702C51.8722 32.3577 52.4707 34.1797 52.4707 36.4395ZM49.0484 36.5602C49.0484 35.1155 48.716 33.9245 48.0514 32.9857C47.3254 32.0097 46.3536 31.5209 45.1315 31.5209C44.3031 31.5209 43.5502 31.7931 42.8746 32.3298C42.2005 32.8712 41.7611 33.5781 41.5548 34.4535C41.4524 34.8619 41.3973 35.1944 41.3973 35.4573V37.9337C41.3973 39.0118 41.7359 39.9228 42.4068 40.6683C43.0809 41.4092 43.9566 41.7835 45.037 41.7835C46.3032 41.7835 47.2876 41.3025 47.99 40.3482C48.6956 39.3907 49.0484 38.1286 49.0484 36.5602ZM71.9056 38.2693C71.9056 40.0218 71.2819 41.4463 70.0424 42.5461C68.6785 43.7464 66.7744 44.348 64.3332 44.348C62.0779 44.348 60.2699 43.9211 58.906 43.0658L59.6824 40.3172C61.155 41.1741 62.7724 41.601 64.5332 41.601C65.7995 41.601 66.7838 41.3195 67.4863 40.7611C68.1903 40.2012 68.5462 39.4526 68.5462 38.5184C68.5462 37.6816 68.2517 36.9809 67.6737 36.4101C67.0925 35.8409 66.1318 35.3104 64.7821 34.8232C61.1124 33.4791 59.2761 31.5132 59.2761 28.927C59.2761 27.2379 59.9249 25.8552 61.2195 24.774C62.5142 23.6944 64.2309 23.1545 66.3665 23.1545C68.2737 23.1545 69.8629 23.4809 71.1244 24.1321L70.2818 26.8203C69.0943 26.1893 67.754 25.8737 66.2547 25.8737C65.0703 25.8737 64.1411 26.1599 63.4765 26.7291C62.9173 27.2379 62.6339 27.8582 62.6339 28.5944C62.6339 29.4065 62.9567 30.0809 63.5993 30.6099C64.1568 31.0971 65.1742 31.6276 66.6452 32.1968C68.4501 32.9114 69.7762 33.7436 70.6251 34.6994C71.4803 35.6553 71.9056 36.8479 71.9056 38.2693ZM83.0357 31.6756H79.3346V38.8818C79.3346 40.7147 79.9866 41.6289 81.2938 41.6289C81.8939 41.6289 82.3915 41.5794 82.7853 41.4757L82.8782 43.9799C82.2167 44.2228 81.3458 44.3449 80.2669 44.3449C78.9408 44.3449 77.9045 43.9474 77.1564 43.1524C76.4115 42.3574 76.0366 41.0256 76.0366 39.151V31.6694H73.8317V29.1946H76.0366V26.4769L79.3346 25.4994V29.1946H83.0357V31.6756ZM99.7018 36.4999C99.7018 38.7813 99.0372 40.6544 97.7111 42.1192C96.3235 43.6273 94.4777 44.379 92.1767 44.379C89.956 44.379 88.1905 43.6566 86.8738 42.2135C85.5572 40.7673 84.8989 38.9453 84.8989 36.7473C84.8989 34.4473 85.5792 32.5634 86.9353 31.0986C88.2944 29.6323 90.1245 28.8992 92.4255 28.8992C94.6431 28.8992 96.4243 29.623 97.7725 31.0677C99.0608 32.469 99.7018 34.2787 99.7018 36.4999ZM96.2211 36.5756C96.2211 35.2161 95.9219 34.0498 95.3219 33.0738C94.6179 31.8952 93.6099 31.3059 92.3043 31.3059C90.9593 31.3059 89.9277 31.8952 89.2253 33.0738C88.6236 34.0498 88.3244 35.2362 88.3244 36.6375C88.3244 37.9987 88.6236 39.168 89.2253 40.1409C89.9513 41.3195 90.964 41.9088 92.2759 41.9088C93.5595 41.9088 94.5659 41.3071 95.2935 40.1115C95.9109 39.1123 96.2211 37.9383 96.2211 36.5756ZM110.621 32.1009C110.272 32.039 109.917 32.0084 109.563 32.0097C108.381 32.0097 107.468 32.4458 106.825 33.3244C106.268 34.0978 105.987 35.0753 105.987 36.2555V44.0433H102.63V33.875C102.633 32.3169 102.6 30.759 102.532 29.2023H105.457L105.579 32.0421H105.672C106.028 31.0661 106.586 30.2788 107.351 29.6895C108.052 29.1746 108.903 28.8957 109.778 28.8945C110.089 28.8945 110.369 28.9162 110.618 28.9548L110.621 32.1009ZM125.638 35.9198C125.647 36.4211 125.605 36.9221 125.515 37.4155H115.442C115.48 38.8818 115.968 40.0048 116.903 40.7782C117.752 41.468 118.85 41.8145 120.198 41.8145C121.69 41.8145 123.05 41.5825 124.274 41.1138L124.8 43.4014C123.37 44.0139 121.682 44.3187 119.734 44.3187C117.39 44.3187 115.55 43.6412 114.212 42.2893C112.876 40.9359 112.207 39.117 112.207 36.8386C112.207 34.602 112.829 32.7382 114.075 31.2517C115.379 29.6648 117.141 28.8713 119.359 28.8713C121.537 28.8713 123.186 29.6648 124.306 31.2517C125.192 32.5093 125.638 34.0684 125.638 35.9198ZM122.436 35.0645C122.46 34.0854 122.239 33.2424 121.784 32.5294C121.203 31.6106 120.308 31.1528 119.11 31.1528C118.012 31.1528 117.118 31.5998 116.437 32.4969C115.878 33.2099 115.546 34.0668 115.443 35.0614L122.436 35.0645Z" fill="#221859"/>
<path d="M2.7868 12.8358C1.73675 12.8358 0.828371 12.785 0.0722656 12.6991V1.42425C1.12977 1.26258 2.19841 1.1829 3.26845 1.18593C7.59791 1.18593 9.59175 3.29404 9.59175 6.73047C9.59175 10.6944 7.23667 12.8358 2.7868 12.8358ZM3.42073 2.63164C2.83639 2.63164 2.33881 2.66669 1.92622 2.75081V11.3217C2.14934 11.3568 2.57786 11.3725 3.17991 11.3725C6.01663 11.3725 7.63154 9.77436 7.63154 6.78129C7.63154 4.11241 6.17069 2.63164 3.42073 2.63164ZM15.8053 12.9216C13.3652 12.9216 11.7839 11.1184 11.7839 8.67036C11.7839 6.11889 13.3988 4.29991 15.9434 4.29991C18.3481 4.29991 19.9647 6.01725 19.9647 8.53543C19.9647 11.1184 18.2985 12.9216 15.8053 12.9216ZM15.8761 5.64224C14.5357 5.64224 13.6768 6.88293 13.6768 8.61779C13.6768 10.3194 14.5534 11.56 15.8584 11.56C17.1634 11.56 18.0399 10.2335 18.0399 8.58274C18.0399 6.90045 17.1811 5.64224 15.8761 5.64224ZM33.8792 4.46989L31.2674 12.7341H29.5657L28.4838 9.14526C28.2148 8.26739 27.9908 7.37663 27.8127 6.47638H27.7772C27.6409 7.3771 27.3824 8.27958 27.1079 9.14526L25.9569 12.7341H24.2375L21.7797 4.46989H23.6868L24.6324 8.39874C24.8555 9.33451 25.0432 10.2177 25.199 11.0519H25.2345C25.3708 10.3562 25.5939 9.48697 25.9215 8.41626L27.1079 4.47165H28.6201L29.7552 8.33215C30.0296 9.26792 30.2527 10.1862 30.4263 11.0536H30.4758C30.5963 10.2037 30.7857 9.30122 31.0425 8.33215L32.0571 4.47165L33.8792 4.46989ZM43.4943 12.7341H41.6386V7.98868C41.6386 6.52719 41.0719 5.7947 39.9546 5.7947C38.855 5.7947 38.0989 6.73047 38.0989 7.8187V12.7341H36.2431V6.83211C36.2431 6.10136 36.2254 5.31805 36.1741 4.46814H37.8067L37.8935 5.74388H37.9448C38.4442 4.86068 39.457 4.29991 40.5921 4.29991C42.3451 4.29991 43.4961 5.62647 43.4961 7.78541L43.4943 12.7341ZM48.6117 12.7341H46.7542V0.677734H48.6117V12.7341ZM55.3777 12.9216C52.9394 12.9216 51.3564 11.1184 51.3564 8.67036C51.3564 6.11889 52.9713 4.29991 55.5141 4.29991C57.9205 4.29991 59.5354 6.01725 59.5354 8.53543C59.5372 11.1184 57.8692 12.9216 55.3777 12.9216ZM55.4468 5.64224C54.1063 5.64224 53.2475 6.88293 53.2475 8.61779C53.2475 10.3194 54.1258 11.56 55.4273 11.56C56.7341 11.56 57.6089 10.2335 57.6089 8.58274C57.6106 6.90045 56.7536 5.64224 55.4468 5.64224ZM66.8521 12.7341L66.7176 11.7826H66.668C66.1013 12.5484 65.2744 12.9216 64.2261 12.9216C62.7298 12.9216 61.6674 11.8842 61.6674 10.4893C61.6674 8.44956 63.4541 7.39462 66.5476 7.39462V7.24217C66.5476 6.15394 65.965 5.60894 64.814 5.60894C63.9906 5.60894 63.2682 5.81397 62.6325 6.22228L62.2553 5.01489C63.0273 4.53824 63.9906 4.29991 65.1221 4.29991C67.3037 4.29991 68.4051 5.43896 68.4051 7.71882V10.7627C68.4051 11.5968 68.4422 12.2435 68.5255 12.7359L66.8521 12.7341ZM66.5971 8.61779C64.536 8.61779 63.5019 9.11196 63.5019 10.2843C63.5019 11.1517 64.0349 11.5758 64.7751 11.5758C65.7189 11.5758 66.5971 10.8626 66.5971 9.89353V8.61779ZM77.4164 12.7341L77.3296 11.4076H77.2782C76.7452 12.4099 75.8492 12.9216 74.5973 12.9216C72.584 12.9216 71.0931 11.1693 71.0931 8.70366C71.0931 6.11889 72.6389 4.29816 74.7496 4.29816C75.867 4.29816 76.6585 4.67142 77.1047 5.42144H77.1419V0.677734H78.9994V10.5069C78.9994 11.3059 79.0189 12.0542 79.0685 12.7341H77.4164ZM77.1419 7.87127C77.1419 6.7147 76.3681 5.72811 75.187 5.72811C73.8111 5.72811 72.97 6.9355 72.97 8.63531C72.97 10.3018 73.843 11.4426 75.1498 11.4426C76.3167 11.4426 77.1419 10.4385 77.1419 9.24865V7.87127ZM90.7766 12.9216C88.3383 12.9216 86.757 11.1184 86.757 8.67036C86.757 6.11889 88.3719 4.29991 90.9147 4.29991C93.3211 4.29991 94.936 6.01725 94.936 8.53543C94.9378 11.1184 93.2716 12.9216 90.7766 12.9216ZM90.8456 5.64224C89.507 5.64224 88.6481 6.88293 88.6481 8.61779C88.6481 10.3194 89.5247 11.56 90.8279 11.56C92.1347 11.56 93.0095 10.2335 93.0095 8.58274C93.013 6.90045 92.1542 5.64224 90.8456 5.64224ZM104.916 12.7341H103.058V7.98868C103.058 6.52719 102.492 5.7947 101.374 5.7947C100.275 5.7947 99.5205 6.73047 99.5205 7.8187V12.7341H97.663V6.83211C97.663 6.10136 97.6453 5.31805 97.5939 4.46814H99.2265L99.3133 5.74388H99.3647C99.8622 4.86068 100.877 4.29816 102.01 4.29816C103.763 4.29816 104.916 5.62472 104.916 7.78365V12.7341ZM117.401 5.84727H115.36V9.86023C115.36 10.8819 115.717 11.3918 116.44 11.3918C116.767 11.3918 117.042 11.3568 117.263 11.3059L117.315 12.7008C116.955 12.8375 116.474 12.9059 115.875 12.9059C114.412 12.9059 113.538 12.1068 113.538 10.0144V5.84727H112.319V4.46989H113.538V2.95583L115.36 2.41084V4.46814H117.401V5.84727ZM127.225 12.7341H125.372V8.02373C125.372 6.54472 124.807 5.79645 123.688 5.79645C122.726 5.79645 121.83 6.44308 121.83 7.75211V12.7341H119.976V0.677734H121.83V5.64224H121.867C122.452 4.74151 123.298 4.29816 124.378 4.29816C126.145 4.29816 127.225 5.65801 127.225 7.8187V12.7341ZM137.29 9.04362H131.721C131.757 10.6085 132.803 11.4917 134.353 11.4917C135.176 11.4917 135.934 11.355 136.603 11.1009L136.892 12.3767C136.102 12.7166 135.173 12.8866 134.091 12.8866C131.479 12.8866 129.933 11.2534 129.933 8.72118C129.933 6.18723 131.516 4.28239 133.882 4.28239C136.015 4.28239 137.354 5.84727 137.354 8.21124C137.366 8.49021 137.345 8.76962 137.29 9.04362ZM135.589 7.73459C135.589 6.45885 134.939 5.55813 133.752 5.55813C132.686 5.55813 131.844 6.47637 131.723 7.73459H135.589Z" fill="#221859"/>
</svg>
