<svg width="174" height="57" viewBox="0 0 174 57" fill="none" xmlns="http://www.w3.org/2000/svg">
<path d="M13.3128 7.87069C13.3128 9.50968 12.9035 10.9438 11.8804 11.9682C10.6526 13.1974 9.22025 13.812 7.3786 13.812C5.53696 13.812 4.10456 13.1974 2.8768 11.9682C1.64903 10.7389 1.03516 9.3048 1.03516 7.46094C1.03516 5.61708 1.64903 4.18297 2.8768 2.95372C4.10456 1.72448 5.53696 1.10986 7.3786 1.10986C8.19711 1.10986 9.01562 1.31474 9.83413 1.72448C10.6526 2.13423 11.2665 2.54398 11.6758 3.1586L10.6526 4.18296C9.83413 3.1586 8.81099 2.74885 7.3786 2.74885C6.15084 2.74885 4.92308 3.1586 4.10457 4.18296C3.08143 5.00246 2.67217 6.2317 2.67217 7.66581C2.67217 9.09993 3.08143 10.3292 4.10457 11.1487C5.1277 11.9682 6.15084 12.5828 7.3786 12.5828C8.81099 12.5828 9.83413 12.173 10.8573 11.1487C11.4712 10.534 11.8804 9.71455 11.8804 8.69018H7.3786V7.05119H13.3128V7.87069ZM22.7257 2.74885H17.2007V6.64145H22.3164V8.07556H17.2007V11.9682H22.7257V13.6071H15.5637V1.31474H22.7257V2.74885ZM29.4784 13.6071H27.8413V2.74885H24.3627V1.31474H32.957V2.74885H29.4784V13.6071ZM38.8912 13.6071V1.31474H40.5282V13.6071H38.8912ZM47.4856 13.6071H45.8486V2.74885H42.3699V1.31474H50.7596V2.74885H47.2809V13.6071H47.4856ZM66.9252 11.9682C65.6974 13.1974 64.265 13.812 62.4234 13.812C60.5817 13.812 59.1493 13.1974 57.9216 11.9682C56.6938 10.7389 56.0799 9.3048 56.0799 7.46094C56.0799 5.61708 56.6938 4.18297 57.9216 2.95372C59.1493 1.72448 60.5817 1.10986 62.4234 1.10986C64.265 1.10986 65.6974 1.72448 66.9252 2.95372C68.1529 4.18297 68.7668 5.61708 68.7668 7.46094C68.7668 9.3048 68.1529 10.7389 66.9252 11.9682ZM59.1493 10.9438C59.9678 11.7633 61.1956 12.3779 62.4234 12.3779C63.6511 12.3779 64.8789 11.9682 65.6974 10.9438C66.5159 10.1243 67.1298 8.89505 67.1298 7.46094C67.1298 6.02683 66.7206 4.79759 65.6974 3.97809C64.8789 3.1586 63.6511 2.54398 62.4234 2.54398C61.1956 2.54398 59.9678 2.95372 59.1493 3.97809C58.3308 4.79759 57.7169 6.02683 57.7169 7.46094C57.7169 8.89505 58.1262 10.1243 59.1493 10.9438ZM71.0177 13.6071V1.31474H72.8594L78.7936 10.9438V1.31474H80.4306V13.6071H78.7936L72.4501 3.56835V13.6071H71.0177Z" fill="#221859" stroke="#221859" stroke-width="1.18519" stroke-miterlimit="10"/>
<path d="M55.6708 31.6359C50.7597 31.6359 46.8718 35.3236 46.8718 40.4454C46.8718 45.3624 50.7597 49.255 55.6708 49.255C60.5819 49.255 64.4698 45.5673 64.4698 40.4454C64.4698 35.1187 60.5819 31.6359 55.6708 31.6359ZM55.6708 45.5673C53.0106 45.5673 50.7597 43.3137 50.7597 40.2406C50.7597 37.1675 53.0106 34.9139 55.6708 34.9139C58.3309 34.9139 60.5819 36.9626 60.5819 40.2406C60.5819 43.3137 58.3309 45.5673 55.6708 45.5673ZM36.6404 31.6359C31.7294 31.6359 27.8415 35.3236 27.8415 40.4454C27.8415 45.3624 31.7294 49.255 36.6404 49.255C41.5515 49.255 45.4394 45.5673 45.4394 40.4454C45.4394 35.1187 41.5515 31.6359 36.6404 31.6359ZM36.6404 45.5673C33.9803 45.5673 31.7294 43.3137 31.7294 40.2406C31.7294 37.1675 33.9803 34.9139 36.6404 34.9139C39.3006 34.9139 41.5515 36.9626 41.5515 40.2406C41.5515 43.3137 39.3006 45.5673 36.6404 45.5673ZM13.9268 34.2992V37.987H22.7258C22.5212 40.0357 21.7026 41.6747 20.6795 42.6991C19.4517 43.9283 17.4055 45.3624 13.9268 45.3624C8.40186 45.3624 4.30931 41.0601 4.30931 35.5285C4.30931 29.9969 8.60649 25.6946 13.9268 25.6946C16.7916 25.6946 19.0425 26.9238 20.6795 28.3579L23.3397 25.6946C21.0888 23.6458 18.224 22.0068 14.1314 22.0068C6.76484 22.0068 0.421387 28.153 0.421387 35.5285C0.421387 42.9039 6.76484 49.0501 14.1314 49.0501C18.224 49.0501 21.0888 47.8209 23.5443 45.1575C25.9998 42.6991 26.8183 39.2162 26.8183 36.5529C26.8183 35.7334 26.8183 34.9139 26.6137 34.2992H13.9268ZM106.828 37.1675C106.009 35.1187 103.963 31.6359 99.4611 31.6359C94.9593 31.6359 91.276 35.1187 91.276 40.4454C91.276 45.3624 94.9592 49.255 99.8703 49.255C103.758 49.255 106.214 46.7965 107.032 45.3624L104.167 43.3137C103.144 44.7478 101.917 45.7722 99.8703 45.7722C97.824 45.7722 96.5963 44.9527 95.5731 43.1088L107.237 38.1918L106.828 37.1675ZM94.9593 40.0357C94.9593 36.7577 97.6194 34.9139 99.4611 34.9139C100.893 34.9139 102.326 35.7334 102.735 36.7577L94.9593 40.0357ZM85.3418 48.4355H89.2297V22.8263H85.3418V48.4355ZM79.2029 33.4797C78.1798 32.4554 76.5428 31.431 74.4965 31.431C70.1993 31.431 66.1068 35.3236 66.1068 40.2406C66.1068 45.1575 69.9947 48.8453 74.4965 48.8453C76.5428 48.8453 78.1798 47.8209 78.9983 46.7965H79.2029V48.0258C79.2029 51.3037 77.3613 53.1476 74.4965 53.1476C72.2456 53.1476 70.6086 51.5086 70.1993 50.0745L66.9253 51.5086C67.9484 53.7622 70.404 56.6304 74.7011 56.6304C79.203 56.6304 82.8862 53.9671 82.8862 47.616V32.0456H79.2029V33.4797ZM74.7011 45.5673C72.041 45.5673 69.7901 43.3137 69.7901 40.2406C69.7901 37.1675 72.041 34.9139 74.7011 34.9139C77.3613 34.9139 79.4076 37.1675 79.4076 40.2406C79.4076 43.3137 77.3613 45.5673 74.7011 45.5673ZM124.63 22.8263H115.422V48.4355H119.31V38.8065H124.63C128.927 38.8065 133.02 35.7334 133.02 30.8164C133.02 25.8994 128.927 22.8263 124.63 22.8263ZM124.835 35.1187H119.31V26.3092H124.835C127.7 26.3092 129.337 28.7677 129.337 30.6115C129.132 32.8651 127.495 35.1187 124.835 35.1187ZM148.367 31.431C145.502 31.431 142.637 32.6603 141.614 35.3236L145.093 36.7577C145.911 35.3236 147.139 34.9139 148.572 34.9139C150.618 34.9139 152.46 36.1431 152.664 38.1918V38.3967C152.05 37.987 150.413 37.3723 148.776 37.3723C145.093 37.3723 141.41 39.4211 141.41 43.1088C141.41 46.5916 144.479 48.8453 147.753 48.8453C150.413 48.8453 151.641 47.616 152.664 46.3868H152.869V48.4355H156.552V38.6016C156.143 34.0944 152.664 31.431 148.367 31.431ZM147.958 45.5673C146.73 45.5673 144.888 44.9527 144.888 43.3137C144.888 41.2649 147.139 40.6503 148.981 40.6503C150.618 40.6503 151.436 41.0601 152.46 41.4698C152.05 43.9283 150.004 45.5673 147.958 45.5673ZM169.444 32.0456L165.146 43.1088H164.942L160.44 32.0456H156.347L163.1 47.616L159.212 56.2207H163.1L173.536 32.0456H169.444ZM135.066 48.4355H138.954V22.8263H135.066V48.4355Z" fill="#221859"/>
</svg>
