<svg width="213" height="205" viewBox="0 0 213 205" fill="none" xmlns="http://www.w3.org/2000/svg">
<path d="M208.579 102.5C208.579 112.589 192.906 120.256 189.691 129.537C186.877 139.222 194.915 154.557 189.289 162.628C183.261 170.699 165.979 167.874 157.942 173.524C149.904 179.173 147.493 196.929 137.847 199.754C129.006 202.982 116.949 190.472 106.5 190.472C96.0511 190.472 83.9945 202.982 74.7511 200.158C65.1058 196.929 62.6945 179.577 54.6567 173.927C46.619 167.874 29.3379 171.102 23.7115 163.032C18.085 154.961 26.1228 139.626 22.9077 129.941C20.0945 120.256 4.4209 112.589 4.4209 102.5C4.4209 92.4114 20.0945 84.7441 23.3096 75.4626C26.5247 65.7776 18.085 50.4429 24.1134 42.3721C30.1417 34.3012 47.0209 37.5295 55.0586 31.4764C63.0964 25.8268 65.5077 8.07089 75.153 5.24608C83.9945 1.61419 96.453 14.5276 106.5 14.5276C116.547 14.5276 129.006 2.01774 138.249 4.84254C147.894 8.07089 150.306 25.4232 158.344 31.0729C166.381 37.126 183.662 33.8977 189.289 41.9685C194.915 50.0394 186.878 65.374 190.093 75.0591C192.906 84.3406 208.579 92.0079 208.579 102.5Z" fill="#EDEDED"/>
<path d="M202.149 110.571C202.149 119.852 186.877 127.116 184.064 135.591C181.251 144.468 188.887 158.593 183.26 165.856C177.634 173.524 161.157 170.699 153.119 175.945C145.483 181.191 143.072 197.333 133.828 200.157C124.987 202.982 113.332 191.28 103.285 191.28C93.2379 191.28 81.5832 202.982 72.7416 200.157C63.4982 197.333 61.0869 181.191 53.4511 175.945C45.4133 170.699 28.936 173.524 23.3096 165.856C17.6832 158.593 25.319 144.468 22.5058 135.591C19.6926 127.116 4.4209 119.852 4.4209 110.571C4.4209 101.289 19.6926 94.0256 22.5058 85.5512C25.319 76.6732 17.6832 62.5492 23.3096 55.2854C28.936 48.0216 45.8152 50.8464 53.4511 45.1968C61.0869 39.9508 63.4982 23.809 72.7416 20.9842C81.5832 18.1594 93.2379 29.8622 103.285 29.8622C113.332 29.8622 124.987 18.1594 133.828 20.9842C143.072 23.809 145.483 39.9508 153.119 45.1968C160.755 50.4429 177.634 47.6181 183.26 55.2854C188.887 62.5492 181.251 76.6732 184.064 85.5512C186.877 94.0256 202.149 101.289 202.149 110.571Z" fill="#EDEDED"/>
<path d="M77.966 204.999C76.3585 204.999 75.1528 204.596 73.5453 204.192C66.7132 201.771 62.6943 194.507 59.4792 188.05C57.4698 183.612 55.0585 179.173 52.2453 177.155C49.834 175.137 44.6094 174.33 39.7868 173.523C32.5528 172.312 24.5151 171.102 20.4962 165.452C16.0755 159.399 17.2811 151.732 18.4868 144.064C19.2906 139.222 20.0943 134.379 18.8887 131.151C18.0849 127.923 14.4679 124.291 11.2528 121.062C6.0283 115.816 0 110.167 0 102.499C0 94.832 6.0283 88.7788 11.2528 83.9363C14.4679 80.708 18.0849 77.0761 19.2906 73.8477C20.0943 70.6194 19.2906 65.3733 18.4868 60.5308C17.2811 53.267 16.0755 45.5997 20.4962 39.5466C24.917 33.4934 32.5528 32.2828 40.1887 31.0721C44.6094 30.2651 49.834 29.8615 52.2453 27.8438C55.0585 25.8261 57.0679 21.3871 59.4792 16.9481C62.6943 10.4914 66.3113 2.82412 73.5453 0.806401C80.3774 -1.61486 87.2094 2.01703 94.0415 5.24538C98.4623 7.66664 102.883 9.68435 106.5 9.68435C110.117 9.68435 114.538 7.26309 118.958 5.24538C125.791 2.01703 132.623 -1.61486 139.455 0.806401C146.689 3.22766 150.306 10.4914 153.521 16.9481C155.53 21.3871 157.942 25.8261 160.755 27.8438C163.568 29.8615 168.391 30.6686 173.213 31.4757C180.447 32.2828 188.485 33.4934 192.504 39.5466C196.925 45.5997 195.719 53.267 194.513 60.5308C193.709 65.3733 192.906 70.6194 194.111 73.8477C194.915 77.0761 198.532 80.3044 202.149 83.9363C206.972 88.7788 213 94.832 213 102.499C213 110.167 206.972 115.816 201.747 121.062C198.532 124.291 194.915 127.923 193.709 131.151C192.906 134.379 193.709 139.222 194.513 144.064C195.719 151.732 196.925 159.399 192.504 165.452C188.485 171.102 180.447 172.312 173.213 173.523C168.391 174.33 163.166 175.137 160.755 177.155C157.942 179.173 155.53 183.612 153.521 188.05C150.306 194.507 146.689 201.771 139.455 204.192C132.623 206.21 125.791 202.982 118.958 199.35C114.538 197.332 110.117 194.911 106.5 194.911C102.883 194.911 98.4623 197.332 94.0415 199.35C88.817 202.175 83.1906 204.999 77.966 204.999ZM77.966 8.87727C77.1623 8.87727 76.7604 8.87727 76.3585 9.28081C72.7415 10.0879 69.9283 15.7375 67.1151 20.9836C64.7038 26.2296 61.8906 31.4757 57.4698 34.704C53.0491 37.9324 47.0208 38.7395 41.3943 39.9501C35.366 40.7572 29.3377 41.5643 27.3283 44.7926C25.3189 47.6174 26.1226 53.6706 26.9264 59.3202C27.7302 65.3733 28.9359 71.4265 26.9264 76.6725C25.7208 81.5151 21.3 85.954 17.2811 89.9895C13.2623 94.0249 8.84151 98.4639 8.84151 102.499C8.84151 106.535 13.2623 110.974 17.2811 115.009C21.3 119.045 25.7208 123.484 27.3283 128.326C28.9358 133.572 28.1321 139.625 27.3283 145.678C26.1226 151.328 25.3189 157.381 27.3283 160.206C29.3377 163.434 35.366 164.241 41.3943 165.049C47.0208 165.856 53.0491 167.066 57.4698 170.295C61.8906 173.523 64.7038 178.769 67.1151 184.015C69.9283 189.261 72.3396 194.911 75.9566 196.121C79.1717 197.332 84.3962 194.507 89.6208 192.086C94.8453 189.261 100.472 186.436 106.098 186.436C111.725 186.436 117.351 189.261 122.575 192.086C127.8 194.507 133.025 197.332 136.24 196.121C139.857 194.911 142.67 189.665 145.081 184.015C148.296 178.769 151.109 173.523 155.53 170.295C159.951 167.066 165.979 166.259 171.606 165.049C177.232 164.241 183.26 163.031 185.672 160.206C187.681 157.381 186.877 151.328 186.074 145.678C185.27 139.625 184.064 133.572 186.074 128.326C187.681 123.08 192.102 119.045 196.121 115.009C200.14 110.974 204.56 106.535 204.56 102.499C204.56 98.4639 200.14 94.0249 196.121 89.9895C192.102 85.954 187.681 81.5151 186.074 76.6725C184.466 71.4265 185.27 65.3733 186.074 59.3202C186.877 53.6706 188.083 47.6174 185.672 44.7926C183.662 41.5643 177.634 40.7572 171.606 39.9501C165.979 39.143 159.951 37.9324 155.53 34.704C151.109 31.4757 148.296 26.2296 145.885 20.9836C143.072 15.7375 140.258 10.0879 136.642 8.87727C133.426 7.66664 128.202 10.4914 122.977 12.9127C117.753 15.7375 112.126 18.5623 106.5 18.5623C100.874 18.5623 95.2472 15.7375 90.0226 12.9127C85.6019 10.895 81.1811 8.87727 77.966 8.87727Z" fill="white"/>
</svg>
