<svg width="132" height="109" viewBox="0 0 132 109" fill="none" xmlns="http://www.w3.org/2000/svg">
<path d="M36.4619 90.2831L38.9933 78.8588L50.6942 78.7531L53.2255 67.3288L64.9172 67.2306L67.4103 56.0073L67.4028 55.998L67.421 55.9059L79.1219 55.8002L81.6533 44.3759L93.3448 44.2777L95.8762 32.8534L107.577 32.7477L110.061 21.532L109.168 20.43L106.684 31.6457L94.9834 31.7515L92.4521 43.1758L80.7605 43.2739L78.2292 54.6982L66.5282 54.8039L66.4971 54.9374L66.5047 54.9468L64.0244 66.1286L52.3235 66.2344L49.8014 77.6511L38.1005 77.7568L35.5692 89.1811L23.8683 89.2869L23.8371 89.4204L24.7392 90.5148L24.761 90.3888L36.4619 90.2831Z" fill="#D1D1D1"/>
<path d="M31.3509 98.5229L43.0518 98.4172L45.5832 86.9929L57.2841 86.8872L59.8154 75.4629L71.5071 75.3647L73.9927 64.1321L74.0109 64.04L85.7118 63.9343L88.2431 52.51L99.9347 52.4118L102.466 40.9875L114.167 40.8818L116.651 29.6661L115.758 28.5641L113.274 39.7798L101.573 39.8855L99.042 51.3099L87.3504 51.408L84.819 62.8323L73.1181 62.938L73.087 63.0715L73.0945 63.0808L70.6143 74.2626L58.9227 74.3608L56.3913 85.7851L44.6904 85.8909L42.159 97.3152L30.4581 97.4209L30.427 97.5544L31.3197 98.6564L31.3509 98.5229Z" fill="#D1D1D1"/>
<path d="M23.2295 73.9496L25.7609 62.5253L37.4618 62.4196L39.9932 50.9953L51.6848 50.8971L54.1779 39.6739L54.1704 39.6645L54.1886 39.5724L65.8895 39.4667L68.4209 28.0424L80.1124 27.9443L82.6438 16.52L94.3447 16.4142L96.8286 5.19852L95.9358 4.09655L93.452 15.3123L81.7511 15.418L79.2197 26.8423L67.5281 26.9404L64.9968 38.3648L53.2958 38.4705L53.2647 38.6039L53.2723 38.6133L50.7996 49.8045L39.108 49.9027L36.5766 61.327L24.8681 61.4233L22.3443 72.857L10.6358 72.9534L10.6141 73.0793L11.4975 74.1888L11.5286 74.0554L23.2295 73.9496Z" fill="#D1D1D1"/>
<path d="M29.8186 82.0833L32.35 70.659L44.0509 70.5533L46.5822 59.129L58.2739 59.0308L60.7671 47.8076L60.7595 47.7983L60.7777 47.7062L72.4786 47.6005L75.01 36.1762L86.7016 36.078L89.2329 24.6537L100.934 24.548L103.418 13.3323L102.525 12.2303L100.041 23.446L88.3401 23.5517L85.8088 34.976L74.1172 35.0741L71.5859 46.4985L59.8849 46.6042L59.8538 46.7377L59.8614 46.747L57.3811 57.9288L45.6971 58.0364L43.1581 69.4513L31.4648 69.5664L28.9259 80.9814L17.2325 81.0964L17.2032 81.213L18.0866 82.3225L18.1177 82.1891L29.8186 82.0833Z" fill="#D1D1D1"/>
</svg>
