<svg width="133" height="144" viewBox="0 0 133 144" fill="none" xmlns="http://www.w3.org/2000/svg">
<path d="M110.209 89.4985L98.5541 90.5415L94.9138 79.4208L83.259 80.4638L79.6287 69.3496L68.1771 70.3683L68.1705 70.3783L68.0772 70.3888L64.437 59.268L52.7822 60.3111L49.152 49.1969L37.4971 50.24L33.8569 39.1192L22.4153 40.1444L21.635 41.3287L33.0766 40.3035L36.7169 51.4242L48.3717 50.3812L52.0019 61.4953L63.6567 60.4523L67.2969 71.5731L67.4336 71.5623L67.4402 71.5523L78.8484 70.5339L82.4887 81.6547L94.1335 80.605L97.7738 91.7258L109.429 90.6827L113.069 101.804L113.205 101.793L113.976 100.602L113.849 100.619L110.209 89.4985Z" fill="#D1D1D1"/>
<path d="M119.609 91.8777L115.969 80.757L104.314 81.8L100.674 70.6793L89.0188 71.7223L85.3885 60.6081L73.9303 61.6368L73.837 61.6473L70.1968 50.5265L58.542 51.5696L54.9118 40.4554L43.257 41.4985L39.6167 30.3777L28.1751 31.4029L27.3948 32.5872L38.8364 31.562L42.4767 42.6827L54.1315 41.6397L57.7617 52.7538L69.4165 51.7108L73.0567 62.8315L73.1934 62.8208L73.2 62.8108L84.6082 61.7924L88.2385 72.9066L99.8933 71.8636L103.534 82.9843L115.188 81.9413L118.829 93.0621L118.965 93.0513L119.746 91.8671L119.609 91.8777Z" fill="#D1D1D1"/>
<path d="M98.6435 107.052L86.9886 108.095L83.3484 96.9742L71.6936 98.0172L68.0633 86.9031L56.6117 87.9217L56.6051 87.9317L56.5118 87.9422L52.8716 76.8215L41.2168 77.8645L37.5866 66.7504L25.9317 67.7934L22.2915 56.6727L10.8499 57.6979L10.0696 58.8821L21.5112 57.8569L25.1514 68.9777L36.8063 67.9346L40.4365 79.0488L52.0913 78.0057L55.7315 89.1265L55.8682 89.1158L55.8748 89.1057L67.2896 88.0773L70.9199 99.1915L82.5747 98.1484L86.2083 109.279L97.8698 108.226L101.503 119.357L101.63 119.34L102.42 118.162L102.284 118.173L98.6435 107.052Z" fill="#D1D1D1"/>
<path d="M104.402 98.3108L92.7476 99.3538L89.1074 88.2331L77.4526 89.2761L73.8223 78.1619L62.3707 79.1805L62.3641 79.1905L62.2708 79.201L58.6306 68.0803L46.9758 69.1233L43.3456 58.0092L31.6908 59.0522L28.0505 47.9314L16.6089 48.9567L15.8286 50.1409L27.2702 49.1157L30.9104 60.2365L42.5653 59.1934L46.1955 70.3076L57.8503 69.2645L61.4905 80.3853L61.6272 80.3746L61.6338 80.3646L73.042 79.3462L76.6789 90.4503L88.3271 89.4173L91.974 100.528L103.622 99.495L107.269 110.606L107.389 110.598L108.179 109.421L108.043 109.432L104.402 98.3108Z" fill="#D1D1D1"/>
</svg>
