<svg width="322" height="314" viewBox="0 0 322 314" fill="none" xmlns="http://www.w3.org/2000/svg">
<path fill-rule="evenodd" clip-rule="evenodd" d="M125.79 50.6373C146.343 43.3257 165.584 31.5496 187.37 32.7708C210.421 34.0628 234.931 40.5905 250.54 57.6297C265.79 74.277 260.513 100.413 268.635 121.48C278.012 145.801 309.057 165.532 301.786 190.548C294.553 215.432 258.214 215.635 236.966 230.436C218.228 243.49 207.189 269.928 184.47 272.272C161.754 274.615 145.662 250.637 124.491 242.039C101.427 232.672 71.1517 238.454 54.8473 219.625C38.3935 200.624 40.8785 171.96 42.0703 146.857C43.2328 122.369 45.5149 95.9951 61.594 77.5153C77.1402 59.6481 103.481 58.5736 125.79 50.6373Z" stroke="#DDDDDD"/>
<path fill-rule="evenodd" clip-rule="evenodd" d="M125.79 50.6373C146.343 43.3257 165.584 31.5496 187.37 32.7708C210.421 34.0628 234.931 40.5905 250.54 57.6297C265.79 74.277 260.513 100.413 268.635 121.48C278.012 145.801 309.057 165.532 301.786 190.548C294.553 215.432 258.214 215.635 236.966 230.436C218.228 243.49 207.189 269.928 184.47 272.272C161.754 274.615 145.662 250.637 124.491 242.039C101.427 232.672 71.1517 238.454 54.8473 219.625C38.3935 200.624 40.8785 171.96 42.0703 146.857C43.2328 122.369 45.5149 95.9951 61.594 77.5153C77.1402 59.6481 103.481 58.5736 125.79 50.6373Z" stroke="#DDDDDD"/>
<path fill-rule="evenodd" clip-rule="evenodd" d="M125.79 50.6373C146.343 43.3257 165.584 31.5496 187.37 32.7708C210.421 34.0628 234.931 40.5905 250.54 57.6297C265.79 74.277 260.513 100.413 268.635 121.48C278.012 145.801 309.057 165.532 301.786 190.548C294.553 215.432 258.214 215.635 236.966 230.436C218.228 243.49 207.189 269.928 184.47 272.272C161.754 274.615 145.662 250.637 124.491 242.039C101.427 232.672 71.1517 238.454 54.8473 219.625C38.3935 200.624 40.8785 171.96 42.0703 146.857C43.2328 122.369 45.5149 95.9951 61.594 77.5153C77.1402 59.6481 103.481 58.5736 125.79 50.6373Z" stroke="#DDDDDD"/>
<path fill-rule="evenodd" clip-rule="evenodd" d="M125.79 50.6373C146.343 43.3257 165.584 31.5496 187.37 32.7708C210.421 34.0628 234.931 40.5905 250.54 57.6297C265.79 74.277 260.513 100.413 268.635 121.48C278.012 145.801 309.057 165.532 301.786 190.548C294.553 215.432 258.214 215.635 236.966 230.436C218.228 243.49 207.189 269.928 184.47 272.272C161.754 274.615 145.662 250.637 124.491 242.039C101.427 232.672 71.1517 238.454 54.8473 219.625C38.3935 200.624 40.8785 171.96 42.0703 146.857C43.2328 122.369 45.5149 95.9951 61.594 77.5153C77.1402 59.6481 103.481 58.5736 125.79 50.6373Z" stroke="#DDDDDD"/>
<path fill-rule="evenodd" clip-rule="evenodd" d="M127.872 56.9936C147.194 50.1198 165.283 39.0489 185.765 40.1969C207.435 41.4116 230.478 47.5484 245.152 63.5673C259.489 79.2178 254.528 103.789 262.164 123.595C270.979 146.459 300.166 165.009 293.33 188.527C286.53 211.921 252.367 212.112 232.391 226.027C214.774 238.299 204.397 263.154 183.038 265.358C161.682 267.561 146.553 245.019 126.651 236.935C104.968 228.129 76.5047 233.565 61.1766 215.864C45.7079 198 48.0442 171.052 49.1646 147.452C50.2575 124.43 52.403 99.6356 67.5194 82.2623C82.1347 65.4649 106.899 64.4547 127.872 56.9936Z" stroke="#DDDDDD"/>
<path fill-rule="evenodd" clip-rule="evenodd" d="M127.872 56.9936C147.194 50.1198 165.283 39.0489 185.765 40.1969C207.435 41.4116 230.478 47.5484 245.152 63.5673C259.489 79.2178 254.528 103.789 262.164 123.595C270.979 146.459 300.166 165.009 293.33 188.527C286.53 211.921 252.367 212.112 232.391 226.027C214.774 238.299 204.397 263.154 183.038 265.358C161.682 267.561 146.553 245.019 126.651 236.935C104.968 228.129 76.5047 233.565 61.1766 215.864C45.7079 198 48.0442 171.052 49.1646 147.452C50.2575 124.43 52.403 99.6356 67.5194 82.2623C82.1347 65.4649 106.899 64.4547 127.872 56.9936Z" stroke="#DDDDDD"/>
<path fill-rule="evenodd" clip-rule="evenodd" d="M127.872 56.9936C147.194 50.1198 165.283 39.0489 185.765 40.1969C207.435 41.4116 230.478 47.5484 245.152 63.5673C259.489 79.2178 254.528 103.789 262.164 123.595C270.979 146.459 300.166 165.009 293.33 188.527C286.53 211.921 252.367 212.112 232.391 226.027C214.774 238.299 204.397 263.154 183.038 265.358C161.682 267.561 146.553 245.019 126.651 236.935C104.968 228.129 76.5047 233.565 61.1766 215.864C45.7079 198 48.0442 171.052 49.1646 147.452C50.2575 124.43 52.403 99.6356 67.5194 82.2623C82.1347 65.4649 106.899 64.4547 127.872 56.9936Z" stroke="#DDDDDD"/>
<path fill-rule="evenodd" clip-rule="evenodd" d="M127.872 56.9936C147.194 50.1198 165.283 39.0489 185.765 40.1969C207.435 41.4116 230.478 47.5484 245.152 63.5673C259.489 79.2178 254.528 103.789 262.164 123.595C270.979 146.459 300.166 165.009 293.33 188.527C286.53 211.921 252.367 212.112 232.391 226.027C214.774 238.299 204.397 263.154 183.038 265.358C161.682 267.561 146.553 245.019 126.651 236.935C104.968 228.129 76.5047 233.565 61.1766 215.864C45.7079 198 48.0442 171.052 49.1646 147.452C50.2575 124.43 52.403 99.6356 67.5194 82.2623C82.1347 65.4649 106.899 64.4547 127.872 56.9936Z" stroke="#DDDDDD"/>
<path fill-rule="evenodd" clip-rule="evenodd" d="M130.109 63.8298C148.108 57.4268 164.958 47.1143 184.036 48.1837C204.223 49.3151 225.686 55.0316 239.356 69.9532C252.711 84.5316 248.089 107.419 255.202 125.869C263.413 147.166 290.6 164.446 284.233 186.353C277.899 208.144 246.076 208.322 227.469 221.284C211.059 232.715 201.392 255.868 181.497 257.92C161.604 259.972 147.511 238.974 128.972 231.445C108.774 223.241 82.2613 228.305 67.9832 211.817C53.5742 195.177 55.7504 170.075 56.794 148.091C57.8121 126.647 59.8106 103.551 73.8914 87.3675C87.5056 71.7207 110.573 70.7797 130.109 63.8298Z" stroke="#DDDDDD"/>
<path fill-rule="evenodd" clip-rule="evenodd" d="M130.109 63.8298C148.108 57.4268 164.958 47.1143 184.036 48.1837C204.223 49.3151 225.686 55.0316 239.356 69.9532C252.711 84.5316 248.089 107.419 255.202 125.869C263.413 147.166 290.6 164.446 284.233 186.353C277.899 208.144 246.076 208.322 227.469 221.284C211.059 232.715 201.392 255.868 181.497 257.92C161.604 259.972 147.511 238.974 128.972 231.445C108.774 223.241 82.2613 228.305 67.9832 211.817C53.5742 195.177 55.7504 170.075 56.794 148.091C57.8121 126.647 59.8106 103.551 73.8914 87.3675C87.5056 71.7207 110.573 70.7797 130.109 63.8298Z" stroke="#DDDDDD"/>
<path fill-rule="evenodd" clip-rule="evenodd" d="M130.109 63.8298C148.108 57.4268 164.958 47.1143 184.036 48.1837C204.223 49.3151 225.686 55.0316 239.356 69.9532C252.711 84.5316 248.089 107.419 255.202 125.869C263.413 147.166 290.6 164.446 284.233 186.353C277.899 208.144 246.076 208.322 227.469 221.284C211.059 232.715 201.392 255.868 181.497 257.92C161.604 259.972 147.511 238.974 128.972 231.445C108.774 223.241 82.2613 228.305 67.9832 211.817C53.5742 195.177 55.7504 170.075 56.794 148.091C57.8121 126.647 59.8106 103.551 73.8914 87.3675C87.5056 71.7207 110.573 70.7797 130.109 63.8298Z" stroke="#DDDDDD"/>
<path fill-rule="evenodd" clip-rule="evenodd" d="M130.109 63.8298C148.108 57.4268 164.958 47.1143 184.036 48.1837C204.223 49.3151 225.686 55.0316 239.356 69.9532C252.711 84.5316 248.089 107.419 255.202 125.869C263.413 147.166 290.6 164.446 284.233 186.353C277.899 208.144 246.076 208.322 227.469 221.284C211.059 232.715 201.392 255.868 181.497 257.92C161.604 259.972 147.511 238.974 128.972 231.445C108.774 223.241 82.2613 228.305 67.9832 211.817C53.5742 195.177 55.7504 170.075 56.794 148.091C57.8121 126.647 59.8106 103.551 73.8914 87.3675C87.5056 71.7207 110.573 70.7797 130.109 63.8298Z" stroke="#DDDDDD"/>
<path fill-rule="evenodd" clip-rule="evenodd" d="M131.931 69.396C148.852 63.3764 164.693 53.6813 182.629 54.6867C201.606 55.7504 221.785 61.1246 234.636 75.1527C247.191 88.8582 242.846 110.375 249.533 127.72C257.253 147.743 282.812 163.988 276.826 184.583C270.871 205.069 240.954 205.237 223.461 217.422C208.033 228.169 198.945 249.935 180.241 251.865C161.539 253.794 148.291 234.054 130.861 226.975C111.873 219.263 86.9475 224.023 73.5243 208.522C59.978 192.878 62.0239 169.28 63.0051 148.612C63.9622 128.452 65.8411 106.739 79.0788 91.5243C91.8778 76.8144 113.564 75.9298 131.931 69.396Z" stroke="#DDDDDD"/>
<path fill-rule="evenodd" clip-rule="evenodd" d="M131.931 69.396C148.852 63.3764 164.693 53.6813 182.629 54.6867C201.606 55.7504 221.785 61.1246 234.636 75.1527C247.191 88.8582 242.846 110.375 249.533 127.72C257.253 147.743 282.812 163.988 276.826 184.583C270.871 205.069 240.954 205.237 223.461 217.422C208.033 228.169 198.945 249.935 180.241 251.865C161.539 253.794 148.291 234.054 130.861 226.975C111.873 219.263 86.9475 224.023 73.5243 208.522C59.978 192.878 62.0239 169.28 63.0051 148.612C63.9622 128.452 65.8411 106.739 79.0788 91.5243C91.8778 76.8144 113.564 75.9298 131.931 69.396Z" stroke="#DDDDDD"/>
<path fill-rule="evenodd" clip-rule="evenodd" d="M131.931 69.396C148.852 63.3764 164.693 53.6813 182.629 54.6867C201.606 55.7504 221.785 61.1246 234.636 75.1527C247.191 88.8582 242.846 110.375 249.533 127.72C257.253 147.743 282.812 163.988 276.826 184.583C270.871 205.069 240.954 205.237 223.461 217.422C208.033 228.169 198.945 249.935 180.241 251.865C161.539 253.794 148.291 234.054 130.861 226.975C111.873 219.263 86.9475 224.023 73.5243 208.522C59.978 192.878 62.0239 169.28 63.0051 148.612C63.9622 128.452 65.8411 106.739 79.0788 91.5243C91.8778 76.8144 113.564 75.9298 131.931 69.396Z" stroke="#DDDDDD"/>
<path fill-rule="evenodd" clip-rule="evenodd" d="M131.931 69.396C148.852 63.3764 164.693 53.6813 182.629 54.6867C201.606 55.7504 221.785 61.1246 234.636 75.1527C247.191 88.8582 242.846 110.375 249.533 127.72C257.253 147.743 282.812 163.988 276.826 184.583C270.871 205.069 240.954 205.237 223.461 217.422C208.033 228.169 198.945 249.935 180.241 251.865C161.539 253.794 148.291 234.054 130.861 226.975C111.873 219.263 86.9475 224.023 73.5243 208.522C59.978 192.878 62.0239 169.28 63.0051 148.612C63.9622 128.452 65.8411 106.739 79.0788 91.5243C91.8778 76.8144 113.564 75.9298 131.931 69.396Z" stroke="#DDDDDD"/>
<path fill-rule="evenodd" clip-rule="evenodd" d="M134.239 76.4441C149.795 70.91 164.358 61.9969 180.848 62.9211C198.295 63.8991 216.846 68.8398 228.661 81.7366C240.204 94.3368 236.209 114.119 242.357 130.065C249.454 148.472 272.952 163.407 267.449 182.341C261.974 201.176 234.469 201.329 218.387 212.532C204.204 222.413 195.849 242.423 178.653 244.197C161.459 245.971 149.279 227.823 133.256 221.315C115.799 214.224 92.8834 218.601 80.5428 204.35C68.089 189.968 69.9699 168.272 70.8719 149.272C71.7519 130.737 73.4792 110.775 85.6493 96.7879C97.416 83.2643 117.354 82.451 134.239 76.4441Z" stroke="#DDDDDD"/>
<path fill-rule="evenodd" clip-rule="evenodd" d="M134.239 76.4441C149.795 70.91 164.358 61.9969 180.848 62.9211C198.295 63.8991 216.846 68.8398 228.661 81.7366C240.204 94.3368 236.209 114.119 242.357 130.065C249.454 148.472 272.952 163.407 267.449 182.341C261.974 201.176 234.469 201.329 218.387 212.532C204.204 222.413 195.849 242.423 178.653 244.197C161.459 245.971 149.279 227.823 133.256 221.315C115.799 214.224 92.8834 218.601 80.5428 204.35C68.089 189.968 69.9699 168.272 70.8719 149.272C71.7519 130.737 73.4792 110.775 85.6493 96.7879C97.416 83.2643 117.354 82.451 134.239 76.4441Z" stroke="#DDDDDD"/>
<path fill-rule="evenodd" clip-rule="evenodd" d="M134.239 76.4441C149.795 70.91 164.358 61.9969 180.848 62.9211C198.295 63.8991 216.846 68.8398 228.661 81.7366C240.204 94.3368 236.209 114.119 242.357 130.065C249.454 148.472 272.952 163.407 267.449 182.341C261.974 201.176 234.469 201.329 218.387 212.532C204.204 222.413 195.849 242.423 178.653 244.197C161.459 245.971 149.279 227.823 133.256 221.315C115.799 214.224 92.8834 218.601 80.5428 204.35C68.089 189.968 69.9699 168.272 70.8719 149.272C71.7519 130.737 73.4792 110.775 85.6493 96.7879C97.416 83.2643 117.354 82.451 134.239 76.4441Z" stroke="#DDDDDD"/>
<path fill-rule="evenodd" clip-rule="evenodd" d="M134.239 76.4441C149.795 70.91 164.358 61.9969 180.848 62.9211C198.295 63.8991 216.846 68.8398 228.661 81.7366C240.204 94.3368 236.209 114.119 242.357 130.065C249.454 148.472 272.952 163.407 267.449 182.341C261.974 201.176 234.469 201.329 218.387 212.532C204.204 222.413 195.849 242.423 178.653 244.197C161.459 245.971 149.279 227.823 133.256 221.315C115.799 214.224 92.8834 218.601 80.5428 204.35C68.089 189.968 69.9699 168.272 70.8719 149.272C71.7519 130.737 73.4792 110.775 85.6493 96.7879C97.416 83.2643 117.354 82.451 134.239 76.4441Z" stroke="#DDDDDD"/>
<path fill-rule="evenodd" clip-rule="evenodd" d="M136.601 83.6568C150.761 78.6195 164.017 70.5065 179.026 71.3478C194.907 72.2379 211.792 76.7352 222.546 88.4742C233.053 99.9432 229.417 117.949 235.013 132.464C241.473 149.219 262.861 162.813 257.852 180.047C252.869 197.191 227.833 197.331 213.195 207.528C200.285 216.521 192.68 234.736 177.028 236.35C161.378 237.965 150.291 221.446 135.706 215.522C119.816 209.068 98.9579 213.052 87.7252 200.08C76.3894 186.989 78.1014 167.242 78.9225 149.947C79.7235 133.076 81.2957 114.906 92.3733 102.174C103.084 89.8647 121.231 89.1244 136.601 83.6568Z" stroke="#DDDDDD"/>
<path fill-rule="evenodd" clip-rule="evenodd" d="M136.601 83.6568C150.761 78.6195 164.017 70.5065 179.026 71.3478C194.907 72.2379 211.792 76.7352 222.546 88.4742C233.053 99.9432 229.417 117.949 235.013 132.464C241.473 149.219 262.861 162.813 257.852 180.047C252.869 197.191 227.833 197.331 213.195 207.528C200.285 216.521 192.68 234.736 177.028 236.35C161.378 237.965 150.291 221.446 135.706 215.522C119.816 209.068 98.9579 213.052 87.7252 200.08C76.3894 186.989 78.1014 167.242 78.9225 149.947C79.7235 133.076 81.2957 114.906 92.3733 102.174C103.084 89.8647 121.231 89.1244 136.601 83.6568Z" stroke="#DDDDDD"/>
<path fill-rule="evenodd" clip-rule="evenodd" d="M136.601 83.6568C150.761 78.6195 164.017 70.5065 179.026 71.3478C194.907 72.2379 211.792 76.7352 222.546 88.4742C233.053 99.9432 229.417 117.949 235.013 132.464C241.473 149.219 262.861 162.813 257.852 180.047C252.869 197.191 227.833 197.331 213.195 207.528C200.285 216.521 192.68 234.736 177.028 236.35C161.378 237.965 150.291 221.446 135.706 215.522C119.816 209.068 98.9579 213.052 87.7252 200.08C76.3894 186.989 78.1014 167.242 78.9225 149.947C79.7235 133.076 81.2957 114.906 92.3733 102.174C103.084 89.8647 121.231 89.1244 136.601 83.6568Z" stroke="#DDDDDD"/>
<path fill-rule="evenodd" clip-rule="evenodd" d="M136.601 83.6568C150.761 78.6195 164.017 70.5065 179.026 71.3478C194.907 72.2379 211.792 76.7352 222.546 88.4742C233.053 99.9432 229.417 117.949 235.013 132.464C241.473 149.219 262.861 162.813 257.852 180.047C252.869 197.191 227.833 197.331 213.195 207.528C200.285 216.521 192.68 234.736 177.028 236.35C161.378 237.965 150.291 221.446 135.706 215.522C119.816 209.068 98.9579 213.052 87.7252 200.08C76.3894 186.989 78.1014 167.242 78.9225 149.947C79.7235 133.076 81.2957 114.906 92.3733 102.174C103.084 89.8647 121.231 89.1244 136.601 83.6568Z" stroke="#DDDDDD"/>
<path fill-rule="evenodd" clip-rule="evenodd" d="M138.71 90.1011C151.622 85.5076 163.71 78.1094 177.397 78.8766C191.879 79.6883 207.277 83.7893 217.083 94.494C226.664 104.952 223.349 121.372 228.452 134.608C234.342 149.887 253.846 162.283 249.278 177.999C244.734 193.632 221.904 193.759 208.556 203.058C196.783 211.259 189.848 227.869 175.576 229.341C161.304 230.813 151.194 215.749 137.894 210.348C123.404 204.463 104.384 208.095 94.141 196.266C83.804 184.329 85.3652 166.321 86.1139 150.55C86.8443 135.166 88.278 118.597 98.3795 106.987C108.146 95.762 124.695 95.0869 138.71 90.1011Z" stroke="#DDDDDD"/>
<path fill-rule="evenodd" clip-rule="evenodd" d="M138.71 90.1011C151.622 85.5076 163.71 78.1094 177.397 78.8766C191.879 79.6883 207.277 83.7893 217.083 94.494C226.664 104.952 223.349 121.372 228.452 134.608C234.342 149.887 253.846 162.283 249.278 177.999C244.734 193.632 221.904 193.759 208.556 203.058C196.783 211.259 189.848 227.869 175.576 229.341C161.304 230.813 151.194 215.749 137.894 210.348C123.404 204.463 104.384 208.095 94.141 196.266C83.804 184.329 85.3652 166.321 86.1139 150.55C86.8443 135.166 88.278 118.597 98.3795 106.987C108.146 95.762 124.695 95.0869 138.71 90.1011Z" stroke="#DDDDDD"/>
<path fill-rule="evenodd" clip-rule="evenodd" d="M138.71 90.1011C151.622 85.5076 163.71 78.1094 177.397 78.8766C191.879 79.6883 207.277 83.7893 217.083 94.494C226.664 104.952 223.349 121.372 228.452 134.608C234.342 149.887 253.846 162.283 249.278 177.999C244.734 193.632 221.904 193.759 208.556 203.058C196.783 211.259 189.848 227.869 175.576 229.341C161.304 230.813 151.194 215.749 137.894 210.348C123.404 204.463 104.384 208.095 94.141 196.266C83.804 184.329 85.3652 166.321 86.1139 150.55C86.8443 135.166 88.278 118.597 98.3795 106.987C108.146 95.762 124.695 95.0869 138.71 90.1011Z" stroke="#DDDDDD"/>
<path fill-rule="evenodd" clip-rule="evenodd" d="M138.71 90.1011C151.622 85.5076 163.71 78.1094 177.397 78.8766C191.879 79.6883 207.277 83.7893 217.083 94.494C226.664 104.952 223.349 121.372 228.452 134.608C234.342 149.887 253.846 162.283 249.278 177.999C244.734 193.632 221.904 193.759 208.556 203.058C196.783 211.259 189.848 227.869 175.576 229.341C161.304 230.813 151.194 215.749 137.894 210.348C123.404 204.463 104.384 208.095 94.141 196.266C83.804 184.329 85.3652 166.321 86.1139 150.55C86.8443 135.166 88.278 118.597 98.3795 106.987C108.146 95.762 124.695 95.0869 138.71 90.1011Z" stroke="#DDDDDD"/>
<path fill-rule="evenodd" clip-rule="evenodd" d="M140.671 96.0879C152.424 91.9068 163.427 85.1728 175.886 85.8711C189.067 86.6099 203.083 90.3427 212.009 100.086C220.73 109.606 217.712 124.551 222.356 136.599C227.718 150.506 245.471 161.79 241.313 176.095C237.178 190.324 216.397 190.441 204.247 198.905C193.531 206.369 187.219 221.488 174.227 222.828C161.237 224.168 152.035 210.457 139.929 205.54C126.74 200.183 109.427 203.49 100.103 192.723C90.6943 181.857 92.1153 165.466 92.7968 151.11C93.4617 137.107 94.7667 122.025 103.961 111.458C112.851 101.241 127.914 100.626 140.671 96.0879Z" stroke="#DDDDDD"/>
<path fill-rule="evenodd" clip-rule="evenodd" d="M140.671 96.0879C152.424 91.9068 163.427 85.1728 175.886 85.8711C189.067 86.6099 203.083 90.3427 212.009 100.086C220.73 109.606 217.712 124.551 222.356 136.599C227.718 150.506 245.471 161.79 241.313 176.095C237.178 190.324 216.397 190.441 204.247 198.905C193.531 206.369 187.219 221.488 174.227 222.828C161.237 224.168 152.035 210.457 139.929 205.54C126.74 200.183 109.427 203.49 100.103 192.723C90.6943 181.857 92.1153 165.466 92.7968 151.11C93.4617 137.107 94.7667 122.025 103.961 111.458C112.851 101.241 127.914 100.626 140.671 96.0879Z" stroke="#DDDDDD"/>
<path fill-rule="evenodd" clip-rule="evenodd" d="M140.671 96.0879C152.424 91.9068 163.427 85.1728 175.886 85.8711C189.067 86.6099 203.083 90.3427 212.009 100.086C220.73 109.606 217.712 124.551 222.356 136.599C227.718 150.506 245.471 161.79 241.313 176.095C237.178 190.324 216.397 190.441 204.247 198.905C193.531 206.369 187.219 221.488 174.227 222.828C161.237 224.168 152.035 210.457 139.929 205.54C126.74 200.183 109.427 203.49 100.103 192.723C90.6943 181.857 92.1153 165.466 92.7968 151.11C93.4617 137.107 94.7667 122.025 103.961 111.458C112.851 101.241 127.914 100.626 140.671 96.0879Z" stroke="#DDDDDD"/>
<path fill-rule="evenodd" clip-rule="evenodd" d="M140.671 96.0879C152.424 91.9068 163.427 85.1728 175.886 85.8711C189.067 86.6099 203.083 90.3427 212.009 100.086C220.73 109.606 217.712 124.551 222.356 136.599C227.718 150.506 245.471 161.79 241.313 176.095C237.178 190.324 216.397 190.441 204.247 198.905C193.531 206.369 187.219 221.488 174.227 222.828C161.237 224.168 152.035 210.457 139.929 205.54C126.74 200.183 109.427 203.49 100.103 192.723C90.6943 181.857 92.1153 165.466 92.7968 151.11C93.4617 137.107 94.7667 122.025 103.961 111.458C112.851 101.241 127.914 100.626 140.671 96.0879Z" stroke="#DDDDDD"/>
</svg>
