<svg width="132" height="109" viewBox="0 0 132 109" fill="none" xmlns="http://www.w3.org/2000/svg">
<path d="M36.6777 90.7367L39.2091 79.3124L50.91 79.2067L53.4414 67.7824L65.133 67.6842L67.6262 56.4609L67.6186 56.4516L67.6368 56.3595L79.3377 56.2538L81.8691 44.8295L93.5606 44.7313L96.092 33.307L107.793 33.2013L110.277 21.9856L109.384 20.8836L106.9 32.0993L95.1993 32.2051L92.6679 43.6294L80.9763 43.7275L78.445 55.1518L66.744 55.2576L66.7129 55.391L66.7205 55.4004L64.2402 66.5822L52.5393 66.688L50.0173 78.1047L38.3163 78.2104L35.785 89.6348L24.0841 89.7405L24.053 89.874L24.955 90.9684L24.9768 90.8425L36.6777 90.7367Z" fill="#D1D1D1"/>
<path d="M31.5666 98.9765L43.2675 98.8708L45.7988 87.4465L57.4998 87.3408L60.0311 75.9165L71.7227 75.8183L74.2083 64.5857L74.2265 64.4936L85.9275 64.3879L88.4588 52.9636L100.15 52.8654L102.682 41.4411L114.383 41.3354L116.867 30.1197L115.974 29.0177L113.49 40.2334L101.789 40.3392L99.2577 51.7635L87.5661 51.8616L85.0347 63.2859L73.3338 63.3916L73.3027 63.5251L73.3102 63.5344L70.83 74.7163L59.1383 74.8145L56.607 86.2388L44.9061 86.3445L42.3747 97.7688L30.6738 97.8745L30.6427 98.008L31.5354 99.11L31.5666 98.9765Z" fill="#D1D1D1"/>
<path d="M23.4452 74.4033L25.9766 62.979L37.6775 62.8732L40.2089 51.4489L51.9005 51.3507L54.3937 40.1275L54.3861 40.1181L54.4043 40.0261L66.1052 39.9203L68.6366 28.496L80.3282 28.3979L82.8595 16.9736L94.5604 16.8678L97.0443 5.65213L96.1516 4.55017L93.6677 15.7659L81.9668 15.8716L79.4354 27.2959L67.7438 27.3941L65.2125 38.8184L53.5116 38.9241L53.4804 39.0576L53.488 39.0669L51.0153 50.2581L39.3237 50.3563L36.7924 61.7806L25.0838 61.877L22.5601 73.3106L10.8516 73.407L10.8298 73.5329L11.7132 74.6424L11.7443 74.509L23.4452 74.4033Z" fill="#D1D1D1"/>
<path d="M30.0346 82.537L32.566 71.1126L44.2669 71.0069L46.7983 59.5826L58.4899 59.4844L60.9831 48.2612L60.9755 48.2519L60.9938 48.1598L72.6947 48.0541L75.226 36.6298L86.9176 36.5316L89.449 25.1073L101.15 25.0016L103.634 13.7859L102.741 12.6839L100.257 23.8996L88.5562 24.0053L86.0249 35.4297L74.3332 35.5278L71.8019 46.9521L60.101 47.0578L60.0699 47.1913L60.0774 47.2006L57.5972 58.3824L45.9131 58.49L43.3742 69.9049L31.6808 70.02L29.1419 81.435L17.4486 81.5501L17.4192 81.6666L18.3026 82.7762L18.3337 82.6427L30.0346 82.537Z" fill="#D1D1D1"/>
</svg>
