<svg width="67" height="53" viewBox="0 0 67 53" fill="none" xmlns="http://www.w3.org/2000/svg">
<path d="M13.46 52.4999L0 29.1799L13.46 5.85986H40.39L53.86 29.1799L40.39 52.4999H13.46Z" fill="#EEEEEE"/>
<path d="M66.41 23.3701H66.19H34H33.77H15.26L16.2 25.1201H33.77H34H65.73L66.67 23.3701H66.41Z" fill="#B6B6B6"/>
<path d="M34 30.96H62.62L63.55 29.21H34H33.77H18.38L19.32 30.96H33.77H34Z" fill="#B6B6B6"/>
<path d="M33.77 19.28H34H65.6L64.66 17.53H34H33.77H17.27L16.34 19.28H33.77Z" fill="#B6B6B6"/>
<path d="M33.77 7.59982H34.0001H59.36L58.42 5.83984H34.0001H33.77H23.5101L22.5701 7.59982H33.77Z" fill="#B6B6B6"/>
<path d="M33.7699 13.4399H33.9999H62.4799L61.5399 11.6899H33.9999H33.7699H20.3899L19.45 13.4399H33.7699Z" fill="#B6B6B6"/>
<path d="M25.6899 1.75H33.7699H33.9999H56.2399L55.2999 0H33.9999H33.7699H26.6299L25.6899 1.75Z" fill="#B6B6B6"/>
<path d="M33.77 42.6399H34H56.38L57.31 40.8899H34H33.77H24.62L25.55 42.6399H33.77Z" fill="#B6B6B6"/>
<path d="M22.44 36.8H33.77H34H59.5L60.43 35.05H34H33.77H21.5L22.44 36.8Z" fill="#B6B6B6"/>
</svg>
