<svg width="50" height="50" viewBox="0 0 50 50" fill="none" xmlns="http://www.w3.org/2000/svg">
<rect width="50" height="50" fill="#F4F6F5"/>
<g clip-path="url(#clip0_75_1255)">
<path fill-rule="evenodd" clip-rule="evenodd" d="M16.5904 37.3609L16.9567 38.0081C16.9569 38.0086 16.9572 38.0089 16.9575 38.0094C17.2821 38.5869 17.0762 39.3238 16.502 39.6481L15.1656 40.4055C15.1651 40.4059 15.1646 40.4061 15.1641 40.4064C14.5866 40.7311 13.8497 40.5252 13.5252 39.9507L9.59551 33.007C9.26785 32.4289 9.47378 31.6913 10.0488 31.3666L11.3866 30.6092L11.3871 30.6089C11.9618 30.2843 12.6989 30.4883 13.0262 31.063L13.0268 31.0641L13.3216 31.5848L16.7963 29.5731C17.8556 28.9605 18.9384 28.5626 20.1019 28.9404C21.2261 29.3049 23.0614 30.0909 24.9345 30.4294C24.9566 30.4334 24.9785 30.4389 24.9999 30.4458C25.9603 30.7568 26.5436 31.7282 26.2814 32.7035C26.2471 32.8314 26.2033 32.9516 26.1504 33.0635C26.3312 33.0071 26.5085 32.9288 26.6831 32.8271L31.4481 30.052C33.1839 29.0407 34.3416 29.1546 34.9967 29.5941C35.5638 29.9746 35.8272 30.624 35.8102 31.2618C35.7931 31.9063 35.4851 32.5217 34.9796 32.833L26.3335 38.1564C25.417 38.722 24.4132 38.8549 23.3733 38.5774L23.3727 38.5773L17.3017 36.9502L16.5904 37.3609ZM16.0824 38.5015L12.1537 31.5596C12.0991 31.4639 11.9766 31.429 11.8808 31.483L10.5433 32.2402L10.5429 32.2405C10.4478 32.2942 10.4147 32.4164 10.4689 32.512L10.469 32.5122L14.3989 39.4562L14.3991 39.4566C14.4531 39.5521 14.5758 39.5853 14.6718 39.5314L16.0069 38.7747L16.0076 38.7744C16.1032 38.7204 16.1363 38.5976 16.0824 38.5015ZM16.096 36.4871L16.9797 35.9768C17.0951 35.9102 17.2321 35.8922 17.3607 35.9267L23.6321 37.6074C24.3958 37.8111 25.1333 37.7174 25.8061 37.302L25.8066 37.3018L34.4532 31.9782C34.6873 31.8341 34.7987 31.5336 34.8066 31.2351C34.816 30.8817 34.6686 30.5072 34.2948 30.3517C33.8033 30.1472 33.049 30.2812 31.9534 30.9194L27.1886 33.6945C26.4186 34.1432 25.6116 34.2674 24.7321 34.1275C24.7316 34.1273 24.731 34.1273 24.7304 34.1272L24.1398 34.0311C24.1395 34.031 22.0444 33.4812 20.9372 33.1837C20.6696 33.1118 20.5108 32.8362 20.5827 32.5687C20.6546 32.3011 20.9302 32.1423 21.1977 32.2142C22.2777 32.5044 23.2512 32.8227 24.2995 33.0395C24.8148 33.0961 25.1933 32.8847 25.3118 32.4431L25.3119 32.4428C25.4319 31.9969 25.152 31.5653 24.7191 31.4106C22.8087 31.0596 20.9389 30.2672 19.792 29.8953L19.7918 29.8952C18.9095 29.6087 18.1022 29.9776 17.2989 30.4421L13.8161 32.4586L16.096 36.4871ZM11.677 32.2759C11.9803 32.2307 12.2619 32.4401 12.307 32.7434C12.3504 33.0467 12.1409 33.3302 11.8376 33.3735C11.5344 33.4186 11.2527 33.2074 11.2076 32.9041C11.1643 32.6008 11.3737 32.3191 11.677 32.2759ZM14.6918 15.9429C17.5931 15.9429 19.9444 18.2943 19.9444 21.1956C19.9444 24.0968 17.5931 26.4481 14.6918 26.4481C11.7906 26.4481 9.43921 24.0968 9.43921 21.1956C9.43921 18.2943 11.7906 15.9429 14.6918 15.9429ZM18.2337 23.5431C18.6803 22.8705 18.9404 22.0635 18.9404 21.1956C18.9404 18.8488 17.0385 16.9468 14.6918 16.9468C12.3451 16.9468 10.4431 18.8488 10.4431 21.1956C10.4431 22.0635 10.7033 22.8705 11.1498 23.5431C11.5186 22.6297 12.23 21.8914 13.1247 21.4879C12.7459 21.0953 12.5121 20.562 12.5121 19.9764C12.5121 18.7772 13.4926 17.7968 14.6918 17.7968C15.891 17.7968 16.8715 18.7772 16.8715 19.9764C16.8715 20.562 16.6378 21.0953 16.2589 21.4879C17.1536 21.8914 17.8651 22.6297 18.2337 23.5431ZM11.9304 24.4247C12.673 25.0604 13.6375 25.4442 14.6918 25.4442C15.7461 25.4442 16.7106 25.0604 17.4532 24.4247C17.1988 23.1316 16.0588 22.1561 14.6918 22.1561C13.3248 22.1561 12.1848 23.1316 11.9304 24.4247ZM14.6918 21.1522C15.3387 21.1522 15.8676 20.6233 15.8676 19.9764C15.8676 19.3296 15.3387 18.8007 14.6918 18.8007C14.0449 18.8007 13.5161 19.3296 13.5161 19.9764C13.5161 20.6233 14.0449 21.1522 14.6918 21.1522ZM26.3232 10.3113C26.6136 10.3988 26.8945 10.5152 27.1619 10.6589L27.7003 10.4195C27.8901 10.3351 28.1123 10.3764 28.2592 10.5233L29.1677 11.4318C29.3144 11.5785 29.3558 11.8003 29.2717 11.99C29.2717 11.99 29.0332 12.5286 29.0331 12.5286C29.1771 12.7965 29.2936 13.0779 29.3812 13.3693L29.9301 13.5806C30.1239 13.6552 30.2518 13.8414 30.2518 14.049V15.3342C30.2518 15.5419 30.1239 15.7281 29.9301 15.8027L29.3809 16.014C29.2931 16.3045 29.1764 16.5853 29.0329 16.8529L29.2717 17.3919C29.3558 17.5816 29.3144 17.8034 29.1677 17.9501L28.2592 18.8587C28.1125 19.0054 27.8907 19.0467 27.7009 18.9627C27.7009 18.9627 27.1626 18.7243 27.1626 18.7242C26.8953 18.868 26.6139 18.9845 26.323 19.072L26.1117 19.621C26.0371 19.8149 25.8509 19.9427 25.6432 19.9427H24.358C24.1504 19.9427 23.9642 19.8149 23.8896 19.621L23.6783 19.0721C23.387 18.9843 23.1058 18.8674 22.8381 18.7239L22.2991 18.9627C22.1093 19.0467 21.8875 19.0054 21.7408 18.8587L20.8323 17.9501C20.6854 17.8033 20.6442 17.5811 20.7286 17.3913L20.9678 16.8532C20.8241 16.5861 20.7077 16.3048 20.6196 16.0142L20.0699 15.8027C19.8761 15.7281 19.7482 15.5419 19.7482 15.3342V14.049C19.7482 13.8414 19.8761 13.6552 20.0699 13.5806C20.0699 13.5806 20.6194 13.3691 20.6194 13.3691C20.7075 13.0779 20.8241 12.7967 20.9679 12.529L20.7286 11.9907C20.6442 11.8009 20.6854 11.5787 20.8323 11.4318L21.7408 10.5233C21.8877 10.3764 22.1099 10.3351 22.2997 10.4195C22.2997 10.4195 22.838 10.6589 22.838 10.6589C23.1057 10.5151 23.3866 10.3987 23.6773 10.3112L23.8898 9.76046C23.9644 9.5669 24.1505 9.43921 24.358 9.43921H25.6432C25.851 9.43921 26.0373 9.56721 26.1118 9.76115L26.3232 10.3113ZM25.4775 10.9094L25.2983 10.4431H24.7024L24.5222 10.9101C24.4626 11.0644 24.3309 11.1794 24.17 11.2177C23.8027 11.305 23.4524 11.4501 23.1304 11.6485C22.9894 11.7354 22.8146 11.7472 22.6632 11.6798L22.2069 11.4769L21.7859 11.8979L21.9889 12.3542C22.0562 12.5056 22.0444 12.6804 21.9575 12.8214C21.7589 13.1437 21.6137 13.4945 21.5252 13.8633C21.4866 14.0239 21.3715 14.1553 21.2174 14.2147L20.7521 14.3937V14.9895L21.2174 15.1686C21.3714 15.2279 21.4865 15.3591 21.5251 15.5196C21.6136 15.8871 21.7586 16.2388 21.9571 16.5598C22.0444 16.701 22.0562 16.8761 21.9889 17.0278L21.7859 17.4841L22.2073 17.9053L22.6638 17.7031C22.8146 17.6363 22.9887 17.6479 23.1294 17.734C23.4516 17.9315 23.8021 18.0781 24.1709 18.1654C24.3321 18.2036 24.4641 18.319 24.5237 18.4736L24.7027 18.9388H25.2985L25.4776 18.4736C25.5371 18.3191 25.6689 18.2038 25.83 18.1655C26.197 18.0783 26.5483 17.9334 26.8689 17.7352C27.0098 17.648 27.1847 17.636 27.3362 17.7031L27.7927 17.9053L28.2144 17.4837L28.0121 17.0272C27.9453 16.8763 27.9569 16.7023 28.0431 16.5616C28.2406 16.2393 28.3872 15.8887 28.4746 15.521C28.5128 15.3599 28.6281 15.2281 28.7826 15.1686L29.2478 14.9895V14.3937L28.7826 14.2147C28.628 14.1551 28.5127 14.0231 28.4744 13.8619C28.3872 13.4935 28.2421 13.1433 28.0438 12.8214C27.957 12.6806 27.9452 12.5061 28.0121 12.3548L28.2144 11.8983L27.7931 11.4769L27.3368 11.6798C27.1854 11.7472 27.0106 11.7354 26.8695 11.6485C26.5476 11.4501 26.1973 11.305 25.83 11.2177C25.6689 11.1794 25.5369 11.0641 25.4775 10.9094ZM25 11.9474C26.5159 11.9474 27.7448 13.1751 27.7448 14.691C27.7448 16.2068 26.5158 17.4358 25 17.4358C23.4841 17.4358 22.2565 16.2068 22.2565 14.691C22.2565 13.1751 23.4841 11.9474 25 11.9474ZM25 12.9514C24.0388 12.9514 23.2604 13.7298 23.2604 14.691C23.2604 15.6523 24.0387 16.4319 25 16.4319C25.9614 16.4319 26.7409 15.6524 26.7409 14.691C26.7409 13.7297 25.9613 12.9514 25 12.9514ZM35.309 26.4481C32.4165 26.4481 30.0572 24.0889 30.0572 21.1964C30.0572 18.3039 32.4165 15.9446 35.309 15.9446C38.2015 15.9446 40.5608 18.3039 40.5608 21.1964C40.5608 24.0889 38.2015 26.4481 35.309 26.4481ZM35.309 25.4442C37.6486 25.4442 39.5569 23.536 39.5569 21.1964C39.5569 18.8568 37.6486 16.9485 35.309 16.9485C32.9694 16.9485 31.0612 18.8568 31.0612 21.1964C31.0612 23.536 32.9694 25.4442 35.309 25.4442ZM34.8071 18.4225V18.1916C34.8071 17.9146 35.032 17.6897 35.309 17.6897C35.586 17.6897 35.811 17.9146 35.811 18.1916V18.4168C36.3786 18.5477 36.9005 18.9153 37.1711 19.5601C37.2783 19.8156 37.1579 20.11 36.9025 20.2172C36.6471 20.3244 36.3526 20.204 36.2454 19.9485C36.0049 19.3755 35.3617 19.2616 34.9007 19.443C34.6418 19.5448 34.431 19.7509 34.446 20.0546L34.4461 20.0559C34.4571 20.29 34.6119 20.4216 34.7929 20.51C34.978 20.6004 35.1923 20.6506 35.3945 20.6835L35.3953 20.6836C36.2577 20.8256 37.1991 21.2232 37.3224 22.2483C37.4428 23.2426 36.652 23.8245 35.811 23.986V24.2027C35.811 24.4797 35.586 24.7047 35.309 24.7047C35.032 24.7047 34.8071 24.4797 34.8071 24.2027V23.9786C34.0968 23.8262 33.4876 23.3541 33.2989 22.5963C33.232 22.3274 33.396 22.0549 33.6648 21.988C33.9336 21.921 34.2062 22.085 34.2732 22.3538C34.3934 22.8372 34.8857 23.04 35.3585 23.0282H35.3596C35.6167 23.0224 35.9033 22.9596 36.1142 22.8142C36.2545 22.7175 36.3505 22.5728 36.3257 22.3689L36.3257 22.3683C36.2933 22.0987 36.1073 21.9527 35.8939 21.8558C35.687 21.7618 35.4521 21.7104 35.2331 21.6744C34.3875 21.5367 33.4907 21.106 33.4433 20.1033C33.4056 19.3337 33.8772 18.7668 34.5331 18.5088C34.6216 18.4739 34.7132 18.4451 34.8071 18.4225ZM25.502 25.1424C25.502 25.4194 25.277 25.6443 25 25.6443C24.723 25.6443 24.498 25.4194 24.498 25.1424V21.728C24.498 21.451 24.723 21.2261 25 21.2261C25.277 21.2261 25.502 21.451 25.502 21.728V25.1424ZM26.8242 27.0104C26.607 27.1823 26.291 27.1455 26.1192 26.9282C25.9473 26.7109 25.9841 26.395 26.2014 26.2231L29.1353 23.9018C29.3526 23.7298 29.6685 23.7667 29.8404 23.984C30.0123 24.2012 29.9755 24.5172 29.7582 24.689L26.8242 27.0104ZM23.7986 26.2231C24.0159 26.395 24.0527 26.7109 23.8808 26.9282C23.7089 27.1455 23.393 27.1823 23.1757 27.0104L20.2418 24.689C20.0245 24.5172 19.9877 24.2012 20.1596 23.984C20.3314 23.7667 20.6474 23.7298 20.8647 23.9018L23.7986 26.2231Z" fill="black"/>
</g>
<defs>
<clipPath id="clip0_75_1255">
<rect width="32" height="32" fill="white" transform="translate(9 9)"/>
</clipPath>
</defs>
</svg>
