<svg width="50" height="50" viewBox="0 0 50 50" fill="none" xmlns="http://www.w3.org/2000/svg">
<rect width="50" height="50" fill="#F7F3FF"/>
<g clip-path="url(#clip0_75_1254)">
<path d="M9.78753 29.5786L11.9913 30.6151C12.1818 30.7048 12.3897 30.7513 12.6003 30.7514C12.7979 30.7512 12.9934 30.7104 13.1746 30.6316C13.3559 30.5529 13.519 30.4377 13.654 30.2934L14.5077 30.9066C14.7367 31.1711 14.8786 31.6384 15.0285 32.132C15.1693 32.5959 15.3143 33.0723 15.5582 33.485L15.2849 33.9517C15.1099 34.2501 15.0279 34.5938 15.0492 34.939C15.0706 35.2842 15.1943 35.6152 15.4047 35.8897C15.615 36.1642 15.9024 36.3698 16.2302 36.4801C16.5579 36.5905 16.9111 36.6007 17.2447 36.5094C17.3389 36.8844 17.5553 37.2173 17.8599 37.4556C18.1644 37.6938 18.5396 37.8238 18.9263 37.825C19.0768 37.8249 19.2266 37.8054 19.3722 37.7672C19.3771 37.7659 19.382 37.7642 19.3869 37.7629C19.4804 38.1385 19.6968 38.4719 20.0018 38.7102C20.3067 38.9484 20.6826 39.0778 21.0696 39.0777C21.4512 39.0775 21.8224 38.9531 22.127 38.7232C22.2774 38.9909 22.4964 39.2137 22.7614 39.3687C23.0265 39.5237 23.328 39.6053 23.6351 39.6051C24.0383 39.6047 24.4291 39.4659 24.7422 39.2119L26.1497 40.0476C26.4382 40.2196 26.7679 40.3104 27.1038 40.3104C27.2631 40.3103 27.4218 40.2902 27.5761 40.2506C27.9778 40.1488 28.3345 39.917 28.5907 39.5913C28.8469 39.2656 28.9881 38.8643 28.9924 38.4499C29.2985 38.5427 29.6232 38.5558 29.9357 38.4879C30.2483 38.4201 30.5383 38.2736 30.7784 38.0622C31.0185 37.8509 31.2006 37.5818 31.3075 37.2804C31.4145 36.979 31.4427 36.6552 31.3895 36.3399C31.6595 36.3236 31.9227 36.2492 32.1612 36.1218C32.3997 35.9944 32.6079 35.8169 32.7714 35.6016C32.935 35.3863 33.0501 35.1381 33.1089 34.8742C33.1677 34.6102 33.1688 34.3367 33.112 34.0723C33.1942 34.0624 33.2756 34.0472 33.3558 34.0268C33.5954 33.966 33.8206 33.8586 34.0186 33.7105C34.2165 33.5625 34.3833 33.3769 34.5094 33.1643C34.6354 32.9516 34.7182 32.7162 34.7531 32.4715C34.788 32.2268 34.7742 31.9776 34.7125 31.7383C34.686 31.6345 34.6508 31.5332 34.6074 31.4352C35.3812 31.212 36.0303 30.8986 36.571 30.4884C36.8135 30.6596 37.103 30.7517 37.3998 30.7519C37.6105 30.7517 37.8186 30.7049 38.0092 30.6149L40.2125 29.5786C40.2724 29.5509 40.3261 29.5116 40.3707 29.4631C40.4153 29.4146 40.4499 29.3577 40.4724 29.2957C40.495 29.2338 40.505 29.168 40.502 29.1021C40.4991 29.0363 40.4831 28.9717 40.455 28.912C40.427 28.8524 40.3874 28.7989 40.3386 28.7546C40.2898 28.7102 40.2327 28.676 40.1706 28.6539C40.1085 28.6317 40.0427 28.6221 39.9769 28.6254C39.911 28.6288 39.8465 28.6452 39.787 28.6736L37.5833 29.7099C37.4783 29.7588 37.3581 29.7642 37.2491 29.7249C37.1401 29.6856 37.051 29.6047 37.0014 29.5L33.5895 22.2453C33.5402 22.1404 33.5345 22.0203 33.5735 21.9112C33.6126 21.8021 33.6933 21.713 33.7979 21.6632L36.0017 20.6267C36.1209 20.5698 36.2127 20.468 36.2571 20.3437C36.3015 20.2193 36.2949 20.0824 36.2387 19.9628C36.1825 19.8433 36.0813 19.7509 35.9571 19.7057C35.833 19.6606 35.6961 19.6663 35.5762 19.7218L33.3719 20.7584C33.1237 20.8759 32.9144 21.0618 32.7685 21.2944C32.6226 21.527 32.5462 21.7964 32.5485 22.0709C31.9589 22.2842 31.3387 22.4695 30.711 22.5291C30.0756 22.591 29.2177 22.4797 28.3095 22.3621C26.6633 22.1487 24.9612 21.9281 23.8216 22.5996L23.1958 22.9679C22.1487 22.2116 21.158 22.3304 20.1145 22.4564C19.4403 22.5376 18.743 22.6219 17.9145 22.4987C17.7505 22.4743 17.5837 22.4409 17.4117 22.3982C17.4892 22.0765 17.4536 21.7378 17.3108 21.4392C17.168 21.1406 16.9267 20.9003 16.6275 20.7586L14.4238 19.7218C14.304 19.6663 14.167 19.6606 14.0429 19.7057C13.9188 19.7509 13.8176 19.8433 13.7614 19.9628C13.7052 20.0824 13.6986 20.2193 13.743 20.3437C13.7874 20.468 13.8792 20.5698 13.9983 20.6267L16.2017 21.6629C16.3064 21.7126 16.3872 21.8018 16.4263 21.9108C16.4655 22.0199 16.4599 22.1401 16.4107 22.2451L12.9985 29.5C12.9491 29.6049 12.8601 29.6859 12.751 29.7253C12.6419 29.7647 12.5216 29.7592 12.4166 29.7101L10.2125 28.6736C10.093 28.6206 9.95749 28.6165 9.83499 28.6622C9.71249 28.7079 9.61277 28.7998 9.55719 28.9181C9.50161 29.0365 9.4946 29.1719 9.53765 29.2953C9.58071 29.4188 9.67041 29.5204 9.78753 29.5786ZM16.4141 35.4708C16.2448 35.371 16.1218 35.2083 16.0721 35.0182C16.0223 34.828 16.0499 34.626 16.1487 34.4561L16.571 33.7346C16.5784 33.7229 16.5855 33.7112 16.5918 33.6991L17.3994 32.3196C17.4993 32.1514 17.6617 32.0296 17.851 31.9806C18.0404 31.9316 18.2415 31.9594 18.4104 32.058C18.5794 32.1566 18.7025 32.318 18.753 32.507C18.8035 32.6959 18.7772 32.8972 18.68 33.0669L17.4294 35.205C17.3296 35.3745 17.1667 35.4976 16.9764 35.5474C16.7862 35.5972 16.5839 35.5696 16.4138 35.4708H16.4141ZM18.5578 36.7232C18.3885 36.6239 18.2655 36.4615 18.2157 36.2716C18.166 36.0817 18.1936 35.8798 18.2925 35.7102L19.5433 33.5718C19.6427 33.4022 19.8054 33.2791 19.9955 33.2294C20.0897 33.2049 20.1878 33.1991 20.2842 33.2124C20.3806 33.2257 20.4734 33.2579 20.5573 33.3071C20.6413 33.3563 20.7147 33.4216 20.7735 33.4992C20.8322 33.5768 20.8751 33.6652 20.8997 33.7593C20.9242 33.8535 20.93 33.9516 20.9167 34.0479C20.9034 34.1443 20.8712 34.2372 20.822 34.3211L19.5707 36.4586C19.4711 36.6276 19.3086 36.7502 19.1189 36.7998C18.9291 36.8494 18.7274 36.8219 18.5578 36.7233V36.7232ZM20.6997 37.9775C20.5303 37.8778 20.4074 37.715 20.3577 37.5249C20.3079 37.3348 20.3354 37.1328 20.4342 36.9629L21.685 34.8264C21.7845 34.6567 21.9473 34.5334 22.1376 34.4836C22.328 34.4338 22.5303 34.4615 22.7002 34.5607C22.8687 34.6609 22.9909 34.8233 23.0406 35.0128C23.0903 35.2024 23.0633 35.4039 22.9655 35.5737L22.3393 36.6443L22.1387 36.9849C22.1293 37.0008 22.1207 37.017 22.1119 37.0331L21.7152 37.7113C21.6153 37.8807 21.4524 38.0039 21.2621 38.0537C21.0718 38.1036 20.8695 38.0762 20.6993 37.9775H20.6997ZM23.2677 38.506C23.1835 38.4566 23.11 38.391 23.0513 38.313C22.9926 38.2351 22.9499 38.1463 22.9257 38.0518C22.8772 37.8715 22.8996 37.6795 22.9882 37.5151L23.2007 37.1518L23.831 36.082C23.9048 35.9549 24.0147 35.8526 24.1469 35.7882C24.279 35.7238 24.4273 35.7003 24.5729 35.7205C24.7185 35.7407 24.8548 35.8039 24.9644 35.9019C25.0739 35.9998 25.1518 36.1282 25.1882 36.2707C25.213 36.3642 25.219 36.4617 25.2058 36.5575C25.1925 36.6534 25.1604 36.7456 25.1112 36.8289L24.2825 38.2383C24.1826 38.4076 24.02 38.5307 23.8299 38.5808C23.6399 38.631 23.4377 38.6042 23.2673 38.5063L23.2677 38.506ZM24.3294 23.4609C25.1732 22.9637 26.7714 23.1708 28.1813 23.3536C29.1475 23.4786 30.06 23.5973 30.807 23.5243C31.525 23.4562 32.2087 23.2556 32.8513 23.0247L35.9813 29.6805C35.4361 30.0978 34.7397 30.3984 33.8665 30.593C33.8612 30.5898 33.8561 30.5863 33.8508 30.5832L30.91 28.8375C30.822 28.7853 30.7201 28.7613 30.618 28.7687C28.5337 28.9231 26.3326 28.7188 24.357 26.2004C24.2918 26.1174 24.202 26.057 24.1004 26.0282C23.9989 25.9993 23.8907 26.0033 23.7916 26.0396L22.5978 26.4771C22.5057 26.5109 22.4255 26.571 22.3673 26.65L21.5575 27.7494C21.1037 28.3502 20.4847 28.5471 19.9016 28.276C19.8205 28.238 19.7488 28.1828 19.6914 28.1141C19.634 28.0454 19.5924 27.965 19.5694 27.8784C19.5465 27.7919 19.5427 27.7014 19.5585 27.6133C19.5743 27.5252 19.6092 27.4417 19.6608 27.3685L21.042 25.3954L23.4045 24.0051L23.4053 24.0046L24.3294 23.4609ZM20.2345 23.4488C21.0294 23.3529 21.6233 23.2814 22.2131 23.5461L20.4418 24.5887C20.38 24.625 20.3267 24.6741 20.2855 24.7328L18.843 26.7931C18.7073 26.9859 18.6155 27.2061 18.5741 27.4382C18.5327 27.6704 18.5427 27.9087 18.6034 28.1366C18.6641 28.3644 18.7741 28.5762 18.9255 28.7569C19.0769 28.9377 19.2662 29.083 19.4798 29.1827C20.4907 29.6527 21.6194 29.3264 22.3591 28.3473L23.083 27.3647L23.8009 27.1017C25.9627 29.6642 28.3998 29.9162 30.534 29.7774L33.341 31.4431C33.5391 31.5643 33.6815 31.7587 33.7374 31.9841C33.7932 32.2096 33.758 32.4479 33.6394 32.6476C33.5208 32.8473 33.3283 32.9923 33.1036 33.0511C32.8789 33.1099 32.6401 33.0778 32.4388 32.9618L30.1677 31.6154C30.1112 31.5814 30.0485 31.5589 29.9833 31.5492C29.9181 31.5396 29.8516 31.5429 29.7876 31.559C29.7237 31.5751 29.6636 31.6037 29.6108 31.6432C29.5579 31.6826 29.5134 31.7321 29.4798 31.7889C29.4462 31.8456 29.4241 31.9084 29.4149 31.9737C29.4056 32.0389 29.4094 32.1054 29.4259 32.1692C29.4424 32.233 29.4714 32.293 29.5112 32.3455C29.551 32.3981 29.6008 32.4423 29.6577 32.4756L31.7043 33.6889C31.7105 33.6931 31.7168 33.6976 31.7235 33.7014C31.9236 33.8222 32.068 34.0168 32.1258 34.2433C32.1835 34.4697 32.1498 34.7097 32.032 34.9116C31.9121 35.1126 31.7175 35.258 31.4906 35.3159C31.2638 35.3738 31.0233 35.3395 30.8217 35.2205L28.5625 33.8799C28.506 33.8455 28.4433 33.8227 28.378 33.8128C28.3126 33.8028 28.2459 33.8059 28.1818 33.8219C28.1176 33.8379 28.0573 33.8665 28.0043 33.9059C27.9512 33.9454 27.9065 33.995 27.8728 34.0518C27.839 34.1087 27.8169 34.1716 27.8076 34.2371C27.7984 34.3025 27.8022 34.3692 27.8189 34.4331C27.8355 34.4971 27.8647 34.5572 27.9048 34.6098C27.9448 34.6624 27.9948 34.7065 28.052 34.7397L29.979 35.8838C29.9812 35.8851 29.9831 35.8866 29.9852 35.8879C30.1853 36.0087 30.3298 36.2034 30.3875 36.4298C30.4452 36.6563 30.4116 36.8964 30.2938 37.0982C30.1739 37.2993 29.9792 37.4446 29.7524 37.5025C29.5255 37.5604 29.285 37.526 29.0834 37.407L28.0742 36.8079L28.0723 36.8067L27.1438 36.2555C27.0297 36.1878 26.8935 36.1682 26.765 36.201C26.6365 36.2337 26.5263 36.3162 26.4586 36.4303C26.3909 36.5443 26.3713 36.6805 26.4041 36.809C26.4368 36.9375 26.5193 37.0477 26.6333 37.1154L27.5621 37.6667C27.7608 37.7888 27.904 37.9836 27.9616 38.2096C28.0191 38.4356 27.9864 38.6751 27.8703 38.8774C27.7502 39.0781 27.5556 39.2233 27.329 39.2814C27.1024 39.3395 26.862 39.3057 26.6602 39.1875L25.3438 38.4062L25.9725 37.3368C26.1484 37.0384 26.2311 36.6944 26.2101 36.3487C26.1891 36.003 26.0653 35.6715 25.8547 35.3967C25.644 35.1218 25.3561 34.9162 25.0277 34.8061C24.6994 34.6959 24.3457 34.6864 24.0119 34.7787C24.0103 34.7724 24.0091 34.7662 24.0074 34.7596C23.9496 34.537 23.8482 34.3281 23.709 34.1451C23.5698 33.962 23.3957 33.8084 23.1967 33.6933C22.9976 33.5781 22.7777 33.5036 22.5497 33.4741C22.3216 33.4446 22.09 33.4607 21.8682 33.5214C21.8668 33.5161 21.8658 33.5106 21.8643 33.5053C21.8065 33.2829 21.7052 33.0742 21.5661 32.8912C21.4271 32.7083 21.2531 32.5548 21.0542 32.4396C20.8554 32.3245 20.6357 32.2499 20.4078 32.2203C20.18 32.1907 19.9485 32.2066 19.7268 32.2671C19.6423 31.9319 19.4599 31.6295 19.2029 31.3984C18.9458 31.1673 18.6258 31.0179 18.2835 30.9694C17.9413 30.9208 17.5923 30.9753 17.2812 31.1258C16.97 31.2763 16.7107 31.5161 16.5363 31.8146L16.175 32.4312C16.1068 32.2408 16.0455 32.0399 15.9853 31.8416C15.8023 31.239 15.6132 30.616 15.2041 30.1862L15.1718 30.1523L14.1438 29.4141L17.0075 23.3256C17.2574 23.3947 17.5112 23.4487 17.7675 23.4875C18.7289 23.6304 19.5286 23.5339 20.2342 23.4488H20.2345ZM24.811 20.7437C24.9321 20.7932 25.0679 20.7932 25.1891 20.7437C27.5037 19.7982 29.9766 16.9233 29.9766 11.6904C29.9766 11.5588 29.9247 11.4324 29.832 11.3388C29.7394 11.2452 29.6136 11.1919 29.482 11.1904C27.8132 11.1724 26.4497 10.7179 25.314 9.80087C25.225 9.72905 25.1142 9.68988 24.9998 9.68988C24.8855 9.68988 24.7747 9.72905 24.6857 9.80087C23.55 10.7177 22.1867 11.1722 20.5178 11.1902C20.3862 11.1917 20.2604 11.245 20.1678 11.3386C20.0751 11.4322 20.0232 11.5586 20.0232 11.6902C20.0232 16.9231 22.4964 19.7979 24.811 20.7437ZM25 10.8181C26.1197 11.6227 27.4513 12.0769 28.9692 12.1719C28.8333 16.4592 26.8875 18.8646 25 19.7355C23.1125 18.8646 21.1667 16.4592 21.0308 12.1719C22.5487 12.0769 23.8803 11.6227 25 10.8181ZM24.276 16.6176L23.4292 15.8027C23.3343 15.7106 23.2798 15.5847 23.2776 15.4525C23.2753 15.3203 23.3255 15.1926 23.4172 15.0973C23.5089 15.002 23.6345 14.9469 23.7667 14.9441C23.8989 14.9413 24.0268 14.9909 24.1225 15.0821L24.5993 15.541L25.8548 14.1647C25.899 14.1162 25.9524 14.0769 26.0119 14.049C26.0713 14.0211 26.1357 14.0052 26.2013 14.0022C26.2669 13.9991 26.3324 14.0091 26.3942 14.0314C26.456 14.0537 26.5127 14.088 26.5612 14.1322C26.6098 14.1765 26.6491 14.2298 26.677 14.2893C26.7049 14.3487 26.7208 14.4131 26.7238 14.4787C26.7268 14.5443 26.7169 14.6099 26.6946 14.6716C26.6723 14.7334 26.638 14.7902 26.5938 14.8387L24.9923 16.5943C24.9473 16.6436 24.8928 16.6834 24.8322 16.7113C24.7715 16.7392 24.7059 16.7547 24.6392 16.7568C24.6338 16.7568 24.6283 16.7568 24.6229 16.7568C24.4936 16.757 24.3693 16.7071 24.276 16.6176Z" fill="black"/>
</g>
<defs>
<clipPath id="clip0_75_1254">
<rect width="32" height="32" fill="white" transform="translate(9 9)"/>
</clipPath>
</defs>
</svg>
