<svg width="711" height="694" viewBox="0 0 711 694" fill="none" xmlns="http://www.w3.org/2000/svg">
<path fill-rule="evenodd" clip-rule="evenodd" d="M278.582 112.067C324.068 95.8853 366.651 69.8233 414.867 72.5258C465.882 75.3853 520.125 89.832 554.671 127.542C588.422 164.385 576.742 222.226 594.718 268.853C615.47 322.677 684.177 366.346 668.086 421.709C652.079 476.78 571.655 477.23 524.631 509.988C483.159 538.877 458.728 597.388 408.449 602.575C358.174 607.761 322.56 554.696 275.707 535.666C224.663 514.935 157.659 527.732 121.575 486.062C85.1606 444.009 90.6603 380.572 93.2979 325.014C95.8708 270.819 100.921 212.45 136.507 171.552C170.913 132.009 229.21 129.631 278.582 112.067Z" stroke="#DDDDDD"/>
<path fill-rule="evenodd" clip-rule="evenodd" d="M278.582 112.067C324.068 95.8853 366.651 69.8233 414.867 72.5258C465.882 75.3853 520.125 89.832 554.671 127.542C588.422 164.385 576.742 222.226 594.718 268.853C615.47 322.677 684.177 366.346 668.086 421.709C652.079 476.78 571.655 477.23 524.631 509.988C483.159 538.877 458.728 597.388 408.449 602.575C358.174 607.761 322.56 554.696 275.707 535.666C224.663 514.935 157.659 527.732 121.575 486.062C85.1606 444.009 90.6603 380.572 93.2979 325.014C95.8708 270.819 100.921 212.45 136.507 171.552C170.913 132.009 229.21 129.631 278.582 112.067Z" stroke="#DDDDDD"/>
<path fill-rule="evenodd" clip-rule="evenodd" d="M278.582 112.067C324.068 95.8853 366.651 69.8233 414.867 72.5258C465.882 75.3853 520.125 89.832 554.671 127.542C588.422 164.385 576.742 222.226 594.718 268.853C615.47 322.677 684.177 366.346 668.086 421.709C652.079 476.78 571.655 477.23 524.631 509.988C483.159 538.877 458.728 597.388 408.449 602.575C358.174 607.761 322.56 554.696 275.707 535.666C224.663 514.935 157.659 527.732 121.575 486.062C85.1606 444.009 90.6603 380.572 93.2979 325.014C95.8708 270.819 100.921 212.45 136.507 171.552C170.913 132.009 229.21 129.631 278.582 112.067Z" stroke="#DDDDDD"/>
<path fill-rule="evenodd" clip-rule="evenodd" d="M278.582 112.067C324.068 95.8853 366.651 69.8233 414.867 72.5258C465.882 75.3853 520.125 89.832 554.671 127.542C588.422 164.385 576.742 222.226 594.718 268.853C615.47 322.677 684.177 366.346 668.086 421.709C652.079 476.78 571.655 477.23 524.631 509.988C483.159 538.877 458.728 597.388 408.449 602.575C358.174 607.761 322.56 554.696 275.707 535.666C224.663 514.935 157.659 527.732 121.575 486.062C85.1606 444.009 90.6603 380.572 93.2979 325.014C95.8708 270.819 100.921 212.45 136.507 171.552C170.913 132.009 229.21 129.631 278.582 112.067Z" stroke="#DDDDDD"/>
<path fill-rule="evenodd" clip-rule="evenodd" d="M283.187 126.134C325.95 110.921 365.984 86.4196 411.313 88.9603C459.273 91.6486 510.269 105.23 542.746 140.682C574.476 175.319 563.495 229.698 580.395 273.532C599.904 324.133 664.498 365.188 649.369 417.236C634.321 469.01 558.713 469.433 514.504 500.229C475.515 527.389 452.548 582.396 405.279 587.273C358.014 592.148 324.532 542.26 280.485 524.37C232.497 504.88 169.505 516.911 135.582 477.736C101.347 438.201 106.518 378.562 108.997 326.331C111.416 275.381 116.165 220.507 149.619 182.057C181.965 144.882 236.771 142.646 283.187 126.134Z" stroke="#DDDDDD"/>
<path fill-rule="evenodd" clip-rule="evenodd" d="M283.187 126.134C325.95 110.921 365.984 86.4196 411.313 88.9603C459.273 91.6486 510.269 105.23 542.746 140.682C574.476 175.319 563.495 229.698 580.395 273.532C599.904 324.133 664.498 365.188 649.369 417.236C634.321 469.01 558.713 469.433 514.504 500.229C475.515 527.389 452.548 582.396 405.279 587.273C358.014 592.148 324.532 542.26 280.485 524.37C232.497 504.88 169.505 516.911 135.582 477.736C101.347 438.201 106.518 378.562 108.997 326.331C111.416 275.381 116.165 220.507 149.619 182.057C181.965 144.882 236.771 142.646 283.187 126.134Z" stroke="#DDDDDD"/>
<path fill-rule="evenodd" clip-rule="evenodd" d="M283.187 126.134C325.95 110.921 365.984 86.4196 411.313 88.9603C459.273 91.6486 510.269 105.23 542.746 140.682C574.476 175.319 563.495 229.698 580.395 273.532C599.904 324.133 664.498 365.188 649.369 417.236C634.321 469.01 558.713 469.433 514.504 500.229C475.515 527.389 452.548 582.396 405.279 587.273C358.014 592.148 324.532 542.26 280.485 524.37C232.497 504.88 169.505 516.911 135.582 477.736C101.347 438.201 106.518 378.562 108.997 326.331C111.416 275.381 116.165 220.507 149.619 182.057C181.965 144.882 236.771 142.646 283.187 126.134Z" stroke="#DDDDDD"/>
<path fill-rule="evenodd" clip-rule="evenodd" d="M283.187 126.134C325.95 110.921 365.984 86.4196 411.313 88.9603C459.273 91.6486 510.269 105.23 542.746 140.682C574.476 175.319 563.495 229.698 580.395 273.532C599.904 324.133 664.498 365.188 649.369 417.236C634.321 469.01 558.713 469.433 514.504 500.229C475.515 527.389 452.548 582.396 405.279 587.273C358.014 592.148 324.532 542.26 280.485 524.37C232.497 504.88 169.505 516.911 135.582 477.736C101.347 438.201 106.518 378.562 108.997 326.331C111.416 275.381 116.165 220.507 149.619 182.057C181.965 144.882 236.771 142.646 283.187 126.134Z" stroke="#DDDDDD"/>
<path fill-rule="evenodd" clip-rule="evenodd" d="M288.141 141.264C327.974 127.093 365.265 104.27 407.489 106.637C452.164 109.141 499.666 121.792 529.918 154.816C559.474 187.08 549.246 237.733 564.989 278.565C583.161 325.7 643.33 363.942 629.238 412.425C615.22 460.652 544.791 461.045 503.611 489.732C467.293 515.031 445.899 566.271 401.869 570.813C357.842 575.355 326.653 528.884 285.624 512.22C240.923 494.065 182.246 505.271 150.647 468.78C118.757 431.953 123.574 376.4 125.883 327.747C128.137 280.287 132.56 229.172 163.722 193.356C193.852 158.728 244.904 156.645 288.141 141.264Z" stroke="#DDDDDD"/>
<path fill-rule="evenodd" clip-rule="evenodd" d="M288.141 141.264C327.974 127.093 365.265 104.27 407.489 106.637C452.164 109.141 499.666 121.792 529.918 154.816C559.474 187.08 549.246 237.733 564.989 278.565C583.161 325.7 643.33 363.942 629.238 412.425C615.22 460.652 544.791 461.045 503.611 489.732C467.293 515.031 445.899 566.271 401.869 570.813C357.842 575.355 326.653 528.884 285.624 512.22C240.923 494.065 182.246 505.271 150.647 468.78C118.757 431.953 123.574 376.4 125.883 327.747C128.137 280.287 132.56 229.172 163.722 193.356C193.852 158.728 244.904 156.645 288.141 141.264Z" stroke="#DDDDDD"/>
<path fill-rule="evenodd" clip-rule="evenodd" d="M288.141 141.264C327.974 127.093 365.265 104.27 407.489 106.637C452.164 109.141 499.666 121.792 529.918 154.816C559.474 187.08 549.246 237.733 564.989 278.565C583.161 325.7 643.33 363.942 629.238 412.425C615.22 460.652 544.791 461.045 503.611 489.732C467.293 515.031 445.899 566.271 401.869 570.813C357.842 575.355 326.653 528.884 285.624 512.22C240.923 494.065 182.246 505.271 150.647 468.78C118.757 431.953 123.574 376.4 125.883 327.747C128.137 280.287 132.56 229.172 163.722 193.356C193.852 158.728 244.904 156.645 288.141 141.264Z" stroke="#DDDDDD"/>
<path fill-rule="evenodd" clip-rule="evenodd" d="M288.141 141.264C327.974 127.093 365.265 104.27 407.489 106.637C452.164 109.141 499.666 121.792 529.918 154.816C559.474 187.08 549.246 237.733 564.989 278.565C583.161 325.7 643.33 363.942 629.238 412.425C615.22 460.652 544.791 461.045 503.611 489.732C467.293 515.031 445.899 566.271 401.869 570.813C357.842 575.355 326.653 528.884 285.624 512.22C240.923 494.065 182.246 505.271 150.647 468.78C118.757 431.953 123.574 376.4 125.883 327.747C128.137 280.287 132.56 229.172 163.722 193.356C193.852 158.728 244.904 156.645 288.141 141.264Z" stroke="#DDDDDD"/>
<path fill-rule="evenodd" clip-rule="evenodd" d="M292.174 153.583C329.623 140.26 364.681 118.804 404.376 121.029C446.377 123.383 491.034 135.277 519.475 166.323C547.262 196.655 537.646 244.276 552.446 282.663C569.53 326.975 626.096 362.927 612.848 408.507C599.67 453.847 533.458 454.217 494.743 481.186C460.6 504.97 440.487 553.142 399.093 557.412C357.702 561.682 328.381 517.993 289.808 502.327C247.784 485.259 192.62 495.795 162.913 461.488C132.933 426.866 137.461 374.639 139.632 328.9C141.751 284.281 145.909 236.227 175.206 202.556C203.532 170.001 251.527 168.043 292.174 153.583Z" stroke="#DDDDDD"/>
<path fill-rule="evenodd" clip-rule="evenodd" d="M292.174 153.583C329.623 140.26 364.681 118.804 404.376 121.029C446.377 123.383 491.034 135.277 519.475 166.323C547.262 196.655 537.646 244.276 552.446 282.663C569.53 326.975 626.096 362.927 612.848 408.507C599.67 453.847 533.458 454.217 494.743 481.186C460.6 504.97 440.487 553.142 399.093 557.412C357.702 561.682 328.381 517.993 289.808 502.327C247.784 485.259 192.62 495.795 162.913 461.488C132.933 426.866 137.461 374.639 139.632 328.9C141.751 284.281 145.909 236.227 175.206 202.556C203.532 170.001 251.527 168.043 292.174 153.583Z" stroke="#DDDDDD"/>
<path fill-rule="evenodd" clip-rule="evenodd" d="M292.174 153.583C329.623 140.26 364.681 118.804 404.376 121.029C446.377 123.383 491.034 135.277 519.475 166.323C547.262 196.655 537.646 244.276 552.446 282.663C569.53 326.975 626.096 362.927 612.848 408.507C599.67 453.847 533.458 454.217 494.743 481.186C460.6 504.97 440.487 553.142 399.093 557.412C357.702 561.682 328.381 517.993 289.808 502.327C247.784 485.259 192.62 495.795 162.913 461.488C132.933 426.866 137.461 374.639 139.632 328.9C141.751 284.281 145.909 236.227 175.206 202.556C203.532 170.001 251.527 168.043 292.174 153.583Z" stroke="#DDDDDD"/>
<path fill-rule="evenodd" clip-rule="evenodd" d="M292.174 153.583C329.623 140.26 364.681 118.804 404.376 121.029C446.377 123.383 491.034 135.277 519.475 166.323C547.262 196.655 537.646 244.276 552.446 282.663C569.53 326.975 626.096 362.927 612.848 408.507C599.67 453.847 533.458 454.217 494.743 481.186C460.6 504.97 440.487 553.142 399.093 557.412C357.702 561.682 328.381 517.993 289.808 502.327C247.784 485.259 192.62 495.795 162.913 461.488C132.933 426.866 137.461 374.639 139.632 328.9C141.751 284.281 145.909 236.227 175.206 202.556C203.532 170.001 251.527 168.043 292.174 153.583Z" stroke="#DDDDDD"/>
<path fill-rule="evenodd" clip-rule="evenodd" d="M297.281 169.182C331.709 156.934 363.94 137.208 400.434 139.253C439.047 141.418 480.103 152.352 506.25 180.895C531.796 208.78 522.956 252.56 536.562 287.851C552.268 328.59 604.273 361.643 592.093 403.547C579.977 445.23 519.105 445.57 483.513 470.364C452.123 492.231 433.632 536.517 395.576 540.443C357.524 544.368 330.568 504.203 295.105 489.8C256.47 474.109 205.755 483.795 178.444 452.255C150.882 420.425 155.045 372.411 157.041 330.36C158.988 289.34 162.811 245.161 189.745 214.205C215.787 184.276 259.911 182.476 297.281 169.182Z" stroke="#DDDDDD"/>
<path fill-rule="evenodd" clip-rule="evenodd" d="M297.281 169.182C331.709 156.934 363.94 137.208 400.434 139.253C439.047 141.418 480.103 152.352 506.25 180.895C531.796 208.78 522.956 252.56 536.562 287.851C552.268 328.59 604.273 361.643 592.093 403.547C579.977 445.23 519.105 445.57 483.513 470.364C452.123 492.231 433.632 536.517 395.576 540.443C357.524 544.368 330.568 504.203 295.105 489.8C256.47 474.109 205.755 483.795 178.444 452.255C150.882 420.425 155.045 372.411 157.041 330.36C158.988 289.34 162.811 245.161 189.745 214.205C215.787 184.276 259.911 182.476 297.281 169.182Z" stroke="#DDDDDD"/>
<path fill-rule="evenodd" clip-rule="evenodd" d="M297.281 169.182C331.709 156.934 363.94 137.208 400.434 139.253C439.047 141.418 480.103 152.352 506.25 180.895C531.796 208.78 522.956 252.56 536.562 287.851C552.268 328.59 604.273 361.643 592.093 403.547C579.977 445.23 519.105 445.57 483.513 470.364C452.123 492.231 433.632 536.517 395.576 540.443C357.524 544.368 330.568 504.203 295.105 489.8C256.47 474.109 205.755 483.795 178.444 452.255C150.882 420.425 155.045 372.411 157.041 330.36C158.988 289.34 162.811 245.161 189.745 214.205C215.787 184.276 259.911 182.476 297.281 169.182Z" stroke="#DDDDDD"/>
<path fill-rule="evenodd" clip-rule="evenodd" d="M297.281 169.182C331.709 156.934 363.94 137.208 400.434 139.253C439.047 141.418 480.103 152.352 506.25 180.895C531.796 208.78 522.956 252.56 536.562 287.851C552.268 328.59 604.273 361.643 592.093 403.547C579.977 445.23 519.105 445.57 483.513 470.364C452.123 492.231 433.632 536.517 395.576 540.443C357.524 544.368 330.568 504.203 295.105 489.8C256.47 474.109 205.755 483.795 178.444 452.255C150.882 420.425 155.045 372.411 157.041 330.36C158.988 289.34 162.811 245.161 189.745 214.205C215.787 184.276 259.911 182.476 297.281 169.182Z" stroke="#DDDDDD"/>
<path fill-rule="evenodd" clip-rule="evenodd" d="M302.507 185.144C333.845 173.996 363.182 156.041 396.4 157.903C431.547 159.873 468.917 169.826 492.717 195.806C515.969 221.189 507.923 261.038 520.307 293.161C534.604 330.243 581.94 360.328 570.853 398.47C559.825 436.411 504.418 436.721 472.021 459.289C443.449 479.193 426.618 519.503 391.979 523.077C357.342 526.65 332.806 490.09 300.527 476.981C265.36 462.698 219.198 471.514 194.339 442.806C169.251 413.834 173.04 370.129 174.857 331.853C176.63 294.516 180.109 254.303 204.626 226.126C228.329 198.883 268.493 197.245 302.507 185.144Z" stroke="#DDDDDD"/>
<path fill-rule="evenodd" clip-rule="evenodd" d="M302.507 185.144C333.845 173.996 363.182 156.041 396.4 157.903C431.547 159.873 468.917 169.826 492.717 195.806C515.969 221.189 507.923 261.038 520.307 293.161C534.604 330.243 581.94 360.328 570.853 398.47C559.825 436.411 504.418 436.721 472.021 459.289C443.449 479.193 426.618 519.503 391.979 523.077C357.342 526.65 332.806 490.09 300.527 476.981C265.36 462.698 219.198 471.514 194.339 442.806C169.251 413.834 173.04 370.129 174.857 331.853C176.63 294.516 180.109 254.303 204.626 226.126C228.329 198.883 268.493 197.245 302.507 185.144Z" stroke="#DDDDDD"/>
<path fill-rule="evenodd" clip-rule="evenodd" d="M302.507 185.144C333.845 173.996 363.182 156.041 396.4 157.903C431.547 159.873 468.917 169.826 492.717 195.806C515.969 221.189 507.923 261.038 520.307 293.161C534.604 330.243 581.94 360.328 570.853 398.47C559.825 436.411 504.418 436.721 472.021 459.289C443.449 479.193 426.618 519.503 391.979 523.077C357.342 526.65 332.806 490.09 300.527 476.981C265.36 462.698 219.198 471.514 194.339 442.806C169.251 413.834 173.04 370.129 174.857 331.853C176.63 294.516 180.109 254.303 204.626 226.126C228.329 198.883 268.493 197.245 302.507 185.144Z" stroke="#DDDDDD"/>
<path fill-rule="evenodd" clip-rule="evenodd" d="M302.507 185.144C333.845 173.996 363.182 156.041 396.4 157.903C431.547 159.873 468.917 169.826 492.717 195.806C515.969 221.189 507.923 261.038 520.307 293.161C534.604 330.243 581.94 360.328 570.853 398.47C559.825 436.411 504.418 436.721 472.021 459.289C443.449 479.193 426.618 519.503 391.979 523.077C357.342 526.65 332.806 490.09 300.527 476.981C265.36 462.698 219.198 471.514 194.339 442.806C169.251 413.834 173.04 370.129 174.857 331.853C176.63 294.516 180.109 254.303 204.626 226.126C228.329 198.883 268.493 197.245 302.507 185.144Z" stroke="#DDDDDD"/>
<path fill-rule="evenodd" clip-rule="evenodd" d="M307.176 199.406C335.753 189.24 362.505 172.866 392.796 174.564C424.846 176.361 458.924 185.437 480.627 209.128C501.831 232.274 494.493 268.612 505.787 297.905C518.823 331.719 561.988 359.154 551.879 393.936C541.823 428.534 491.297 428.816 461.754 449.396C435.7 467.546 420.352 504.305 388.765 507.563C357.18 510.821 334.805 477.483 305.371 465.529C273.302 452.504 231.208 460.544 208.538 434.365C185.661 407.945 189.116 368.092 190.773 333.188C192.39 299.14 195.563 262.471 217.919 236.777C239.534 211.934 276.159 210.44 307.176 199.406Z" stroke="#DDDDDD"/>
<path fill-rule="evenodd" clip-rule="evenodd" d="M307.176 199.406C335.753 189.24 362.505 172.866 392.796 174.564C424.846 176.361 458.924 185.437 480.627 209.128C501.831 232.274 494.493 268.612 505.787 297.905C518.823 331.719 561.988 359.154 551.879 393.936C541.823 428.534 491.297 428.816 461.754 449.396C435.7 467.546 420.352 504.305 388.765 507.563C357.18 510.821 334.805 477.483 305.371 465.529C273.302 452.504 231.208 460.544 208.538 434.365C185.661 407.945 189.116 368.092 190.773 333.188C192.39 299.14 195.563 262.471 217.919 236.777C239.534 211.934 276.159 210.44 307.176 199.406Z" stroke="#DDDDDD"/>
<path fill-rule="evenodd" clip-rule="evenodd" d="M307.176 199.406C335.753 189.24 362.505 172.866 392.796 174.564C424.846 176.361 458.924 185.437 480.627 209.128C501.831 232.274 494.493 268.612 505.787 297.905C518.823 331.719 561.988 359.154 551.879 393.936C541.823 428.534 491.297 428.816 461.754 449.396C435.7 467.546 420.352 504.305 388.765 507.563C357.18 510.821 334.805 477.483 305.371 465.529C273.302 452.504 231.208 460.544 208.538 434.365C185.661 407.945 189.116 368.092 190.773 333.188C192.39 299.14 195.563 262.471 217.919 236.777C239.534 211.934 276.159 210.44 307.176 199.406Z" stroke="#DDDDDD"/>
<path fill-rule="evenodd" clip-rule="evenodd" d="M307.176 199.406C335.753 189.24 362.505 172.866 392.796 174.564C424.846 176.361 458.924 185.437 480.627 209.128C501.831 232.274 494.493 268.612 505.787 297.905C518.823 331.719 561.988 359.154 551.879 393.936C541.823 428.534 491.297 428.816 461.754 449.396C435.7 467.546 420.352 504.305 388.765 507.563C357.18 510.821 334.805 477.483 305.371 465.529C273.302 452.504 231.208 460.544 208.538 434.365C185.661 407.945 189.116 368.092 190.773 333.188C192.39 299.14 195.563 262.471 217.919 236.777C239.534 211.934 276.159 210.44 307.176 199.406Z" stroke="#DDDDDD"/>
<path fill-rule="evenodd" clip-rule="evenodd" d="M311.514 212.655C337.526 203.402 361.876 188.499 389.448 190.044C418.621 191.679 449.639 199.94 469.394 221.505C488.694 242.573 482.015 275.649 492.295 302.312C504.162 333.091 543.451 358.063 534.249 389.722C525.096 421.214 479.106 421.471 452.216 440.203C428.5 456.724 414.53 490.183 385.778 493.149C357.029 496.115 336.663 465.769 309.871 454.888C280.682 443.032 242.366 450.35 221.731 426.521C200.908 402.474 204.053 366.198 205.561 334.428C207.033 303.437 209.921 270.059 230.27 246.671C249.945 224.059 283.281 222.699 311.514 212.655Z" stroke="#DDDDDD"/>
<path fill-rule="evenodd" clip-rule="evenodd" d="M311.514 212.655C337.526 203.402 361.876 188.499 389.448 190.044C418.621 191.679 449.639 199.94 469.394 221.505C488.694 242.573 482.015 275.649 492.295 302.312C504.162 333.091 543.451 358.063 534.249 389.722C525.096 421.214 479.106 421.471 452.216 440.203C428.5 456.724 414.53 490.183 385.778 493.149C357.029 496.115 336.663 465.769 309.871 454.888C280.682 443.032 242.366 450.35 221.731 426.521C200.908 402.474 204.053 366.198 205.561 334.428C207.033 303.437 209.921 270.059 230.27 246.671C249.945 224.059 283.281 222.699 311.514 212.655Z" stroke="#DDDDDD"/>
<path fill-rule="evenodd" clip-rule="evenodd" d="M311.514 212.655C337.526 203.402 361.876 188.499 389.448 190.044C418.621 191.679 449.639 199.94 469.394 221.505C488.694 242.573 482.015 275.649 492.295 302.312C504.162 333.091 543.451 358.063 534.249 389.722C525.096 421.214 479.106 421.471 452.216 440.203C428.5 456.724 414.53 490.183 385.778 493.149C357.029 496.115 336.663 465.769 309.871 454.888C280.682 443.032 242.366 450.35 221.731 426.521C200.908 402.474 204.053 366.198 205.561 334.428C207.033 303.437 209.921 270.059 230.27 246.671C249.945 224.059 283.281 222.699 311.514 212.655Z" stroke="#DDDDDD"/>
<path fill-rule="evenodd" clip-rule="evenodd" d="M311.514 212.655C337.526 203.402 361.876 188.499 389.448 190.044C418.621 191.679 449.639 199.94 469.394 221.505C488.694 242.573 482.015 275.649 492.295 302.312C504.162 333.091 543.451 358.063 534.249 389.722C525.096 421.214 479.106 421.471 452.216 440.203C428.5 456.724 414.53 490.183 385.778 493.149C357.029 496.115 336.663 465.769 309.871 454.888C280.682 443.032 242.366 450.35 221.731 426.521C200.908 402.474 204.053 366.198 205.561 334.428C207.033 303.437 209.921 270.059 230.27 246.671C249.945 224.059 283.281 222.699 311.514 212.655Z" stroke="#DDDDDD"/>
</svg>
