<svg width="71" height="82" viewBox="0 0 71 82" fill="none" xmlns="http://www.w3.org/2000/svg">
<path d="M49.1632 42.3222L58.8285 48.1703L59.0604 59.4648L69.1371 65.5516C69.5778 65.8414 70.1494 65.6474 70.3905 65.2362C70.6828 64.7953 70.4908 64.2259 70.0795 63.9871L60.8549 58.4288L60.6229 47.1343L50.9576 41.2862L50.7256 29.9917L41.0603 24.1436L40.8284 12.8491L30.7517 6.76229C30.311 6.47253 29.7394 6.66649 29.4984 7.07777C29.206 7.51865 29.3981 8.08804 29.8093 8.32678L39.034 13.8851L39.2659 25.1796L48.9312 31.0277L49.1632 42.3222Z" fill="#D1D1D1"/>
<path d="M42.0885 46.4072L51.7538 52.2553L51.9857 63.5498L62.0624 69.6366C62.5031 69.9264 63.0747 69.7324 63.3158 69.3211C63.6081 68.8802 63.416 68.3108 63.0048 68.0721L53.7801 62.5138L53.5482 51.2193L43.8829 45.3712L43.6509 34.0767L33.9856 28.2286L33.7537 16.9341L23.677 10.8472C23.2363 10.5575 22.6647 10.7515 22.4237 11.1627C22.1313 11.6036 22.3233 12.173 22.7346 12.4117L31.9593 17.9701L32.1912 29.2646L41.8565 35.1127L42.0885 46.4072Z" fill="#D1D1D1"/>
<path d="M35.0133 50.4919L44.6786 56.34L44.9105 67.6345L54.9872 73.7213C55.4279 74.0111 55.9995 73.8171 56.2406 73.4058C56.5329 72.965 56.3409 72.3956 55.9296 72.1568L46.7049 66.5985L46.473 55.304L36.8077 49.4559L36.5757 38.1614L26.9104 32.3133L26.6785 21.0188L16.6018 14.932C16.1611 14.6422 15.5895 14.8362 15.3485 15.2474C15.0561 15.6883 15.2482 16.2577 15.6594 16.4965L24.8841 22.0548L25.116 33.3493L34.7813 39.1974L35.0133 50.4919Z" fill="#D1D1D1"/>
<path d="M27.9893 54.5471L37.6547 60.3952L37.8866 71.6897L47.9633 77.7765C48.404 78.0663 48.9756 77.8723 49.2166 77.461C49.509 77.0201 49.3169 76.4507 48.9057 76.212L39.681 70.6537L39.4491 59.3592L29.7837 53.5111L29.5518 42.2166L19.8865 36.3685L19.6545 25.074L9.57791 18.9871C9.13718 18.6974 8.56559 18.8913 8.32453 19.3026C8.0322 19.7435 8.22423 20.3129 8.6355 20.5516L17.8601 26.11L18.1215 37.4555L27.7869 43.3036L27.9893 54.5471Z" fill="#D1D1D1"/>
<path d="M41.4615 38.8098L51.1269 44.6579L51.3588 55.9524L61.4354 62.0392C61.8761 62.329 62.4477 62.135 62.6888 61.7237C62.9811 61.2828 62.7891 60.7134 62.3778 60.4747L53.1532 54.9164L52.9213 43.6219L43.2559 37.7738L43.024 26.4793L33.3586 20.6312L33.1267 9.33667L23.0501 3.24983C22.6094 2.96008 22.0378 3.15404 21.7967 3.56532C21.5556 3.9766 21.6964 4.57559 22.1077 4.81433L31.3323 10.3727L31.5642 21.6672L41.2296 27.5153L41.4615 38.8098Z" fill="white"/>
<path d="M34.3868 42.8945L44.0522 48.7426L44.2841 60.0371L54.3607 66.1239C54.8014 66.4137 55.373 66.2197 55.6141 65.8084C55.9064 65.3675 55.7144 64.7981 55.3031 64.5594L46.0785 59.0011L45.8466 47.7066L36.1812 41.8585L35.9493 30.564L26.2839 24.7159L26.052 13.4214L15.9754 7.33455C15.5346 7.04479 14.963 7.23875 14.722 7.65003C14.4297 8.09091 14.6217 8.66031 15.033 8.89905L24.2576 14.4574L24.4895 25.7519L34.1549 31.6L34.3868 42.8945Z" fill="white"/>
<path d="M27.3116 46.9794L36.977 52.8275L37.2089 64.122L47.2855 70.2089C47.7262 70.4986 48.2978 70.3047 48.5389 69.8934C48.8312 69.4525 48.6392 68.8831 48.2279 68.6444L39.0033 63.086L38.7714 51.7915L29.106 45.9434L28.8741 34.6489L19.2087 28.8008L18.9768 17.5063L8.90017 11.4195C8.45945 11.1298 7.88785 11.3237 7.64679 11.735C7.35447 12.1759 7.54649 12.7453 7.95776 12.984L17.1824 18.5423L17.4143 29.8368L27.0797 35.6849L27.3116 46.9794Z" fill="white"/>
<path d="M20.2366 51.0643L29.902 56.9124L30.1339 68.2069L40.2105 74.2937C40.6513 74.5834 41.2229 74.3895 41.4639 73.9782C41.7562 73.5373 41.5642 72.9679 41.1529 72.7292L31.9283 67.1709L31.6964 55.8764L22.0823 49.9987L21.8504 38.7042L12.185 32.8561L11.9531 21.5616L1.87646 15.4747C1.41392 15.2656 0.864133 15.3789 0.571808 15.8198C0.330752 16.2311 0.471508 16.8301 0.882776 17.0688L10.1074 22.6272L10.3393 33.9217L20.0047 39.7698L20.2366 51.0643Z" fill="white"/>
</svg>
