<svg width="89" height="86" viewBox="0 0 89 86" fill="none" xmlns="http://www.w3.org/2000/svg">
<path d="M51.1868 54.7873C51.7652 55.4797 51.6742 56.4923 50.9819 57.0706C50.2895 57.6489 49.2661 57.567 48.6878 56.8746C48.1185 56.1931 48.2112 55.1607 48.9036 54.5824C49.5851 54.0131 50.6176 54.1057 51.1868 54.7873ZM57.5372 49.4831C58.1156 50.1755 58.0138 51.1972 57.3323 51.7665C56.6399 52.3448 55.6273 52.2539 55.049 51.5615C54.4797 50.8799 54.5616 49.8565 55.254 49.2782C55.9464 48.6999 56.968 48.8016 57.5372 49.4831Z" fill="#B6B6B6"/>
<path d="M39.0983 53.2219C39.6766 53.9143 39.5857 54.9268 38.8915 55.525C38.21 56.0943 37.1775 56.0016 36.5992 55.3093C36.03 54.6277 36.1226 53.5952 36.8042 53.026C37.4966 52.4476 38.529 52.5404 39.0983 53.2219ZM45.4487 47.9177C46.027 48.6101 45.9451 49.6335 45.2528 50.2118C44.5604 50.7901 43.5388 50.6884 42.9605 49.9961C42.3912 49.3145 42.4731 48.2911 43.1654 47.7127C43.847 47.1435 44.8795 47.2362 45.4487 47.9177ZM51.7991 42.6136C52.3774 43.3059 52.2847 44.3383 51.5941 44.8968C50.9017 45.4751 49.8892 45.3843 49.3109 44.6919C48.7416 44.0103 48.8235 42.9869 49.5158 42.4086C50.1974 41.8393 51.2299 41.932 51.7991 42.6136ZM58.1604 37.3003C58.7387 37.9927 58.6369 39.0143 57.9644 39.5944C57.272 40.1727 56.2504 40.0711 55.6721 39.3787C55.1028 38.6971 55.1847 37.6737 55.8771 37.0954C56.5586 36.5261 57.5911 36.6188 58.1604 37.3003Z" fill="#B6B6B6"/>
<path d="M27.1798 51.8821C27.749 52.5636 27.6672 53.5871 26.9748 54.1654C26.2932 54.7347 25.2607 54.642 24.6915 53.9604C24.1132 53.268 24.2059 52.2356 24.8965 51.6772C25.5889 51.0989 26.6014 51.1897 27.1798 51.8821ZM33.5409 46.5689C34.1102 47.2505 34.0284 48.2739 33.336 48.8522C32.6544 49.4214 31.622 49.3288 31.0527 48.6472C30.4744 47.9548 30.5762 46.9332 31.2577 46.364C31.9393 45.7947 32.9626 45.8765 33.5409 46.5689ZM39.8914 41.2647C40.4607 41.9463 40.368 42.9787 39.6864 43.548C38.994 44.1263 37.9724 44.0246 37.4031 43.343C36.8248 42.6507 36.9157 41.6381 37.6081 41.0598C38.2897 40.4905 39.3221 40.5831 39.8914 41.2647ZM46.2508 35.9714C46.8201 36.6529 46.7274 37.6854 46.0459 38.2547C45.3535 38.833 44.3318 38.7313 43.7625 38.0497C43.1842 37.3573 43.2752 36.3448 43.9676 35.7665C44.6509 35.1773 45.6635 35.2682 46.2508 35.9714ZM52.6121 30.6582C53.1813 31.3397 53.0886 32.3722 52.4071 32.9415C51.7147 33.5198 50.6823 33.427 50.113 32.7455C49.5347 32.0531 49.6256 31.0406 50.3288 30.4532C51.0013 29.8732 52.0247 29.955 52.6121 30.6582ZM58.9534 25.3432C59.5227 26.0247 59.43 27.0572 58.7484 27.6265C58.0669 28.1957 57.0344 28.1031 56.4651 27.4215C55.8868 26.7291 55.9886 25.7075 56.6611 25.1274C57.3517 24.569 58.3751 24.6508 58.9534 25.3432Z" fill="#B6B6B6"/>
<path d="M15.0918 50.3166C15.6702 51.009 15.5883 52.0323 14.8959 52.6106C14.2144 53.1799 13.191 53.0981 12.6036 52.3949C12.0344 51.7133 12.127 50.6809 12.8086 50.1116C13.501 49.5333 14.5226 49.6351 15.0918 50.3166ZM21.4423 45.0124C22.0206 45.7048 21.9387 46.7282 21.2463 47.3065C20.5648 47.8757 19.5414 47.7939 18.954 47.0907C18.3847 46.4092 18.4774 45.3767 19.159 44.8074C19.8514 44.2291 20.873 44.3308 21.4423 45.0124ZM27.8035 39.6992C28.3818 40.3916 28.2999 41.415 27.6076 41.9933C26.926 42.5625 25.9026 42.4807 25.3152 41.7775C24.746 41.096 24.8387 40.0635 25.5202 39.4942C26.2018 38.9249 27.2342 39.0177 27.8035 39.6992ZM34.1539 34.395C34.7322 35.0874 34.6395 36.1198 33.9579 36.6891C33.2656 37.2674 32.2422 37.1855 31.6549 36.4824C31.0856 35.8008 31.1782 34.7684 31.8706 34.1901C32.5522 33.6208 33.5847 33.7135 34.1539 34.395ZM40.5151 29.0819C41.0934 29.7742 41.0007 30.8066 40.3083 31.3849C39.616 31.9632 38.6034 31.8724 38.016 31.1692C37.4468 30.4876 37.5286 29.4642 38.221 28.8859C38.9026 28.3166 39.935 28.4093 40.5151 29.0819ZM46.8656 23.7777C47.4439 24.47 47.3511 25.5025 46.6696 26.0717C45.9772 26.65 44.9539 26.5682 44.3665 25.865C43.7972 25.1834 43.8899 24.151 44.5714 23.5817C45.2638 23.0034 46.2963 23.0961 46.8656 23.7777ZM53.225 18.4843C53.8033 19.1767 53.7124 20.1893 53.02 20.7676C52.3276 21.3459 51.315 21.255 50.7277 20.5518C50.1584 19.8703 50.2511 18.8378 50.9326 18.2685C51.625 17.6902 52.6467 17.7919 53.225 18.4843ZM59.5664 13.1693C60.1447 13.8617 60.0628 14.8851 59.3704 15.4634C58.6888 16.0327 57.6655 15.9508 57.0781 15.2476C56.5089 14.566 56.6015 13.5336 57.283 12.9644C57.9754 12.386 58.9971 12.4878 59.5664 13.1693Z" fill="#B6B6B6"/>
<path d="M3.53638 49.3891C4.10565 50.0707 4.01303 51.1031 3.33147 51.6724C2.63909 52.2507 1.61743 52.149 1.04816 51.4674C0.469851 50.7751 0.551765 49.7517 1.24414 49.1734C1.93474 48.6149 2.95807 48.6968 3.53638 49.3891ZM9.88678 44.085C10.456 44.7665 10.3742 45.7899 9.68187 46.3682C8.98949 46.9465 7.96783 46.8448 7.39856 46.1633C6.82025 45.4709 6.90216 44.4475 7.59454 43.8692C8.29596 43.3017 9.30847 43.3926 9.88678 44.085ZM16.2372 38.7808C16.8065 39.4623 16.7246 40.4858 16.0323 41.0641C15.3507 41.6333 14.3182 41.5407 13.749 40.8591C13.1706 40.1667 13.2634 39.1343 13.9449 38.565C14.6464 37.9975 15.6589 38.0884 16.2372 38.7808ZM22.5984 33.4676C23.1677 34.1492 23.0859 35.1726 22.3935 35.7509C21.7119 36.3201 20.6795 36.2275 20.1102 35.5459C19.5319 34.8535 19.6246 33.8211 20.3062 33.2518C20.9968 32.6934 22.0201 32.7752 22.5984 33.4676ZM28.9489 28.1634C29.5181 28.845 29.4254 29.8774 28.7331 30.4557C28.0407 31.0341 27.0191 30.9323 26.4498 30.2507C25.8715 29.5583 25.9534 28.535 26.6457 27.9567C27.3472 27.3892 28.3706 27.471 28.9489 28.1634ZM35.2993 22.8592C35.8685 23.5408 35.7759 24.5733 35.0943 25.1425C34.4019 25.7208 33.3803 25.6191 32.811 24.9376C32.2327 24.2452 32.3146 23.2218 33.007 22.6435C33.6976 22.085 34.721 22.1669 35.2993 22.8592ZM41.6605 17.546C42.2298 18.2276 42.1371 19.2601 41.4555 19.8293C40.7631 20.4076 39.7415 20.3059 39.1722 19.6244C38.5939 18.932 38.6758 17.9086 39.379 17.3212C40.0588 16.7718 41.0822 16.8536 41.6605 17.546ZM48.0109 12.2419C48.5802 12.9234 48.4983 13.9469 47.8059 14.5252C47.1244 15.0944 46.0919 15.0018 45.5226 14.3202C44.9443 13.6278 45.037 12.5954 45.7186 12.0261C46.42 11.4586 47.4326 11.5495 48.0109 12.2419ZM54.3613 6.93769C54.9306 7.61925 54.8487 8.6427 54.1563 9.221C53.4748 9.79028 52.4423 9.69754 51.8731 9.01598C51.2948 8.3236 51.3874 7.29123 52.069 6.72195C52.7704 6.15447 53.783 6.24531 54.3613 6.93769ZM60.7117 1.63353C61.281 2.31509 61.1991 3.33853 60.5067 3.91684C59.8143 4.49515 58.7819 4.40241 58.2126 3.72085C57.6343 3.02848 57.727 1.9961 58.4194 1.41779C59.1208 0.8503 60.1334 0.941151 60.7117 1.63353Z" fill="#B6B6B6"/>
<path d="M59.1726 57.9062C59.7509 58.5986 59.6582 59.631 58.9766 60.2003C58.2843 60.7786 57.2609 60.6968 56.6843 59.9846C56.1151 59.303 56.1969 58.2796 56.8893 57.7012C57.5817 57.1229 58.6034 57.2247 59.1726 57.9062Z" fill="#B6B6B6"/>
</svg>
