<svg width="151" height="147" viewBox="0 0 151 147" fill="none" xmlns="http://www.w3.org/2000/svg">
<path d="M142.671 40.2534C142.671 38.697 141.42 37.4458 139.864 37.4458C138.307 37.4458 137.056 38.697 137.056 40.2534C137.056 41.8099 138.307 43.0611 139.864 43.0611C141.39 43.0611 142.671 41.8099 142.671 40.2534Z" fill="#D1D1D1"/>
<path d="M130.495 46.8149C128.938 46.8149 127.687 48.0662 127.687 49.6226C127.687 51.179 128.938 52.4302 130.495 52.4302C132.051 52.4302 133.302 51.179 133.302 49.6226C133.302 48.0967 132.021 46.8149 130.495 46.8149Z" fill="#D1D1D1"/>
<path d="M146.395 68.3604C146.395 69.9168 147.646 71.168 149.202 71.168C149.66 71.168 150.057 71.046 150.423 70.8629C150.392 69.1234 150.332 67.4143 150.179 65.7358C149.874 65.6138 149.538 65.5527 149.172 65.5527C147.676 65.5527 146.395 66.804 146.395 68.3604Z" fill="#D1D1D1"/>
<path d="M142.671 77.7295C142.671 76.1731 141.42 74.9219 139.864 74.9219C138.307 74.9219 137.056 76.1731 137.056 77.7295C137.056 79.2859 138.307 80.5372 139.864 80.5372C141.39 80.5372 142.671 79.2859 142.671 77.7295Z" fill="#D1D1D1"/>
<path d="M139.833 56.1833C138.276 56.1833 137.025 57.4346 137.025 58.991C137.025 60.5474 138.276 61.7986 139.833 61.7986C141.389 61.7986 142.64 60.5474 142.64 58.991C142.671 57.4346 141.389 56.1833 139.833 56.1833Z" fill="#D1D1D1"/>
<path d="M130.495 65.5527C128.938 65.5527 127.687 66.804 127.687 68.3604C127.687 69.9168 128.938 71.168 130.495 71.168C132.051 71.168 133.302 69.9168 133.302 68.3604C133.302 66.804 132.021 65.5527 130.495 65.5527Z" fill="#D1D1D1"/>
<path d="M147.86 52.0945C147.524 50.8128 147.127 49.5615 146.73 48.3408C146.517 48.7376 146.395 49.1648 146.395 49.6531C146.395 50.6907 147.005 51.6062 147.86 52.0945Z" fill="#D1D1D1"/>
<path d="M137.178 114.412C137.483 113.954 137.788 113.497 138.124 113.039C137.666 113.375 137.331 113.863 137.178 114.412Z" fill="#D1D1D1"/>
<path d="M137.025 96.4673C137.025 98.0237 138.276 99.275 139.833 99.275C141.389 99.275 142.64 98.0237 142.64 96.4673C142.64 94.9109 141.389 93.6597 139.833 93.6597C138.307 93.6597 137.025 94.9109 137.025 96.4673Z" fill="#D1D1D1"/>
<path d="M149.385 84.3216C149.324 84.3216 149.263 84.291 149.202 84.291C147.646 84.291 146.395 85.5422 146.395 87.0987C146.395 88.3194 147.188 89.357 148.256 89.7232C148.714 87.9532 149.08 86.1526 149.385 84.3216Z" fill="#D1D1D1"/>
<path d="M111.757 9.33887C110.2 9.33887 108.949 10.5901 108.949 12.1465C108.949 13.7029 110.2 14.9542 111.757 14.9542C113.313 14.9542 114.564 13.7029 114.564 12.1465C114.564 10.6206 113.313 9.33887 111.757 9.33887Z" fill="#D1D1D1"/>
<path d="M99.5796 2.8079C99.5796 4.36431 100.831 5.61554 102.387 5.61554C103.944 5.61554 105.195 4.36431 105.195 2.8079C105.195 2.77738 105.195 2.71636 105.195 2.68585C103.638 2.01445 102.051 1.37354 100.434 0.793701C99.8847 1.31251 99.5796 2.01443 99.5796 2.8079Z" fill="#D1D1D1"/>
<path d="M93.0188 9.33887C91.4624 9.33887 90.2112 10.5901 90.2112 12.1465C90.2112 13.7029 91.4624 14.9542 93.0188 14.9542C94.5752 14.9542 95.8266 13.7029 95.8266 12.1465C95.8266 10.6206 94.5752 9.33887 93.0188 9.33887Z" fill="#D1D1D1"/>
<path d="M111.757 46.8149C110.2 46.8149 108.949 48.0662 108.949 49.6226C108.949 51.179 110.2 52.4302 111.757 52.4302C113.313 52.4302 114.564 51.179 114.564 49.6226C114.564 48.0967 113.313 46.8149 111.757 46.8149Z" fill="#D1D1D1"/>
<path d="M130.495 33.7223C132.045 33.7223 133.302 32.4653 133.302 30.9146C133.302 29.364 132.045 28.1069 130.495 28.1069C128.944 28.1069 127.687 29.364 127.687 30.9146C127.687 32.4653 128.944 33.7223 130.495 33.7223Z" fill="#D1D1D1"/>
<path d="M111.757 33.7223C113.313 33.7223 114.564 32.471 114.564 30.9146C114.564 29.3582 113.313 28.1069 111.757 28.1069C110.2 28.1069 108.949 29.3582 108.949 30.9146C108.949 32.4405 110.2 33.7223 111.757 33.7223Z" fill="#D1D1D1"/>
<path d="M102.387 43.0611C103.944 43.0611 105.195 41.8099 105.195 40.2534C105.195 38.697 103.944 37.4458 102.387 37.4458C100.831 37.4458 99.5796 38.697 99.5796 40.2534C99.5796 41.8099 100.831 43.0611 102.387 43.0611Z" fill="#D1D1D1"/>
<path d="M123.933 40.2534C123.933 38.697 122.682 37.4458 121.126 37.4458C119.569 37.4458 118.318 38.697 118.318 40.2534C118.318 41.8099 119.569 43.0611 121.126 43.0611C122.652 43.0611 123.933 41.8099 123.933 40.2534Z" fill="#D1D1D1"/>
<path d="M102.387 24.3531C103.944 24.3531 105.195 23.1019 105.195 21.5454C105.195 19.989 103.944 18.7378 102.387 18.7378C100.831 18.7378 99.5796 19.989 99.5796 21.5454C99.5796 23.0713 100.831 24.3531 102.387 24.3531Z" fill="#D1D1D1"/>
<path d="M118.318 21.5454C118.318 23.1019 119.569 24.3531 121.126 24.3531C122.682 24.3531 123.933 23.1019 123.933 21.5454C123.933 19.989 122.682 18.7378 121.126 18.7378C119.569 18.7378 118.318 19.989 118.318 21.5454Z" fill="#D1D1D1"/>
<path d="M93.0188 46.8149C91.4624 46.8149 90.2112 48.0662 90.2112 49.6226C90.2112 51.179 91.4624 52.4302 93.0188 52.4302C94.5752 52.4302 95.8266 51.179 95.8266 49.6226C95.8266 48.0967 94.5752 46.8149 93.0188 46.8149Z" fill="#D1D1D1"/>
<path d="M111.757 84.291C110.2 84.291 108.949 85.5422 108.949 87.0987C108.949 88.6551 110.2 89.9063 111.757 89.9063C113.313 89.9063 114.564 88.6551 114.564 87.0987C114.564 85.5422 113.313 84.291 111.757 84.291Z" fill="#D1D1D1"/>
<path d="M111.757 65.5527C110.2 65.5527 108.949 66.804 108.949 68.3604C108.949 69.9168 110.2 71.168 111.757 71.168C113.313 71.168 114.564 69.9168 114.564 68.3604C114.564 66.804 113.313 65.5527 111.757 65.5527Z" fill="#D1D1D1"/>
<path d="M105.195 77.7295C105.195 76.1731 103.944 74.9219 102.387 74.9219C100.831 74.9219 99.5796 76.1731 99.5796 77.7295C99.5796 79.2859 100.831 80.5372 102.387 80.5372C103.944 80.5372 105.195 79.2859 105.195 77.7295Z" fill="#D1D1D1"/>
<path d="M121.126 74.9219C119.569 74.9219 118.318 76.1731 118.318 77.7295C118.318 79.2859 119.569 80.5372 121.126 80.5372C122.682 80.5372 123.933 79.2859 123.933 77.7295C123.933 76.1731 122.652 74.9219 121.126 74.9219Z" fill="#D1D1D1"/>
<path d="M102.387 56.1833C100.831 56.1833 99.5796 57.4346 99.5796 58.991C99.5796 60.5474 100.831 61.7986 102.387 61.7986C103.944 61.7986 105.195 60.5474 105.195 58.991C105.195 57.4346 103.944 56.1833 102.387 56.1833Z" fill="#D1D1D1"/>
<path d="M121.126 56.1833C119.569 56.1833 118.318 57.4346 118.318 58.991C118.318 60.5474 119.569 61.7986 121.126 61.7986C122.682 61.7986 123.933 60.5474 123.933 58.991C123.933 57.4346 122.652 56.1833 121.126 56.1833Z" fill="#D1D1D1"/>
<path d="M93.0188 84.291C91.4624 84.291 90.2112 85.5422 90.2112 87.0987C90.2112 88.6551 91.4624 89.9063 93.0188 89.9063C94.5752 89.9063 95.8266 88.6551 95.8266 87.0987C95.8266 85.5422 94.5752 84.291 93.0188 84.291Z" fill="#D1D1D1"/>
<path d="M130.495 108.644C132.051 108.644 133.302 107.393 133.302 105.836C133.302 104.28 132.051 103.029 130.495 103.029C128.938 103.029 127.687 104.28 127.687 105.836C127.657 107.393 128.938 108.644 130.495 108.644Z" fill="#D1D1D1"/>
<path d="M111.757 108.644C113.313 108.644 114.564 107.393 114.564 105.836C114.564 104.28 113.313 103.029 111.757 103.029C110.2 103.029 108.949 104.28 108.949 105.836C108.949 107.393 110.2 108.644 111.757 108.644Z" fill="#D1D1D1"/>
<path d="M102.387 112.398C100.831 112.398 99.5796 113.649 99.5796 115.206C99.5796 116.762 100.831 118.013 102.387 118.013C103.944 118.013 105.195 116.762 105.195 115.206C105.195 113.649 103.944 112.398 102.387 112.398Z" fill="#D1D1D1"/>
<path d="M123.933 115.206C123.933 113.649 122.682 112.398 121.126 112.398C119.569 112.398 118.318 113.649 118.318 115.206C118.318 116.762 119.569 118.013 121.126 118.013C122.652 118.013 123.933 116.762 123.933 115.206Z" fill="#D1D1D1"/>
<path d="M102.387 93.6597C100.831 93.6597 99.5796 94.9109 99.5796 96.4673C99.5796 98.0237 100.831 99.275 102.387 99.275C103.944 99.275 105.195 98.0237 105.195 96.4673C105.195 94.9109 103.944 93.6597 102.387 93.6597Z" fill="#D1D1D1"/>
<path d="M121.126 93.6597C119.569 93.6597 118.318 94.9109 118.318 96.4673C118.318 98.0237 119.569 99.275 121.126 99.275C122.682 99.275 123.933 98.0237 123.933 96.4673C123.933 94.9109 122.652 93.6597 121.126 93.6597Z" fill="#D1D1D1"/>
<path d="M93.0188 103.029C91.4624 103.029 90.2112 104.28 90.2112 105.836C90.2112 107.393 91.4624 108.644 93.0188 108.644C94.5752 108.644 95.8266 107.393 95.8266 105.836C95.8266 104.28 94.5752 103.029 93.0188 103.029Z" fill="#D1D1D1"/>
<path d="M130.495 89.9063C132.051 89.9063 133.302 88.6551 133.302 87.0987C133.302 85.5422 132.051 84.291 130.495 84.291C128.938 84.291 127.687 85.5422 127.687 87.0987C127.687 88.6551 128.938 89.9063 130.495 89.9063Z" fill="#D1D1D1"/>
<path d="M99.5796 133.943C99.5796 135.5 100.831 136.751 102.387 136.751C103.944 136.751 105.195 135.5 105.195 133.943C105.195 132.387 103.944 131.136 102.387 131.136C100.831 131.136 99.5796 132.387 99.5796 133.943Z" fill="#D1D1D1"/>
<path d="M118.379 133.333C119.386 132.631 120.363 131.899 121.339 131.166C121.278 131.166 121.187 131.136 121.126 131.136C119.783 131.136 118.654 132.082 118.379 133.333Z" fill="#D1D1D1"/>
<path d="M93.0188 140.505C91.4624 140.505 90.2112 141.756 90.2112 143.313C90.2112 144.075 90.5164 144.777 91.0352 145.296C92.6222 144.961 94.1785 144.564 95.7044 144.137C95.7959 143.892 95.8266 143.618 95.8266 143.343C95.8266 141.756 94.5752 140.505 93.0188 140.505Z" fill="#D1D1D1"/>
<path d="M131.258 121.888C131.014 121.827 130.739 121.766 130.464 121.766C128.908 121.766 127.657 123.018 127.657 124.574C127.657 124.879 127.718 125.184 127.809 125.49C129.03 124.33 130.159 123.14 131.258 121.888Z" fill="#D1D1D1"/>
<path d="M111.757 127.382C113.313 127.382 114.564 126.13 114.564 124.574C114.564 123.018 113.313 121.766 111.757 121.766C110.2 121.766 108.949 123.018 108.949 124.574C108.949 126.13 110.2 127.382 111.757 127.382Z" fill="#D1D1D1"/>
<path d="M74.2804 9.33887C72.724 9.33887 71.4727 10.5901 71.4727 12.1465C71.4727 13.7029 72.724 14.9542 74.2804 14.9542C75.8369 14.9542 77.088 13.7029 77.088 12.1465C77.088 10.6206 75.8369 9.33887 74.2804 9.33887Z" fill="#D1D1D1"/>
<path d="M67.7196 2.80765C67.7196 1.25123 66.4685 0 64.912 0C63.3556 0 62.1042 1.25123 62.1042 2.80765C62.1042 4.36406 63.3556 5.61529 64.912 5.61529C66.4685 5.61529 67.7196 4.33354 67.7196 2.80765Z" fill="#D1D1D1"/>
<path d="M86.4574 2.80765C86.4574 1.25123 85.2061 0 83.6496 0C82.0932 0 80.842 1.25123 80.842 2.80765C80.842 4.36406 82.0932 5.61529 83.6496 5.61529C85.2061 5.61529 86.4574 4.33354 86.4574 2.80765Z" fill="#D1D1D1"/>
<path d="M93.0188 33.7223C94.5752 33.7223 95.8266 32.471 95.8266 30.9146C95.8266 29.3582 94.5752 28.1069 93.0188 28.1069C91.4624 28.1069 90.2112 29.3582 90.2112 30.9146C90.2112 32.4405 91.4624 33.7223 93.0188 33.7223Z" fill="#D1D1D1"/>
<path d="M74.2804 33.7223C75.8369 33.7223 77.088 32.471 77.088 30.9146C77.088 29.3582 75.8369 28.1069 74.2804 28.1069C72.724 28.1069 71.4727 29.3582 71.4727 30.9146C71.4727 32.4405 72.724 33.7223 74.2804 33.7223Z" fill="#D1D1D1"/>
<path d="M64.912 43.0611C66.4685 43.0611 67.7196 41.8099 67.7196 40.2534C67.7196 38.697 66.4685 37.4458 64.912 37.4458C63.3556 37.4458 62.1042 38.697 62.1042 40.2534C62.1042 41.8099 63.3556 43.0611 64.912 43.0611Z" fill="#D1D1D1"/>
<path d="M83.6496 43.0611C85.2061 43.0611 86.4574 41.8099 86.4574 40.2534C86.4574 38.697 85.2061 37.4458 83.6496 37.4458C82.0932 37.4458 80.842 38.697 80.842 40.2534C80.842 41.8099 82.0932 43.0611 83.6496 43.0611Z" fill="#D1D1D1"/>
<path d="M64.912 24.3531C66.4685 24.3531 67.7196 23.1019 67.7196 21.5454C67.7196 19.989 66.4685 18.7378 64.912 18.7378C63.3556 18.7378 62.1042 19.989 62.1042 21.5454C62.1042 23.0713 63.3556 24.3531 64.912 24.3531Z" fill="#D1D1D1"/>
<path d="M83.6496 24.3531C85.2061 24.3531 86.4574 23.1019 86.4574 21.5454C86.4574 19.989 85.2061 18.7378 83.6496 18.7378C82.0932 18.7378 80.842 19.989 80.842 21.5454C80.842 23.0713 82.0932 24.3531 83.6496 24.3531Z" fill="#D1D1D1"/>
<path d="M74.2804 84.291C72.724 84.291 71.4727 85.5422 71.4727 87.0987C71.4727 88.6551 72.724 89.9063 74.2804 89.9063C75.8369 89.9063 77.088 88.6551 77.088 87.0987C77.088 85.5422 75.8369 84.291 74.2804 84.291Z" fill="#D1D1D1"/>
<path d="M93.0188 71.168C94.5752 71.168 95.8266 69.9168 95.8266 68.3604C95.8266 66.804 94.5752 65.5527 93.0188 65.5527C91.4624 65.5527 90.2112 66.804 90.2112 68.3604C90.2112 69.9168 91.4624 71.168 93.0188 71.168Z" fill="#D1D1D1"/>
<path d="M74.2804 65.5527C72.724 65.5527 71.4727 66.804 71.4727 68.3604C71.4727 69.9168 72.724 71.168 74.2804 71.168C75.8369 71.168 77.088 69.9168 77.088 68.3604C77.088 66.804 75.8369 65.5527 74.2804 65.5527Z" fill="#D1D1D1"/>
<path d="M64.912 74.9219C63.3556 74.9219 62.1042 76.1731 62.1042 77.7295C62.1042 79.2859 63.3556 80.5372 64.912 80.5372C66.4685 80.5372 67.7196 79.2859 67.7196 77.7295C67.7196 76.1731 66.4685 74.9219 64.912 74.9219Z" fill="#D1D1D1"/>
<path d="M83.6496 74.9219C82.0932 74.9219 80.842 76.1731 80.842 77.7295C80.842 79.2859 82.0932 80.5372 83.6496 80.5372C85.2061 80.5372 86.4574 79.2859 86.4574 77.7295C86.4574 76.1731 85.2061 74.9219 83.6496 74.9219Z" fill="#D1D1D1"/>
<path d="M64.912 56.1833C63.3556 56.1833 62.1042 57.4346 62.1042 58.991C62.1042 60.5474 63.3556 61.7986 64.912 61.7986C66.4685 61.7986 67.7196 60.5474 67.7196 58.991C67.7196 57.4346 66.4685 56.1833 64.912 56.1833Z" fill="#D1D1D1"/>
<path d="M83.6496 56.1833C82.0932 56.1833 80.842 57.4346 80.842 58.991C80.842 60.5474 82.0932 61.7986 83.6496 61.7986C85.2061 61.7986 86.4574 60.5474 86.4574 58.991C86.4574 57.4346 85.2061 56.1833 83.6496 56.1833Z" fill="#D1D1D1"/>
<path d="M55.5427 84.291C53.9863 84.291 52.7351 85.5422 52.7351 87.0987C52.7351 88.6551 53.9863 89.9063 55.5427 89.9063C57.0991 89.9063 58.3503 88.6551 58.3503 87.0987C58.3503 85.5422 57.0991 84.291 55.5427 84.291Z" fill="#D1D1D1"/>
<path d="M55.5427 65.5527C53.9863 65.5527 52.7351 66.804 52.7351 68.3604C52.7351 69.9168 53.9863 71.168 55.5427 71.168C57.0991 71.168 58.3503 69.9168 58.3503 68.3604C58.3503 66.804 57.0991 65.5527 55.5427 65.5527Z" fill="#D1D1D1"/>
<path d="M74.2804 52.4608C75.8369 52.4608 77.088 51.2096 77.088 49.6532C77.088 48.0967 75.8369 46.8455 74.2804 46.8455C72.724 46.8455 71.4727 48.0967 71.4727 49.6532C71.4727 51.1791 72.724 52.4608 74.2804 52.4608Z" fill="#D1D1D1"/>
<path d="M74.2804 121.766C72.724 121.766 71.4727 123.018 71.4727 124.574C71.4727 126.13 72.724 127.382 74.2804 127.382C75.8369 127.382 77.088 126.13 77.088 124.574C77.088 123.018 75.8369 121.766 74.2804 121.766Z" fill="#D1D1D1"/>
<path d="M74.2804 103.029C72.724 103.029 71.4727 104.28 71.4727 105.836C71.4727 107.393 72.724 108.644 74.2804 108.644C75.8369 108.644 77.088 107.393 77.088 105.836C77.088 104.28 75.8369 103.029 74.2804 103.029Z" fill="#D1D1D1"/>
<path d="M64.912 112.398C63.3556 112.398 62.1042 113.649 62.1042 115.206C62.1042 116.762 63.3556 118.013 64.912 118.013C66.4685 118.013 67.7196 116.762 67.7196 115.206C67.7196 113.649 66.4685 112.398 64.912 112.398Z" fill="#D1D1D1"/>
<path d="M83.6496 112.398C82.0932 112.398 80.842 113.649 80.842 115.206C80.842 116.762 82.0932 118.013 83.6496 118.013C85.2061 118.013 86.4574 116.762 86.4574 115.206C86.4574 113.649 85.2061 112.398 83.6496 112.398Z" fill="#D1D1D1"/>
<path d="M64.912 93.6597C63.3556 93.6597 62.1042 94.9109 62.1042 96.4673C62.1042 98.0237 63.3556 99.275 64.912 99.275C66.4685 99.275 67.7196 98.0237 67.7196 96.4673C67.7196 94.9109 66.4685 93.6597 64.912 93.6597Z" fill="#D1D1D1"/>
<path d="M83.6496 93.6597C82.0932 93.6597 80.842 94.9109 80.842 96.4673C80.842 98.0237 82.0932 99.275 83.6496 99.275C85.2061 99.275 86.4574 98.0237 86.4574 96.4673C86.4574 94.9109 85.2061 93.6597 83.6496 93.6597Z" fill="#D1D1D1"/>
<path d="M55.5427 103.029C53.9863 103.029 52.7351 104.28 52.7351 105.836C52.7351 107.393 53.9863 108.644 55.5427 108.644C57.0991 108.644 58.3503 107.393 58.3503 105.836C58.3503 104.28 57.0991 103.029 55.5427 103.029Z" fill="#D1D1D1"/>
<path d="M74.2804 140.505C72.724 140.505 71.4727 141.756 71.4727 143.313C71.4727 144.869 72.724 146.12 74.2804 146.12C75.8369 146.12 77.088 144.869 77.088 143.313C77.088 141.756 75.8369 140.505 74.2804 140.505Z" fill="#D1D1D1"/>
<path d="M62.1042 133.943C62.1042 135.5 63.3556 136.751 64.912 136.751C66.4685 136.751 67.7196 135.5 67.7196 133.943C67.7196 132.387 66.4685 131.136 64.912 131.136C63.3556 131.136 62.1042 132.387 62.1042 133.943Z" fill="#D1D1D1"/>
<path d="M80.842 133.943C80.842 135.5 82.0932 136.751 83.6496 136.751C85.2061 136.751 86.4574 135.5 86.4574 133.943C86.4574 132.387 85.2061 131.136 83.6496 131.136C82.0932 131.136 80.842 132.387 80.842 133.943Z" fill="#D1D1D1"/>
<path d="M55.5427 140.505C53.9863 140.505 52.7351 141.756 52.7351 143.313C52.7351 143.404 52.7655 143.465 52.7655 143.557C54.444 144.075 56.1226 144.533 57.8621 144.93C58.1673 144.472 58.3809 143.923 58.3809 143.313C58.3503 141.756 57.0991 140.505 55.5427 140.505Z" fill="#D1D1D1"/>
<path d="M93.0188 127.382C94.5752 127.382 95.8266 126.13 95.8266 124.574C95.8266 123.018 94.5752 121.766 93.0188 121.766C91.4624 121.766 90.2112 123.018 90.2112 124.574C90.2112 126.13 91.4624 127.382 93.0188 127.382Z" fill="#D1D1D1"/>
<path d="M36.8049 9.33887C35.2485 9.33887 33.9973 10.5901 33.9973 12.1465C33.9973 13.7029 35.2485 14.9542 36.8049 14.9542C38.3613 14.9542 39.6125 13.7029 39.6125 12.1465C39.6125 10.6206 38.3613 9.33887 36.8049 9.33887Z" fill="#D1D1D1"/>
<path d="M46.1737 5.61527C47.7301 5.61527 48.9813 4.36404 48.9813 2.80762C48.9813 2.2583 48.8286 1.77002 48.554 1.34277C46.8144 2.01417 45.1055 2.71606 43.4575 3.50952C43.7627 4.69972 44.8614 5.61527 46.1737 5.61527Z" fill="#D1D1D1"/>
<path d="M55.5427 33.7223C57.0991 33.7223 58.3503 32.471 58.3503 30.9146C58.3503 29.3582 57.0991 28.1069 55.5427 28.1069C53.9863 28.1069 52.7351 29.3582 52.7351 30.9146C52.7351 32.4405 53.9863 33.7223 55.5427 33.7223Z" fill="#D1D1D1"/>
<path d="M36.8049 33.7223C38.3555 33.7223 39.6125 32.4653 39.6125 30.9146C39.6125 29.364 38.3555 28.1069 36.8049 28.1069C35.2543 28.1069 33.9973 29.364 33.9973 30.9146C33.9973 32.4653 35.2543 33.7223 36.8049 33.7223Z" fill="#D1D1D1"/>
<path d="M30.2434 40.2534C30.2434 38.697 28.9922 37.4458 27.4358 37.4458C25.8794 37.4458 24.6282 38.697 24.6282 40.2534C24.6282 41.8099 25.8794 43.0611 27.4358 43.0611C28.9922 43.0611 30.2434 41.8099 30.2434 40.2534Z" fill="#D1D1D1"/>
<path d="M46.1733 43.0611C47.7297 43.0611 48.9809 41.8099 48.9809 40.2534C48.9809 38.697 47.7297 37.4458 46.1733 37.4458C44.6169 37.4458 43.3657 38.697 43.3657 40.2534C43.3657 41.8099 44.6169 43.0611 46.1733 43.0611Z" fill="#D1D1D1"/>
<path d="M24.6282 21.5454C24.6282 23.1019 25.8794 24.3531 27.4358 24.3531C28.9922 24.3531 30.2434 23.1019 30.2434 21.5454C30.2434 19.989 28.9922 18.7378 27.4358 18.7378C25.8794 18.7378 24.6282 19.989 24.6282 21.5454Z" fill="#D1D1D1"/>
<path d="M46.1733 24.3531C47.7297 24.3531 48.9809 23.1019 48.9809 21.5454C48.9809 19.989 47.7297 18.7378 46.1733 18.7378C44.6169 18.7378 43.3657 19.989 43.3657 21.5454C43.3657 23.0713 44.6169 24.3531 46.1733 24.3531Z" fill="#D1D1D1"/>
<path d="M55.5427 14.9847C57.0991 14.9847 58.3503 13.7335 58.3503 12.1771C58.3503 10.6207 57.0991 9.36938 55.5427 9.36938C53.9863 9.36938 52.7351 10.6207 52.7351 12.1771C52.7351 13.7335 53.9863 14.9847 55.5427 14.9847Z" fill="#D1D1D1"/>
<path d="M36.8049 84.291C35.2485 84.291 33.9973 85.5422 33.9973 87.0987C33.9973 88.6551 35.2485 89.9063 36.8049 89.9063C38.3613 89.9063 39.6125 88.6551 39.6125 87.0987C39.6125 85.5422 38.3613 84.291 36.8049 84.291Z" fill="#D1D1D1"/>
<path d="M36.8049 65.5527C35.2485 65.5527 33.9973 66.804 33.9973 68.3604C33.9973 69.9168 35.2485 71.168 36.8049 71.168C38.3613 71.168 39.6125 69.9168 39.6125 68.3604C39.6125 66.804 38.3613 65.5527 36.8049 65.5527Z" fill="#D1D1D1"/>
<path d="M27.4358 74.9219C25.8794 74.9219 24.6282 76.1731 24.6282 77.7295C24.6282 79.2859 25.8794 80.5372 27.4358 80.5372C28.9922 80.5372 30.2434 79.2859 30.2434 77.7295C30.2434 76.1731 28.9922 74.9219 27.4358 74.9219Z" fill="#D1D1D1"/>
<path d="M46.1733 74.9219C44.6169 74.9219 43.3657 76.1731 43.3657 77.7295C43.3657 79.2859 44.6169 80.5372 46.1733 80.5372C47.7297 80.5372 48.9809 79.2859 48.9809 77.7295C48.9809 76.1731 47.7297 74.9219 46.1733 74.9219Z" fill="#D1D1D1"/>
<path d="M27.4358 56.1833C25.8794 56.1833 24.6282 57.4346 24.6282 58.991C24.6282 60.5474 25.8794 61.7986 27.4358 61.7986C28.9922 61.7986 30.2434 60.5474 30.2434 58.991C30.2434 57.4346 28.9922 56.1833 27.4358 56.1833Z" fill="#D1D1D1"/>
<path d="M46.1733 56.1833C44.6169 56.1833 43.3657 57.4346 43.3657 58.991C43.3657 60.5474 44.6169 61.7986 46.1733 61.7986C47.7297 61.7986 48.9809 60.5474 48.9809 58.991C48.9809 57.4346 47.7297 56.1833 46.1733 56.1833Z" fill="#D1D1D1"/>
<path d="M18.0664 84.291C16.51 84.291 15.2588 85.5422 15.2588 87.0987C15.2588 88.6551 16.51 89.9063 18.0664 89.9063C19.6228 89.9063 20.8742 88.6551 20.8742 87.0987C20.8742 85.5422 19.6228 84.291 18.0664 84.291Z" fill="#D1D1D1"/>
<path d="M18.0664 65.5527C16.51 65.5527 15.2588 66.804 15.2588 68.3604C15.2588 69.9168 16.51 71.168 18.0664 71.168C19.6228 71.168 20.8742 69.9168 20.8742 68.3604C20.8742 66.804 19.6228 65.5527 18.0664 65.5527Z" fill="#D1D1D1"/>
<path d="M55.5427 52.4608C57.0991 52.4608 58.3503 51.2096 58.3503 49.6532C58.3503 48.0967 57.0991 46.8455 55.5427 46.8455C53.9863 46.8455 52.7351 48.0967 52.7351 49.6532C52.7351 51.1791 53.9863 52.4608 55.5427 52.4608Z" fill="#D1D1D1"/>
<path d="M36.8049 52.4608C38.3613 52.4608 39.6125 51.2096 39.6125 49.6532C39.6125 48.0967 38.3613 46.8455 36.8049 46.8455C35.2485 46.8455 33.9973 48.0967 33.9973 49.6532C33.9973 51.1791 35.2485 52.4608 36.8049 52.4608Z" fill="#D1D1D1"/>
<path d="M36.8049 103.029C35.2485 103.029 33.9973 104.28 33.9973 105.836C33.9973 107.393 35.2485 108.644 36.8049 108.644C38.3613 108.644 39.6125 107.393 39.6125 105.836C39.6125 104.28 38.3613 103.029 36.8049 103.029Z" fill="#D1D1D1"/>
<path d="M27.4358 112.398C25.8794 112.398 24.6282 113.649 24.6282 115.206C24.6282 116.762 25.8794 118.013 27.4358 118.013C28.9922 118.013 30.2434 116.762 30.2434 115.206C30.2434 113.649 28.9922 112.398 27.4358 112.398Z" fill="#D1D1D1"/>
<path d="M46.1733 112.398C44.6169 112.398 43.3657 113.649 43.3657 115.206C43.3657 116.762 44.6169 118.013 46.1733 118.013C47.7297 118.013 48.9809 116.762 48.9809 115.206C48.9809 113.649 47.7297 112.398 46.1733 112.398Z" fill="#D1D1D1"/>
<path d="M27.4358 93.6597C25.8794 93.6597 24.6282 94.9109 24.6282 96.4673C24.6282 98.0237 25.8794 99.275 27.4358 99.275C28.9922 99.275 30.2434 98.0237 30.2434 96.4673C30.2434 94.9109 28.9922 93.6597 27.4358 93.6597Z" fill="#D1D1D1"/>
<path d="M46.1733 93.6597C44.6169 93.6597 43.3657 94.9109 43.3657 96.4673C43.3657 98.0237 44.6169 99.275 46.1733 99.275C47.7297 99.275 48.9809 98.0237 48.9809 96.4673C48.9809 94.9109 47.7297 93.6597 46.1733 93.6597Z" fill="#D1D1D1"/>
<path d="M20.6915 123.506C20.4168 122.865 19.9285 122.347 19.3181 122.042C19.7454 122.56 20.2032 123.049 20.6915 123.506Z" fill="#D1D1D1"/>
<path d="M20.8742 105.836C20.8742 104.28 19.6228 103.029 18.0664 103.029C16.51 103.029 15.2588 104.28 15.2588 105.836C15.2588 107.393 16.51 108.644 18.0664 108.644C19.6228 108.644 20.8742 107.393 20.8742 105.836Z" fill="#D1D1D1"/>
<path d="M43.3657 133.943C43.3657 135.5 44.6169 136.751 46.1733 136.751C47.7297 136.751 48.9809 135.5 48.9809 133.943C48.9809 132.387 47.7297 131.136 46.1733 131.136C44.6169 131.136 43.3657 132.387 43.3657 133.943Z" fill="#D1D1D1"/>
<path d="M55.5427 127.382C57.0991 127.382 58.3503 126.13 58.3503 124.574C58.3503 123.018 57.0991 121.766 55.5427 121.766C53.9863 121.766 52.7351 123.018 52.7351 124.574C52.7351 126.13 53.9863 127.382 55.5427 127.382Z" fill="#D1D1D1"/>
<path d="M36.8049 127.382C38.3613 127.382 39.6125 126.13 39.6125 124.574C39.6125 123.018 38.3613 121.766 36.8049 121.766C35.2485 121.766 33.9973 123.018 33.9973 124.574C33.9973 126.13 35.2485 127.382 36.8049 127.382Z" fill="#D1D1D1"/>
<path d="M18.0664 33.7223C19.6228 33.7223 20.8742 32.471 20.8742 30.9146C20.8742 29.3582 19.6228 28.1069 18.0664 28.1069C16.51 28.1069 15.2588 29.3582 15.2588 30.9146C15.2588 32.4405 16.51 33.7223 18.0664 33.7223Z" fill="#D1D1D1"/>
<path d="M8.69753 43.0611C10.2539 43.0611 11.5053 41.8099 11.5053 40.2534C11.5053 38.697 10.2539 37.4458 8.69753 37.4458C8.51443 37.4458 8.36189 37.4763 8.17878 37.5068C7.50738 38.8496 6.83595 40.2229 6.22559 41.5962C6.71387 42.4813 7.6294 43.0611 8.69753 43.0611Z" fill="#D1D1D1"/>
<path d="M1.15918 84.9624C1.37281 86.0916 1.58634 87.2207 1.83049 88.3499C2.01359 87.9837 2.13578 87.5564 2.13578 87.0986C2.16629 86.2441 1.76954 85.4812 1.15918 84.9624Z" fill="#D1D1D1"/>
<path d="M2.16684 68.3604C2.16684 67.1091 1.34284 66.0715 0.244196 65.7053C0.091606 67.4754 0 69.2759 0 71.0765C1.22072 70.8018 2.16684 69.7032 2.16684 68.3604Z" fill="#D1D1D1"/>
<path d="M8.69725 80.5372C10.2537 80.5372 11.505 79.2859 11.505 77.7295C11.505 76.1731 10.2537 74.9219 8.69725 74.9219C7.14083 74.9219 5.88965 76.1731 5.88965 77.7295C5.88965 79.2859 7.17135 80.5372 8.69725 80.5372Z" fill="#D1D1D1"/>
<path d="M5.88965 58.991C5.88965 60.5474 7.14083 61.7986 8.69725 61.7986C10.2537 61.7986 11.505 60.5474 11.505 58.991C11.505 57.4346 10.2537 56.1833 8.69725 56.1833C7.17135 56.1833 5.88965 57.4346 5.88965 58.991Z" fill="#D1D1D1"/>
<path d="M18.0664 52.4608C19.6228 52.4608 20.8742 51.2096 20.8742 49.6532C20.8742 48.0967 19.6228 46.8455 18.0664 46.8455C16.51 46.8455 15.2588 48.0967 15.2588 49.6532C15.2588 51.1791 16.51 52.4608 18.0664 52.4608Z" fill="#D1D1D1"/>
<path d="M5.88965 96.4673C5.88965 98.0237 7.14083 99.275 8.69725 99.275C10.2537 99.275 11.505 98.0237 11.505 96.4673C11.505 94.9109 10.2537 93.6597 8.69725 93.6597C7.17135 93.6597 5.88965 94.9109 5.88965 96.4673Z" fill="#D1D1D1"/>
</svg>
