<svg width="64" height="64" viewBox="0 0 64 64" fill="none" xmlns="http://www.w3.org/2000/svg">
<rect width="64" height="64" rx="32" fill="white"/>
<path d="M49.8732 27.2062C49.9586 26.9378 49.7719 26.6903 49.5202 26.6661L46.3172 26.352C45.7587 25.3293 45.2023 24.2997 44.6433 23.279C44.4945 23.1972 44.3342 23.1399 44.1704 23.0954C43.9561 22.9121 43.6327 22.9987 43.5236 23.2477L42.1021 26.5005L38.6169 27.1738C38.2783 27.2387 38.161 27.6658 38.419 27.8948L41.0732 30.2518L40.6367 33.7745C40.6058 34.0235 40.8002 34.2425 41.0504 34.2425C41.2574 34.2425 41.164 34.2188 44.3233 32.3894L47.5384 33.8934C47.8538 34.0395 48.1963 33.7615 48.1224 33.4259L47.4562 30.395C48.2827 29.466 49.1118 28.5221 50 27.6546C49.9577 27.5052 49.9154 27.3556 49.8732 27.2062ZM44.4781 31.5407C44.354 31.4832 44.2088 31.4886 44.0904 31.5592L41.5681 33.0382L41.9278 30.1367C41.9449 30.0009 41.8936 29.8652 41.791 29.774L39.6045 27.8324L42.4754 27.2775C42.6103 27.2514 42.7235 27.1607 42.7784 27.0353L43.9492 24.3559L45.3639 26.9153C45.4302 27.0353 45.5515 27.1151 45.6881 27.1282L48.5977 27.4138L46.6013 29.5497C46.5076 29.6496 46.4691 29.7897 46.4987 29.9238L47.1266 32.7798L44.4781 31.5407Z" fill="black"/>
<path d="M23.9277 47.1022C24.0819 47.3927 24.2774 47.6977 24.4414 47.9932L39.3303 48.0583C39.5069 47.7785 39.696 47.4427 39.8806 47.1268C40.1736 47.0569 40.2596 46.7815 40.1725 46.573C39.8662 45.8379 39.083 44.3806 38.4681 43.6677C37.5248 42.5742 36.6384 41.9129 35.5042 41.4562C35.3415 41.3908 35.1058 41.4555 35.0017 41.611C34.4041 42.5052 33.249 43.1296 32.1927 43.1296C31.1152 43.1296 30.0809 42.578 29.4258 41.6533C29.3301 41.5184 29.1021 41.4435 28.9393 41.504C28.2566 41.7597 27.6599 42.0486 27.2136 42.3391C25.7229 43.3077 24.5813 44.9822 23.661 46.4921C23.5277 46.7116 23.6083 47.0286 23.9277 47.1022ZM27.6683 43.0384C28.0038 42.8201 28.4469 42.6008 28.9538 42.3957C29.7679 43.3797 30.953 43.9636 32.1927 43.9636C33.3961 43.9636 34.6946 43.3128 35.4785 42.3544C37.2248 43.1523 38.2767 44.598 39.1346 46.3151L24.7678 46.2934C25.5635 45.05 26.5145 43.7882 27.6683 43.0384Z" fill="black"/>
<path d="M28.5146 37.1371C28.6293 37.9233 28.871 38.7758 29.3856 39.5156C31.0916 41.9676 34.7227 41.7264 35.5068 37.7804C35.5475 37.6221 35.5833 37.4665 35.6148 37.3118C36.7375 37.0889 36.81 35.5581 36.1848 35.0792C36.9351 32.1882 34.5221 29.7128 31.9419 30.8019C32.0457 30.6042 31.9781 30.3584 31.7827 30.2469C31.5827 30.1323 31.3283 30.2018 31.2134 30.4011C31.148 30.5154 31.0979 30.6362 31.0549 30.7592C30.7139 30.5852 30.3346 30.9165 30.4906 31.286C29.1529 31.3829 27.9831 32.6784 28.2484 34.8541C27.2901 35.1658 27.3454 36.6425 28.5146 37.1371ZM30.0703 39.0389C29.59 38.3489 29.3314 37.445 29.2648 36.2236C30.6459 36.2631 32.5892 35.3847 33.6049 34.1817C33.8222 34.988 34.1863 35.7408 34.8636 36.2247C34.8077 37.0278 34.7193 37.8652 34.3992 38.6149C34.0574 39.4163 33.4548 40.0108 32.7875 40.2046C31.7477 40.5082 30.6325 39.8474 30.0703 39.0389ZM29.056 33.9096C29.1933 32.5086 30.252 31.8567 31.0492 32.1885C31.2137 32.2585 31.4043 32.214 31.5227 32.0804C32.0594 31.474 33.1135 31.2068 33.8704 31.4854C35.2952 32.0092 35.9127 33.8389 35.1832 35.4124C34.58 34.8615 34.3537 33.9177 34.2081 32.9589C34.1405 32.5174 33.5206 32.4807 33.3956 32.9036C33.0076 34.2225 30.5714 35.4888 29.1921 35.3934C29.06 34.8085 29.0141 34.3375 29.056 33.9096Z" fill="black"/>
<path d="M38.0343 19.4352L34.6377 19.1015C33.7831 17.9091 32.9963 16.6479 32.3553 15.3304C32.0975 15.2304 31.8271 15.1687 31.5536 15.1286C31.3436 14.9114 30.9894 14.9809 30.8719 15.2501L29.135 19.2245L24.8761 20.0471C24.5375 20.112 24.4202 20.5391 24.6782 20.7681L27.9215 23.6485L27.3881 27.9536C27.3455 28.2964 27.7165 28.5393 28.0127 28.364L31.7545 26.1694L35.6833 28.0073C35.9979 28.1534 36.3413 27.8761 36.2672 27.5398L35.4529 23.8338C36.4672 22.7625 37.4847 21.6536 38.4984 20.5894C38.4531 20.4073 38.4077 20.2251 38.3624 20.043C38.5006 19.7794 38.3265 19.4633 38.0343 19.4352ZM31.9092 25.3208C31.7852 25.2632 31.6399 25.2687 31.5216 25.3392L28.3195 27.2173L28.7761 23.5334C28.7932 23.3976 28.7419 23.2619 28.6393 23.1707L25.8637 20.7057L29.5083 20.002C29.6432 19.976 29.7564 19.8853 29.8115 19.7593L31.2976 16.3577L33.0934 19.6068C33.1597 19.7267 33.281 19.8066 33.4176 19.8196L37.1121 20.1823L34.5773 22.8943C34.4836 22.9942 34.4451 23.1343 34.4747 23.2684L35.2715 26.8937L31.9092 25.3208Z" fill="black"/>
<path d="M16.3577 33.7747C16.3152 34.1175 16.6861 34.3604 16.9824 34.1851L20.0444 32.3896L23.2595 33.8936C23.5749 34.0397 23.9173 33.7617 23.8434 33.4261L23.2852 30.8862C24.074 29.813 24.9277 28.7021 25.8959 27.8029C25.7641 27.6238 25.6679 27.4223 25.5918 27.2134C25.6833 26.9431 25.4954 26.6908 25.2412 26.6663L22.349 26.3827C21.8113 25.3881 21.3001 24.4126 20.7569 23.4142C20.469 23.2485 20.1559 23.1282 19.8328 23.0511C19.6255 22.9307 19.3453 23.0181 19.2446 23.2479L17.8232 26.5007L14.3379 27.174C13.9993 27.2389 13.8821 27.666 14.14 27.895L16.7943 30.252L16.3577 33.7747ZM15.3256 27.8326L18.1964 27.2777C18.3314 27.2516 18.4446 27.1609 18.4994 27.0355L19.6703 24.3561L21.0849 26.9155C21.1512 27.0355 21.2725 27.1153 21.4091 27.1284L24.3188 27.414L22.3223 29.5499C22.2287 29.6498 22.1901 29.7899 22.2197 29.924L22.8476 32.78L20.1991 31.5409C20.0751 31.4834 19.9298 31.4888 19.8115 31.5594L17.2892 33.0384L17.6489 30.1369C17.666 30.0011 17.6147 29.8654 17.512 29.7742L15.3256 27.8326Z" fill="black"/>
</svg>
