<svg width="64" height="64" viewBox="0 0 64 64" fill="none" xmlns="http://www.w3.org/2000/svg">
<rect width="64" height="64" rx="32" fill="#F4F6F5"/>
<path d="M46.9666 19.9082H18.0334C16.9121 19.9082 16 20.8204 16 21.9416V41.0582C16 42.1795 16.9121 43.0916 18.0334 43.0916H37.15C37.4169 43.0916 37.6334 42.8752 37.6334 42.6082C37.6334 42.3412 37.4169 42.1248 37.15 42.1248H18.0334C17.4452 42.1248 16.9668 41.6464 16.9668 41.0582V21.9416C16.9668 21.3535 17.4452 20.8751 18.0334 20.8751H46.9666C47.5547 20.8751 48.0331 21.3535 48.0331 21.9416V41.0582C48.0331 41.6464 47.5547 42.1248 46.9666 42.1248H43.3499C43.0829 42.1248 42.8665 42.3412 42.8665 42.6082C42.8665 42.8752 43.0829 43.0916 43.3499 43.0916H46.9666C48.0878 43.0916 48.9999 42.1795 48.9999 41.0582V21.9416C49 20.8204 48.0879 19.9082 46.9666 19.9082Z" fill="black"/>
<path d="M40.7333 39.6209V33.8723L43.4862 32.6754C43.8571 32.5141 44.0875 32.1627 44.0875 31.7583C44.0875 31.3538 43.8571 31.0024 43.4862 30.8411L33.5167 26.5066C32.8706 26.2257 32.1294 26.2257 31.4832 26.5066L21.5137 30.8411C21.1428 31.0023 20.9124 31.3537 20.9124 31.7582C20.9124 32.1626 21.1428 32.5141 21.5137 32.6753L24.5572 33.9986C24.8019 34.1051 25.0868 33.9928 25.1933 33.748C25.2997 33.5031 25.1875 33.2184 24.9427 33.112L21.8991 31.7887C21.8893 31.7844 21.8792 31.78 21.8792 31.7581C21.8792 31.7363 21.8893 31.7319 21.8991 31.7276L31.8686 27.3931C32.2698 27.2187 32.73 27.2186 33.1312 27.3931L43.1007 31.7276C43.1105 31.7319 43.1207 31.7363 43.1207 31.7581C43.1207 31.78 43.1105 31.7844 43.1007 31.7887L38.6667 33.7165V32.2748C38.6667 31.6921 38.0502 31.3312 36.6051 31.0685C35.5041 30.8683 34.0462 30.7581 32.5 30.7581C30.9538 30.7581 29.4959 30.8683 28.3948 31.0685C26.9499 31.3312 26.3333 31.692 26.3333 32.2748V36.4082C26.3333 36.9596 26.7819 37.4082 27.3334 37.4082H37.6666C38.2181 37.4082 38.6667 36.9596 38.6667 36.4082V34.7707L39.7665 34.2925V39.6208C39.1666 39.8231 38.7332 40.3908 38.7332 41.0581V42.6081C38.7332 42.8751 38.9496 43.0915 39.2166 43.0915H41.2833C41.5502 43.0915 41.7667 42.8751 41.7667 42.6081V41.0581C41.7666 40.3908 41.3332 39.8232 40.7333 39.6209ZM32.4999 31.7249C35.558 31.7249 37.3212 32.138 37.6998 32.3907V34.3748H27.3V32.3907C27.6786 32.138 29.4418 31.7249 32.4999 31.7249ZM37.6666 36.4414H27.3333C27.3149 36.4414 27.3 36.4265 27.3 36.4082V35.3416H37.6998V36.4082C37.6998 36.4265 37.6849 36.4414 37.6666 36.4414ZM40.7998 42.1248H39.6999V41.0582C39.6999 40.7549 39.9466 40.5083 40.2499 40.5083C40.5532 40.5083 40.7998 40.755 40.7998 41.0582V42.1248Z" fill="black"/>
<path d="M22.65 24.5248C22.65 23.4036 21.7378 22.4915 20.6166 22.4915C19.4954 22.4915 18.5833 23.4036 18.5833 24.5248C18.5833 25.646 19.4954 26.5582 20.6166 26.5582C21.7378 26.5582 22.65 25.646 22.65 24.5248ZM20.6166 25.5915C20.0285 25.5915 19.55 25.113 19.55 24.5249C19.55 23.9368 20.0285 23.4583 20.6166 23.4583C21.2048 23.4583 21.6832 23.9368 21.6832 24.5249C21.6832 25.113 21.2048 25.5915 20.6166 25.5915Z" fill="black"/>
<path d="M24.2334 23.9751H30.4334C30.7004 23.9751 30.9168 23.7587 30.9168 23.4917C30.9168 23.2247 30.7004 23.0083 30.4334 23.0083H24.2334C23.9664 23.0083 23.75 23.2247 23.75 23.4917C23.75 23.7587 23.9664 23.9751 24.2334 23.9751Z" fill="black"/>
<path d="M24.2334 26.0417H27.3334C27.6004 26.0417 27.8168 25.8253 27.8168 25.5583C27.8168 25.2914 27.6004 25.075 27.3334 25.075H24.2334C23.9664 25.075 23.75 25.2914 23.75 25.5583C23.75 25.8253 23.9664 26.0417 24.2334 26.0417Z" fill="black"/>
</svg>
