<svg width="42" height="28" viewBox="0 0 42 28" fill="none" xmlns="http://www.w3.org/2000/svg">
<path d="M27.75 5V23H5.25V5H27.75ZM30 0.5H3C2.40326 0.5 1.83097 0.737053 1.40901 1.15901C0.987053 1.58097 0.75 2.15326 0.75 2.75V25.25C0.75 25.8467 0.987053 26.419 1.40901 26.841C1.83097 27.2629 2.40326 27.5 3 27.5H30C30.5967 27.5 31.169 27.2629 31.591 26.841C32.0129 26.419 32.25 25.8467 32.25 25.25V17.375L41.25 26.375V1.625L32.25 10.625V2.75C32.25 2.15326 32.0129 1.58097 31.591 1.15901C31.169 0.737053 30.5967 0.5 30 0.5Z" fill="#221859"/>
</svg>
