<svg width="138" height="113" viewBox="0 0 138 113" fill="none" xmlns="http://www.w3.org/2000/svg">
<path d="M133.899 87.9703C135.818 87.9703 137.36 89.528 137.36 91.4318C137.36 93.3514 135.818 94.8934 133.899 94.8934C131.995 94.8934 130.437 93.3514 130.437 91.4318C130.437 89.528 131.995 87.9703 133.899 87.9703ZM133.899 70.3793C135.818 70.3793 137.36 71.937 137.36 73.8251C137.36 75.7447 135.818 77.2867 133.899 77.2867C131.995 77.2867 130.437 75.7447 130.437 73.8251C130.437 71.937 131.995 70.3793 133.899 70.3793ZM133.899 52.7884C135.818 52.7884 137.36 54.3147 137.36 56.25C137.36 58.1538 135.818 59.7115 133.899 59.7115C131.995 59.7115 130.437 58.1538 130.437 56.25C130.437 54.3304 131.995 52.7884 133.899 52.7884ZM133.899 35.1975C135.818 35.1975 137.36 36.7395 137.36 38.6591C137.36 40.5629 135.818 42.1206 133.899 42.1206C131.995 42.1206 130.437 40.5629 130.437 38.6591C130.437 36.7395 131.995 35.1975 133.899 35.1975ZM133.899 17.6066C135.818 17.6066 137.36 19.1486 137.36 21.0525C137.36 22.972 135.818 24.5297 133.899 24.5297C131.995 24.5297 130.437 22.9878 130.437 21.0525C130.437 19.1486 131.995 17.6066 133.899 17.6066ZM133.899 0C135.818 0 137.36 1.55766 137.36 3.46151C137.36 5.36536 135.818 6.90732 133.899 6.90732C131.995 6.90732 130.437 5.36536 130.437 3.46151C130.437 1.55766 131.995 0 133.899 0Z" fill="#D1D1D1"/>
<path d="M130.437 109.023C130.437 108.126 130.799 107.229 131.46 106.584C132.089 105.939 132.986 105.561 133.899 105.561C134.795 105.561 135.692 105.939 136.337 106.584C137.628 107.859 137.628 110.187 136.353 111.477C135.692 112.107 134.795 112.5 133.899 112.5C133.002 112.5 132.105 112.123 131.46 111.477C130.799 110.832 130.437 109.935 130.437 109.023Z" fill="#D1D1D1"/>
<path d="M59.9474 87.9703C61.867 87.9703 63.409 89.528 63.409 91.4318C63.409 93.3514 61.867 94.8934 59.9474 94.8934C58.0436 94.8934 56.4858 93.3514 56.4858 91.4318C56.4858 89.528 58.0436 87.9703 59.9474 87.9703ZM59.9474 70.3793C61.867 70.3793 63.409 71.937 63.409 73.8251C63.409 75.7447 61.867 77.2867 59.9474 77.2867C58.0436 77.2867 56.4858 75.7447 56.4858 73.8251C56.4858 71.937 58.0436 70.3793 59.9474 70.3793ZM59.9474 52.7884C61.867 52.7884 63.409 54.3147 63.409 56.25C63.409 58.1538 61.867 59.7115 59.9474 59.7115C58.0436 59.7115 56.4858 58.1538 56.4858 56.25C56.4858 54.3304 58.0436 52.7884 59.9474 52.7884ZM59.9474 35.1975C61.867 35.1975 63.409 36.7395 63.409 38.6591C63.409 40.5629 61.867 42.1206 59.9474 42.1206C58.0436 42.1206 56.4858 40.5629 56.4858 38.6591C56.4858 36.7395 58.0436 35.1975 59.9474 35.1975ZM59.9474 17.6066C61.867 17.6066 63.409 19.1486 63.409 21.0525C63.409 22.972 61.867 24.5297 59.9474 24.5297C58.0436 24.5297 56.4858 22.9878 56.4858 21.0525C56.4858 19.1486 58.0436 17.6066 59.9474 17.6066ZM59.9474 0C61.867 0 63.409 1.55766 63.409 3.46151C63.409 5.36536 61.867 6.90732 59.9474 6.90732C58.0436 6.90732 56.4858 5.36536 56.4858 3.46151C56.4858 1.55766 58.0436 0 59.9474 0Z" fill="#D1D1D1"/>
<path d="M56.4858 109.023C56.4858 108.126 56.8478 107.229 57.5086 106.584C58.138 105.939 59.0348 105.561 59.9474 105.561C60.8443 105.561 61.7411 105.939 62.3862 106.584C63.6764 107.859 63.6764 110.187 62.4019 111.477C61.7411 112.107 60.8443 112.5 59.9474 112.5C59.0505 112.5 58.1537 112.123 57.5086 111.477C56.8478 110.832 56.4858 109.935 56.4858 109.023Z" fill="#D1D1D1"/>
<path d="M114.876 87.9703C116.796 87.9703 118.338 89.528 118.338 91.4318C118.338 93.3514 116.796 94.8934 114.876 94.8934C112.972 94.8934 111.415 93.3514 111.415 91.4318C111.415 89.528 112.972 87.9703 114.876 87.9703ZM114.876 70.3793C116.796 70.3793 118.338 71.937 118.338 73.8251C118.338 75.729 116.796 77.2867 114.876 77.2867C112.972 77.2867 111.415 75.729 111.415 73.8251C111.415 71.937 112.972 70.3793 114.876 70.3793ZM114.876 52.7884C116.796 52.7884 118.338 54.3147 118.338 56.25C118.338 58.1538 116.796 59.7115 114.876 59.7115C112.972 59.7115 111.415 58.1538 111.415 56.25C111.415 54.3304 112.972 52.7884 114.876 52.7884ZM114.876 35.1975C116.796 35.1975 118.338 36.7395 118.338 38.6591C118.338 40.5629 116.796 42.1206 114.876 42.1206C112.972 42.1206 111.415 40.5629 111.415 38.6591C111.415 36.7395 112.972 35.1975 114.876 35.1975ZM114.876 17.6066C116.796 17.6066 118.338 19.1486 118.338 21.0525C118.338 22.972 116.796 24.514 114.876 24.514C112.972 24.514 111.415 22.9878 111.415 21.0525C111.415 19.1486 112.972 17.6066 114.876 17.6066ZM114.876 0C116.796 0 118.338 1.55766 118.338 3.46151C118.338 5.36536 116.796 6.90732 114.876 6.90732C112.972 6.90732 111.415 5.36536 111.415 3.46151C111.415 1.55766 112.972 0 114.876 0Z" fill="#D1D1D1"/>
<path d="M111.415 109.023C111.415 108.126 111.792 107.229 112.437 106.584C113.082 105.939 113.979 105.561 114.876 105.561C115.789 105.561 116.67 105.955 117.331 106.584C118.605 107.89 118.605 110.171 117.331 111.477C116.67 112.107 115.789 112.484 114.876 112.484C113.979 112.484 113.082 112.107 112.437 111.477C111.792 110.832 111.415 109.935 111.415 109.023Z" fill="#D1D1D1"/>
<path d="M40.9249 87.9703C42.8445 87.9703 44.3864 89.528 44.3864 91.4318C44.3864 93.3514 42.8445 94.8934 40.9249 94.8934C39.0211 94.8934 37.4634 93.3514 37.4634 91.4318C37.4634 89.528 39.0211 87.9703 40.9249 87.9703ZM40.9249 70.3793C42.8445 70.3793 44.3864 71.937 44.3864 73.8251C44.3864 75.729 42.8445 77.2867 40.9249 77.2867C39.0211 77.2867 37.4634 75.729 37.4634 73.8251C37.4634 71.937 39.0211 70.3793 40.9249 70.3793ZM40.9249 52.7884C42.8445 52.7884 44.3864 54.3147 44.3864 56.25C44.3864 58.1538 42.8445 59.7115 40.9249 59.7115C39.0211 59.7115 37.4634 58.1538 37.4634 56.25C37.4634 54.3304 39.0211 52.7884 40.9249 52.7884ZM40.9249 35.1975C42.8445 35.1975 44.3864 36.7395 44.3864 38.6591C44.3864 40.5629 42.8445 42.1206 40.9249 42.1206C39.0211 42.1206 37.4634 40.5629 37.4634 38.6591C37.4634 36.7395 39.0211 35.1975 40.9249 35.1975ZM40.9249 17.6066C42.8445 17.6066 44.3864 19.1486 44.3864 21.0525C44.3864 22.972 42.8445 24.514 40.9249 24.514C39.0211 24.514 37.4634 22.9878 37.4634 21.0525C37.4634 19.1486 39.0211 17.6066 40.9249 17.6066ZM40.9249 0C42.8445 0 44.3864 1.55766 44.3864 3.46151C44.3864 5.36536 42.8445 6.90732 40.9249 6.90732C39.0211 6.90732 37.4634 5.36536 37.4634 3.46151C37.4634 1.55766 39.0211 0 40.9249 0Z" fill="#D1D1D1"/>
<path d="M37.4634 109.023C37.4634 108.126 37.8409 107.229 38.486 106.584C39.1312 105.939 40.0281 105.561 40.9249 105.561C41.8375 105.561 42.7186 105.955 43.3795 106.584C44.654 107.89 44.654 110.171 43.3795 111.477C42.7186 112.107 41.8375 112.484 40.9249 112.484C40.0281 112.484 39.1312 112.107 38.486 111.477C37.8409 110.832 37.4634 109.935 37.4634 109.023Z" fill="#D1D1D1"/>
<path d="M96.4513 87.9703C98.3552 87.9703 99.9129 89.528 99.9129 91.4318C99.9129 93.3514 98.3552 94.8934 96.4513 94.8934C94.5317 94.8934 92.9897 93.3514 92.9897 91.4318C92.9897 89.528 94.5317 87.9703 96.4513 87.9703ZM96.4513 70.3793C98.3552 70.3793 99.9129 71.937 99.9129 73.8251C99.9129 75.729 98.3552 77.2867 96.4513 77.2867C94.5317 77.2867 92.9897 75.729 92.9897 73.8251C92.9897 71.937 94.5317 70.3793 96.4513 70.3793ZM96.4513 52.7884C98.3552 52.7884 99.9129 54.3147 99.9129 56.25C99.9129 58.1538 98.3552 59.7115 96.4513 59.7115C94.5317 59.7115 92.9897 58.1538 92.9897 56.25C92.9897 54.3304 94.5317 52.7884 96.4513 52.7884ZM96.4513 35.1975C98.3552 35.1975 99.9129 36.7395 99.9129 38.6591C99.9129 40.5629 98.3552 42.1206 96.4513 42.1206C94.5317 42.1206 92.9897 40.5629 92.9897 38.6591C92.9897 36.7395 94.5317 35.1975 96.4513 35.1975ZM96.4513 17.5909C98.3552 17.5909 99.9129 19.1486 99.9129 21.0525C99.9129 22.972 98.3552 24.514 96.4513 24.514C94.5317 24.514 92.9897 22.9878 92.9897 21.0525C92.9897 19.1486 94.5317 17.5909 96.4513 17.5909ZM96.4513 0C98.3552 0 99.9129 1.55766 99.9129 3.46151C99.9129 5.36536 98.3552 6.90732 96.4513 6.90732C94.5317 6.90732 92.9897 5.36536 92.9897 3.46151C92.9897 1.55766 94.5317 0 96.4513 0Z" fill="#D1D1D1"/>
<path d="M92.9897 109.023C92.9897 108.126 93.3517 107.229 93.9968 106.584C94.6576 105.939 95.5387 105.561 96.4513 105.561C97.3482 105.561 98.245 105.955 98.8901 106.584C100.165 107.89 100.165 110.171 98.8901 111.477C98.245 112.107 97.3482 112.469 96.4513 112.469C95.5387 112.469 94.6419 112.107 93.9968 111.477C93.3517 110.817 92.9897 109.935 92.9897 109.023Z" fill="#D1D1D1"/>
<path d="M22.5001 87.9703C24.404 87.9703 25.9617 89.528 25.9617 91.4318C25.9617 93.3514 24.404 94.8934 22.5001 94.8934C20.5806 94.8934 19.0386 93.3514 19.0386 91.4318C19.0386 89.528 20.5806 87.9703 22.5001 87.9703ZM22.5001 70.3793C24.404 70.3793 25.9617 71.937 25.9617 73.8251C25.9617 75.729 24.404 77.2867 22.5001 77.2867C20.5806 77.2867 19.0386 75.729 19.0386 73.8251C19.0386 71.937 20.5806 70.3793 22.5001 70.3793ZM22.5001 52.7884C24.404 52.7884 25.9617 54.3147 25.9617 56.25C25.9617 58.1538 24.404 59.7115 22.5001 59.7115C20.5806 59.7115 19.0386 58.1538 19.0386 56.25C19.0386 54.3304 20.5806 52.7884 22.5001 52.7884ZM22.5001 35.1975C24.404 35.1975 25.9617 36.7395 25.9617 38.6591C25.9617 40.5629 24.404 42.1206 22.5001 42.1206C20.5806 42.1206 19.0386 40.5629 19.0386 38.6591C19.0386 36.7395 20.5806 35.1975 22.5001 35.1975ZM22.5001 17.5909C24.404 17.5909 25.9617 19.1486 25.9617 21.0525C25.9617 22.972 24.404 24.514 22.5001 24.514C20.5806 24.514 19.0386 22.9878 19.0386 21.0525C19.0386 19.1486 20.5806 17.5909 22.5001 17.5909ZM22.5001 0C24.404 0 25.9617 1.55766 25.9617 3.46151C25.9617 5.36536 24.404 6.90732 22.5001 6.90732C20.5806 6.90732 19.0386 5.36536 19.0386 3.46151C19.0386 1.55766 20.5806 0 22.5001 0Z" fill="#D1D1D1"/>
<path d="M19.0386 109.023C19.0386 108.126 19.4005 107.229 20.0456 106.584C20.7064 105.939 21.5875 105.561 22.5001 105.561C23.397 105.561 24.2938 105.955 24.9389 106.584C26.2134 107.89 26.2134 110.171 24.9389 111.477C24.2938 112.107 23.397 112.469 22.5001 112.469C21.5875 112.469 20.6907 112.107 20.0456 111.477C19.4005 110.817 19.0386 109.935 19.0386 109.023Z" fill="#D1D1D1"/>
<path d="M77.4126 87.9703C79.3322 87.9703 80.8742 89.528 80.8742 91.4318C80.8742 93.3514 79.3479 94.8934 77.4126 94.8934C75.5088 94.8934 73.9512 93.3514 73.9512 91.4318C73.9669 89.528 75.5245 87.9703 77.4126 87.9703ZM77.4126 70.3793C79.3322 70.3793 80.8742 71.9213 80.8742 73.8251C80.8742 75.729 79.3479 77.2867 77.4126 77.2867C75.5088 77.2867 73.9512 75.729 73.9512 73.8251C73.9669 71.9213 75.5245 70.3793 77.4126 70.3793ZM77.4126 52.7884C79.3322 52.7884 80.8742 54.3147 80.8742 56.25C80.8742 58.1538 79.3479 59.7115 77.4126 59.7115C75.5088 59.7115 73.9512 58.1538 73.9512 56.25C73.9669 54.3304 75.5245 52.7884 77.4126 52.7884ZM77.4126 35.1975C79.3322 35.1975 80.8742 36.7395 80.8742 38.6591C80.8742 40.5629 79.3479 42.1206 77.4126 42.1206C75.5088 42.1206 73.9512 40.5629 73.9512 38.6591C73.9669 36.7395 75.5245 35.1975 77.4126 35.1975ZM77.4126 17.5909C79.3322 17.5909 80.8742 19.1486 80.8742 21.0525C80.8742 22.972 79.3479 24.5297 77.4126 24.5297C75.5088 24.5297 73.9512 22.9878 73.9512 21.0525C73.9669 19.1486 75.5245 17.5909 77.4126 17.5909ZM77.4126 0C79.3322 0 80.8742 1.55766 80.8742 3.46151C80.8742 5.36536 79.3479 6.90732 77.4126 6.90732C75.5088 6.90732 73.9512 5.36536 73.9512 3.46151C73.9669 1.55766 75.5245 0 77.4126 0Z" fill="#D1D1D1"/>
<path d="M73.9668 109.023C73.9668 108.126 74.3286 107.229 74.9737 106.584C75.6346 105.939 76.5314 105.561 77.4283 105.561C78.3408 105.561 79.222 105.955 79.8671 106.584C81.1731 107.89 81.173 110.171 79.8828 111.477C79.222 112.107 78.3251 112.484 77.4283 112.484C76.5314 112.484 75.6346 112.107 74.9895 111.477C74.3286 110.817 73.9668 109.935 73.9668 109.023Z" fill="#D1D1D1"/>
<path d="M3.46146 87.9703C5.38104 87.9703 6.92302 89.528 6.92302 91.4318C6.92302 93.3514 5.39678 94.8934 3.46146 94.8934C1.55762 94.8934 0 93.3514 0 91.4318C0.0157343 89.528 1.57335 87.9703 3.46146 87.9703ZM3.46146 70.3793C5.38104 70.3793 6.92302 71.9213 6.92302 73.8251C6.92302 75.729 5.39678 77.2867 3.46146 77.2867C1.55762 77.2867 0 75.729 0 73.8251C0.0157343 71.9213 1.57335 70.3793 3.46146 70.3793ZM3.46146 52.7884C5.38104 52.7884 6.92302 54.3147 6.92302 56.25C6.92302 58.1538 5.39678 59.7115 3.46146 59.7115C1.55762 59.7115 0 58.1538 0 56.25C0.0157343 54.3304 1.57335 52.7884 3.46146 52.7884ZM3.46146 35.1975C5.38104 35.1975 6.92302 36.7395 6.92302 38.6591C6.92302 40.5629 5.39678 42.1206 3.46146 42.1206C1.55762 42.1206 0 40.5629 0 38.6591C0.0157343 36.7395 1.57335 35.1975 3.46146 35.1975ZM3.46146 17.5909C5.38104 17.5909 6.92302 19.1486 6.92302 21.0525C6.92302 22.972 5.39678 24.5297 3.46146 24.5297C1.55762 24.5297 0 22.9878 0 21.0525C0.0157343 19.1486 1.57335 17.5909 3.46146 17.5909ZM3.46146 0C5.38104 0 6.92302 1.55766 6.92302 3.46151C6.92302 5.36536 5.39678 6.90732 3.46146 6.90732C1.55762 6.90732 0 5.36536 0 3.46151C0.0157343 1.55766 1.57335 0 3.46146 0Z" fill="#D1D1D1"/>
<path d="M0.015625 109.023C0.015625 108.126 0.37744 107.229 1.02255 106.584C1.68338 105.939 2.58023 105.561 3.47709 105.561C4.38967 105.561 5.27087 105.955 5.91597 106.584C7.22192 107.89 7.22184 110.171 5.93163 111.477C5.27079 112.107 4.37394 112.484 3.47709 112.484C2.58023 112.484 1.6834 112.107 1.03829 111.477C0.377456 110.817 0.015625 109.935 0.015625 109.023Z" fill="#D1D1D1"/>
</svg>
