<svg width="123" height="107" viewBox="0 0 123 107" fill="none" xmlns="http://www.w3.org/2000/svg">
<path fill-rule="evenodd" clip-rule="evenodd" d="M47.7661 60.2509C45.6393 60.435 43.0797 61.0059 41.3028 62.2488C43.2823 63.7588 45.9984 64.3664 48.4474 64.1086C48.4566 64.1086 48.4751 64.1086 48.4843 64.1086C50.694 63.7772 52.3788 63.0682 53.9072 61.411C54.4504 61.5859 55.0028 61.7516 55.5553 61.8989C62.3224 63.6943 66.3367 63.5562 68.9423 71.7044C69.6605 70.7377 70.4154 69.9643 71.2257 69.3751C67.0457 61.5675 62.5342 62.6447 55.767 60.9138C55.2422 60.7757 54.7174 60.6376 54.1926 60.4718C53.9348 58.4647 53.2811 56.8535 52.2868 55.1041L52.2684 55.0765C51.3292 53.5389 49.9942 51.9093 48.3277 51.1267C47.7477 53.1891 48.1436 55.408 49.23 57.2402C49.6536 57.9307 50.0587 58.4463 50.6387 59.0171C50.6755 59.0724 50.9149 59.2749 50.9794 59.3394L50.5743 59.1737C49.7272 58.8146 48.917 58.4463 48.0976 58.032C48.1988 56.2366 47.7569 54.2571 47.094 52.5998C46.4587 50.9886 45.4551 49.2577 44.0004 48.2633C43.1442 50.1139 43.1718 52.2592 43.8992 54.1466C44.2122 54.966 44.6541 55.7394 45.2158 56.4207C44.2674 55.8315 43.3467 55.2054 42.4536 54.5425C42.8588 52.876 42.7575 50.9518 42.4076 49.2853C42.2787 48.6868 42.1222 48.1436 41.9196 47.5636C41.4869 46.4311 41.0266 45.5657 40.1611 44.7094C39.0747 46.3206 38.78 48.337 39.1667 50.2244C39.1667 50.2428 39.1852 50.2889 39.1852 50.2981C39.3785 51.1543 39.6271 51.8172 40.0598 52.5814C39.4982 52.0842 38.9642 51.5871 38.4302 51.053C38.1263 50.7492 37.8225 50.4454 37.5279 50.1323C38.1816 48.6408 38.4026 46.8178 38.3197 45.1974C38.246 43.6138 37.8685 41.8184 36.9018 40.5294C35.6496 41.8828 35.0696 43.7334 35.1341 45.5656C35.1617 46.3759 35.3182 47.1861 35.6036 47.9503C34.821 46.9835 34.0845 45.98 33.4031 44.9488C34.2594 43.6506 34.7566 41.9841 34.9315 40.4465C35.0604 39.222 35.0512 38.2184 34.7658 37.0215C34.6553 36.5888 34.5264 36.2481 34.3238 35.8522C33.5504 36.4691 33.0625 37.0676 32.5929 37.9422C32.2062 38.734 32.0129 39.3969 31.8932 40.2716C31.7919 41.0542 31.8195 41.846 31.9668 42.6194C31.3223 41.4685 30.7331 40.29 30.2175 39.0839C30.2543 39.0471 30.3924 38.909 30.4108 38.8721C31.3868 37.7397 31.9392 36.6164 32.3904 35.1985C32.8047 33.8267 32.998 32.2154 32.5377 30.8344C31.1014 31.617 30.0794 33.0257 29.6098 34.5724C29.3889 35.2814 29.2784 36.0179 29.2968 36.7637C28.8456 35.4839 28.459 34.1857 28.1367 32.8691C29.26 32.0497 30.1715 30.7976 30.7699 29.5546C31.3684 28.3024 31.7827 26.7925 31.5709 25.4022C30.1162 25.9362 28.9561 27.1239 28.284 28.505C27.971 29.1495 27.75 29.8492 27.6579 30.5674C27.4093 29.1311 27.2344 27.6856 27.1515 26.2309C28.2104 25.6784 28.9285 25.0063 29.6835 24.0856C29.84 23.8923 29.9781 23.6989 30.1162 23.4964C30.8528 22.4099 31.4973 21.0381 31.5157 19.7031C30.0794 19.9701 28.8364 20.9092 27.9986 22.0877C27.5935 22.6677 27.2712 23.3122 27.0779 23.9936C27.0779 22.4376 27.1608 20.8816 27.3449 19.344C28.5234 19.0033 29.6559 18.2115 30.5121 17.3553C31.3592 16.5082 32.151 15.3758 32.3627 14.1696C31.0185 14.1881 29.7387 14.8325 28.7904 15.7625C28.3208 16.2228 27.9249 16.766 27.6303 17.3553C27.8973 15.7993 28.2656 14.2709 28.7167 12.761C29.84 12.6597 31.0001 12.1349 31.9208 11.4996C32.8231 10.8735 33.7162 9.97123 34.0845 8.91242C32.8599 8.73748 31.5986 9.10576 30.595 9.79629C30.0886 10.1462 29.6282 10.5789 29.2692 11.0761C29.8124 9.55691 30.4477 8.07458 31.1658 6.63828C32.2062 6.73035 33.3387 6.45414 34.2686 6.0122C35.1893 5.57947 36.1192 4.89815 36.6164 3.99586C35.5392 3.6552 34.3422 3.81172 33.3295 4.28127C32.5469 4.64035 31.8379 5.20198 31.3592 5.92013C31.6906 5.11912 31.8287 4.20762 31.8195 3.34216C31.8103 2.2189 31.5525 0.939118 30.9172 0C30.1346 0.920704 29.7756 2.20969 29.794 3.3974C29.8124 4.49304 30.1438 5.64392 30.8712 6.48176C30.1254 7.92726 29.4717 9.4188 28.9101 10.9472C28.9561 10.3211 28.9101 9.6766 28.8088 9.05973C28.6063 7.85361 28.1183 6.50017 27.2712 5.59788C26.5715 6.73955 26.4058 8.21268 26.636 9.51087C26.8477 10.6894 27.4001 11.8679 28.3393 12.6505C27.8605 14.1696 27.483 15.7164 27.1976 17.2816C27.1239 16.6095 26.9766 15.9466 26.7556 15.3021C26.3321 14.0407 25.5771 12.6597 24.5183 11.8218C23.9659 13.1937 24.0396 14.8325 24.5183 16.2136C24.9419 17.4473 25.7521 18.6258 26.8938 19.298C26.6912 20.8632 26.5899 22.4284 26.5807 24.0028C26.3782 23.303 26.1019 22.6217 25.7705 21.9772C25.0984 20.6974 24.058 19.3164 22.7782 18.589C22.4283 20.1818 22.7966 21.968 23.5608 23.3951C23.6897 23.6437 23.8278 23.8647 23.9843 24.0948C24.7209 25.1076 25.4667 25.7981 26.636 26.2677C26.7096 27.7408 26.8661 29.2139 27.1055 30.6687C26.7741 30.0057 26.3597 29.3797 25.9086 28.7904C24.9695 27.5751 23.616 26.3045 22.1521 25.7613C22.0601 27.5014 22.7506 29.2968 23.8278 30.6502C24.7669 31.8103 26.0835 32.7494 27.5659 33.0165C27.8697 34.3607 28.2564 35.6865 28.7075 36.9847C28.2472 36.377 27.7224 35.8154 27.1515 35.309C25.9454 34.2226 24.3066 33.1638 22.6861 32.8599C22.8887 34.6737 23.9199 36.4138 25.2825 37.6016C26.5255 38.6327 27.6948 39.2128 29.3152 39.3509C29.352 39.3601 29.5546 39.3601 29.6098 39.3601C30.1346 40.5938 30.7147 41.8 31.3592 42.9785C30.7699 42.4168 30.1254 41.9197 29.4441 41.4777C28.6799 40.9897 27.9802 40.6123 27.1423 40.2716C26.1848 39.9125 25.3654 39.7008 24.3342 39.6639C24.4999 40.2256 24.6933 40.6767 24.9787 41.1923C25.7613 42.5365 26.6267 43.4112 27.9249 44.2583C29.352 45.1513 31.1106 45.6669 32.7955 45.3815C33.486 46.4403 34.2226 47.4715 35.0052 48.4659C34.3054 48.0055 33.5504 47.6096 32.7771 47.2782C31.0922 46.5508 28.9469 45.9892 27.1055 46.2378C27.9894 48.1344 29.7479 49.6444 31.6722 50.427C33.3203 51.0991 35.2353 51.3108 36.9386 50.7216C37.2425 51.0438 37.5371 51.3569 37.8501 51.6699C38.3933 52.2131 38.9366 52.7287 39.4982 53.2443C38.688 52.8945 37.9422 52.6551 37.0859 52.4341C37.0767 52.4341 37.0215 52.4157 37.0031 52.4157C35.1248 51.9553 32.7955 51.7344 30.9264 52.3052C31.8656 53.631 32.8967 54.4412 34.3515 55.1686C35.0512 55.5 35.6589 55.7118 36.4138 55.8867C38.246 56.3011 40.2716 56.1906 41.9381 55.2607C42.8496 55.9512 43.7795 56.6049 44.7462 57.2126C43.8623 56.9916 42.9508 56.8535 42.0393 56.789C40.0138 56.6325 37.5463 56.789 35.6957 57.7005C37.3069 59.4038 39.7284 60.3706 42.0485 60.5087C44.0281 60.6284 46.1181 60.1496 47.6925 58.8974C48.5303 59.3302 49.3589 59.7169 50.2244 60.0944L50.6387 60.2693C50.4822 60.2601 50.3165 60.2509 50.1599 60.2509C49.3313 60.1588 48.5763 60.1772 47.7661 60.2509Z" fill="#B01C1D"/>
<path fill-rule="evenodd" clip-rule="evenodd" d="M75.0651 60.2509C77.192 60.435 79.7515 61.0059 81.5285 62.2488C79.549 63.7588 76.8329 64.3664 74.3838 64.1086C74.3746 64.1086 74.3562 64.1086 74.347 64.1086C72.1373 63.7772 70.4524 63.0682 68.924 61.411C68.3808 61.5859 67.8284 61.7516 67.276 61.8989C60.5088 63.6943 56.4945 63.5562 53.8889 71.7044C53.1708 70.7377 52.4158 69.9643 51.6056 69.3751C55.7856 61.5675 60.297 62.6447 67.0642 60.9138C67.589 60.7757 68.1138 60.6376 68.6386 60.4718C68.8964 58.4647 69.5501 56.8535 70.5445 55.1041L70.5629 55.0765C71.502 53.5389 72.837 51.9093 74.5035 51.1267C75.0835 53.1891 74.6876 55.408 73.6012 57.2402C73.1777 57.9307 72.7726 58.4463 72.1925 59.0171C72.1557 59.0724 71.9163 59.2749 71.8519 59.3394L72.257 59.1737C73.104 58.8146 73.9142 58.4463 74.7337 58.032C74.6324 56.2366 75.0743 54.2571 75.7372 52.5998C76.3725 50.9886 77.3761 49.2577 78.8308 48.2633C79.6871 50.1139 79.6594 52.2592 78.9321 54.1466C78.619 54.966 78.1771 55.7394 77.6155 56.4207C78.5638 55.8315 79.4845 55.2054 80.3776 54.5425C79.9725 52.876 80.0738 50.9518 80.4236 49.2853C80.5525 48.6868 80.709 48.1436 80.9116 47.5636C81.3443 46.4311 81.8047 45.5657 82.6701 44.7094C83.7566 46.3206 84.0512 48.337 83.6645 50.2244C83.6645 50.2428 83.6461 50.2889 83.6461 50.2981C83.4527 51.1543 83.2042 51.8172 82.7714 52.5814C83.3331 52.0842 83.8671 51.5871 84.4011 51.053C84.7049 50.7492 85.0087 50.4454 85.3034 50.1323C84.6497 48.6408 84.4287 46.8178 84.5115 45.1974C84.5852 43.6138 84.9627 41.8184 85.9294 40.5294C87.1816 41.8828 87.7616 43.7334 87.6972 45.5656C87.6696 46.3759 87.513 47.1861 87.2276 47.9503C88.0102 46.9835 88.7468 45.98 89.4281 44.9488C88.5719 43.6506 88.0747 41.9841 87.8997 40.4465C87.7708 39.222 87.7801 38.2184 88.0655 37.0215C88.176 36.5888 88.3049 36.2481 88.5074 35.8522C89.2808 36.4691 89.7688 37.0676 90.2383 37.9422C90.625 38.734 90.8184 39.3969 90.9381 40.2716C91.0393 41.0542 91.0117 41.846 90.8644 42.6194C91.5089 41.4685 92.0981 40.29 92.6137 39.0839C92.5769 39.0471 92.4388 38.909 92.4204 38.8721C91.4445 37.7397 90.892 36.6164 90.4409 35.1985C90.0266 33.8267 89.8332 32.2154 90.2936 30.8344C91.7299 31.617 92.7519 33.0257 93.2214 34.5724C93.4424 35.2814 93.5529 36.0179 93.5344 36.7637C93.9856 35.4839 94.3723 34.1857 94.6945 32.8691C93.5713 32.0497 92.6598 30.7976 92.0613 29.5546C91.4629 28.3024 91.0485 26.7925 91.2603 25.4022C92.715 25.9362 93.8751 27.1239 94.5472 28.505C94.8603 29.1495 95.0812 29.8492 95.1733 30.5674C95.4219 29.1311 95.5968 27.6856 95.6797 26.2309C94.6209 25.6784 93.9027 25.0063 93.1478 24.0856C92.9912 23.8923 92.8531 23.6989 92.715 23.4964C91.9785 22.4099 91.334 21.0381 91.3156 19.7031C92.7519 19.9701 93.9948 20.9092 94.8326 22.0877C95.2378 22.6677 95.56 23.3122 95.7533 23.9936C95.7533 22.4376 95.6705 20.8816 95.4863 19.344C94.3078 19.0033 93.1754 18.2115 92.3191 17.3553C91.4721 16.5082 90.6803 15.3758 90.4685 14.1696C91.8127 14.1881 93.0925 14.8325 94.0408 15.7625C94.5104 16.2228 94.9063 16.766 95.2009 17.3553C94.9339 15.7993 94.5748 14.2709 94.1145 12.761C92.9912 12.6597 91.8311 12.1349 90.9104 11.4996C90.0082 10.8735 89.1151 9.97123 88.7468 8.91242C89.9713 8.73748 91.2327 9.10576 92.2363 9.79629C92.7426 10.1462 93.203 10.5789 93.5621 11.0761C93.0189 9.55691 92.3836 8.07458 91.6654 6.63828C90.625 6.73035 89.4926 6.45414 88.5626 6.0122C87.6419 5.57947 86.712 4.89815 86.2149 3.99586C87.2921 3.6552 88.489 3.81172 89.5018 4.28127C90.2844 4.64035 90.9933 5.20198 91.4721 5.92013C91.1406 5.11912 91.0025 4.20762 91.0117 3.34216C91.0209 2.2189 91.2787 0.939118 91.914 0C92.6966 0.920704 93.0557 2.20969 93.0373 3.3974C93.0189 4.49304 92.6874 5.64392 91.96 6.48176C92.7058 7.92726 93.3595 9.4188 93.9211 10.9472C93.8751 10.3211 93.9211 9.6766 94.0224 9.05973C94.225 7.85361 94.713 6.50017 95.56 5.59788C96.2597 6.73955 96.4255 8.21268 96.1953 9.51087C95.9835 10.6894 95.4311 11.8679 94.492 12.6505C94.9707 14.1696 95.3482 15.7164 95.6337 17.2816C95.7073 16.6095 95.8546 15.9466 96.0756 15.3021C96.4991 14.0407 97.2541 12.6597 98.3129 11.8218C98.8653 13.1937 98.7917 14.8325 98.3129 16.2136C97.8894 17.4473 97.0792 18.6258 95.9375 19.298C96.14 20.8632 96.2413 22.4284 96.2505 24.0028C96.4531 23.303 96.7293 22.6217 97.0607 21.9772C97.7329 20.6974 98.7733 19.3164 100.053 18.589C100.403 20.1818 100.035 21.968 99.2704 23.3951C99.1415 23.6437 99.0034 23.8647 98.8469 24.0948C98.1103 25.1076 97.3646 25.7981 96.1953 26.2677C96.1216 27.7408 95.9651 29.2139 95.7257 30.6687C96.0572 30.0057 96.4715 29.3797 96.9226 28.7904C97.8618 27.5751 99.2152 26.3045 100.679 25.7613C100.771 27.5014 100.081 29.2968 99.0034 30.6502C98.0643 31.8103 96.7477 32.7494 95.2654 33.0165C94.9615 34.3607 94.5748 35.6865 94.1237 36.9847C94.584 36.377 95.1089 35.8154 95.6797 35.309C96.8858 34.2226 98.5247 33.1638 100.145 32.8599C99.9425 34.6737 98.9114 36.4138 97.5487 37.6016C96.3058 38.6327 95.1365 39.2128 93.516 39.3509C93.4792 39.3601 93.2767 39.3601 93.2214 39.3601C92.6966 40.5938 92.1166 41.8 91.4721 42.9785C92.0613 42.4168 92.7058 41.9197 93.3871 41.4777C94.1513 40.9897 94.8511 40.6123 95.6889 40.2716C96.6464 39.9125 97.4659 39.7008 98.497 39.6639C98.3313 40.2256 98.138 40.6767 97.8525 41.1923C97.0699 42.5365 96.2045 43.4112 94.9063 44.2583C93.4792 45.1513 91.7207 45.6669 90.0358 45.3815C89.3452 46.4403 88.6087 47.4715 87.8261 48.4659C88.5258 48.0055 89.2808 47.6096 90.0542 47.2782C91.7391 46.5508 93.8843 45.9892 95.7257 46.2378C94.8418 48.1344 93.0833 49.6444 91.159 50.427C89.511 51.0991 87.5959 51.3108 85.8926 50.7216C85.5888 51.0438 85.2942 51.3569 84.9811 51.6699C84.4379 52.2131 83.8947 52.7287 83.333 53.2443C84.1433 52.8945 84.889 52.6551 85.7453 52.4341C85.7545 52.4341 85.8097 52.4157 85.8282 52.4157C87.7064 51.9553 90.0358 51.7344 91.9048 52.3052C90.9657 53.631 89.9345 54.4412 88.4798 55.1686C87.7801 55.5 87.1724 55.7118 86.4174 55.8867C84.5852 56.3011 82.5597 56.1906 80.8932 55.2607C79.9817 55.9512 79.0518 56.6049 78.085 57.2126C78.9689 56.9916 79.8804 56.8535 80.7919 56.789C82.8175 56.6325 85.2849 56.789 87.1356 57.7005C85.5243 59.4038 83.1029 60.3706 80.7827 60.5087C78.8032 60.6284 76.7132 60.1496 75.1388 58.8974C74.3009 59.3302 73.4723 59.7169 72.6068 60.0944L72.1925 60.2693C72.3491 60.2601 72.5148 60.2509 72.6713 60.2509C73.4999 60.1588 74.2549 60.1772 75.0651 60.2509Z" fill="#B01C1D"/>
<path fill-rule="evenodd" clip-rule="evenodd" d="M60.2141 12.8347L43.5033 3.88541V7.9273L60.2141 12.8347ZM58.4463 10.4316L48.6869 1.18774V5.21122L58.4463 10.4316ZM62.6171 12.8347L79.3279 3.89461V7.93651L62.6171 12.8347ZM64.3849 10.4316L74.1443 1.18774V5.21122L64.3849 10.4316ZM38.8538 39.8941L61.4202 46.514L83.9867 39.8941V7.90889L61.4202 14.5287L38.8538 7.90889V39.8941Z" fill="#B01C1D"/>
<path d="M122.831 78.4503H119.314L115.576 85.9449L111.856 78.4503H108.321L114.002 89.8487V94.443H117.16V89.8487L122.831 78.4503ZM106.719 78.4503H95.523V81.6084H99.5373V94.443H102.695V81.6084H106.71V78.4503H106.719ZM90.5604 94.443H93.7185V78.4503H90.5604V94.443ZM86.2055 85.6042C84.1063 84.4625 80.3038 85.0426 80.3498 82.925C80.3498 82.5843 80.6076 82.1055 81.1693 81.7833C81.7309 81.461 83.425 80.881 86.6106 82.704L88.1942 79.9879C83.7564 77.4468 80.9207 78.3122 79.6133 79.0488C78.1494 79.8866 77.2102 81.3506 77.1918 82.8697C77.155 85.549 78.9688 87.2062 81.9335 87.685C82.8542 87.8231 83.9682 87.9612 84.7324 88.3847C85.8557 88.9648 86.0306 90.5484 84.7508 91.1469C83.0107 91.9479 80.4143 91.6256 78.8491 90.2077L76.9064 92.6844C78.0021 93.7064 79.5857 94.6455 82.2281 94.6824C82.2649 94.6824 82.2925 94.7008 82.3109 94.7008C86.1871 94.7192 88.6454 92.9606 88.7651 90.0604C88.8479 88.0717 87.9457 86.5065 86.2055 85.6042ZM65.637 81.6084H69.9367C70.9402 81.6084 71.7136 82.4094 71.7136 83.3853C71.7136 84.3613 70.931 85.1623 69.9367 85.1623H65.637V81.6084ZM71.9346 94.443H75.3136L72.2937 87.7495C73.8313 86.9116 74.8901 85.2728 74.8901 83.3945C74.8901 80.6784 72.6712 78.4596 69.9367 78.4596H65.637H62.4606V94.4522H65.637V88.3571H69.1172L71.9346 94.443ZM60.656 81.6084V78.4503H50.3441V94.443H60.656V91.285H53.5021V88.0257H58.4371V84.8676H53.5021V81.6084H60.656ZM45.2434 78.4503L41.6066 89.729L37.9698 78.4503H34.6737L39.8297 94.443H43.3836L48.5395 78.4503H45.2434ZM29.7111 94.443H32.8691V78.4503H29.7111V94.443ZM24.5552 78.4503V88.707L17.7604 78.4503H14.6024V94.443H17.7328V84.1311L24.546 94.443H27.704V78.4503H24.5552ZM9.65819 78.4503V88.5873C9.65819 90.2077 8.34158 91.5243 6.72114 91.5243H6.08585C4.46541 91.5243 3.14881 90.2077 3.14881 88.5873V78.4503H0V88.5873C0 91.9479 2.71608 94.6639 6.07665 94.6639H6.71193C10.0725 94.6639 12.7886 91.9479 12.7886 88.5873V78.4503H9.65819Z" fill="#B01C1D"/>
<path d="M98.6994 105.164V103.93H101.167V102.972H98.6994V101.812H101.498V100.827H97.4749V106.149H101.6V105.164H98.6994ZM92.6688 102.76C92.6688 103.341 92.2913 103.69 91.5363 103.69H90.5328V101.831H91.5363C92.2913 101.831 92.6688 102.18 92.6688 102.76ZM94.0222 106.158L92.8253 104.445C93.5159 104.151 93.921 103.561 93.921 102.76C93.921 101.564 93.0279 100.827 91.61 100.827H89.3082V106.149H90.542V104.666H91.61H91.6745L92.7057 106.149H94.0222V106.158ZM82.8449 105.164V103.93H85.3124V102.972H82.8449V101.812H85.6438V100.827H81.6204V106.149H85.7451V105.164H82.8449ZM76.5473 100.827V102.926H74.1258V100.827H72.8921V106.149H74.1258V103.967H76.5473V106.149H77.781V100.827H76.5473ZM65.683 100.827V104.059L63.0406 100.827H62.0186V106.149H63.2339V102.917L65.8855 106.149H66.8983V100.827H65.683ZM55.0396 104.077L55.8867 102.042L56.7337 104.077H55.0396ZM57.59 106.158H58.879L56.4943 100.836H55.279L52.9036 106.158H54.165L54.6345 105.016H57.102L57.59 106.158ZM48.7696 104.97C48.4566 105.136 48.1436 105.2 47.8121 105.2C46.7901 105.2 46.0812 104.491 46.0812 103.497C46.0812 102.484 46.7901 101.794 47.8213 101.794C48.3645 101.794 48.8065 101.987 49.2024 102.392L49.9942 101.665C49.4786 101.066 48.7052 100.744 47.7661 100.744C46.072 100.744 44.8382 101.895 44.8382 103.497C44.8382 105.099 46.072 106.25 47.7477 106.25C48.5118 106.25 49.3129 106.011 49.9021 105.569V103.405H48.7788V104.97H48.7696ZM38.7524 105.2C37.8041 105.2 37.0859 104.51 37.0859 103.497C37.0859 102.484 37.8041 101.794 38.7524 101.794C39.7007 101.794 40.4189 102.484 40.4189 103.497C40.4189 104.501 39.7007 105.2 38.7524 105.2ZM38.7524 106.25C40.4281 106.25 41.6618 105.09 41.6618 103.497C41.6618 101.904 40.4188 100.744 38.7524 100.744C37.0675 100.744 35.843 101.913 35.843 103.497C35.8337 105.071 37.0675 106.25 38.7524 106.25ZM29.085 106.158H32.9888V105.154H30.3187V100.836H29.085V106.158ZM23.4042 106.25C24.9234 106.25 25.66 105.486 25.66 104.602C25.66 102.65 22.5664 103.322 22.5664 102.346C22.5664 102.015 22.8518 101.739 23.5792 101.739C24.0487 101.739 24.5643 101.877 25.0523 102.153L25.4298 101.214C24.9326 100.901 24.2513 100.744 23.5792 100.744C22.0692 100.744 21.3327 101.499 21.3327 102.401C21.3327 104.381 24.4262 103.69 24.4262 104.694C24.4262 105.016 24.1316 105.265 23.395 105.265C22.7597 105.265 22.0876 105.035 21.6365 104.712L21.2222 105.642C21.7101 105.992 22.5572 106.25 23.4042 106.25Z" fill="#B01C1D"/>
</svg>
