<svg width="94" height="107" viewBox="0 0 94 107" fill="none" xmlns="http://www.w3.org/2000/svg">
<path fill-rule="evenodd" clip-rule="evenodd" d="M23.9906 17.144V41.4934C32.2727 41.0241 39.5058 44.9719 45.6989 53.3276V33.4229C45.6989 22.0212 35.2359 15.4691 23.9906 17.144ZM33.6807 19.4998C31.1685 18.6716 28.3985 18.3587 25.6102 18.5887V25.2512L26.4568 19.3617C28.7482 18.9752 30.9844 18.966 33.6807 19.4998ZM69.1465 17.144V41.4934C60.8644 41.0241 53.6314 44.9719 47.4382 53.3276V33.4229C47.4382 22.0212 57.8921 15.4691 69.1465 17.144ZM59.4473 19.4998C61.9595 18.6716 64.7294 18.3587 67.5177 18.5887V25.2512L66.6711 19.3617C64.3889 18.9752 62.1528 18.966 59.4473 19.4998ZM70.8766 21.2942H71.9165C73.214 21.2942 74.2722 22.3525 74.2722 23.65V44.0977C74.2722 44.8154 73.9778 45.4412 73.4256 45.9013C72.8735 46.3614 72.2109 46.5363 71.5024 46.4167C63.8276 45.0455 56.7234 47.1068 50.1897 52.619C53.6222 48.4596 57.9197 44.9811 63.2846 43.7204C65.1711 43.2786 67.1036 43.1222 69.0361 43.2326L70.8674 43.3339V21.2942H70.8766ZM76.8489 44.2265L76.8305 36.4321C76.8949 34.518 77.8244 33.8554 79.3243 34.0303V31.0947C79.444 28.7113 82.5636 28.5365 82.4255 31.2972C80.8243 32.2358 80.2354 34.2695 79.9501 35.9812C79.5268 38.521 79.5544 41.3738 79.6096 43.9412C78.8458 43.7848 78.0176 43.84 77.3734 44.024C77.1986 44.0885 77.0238 44.1529 76.8489 44.2265ZM61.4902 74.9071V79.1862H47.9811V69.5974C48.11 63.0269 54.0455 55.1221 61.6834 54.7172H66.7723L76.5636 45.5148C78.1925 44.0793 81.6433 44.9259 80.4746 46.6927L68.53 62.1067V63.6434L81.2384 47.2449L81.2568 47.2173C81.6157 46.6743 81.763 46.0302 81.5329 45.4044L81.4961 45.3124C81.2844 44.8891 80.9808 44.5762 80.5391 44.4473C80.3826 36.8278 80.9347 31.6009 84.5513 31.7481V43.7848C84.5605 45.3124 84.5697 46.5271 84.0636 47.6958C82.5544 50.9994 80.7507 54.5331 79.536 57.6067C78.8458 59.2907 77.8704 60.8275 76.5268 62.1803C74.5391 63.9195 71.4287 65.7416 68.5392 67.6005C64.8398 69.9931 61.5178 72.4593 61.4902 74.9071ZM16.2883 44.2265L16.3067 36.4321C16.2422 34.518 15.3128 33.8554 13.8128 34.0303V31.0947C13.6932 28.7113 10.5736 28.5365 10.7116 31.2972C12.3128 32.2358 12.9018 34.2695 13.187 35.9812C13.6103 38.521 13.5828 41.3738 13.5275 43.9412C14.2913 43.7848 15.1195 43.84 15.7637 44.024C15.9385 44.0885 16.1134 44.1529 16.2883 44.2265ZM31.647 74.9071V79.1862H45.156V69.5974C45.0272 63.0269 39.0917 55.1221 31.4537 54.7172H26.3556L16.5643 45.5148C14.9355 44.0793 11.4846 44.9259 12.6533 46.6927L24.598 62.1067V63.6434L11.8895 47.2449L11.8711 47.2173C11.5122 46.6743 11.365 46.0302 11.5951 45.4044L11.6319 45.3124C11.8435 44.8891 12.1472 44.5762 12.5889 44.4473C12.7453 36.8278 12.1932 31.6009 8.57668 31.7481V43.7848C8.56748 45.3124 8.55828 46.5271 9.06441 47.6958C10.5736 50.9994 12.3772 54.5331 13.592 57.6067C14.2821 59.2907 15.2576 60.8275 16.6011 62.1803C18.5888 63.9195 21.6992 65.7416 24.5888 67.6005C28.2973 69.9931 31.6194 72.4593 31.647 74.9071ZM46.564 0L47.8339 3.9294L51.9565 3.9202L48.6161 6.34042L49.8952 10.2606L46.564 7.8312L43.2327 10.2606L44.5119 6.34042L41.1714 3.9202L45.2941 3.9294L46.564 0ZM35.0242 3.88339L35.9721 6.81894L39.0549 6.80974L36.561 8.6134L37.5181 11.5397L35.0242 9.72688L32.5304 11.5397L33.4874 8.6134L30.9936 6.80974L34.0764 6.81894L35.0242 3.88339ZM26.0519 8.2545L26.8065 10.5827L29.2544 10.5735L27.2758 12.0091L28.0396 14.3373L26.0611 12.8925L24.0826 14.3373L24.8464 12.0091L22.8679 10.5735L25.3157 10.5827L26.0519 8.2545ZM58.1129 3.88339L57.1651 6.81894L54.0823 6.80974L56.5761 8.6134L55.6191 11.5397L58.1129 9.72688L60.6068 11.5397L59.6497 8.6134L62.1435 6.80974L59.0608 6.81894L58.1129 3.88339ZM67.0852 8.2545L66.3306 10.5827L63.8828 10.5735L65.8613 12.0091L65.0975 14.3373L67.076 12.8925L69.0545 14.3373L68.2907 12.0091L70.2692 10.5735L67.8214 10.5827L67.0852 8.2545ZM22.2514 21.2942H21.2115C19.914 21.2942 18.8557 22.3525 18.8557 23.65V44.0977C18.8557 44.8154 19.1502 45.4412 19.7023 45.9013C20.2545 46.3614 20.917 46.5363 21.6256 46.4167C29.3004 45.0455 36.4046 47.1068 42.9382 52.619C39.5058 48.4596 35.2083 44.9811 29.8433 43.7204C27.9568 43.2786 26.0243 43.1222 24.0918 43.2326L22.2606 43.3339V21.2942H22.2514Z" fill="#41A0AE"/>
<path d="M93.1278 85.1664H90.4591L87.6248 90.8535L84.8088 85.1664H82.1218L86.4285 93.8075V97.2951H88.8211V93.8075L93.1278 85.1664ZM80.9071 85.1664H72.4225V87.559H75.4685V97.2859H77.8611V87.559H80.9071V85.1664ZM68.6679 97.2859H71.0605V85.1572H68.6679V97.2859ZM65.3643 90.5866C63.7723 89.7216 60.892 90.1633 60.9196 88.5529C60.9196 88.2952 61.1128 87.9272 61.5453 87.6879C61.9686 87.4486 63.2569 87.0069 65.668 88.3873L66.8643 86.3259C63.4962 84.4026 61.3429 85.056 60.3582 85.6174C59.2539 86.2523 58.5362 87.3566 58.527 88.5161C58.4993 90.5498 59.8797 91.8013 62.1159 92.1694C62.8152 92.2799 63.6618 92.3811 64.2416 92.7032C65.0882 93.1449 65.2262 94.3412 64.26 94.7921C62.9441 95.3995 60.9748 95.1602 59.7877 94.0835L58.3153 95.9608C59.1527 96.7338 60.349 97.4424 62.3459 97.4792C62.3735 97.4792 62.3919 97.4976 62.4103 97.4976C65.3459 97.516 67.214 96.1816 67.306 93.9823C67.3612 92.4547 66.6802 91.2768 65.3643 90.5866ZM49.7663 87.559H53.0239C53.7785 87.559 54.3767 88.1664 54.3767 88.9118C54.3767 89.6572 53.7877 90.2645 53.0239 90.2645H49.7663V87.559ZM54.5423 97.2859H57.1006L54.8092 92.2062C55.9779 91.5713 56.7785 90.329 56.7785 88.9026C56.7785 86.8413 55.0945 85.1572 53.0239 85.1572H49.7663H47.3553V97.2859H49.7663V92.6663H52.4074L54.5423 97.2859ZM45.9933 87.559V85.1664H38.1713V97.2951H45.9933V94.9025H40.5639V92.4363H44.3093V90.0437H40.5639V87.5775H45.9933V87.559ZM34.3064 85.1664L31.5456 93.7154L28.7849 85.1664H26.2819L30.1929 97.2951H32.8892L36.8002 85.1664H34.3064ZM22.5273 97.2859H24.92V85.1572H22.5273V97.2859ZM18.6163 85.1664V92.9424L13.463 85.1664H11.0704V97.2951H13.4538V89.4731L18.6256 97.2951H21.0182V85.1664H18.6163ZM7.32507 85.1664V92.8504C7.32507 94.0743 6.32202 95.0774 5.0981 95.0774H4.61037C3.38646 95.0774 2.38341 94.0743 2.38341 92.8504V85.1664H0V92.8504C0 95.3994 2.06132 97.4608 4.61037 97.4608H5.0981C7.64715 97.4608 9.70849 95.3994 9.70849 92.8504V85.1664H7.32507Z" fill="#41A0AE"/>
<path d="M74.8335 105.41V104.472H76.7108V103.745H74.8335V102.871H76.9592V102.125H73.9133V106.165H77.0421V105.42H74.8335V105.41ZM70.2599 103.588C70.2599 104.03 69.9747 104.288 69.4041 104.288H68.6403V102.889H69.4041C69.9747 102.889 70.2599 103.147 70.2599 103.588ZM71.2814 106.165L70.3796 104.867C70.9041 104.647 71.2078 104.196 71.2078 103.598C71.2078 102.696 70.536 102.134 69.4593 102.134H67.7109V106.174H68.6495V105.051H69.4593H69.5053L70.2875 106.174H71.2814V106.165ZM62.8152 105.41V104.472H64.6925V103.745H62.8152V102.871H64.941V102.125H61.895V106.165H65.0238V105.42H62.8152V105.41ZM58.0392 102.125V103.717H56.2079V102.125H55.2785V106.165H56.2079V104.509H58.0392V106.165H58.9779V102.125H58.0392ZM49.8031 102.125V104.573L47.797 102.125H47.024V106.165H47.9443V103.717L49.9596 106.165H50.7234V102.125H49.8031ZM41.7327 104.591L42.3768 103.045L43.021 104.591H41.7327ZM43.6652 106.165H44.6498L42.8461 102.125H41.9259L40.1314 106.165H41.0885L41.4474 105.3H43.3247L43.6652 106.165ZM36.975 105.263C36.7358 105.392 36.5057 105.438 36.2481 105.438C35.4751 105.438 34.9413 104.904 34.9413 104.15C34.9413 103.386 35.4751 102.861 36.2573 102.861C36.6622 102.861 37.0026 103.009 37.2971 103.321L37.8953 102.769C37.4996 102.318 36.9106 102.07 36.202 102.07C34.9137 102.07 33.9843 102.944 33.9843 104.159C33.9843 105.374 34.9229 106.248 36.1836 106.248C36.7634 106.248 37.3707 106.073 37.8125 105.732V104.085H36.9566V105.263H36.975ZM29.3831 105.438C28.6653 105.438 28.1224 104.913 28.1224 104.15C28.1224 103.386 28.6653 102.861 29.3831 102.861C30.1009 102.861 30.6438 103.386 30.6438 104.15C30.6438 104.913 30.1009 105.438 29.3831 105.438ZM29.3831 106.229C30.653 106.229 31.5917 105.346 31.5917 104.14C31.5917 102.935 30.653 102.052 29.3831 102.052C28.1132 102.052 27.1745 102.935 27.1745 104.14C27.1745 105.346 28.1132 106.229 29.3831 106.229ZM22.058 106.165H25.012V105.401H22.9875V102.125H22.058V106.165ZM17.7513 106.229C18.9016 106.229 19.463 105.65 19.463 104.978C19.463 103.496 17.1164 104.012 17.1164 103.266C17.1164 103.009 17.328 102.806 17.8802 102.806C18.2391 102.806 18.6256 102.907 19.0029 103.119L19.2881 102.41C18.9108 102.171 18.3955 102.052 17.8894 102.052C16.7391 102.052 16.1869 102.622 16.1869 103.312C16.1869 104.812 18.5335 104.297 18.5335 105.051C18.5335 105.3 18.3127 105.484 17.7513 105.484C17.2636 105.484 16.7575 105.309 16.417 105.061L16.1041 105.76C16.463 106.045 17.1072 106.229 17.7513 106.229Z" fill="#41A0AE"/>
</svg>
