<svg width="143" height="107" viewBox="0 0 143 107" fill="none" xmlns="http://www.w3.org/2000/svg">
<path fill-rule="evenodd" clip-rule="evenodd" d="M107.924 43.1437C108.89 42.932 109.709 42.8768 110.712 40.9718C111.402 39.3245 111.596 37.5851 111.715 35.8181C110.206 39.8214 108.586 37.4655 106.617 40.1987C106.571 40.2908 106.516 40.3736 106.46 40.4656C106.479 40.3736 106.497 40.2724 106.516 40.1803C106.81 38.5606 107.022 36.9961 107.197 35.358C109.589 31.3086 111.945 35.5972 111.955 26.155C111.136 29.827 108.531 28.1244 107.519 31.0694C107.611 29.2288 107.657 27.3882 107.684 25.5476C109.571 21.535 111.881 25.5936 111.734 17.0256C110.979 20.2926 108.494 18.7925 107.712 21.5627C107.712 19.6944 107.703 17.8262 107.721 15.958C108.954 12.7186 111.577 16.004 111.761 8.90851C110.823 11.5314 108.577 10.1141 107.795 12.4977C107.85 10.7307 107.951 8.95453 108.154 7.19675C109.985 4.50947 111.31 7.73053 112.636 2.40199C111.32 4.18737 109.304 2.46641 108.411 4.74875C108.347 2.11669 105.641 2.95417 105.807 0.266887C103.93 6.26725 106.81 4.04932 107.97 7.17835C107.767 8.94532 107.657 10.7215 107.583 12.4977C106.957 9.99447 104.491 11.2093 104.077 8.2459C103.331 15.7187 105.862 12.3596 107.491 15.9672C107.464 17.8354 107.464 19.7036 107.454 21.5719C106.681 18.7925 104.151 20.2926 103.46 16.9703C102.973 25.3635 106.166 21.894 107.418 25.5568C107.39 27.3974 107.335 29.2288 107.234 31.0694C106.552 28.0968 103.838 29.5969 103.129 26.0261C102.706 35.358 105.338 30.9313 106.893 35.3396C106.718 36.9593 106.497 38.5238 106.194 40.1251C106.175 40.2079 106.157 40.3184 106.138 40.4104C106.129 40.3552 106.111 40.1527 106.092 40.1067C105.246 37.0237 103.074 38.7539 102.384 34.8518C102.163 36.2875 101.905 37.8796 102.006 39.3337C102.365 41.708 103.479 41.708 104.307 42.6375C105.494 42.748 106.718 42.9228 107.924 43.1437ZM34.6402 43.1437C33.6739 42.932 32.8548 42.8768 31.8517 40.9718C31.1614 39.3245 30.9682 37.5851 30.8485 35.8181C32.3578 39.8214 33.9775 37.4655 35.947 40.1987C35.993 40.2908 36.0482 40.3736 36.1034 40.4656C36.085 40.3736 36.0666 40.2724 36.0482 40.1803C35.7537 38.5606 35.5421 36.9961 35.3672 35.358C32.9744 31.3086 30.6184 35.5972 30.6092 26.155C31.4283 29.827 34.0236 28.1244 35.0451 31.0694C34.9531 29.2288 34.9071 27.3882 34.8795 25.5476C32.9928 21.535 30.6829 25.5936 30.8301 17.0256C31.5848 20.2926 34.0696 18.7925 34.8518 21.5627C34.8518 19.6944 34.861 17.8262 34.8426 15.958C33.6094 12.7186 30.9866 16.004 30.8025 8.90851C31.7412 11.5314 33.9867 10.1141 34.769 12.4977C34.7138 10.7307 34.6126 8.95453 34.4101 7.19675C32.5787 4.50947 31.2535 7.73053 29.9282 2.40199C31.2443 4.18737 33.2597 2.46641 34.1524 4.74875C34.2168 2.11669 36.9225 2.95417 36.7569 0.266887C38.6343 6.26725 35.7537 4.04932 34.5942 7.17835C34.7966 8.94532 34.9071 10.7215 34.9807 12.4977C35.6065 9.99447 38.0729 11.2093 38.487 8.2459C39.2325 15.7187 36.7016 12.3596 35.0727 15.9672C35.1003 17.8354 35.1003 19.7036 35.1095 21.5719C35.8826 18.7925 38.4134 20.2926 39.1036 16.9703C39.5914 25.3635 36.3979 21.894 35.1463 25.5568C35.1739 27.3974 35.2292 29.2288 35.3304 31.0694C36.0114 28.0968 38.7263 29.5969 39.4349 26.0261C39.8583 35.358 37.2262 30.9313 35.6709 35.3396C35.8458 36.9593 36.0758 38.5238 36.3703 40.1251C36.3887 40.2079 36.4071 40.3184 36.4255 40.4104C36.4347 40.3552 36.4532 40.1527 36.4716 40.1067C37.3182 37.0237 39.4902 38.7539 40.1804 34.8518C40.4012 36.2875 40.6589 37.8796 40.5577 39.3337C40.1988 41.708 39.0852 41.708 38.257 42.6375C37.0698 42.748 35.8458 42.9228 34.6402 43.1437ZM22.9615 58.4391L30.37 64.283C44.9107 56.8562 58.1815 54.7487 70.2006 57.979C62.6725 46.0058 46.5581 41.1467 26.109 47.9109L32.0173 52.6504C43.6315 48.8312 57.7765 48.463 65.9304 55.126C55.7887 48.868 39.076 50.6718 22.9615 58.4391ZM119.602 58.4391L112.194 64.283C97.6532 56.8562 84.3824 54.7487 72.3633 57.979C79.8914 46.0058 96.0058 41.1467 116.455 47.9109L110.547 52.6504C98.9324 48.8312 84.7874 48.463 76.6335 55.126C86.7752 48.868 103.488 50.6718 119.602 58.4391ZM63.5836 15.7463C61.9179 19.4091 59.0742 23.2008 55.0432 27.1305C60.9332 32.3302 65.9948 41.7541 70.2282 55.4021V28.9803C69.0778 28.5569 68.2588 27.4526 68.2588 26.155C68.2588 24.4892 69.6116 23.1364 71.2774 23.1364C72.9431 23.1364 74.2867 24.4892 74.2867 26.155C74.2867 27.4526 73.4677 28.5569 72.3173 28.9803V55.4021C76.5507 41.7541 81.6123 32.3302 87.5022 27.1305C83.4805 23.21 80.6368 19.4184 78.9619 15.7556V8.85329L74.4064 9.7736L84.5297 6.45131L87.6127 5.42057L71.2774 0L54.942 5.42978C57.8594 6.40529 59.5343 6.95748 60.5466 7.29799C60.2982 7.53726 60.0773 7.79495 59.8748 8.07104C59.4699 8.63242 59.1846 9.26743 59.0005 9.98526C58.1999 10.2429 57.6201 10.9976 57.6201 11.8811C57.6201 12.5529 57.9514 13.1419 58.4576 13.51L57.9238 15.7556H59.6171H61.3105L60.7767 13.51C61.2829 13.1511 61.6142 12.5529 61.6142 11.8811C61.6142 11.0528 61.108 10.3442 60.3902 10.0405C60.5282 9.59874 60.7215 9.20301 60.9792 8.85329C61.2645 8.44836 61.6326 8.09865 62.0743 7.80415C62.4517 7.92379 62.5989 7.96981 63.5836 8.28271V15.7463Z" fill="#1466A3"/>
<path d="M142.545 73.9915H138.459L134.125 82.6883L129.808 73.9915H125.704L132.293 87.2162V92.554H135.956V87.2162L142.545 73.9915ZM123.854 73.9915H110.859V77.6543H115.525V92.5448H119.188V77.6635H123.854V73.9915ZM105.108 92.554H108.77V73.9915H105.108V92.554ZM100.046 82.3018C97.6071 80.9766 93.1989 81.6484 93.2449 79.1912C93.2449 78.7955 93.5486 78.2433 94.1928 77.866C94.8462 77.4978 96.8157 76.826 100.506 78.9335L102.337 75.7769C97.1838 72.8319 93.8891 73.8258 92.389 74.6909C90.6957 75.6664 89.6097 77.3598 89.5821 79.1176C89.5361 82.2282 91.6436 84.1516 95.0763 84.713C96.1438 84.8787 97.4415 85.0351 98.325 85.5229C99.6226 86.1947 99.8343 88.0261 98.3526 88.7255C96.3371 89.655 93.3185 89.2777 91.5055 87.6396L89.2508 90.5201C90.53 91.7073 92.3614 92.7932 95.426 92.8393C95.472 92.8393 95.4996 92.8669 95.518 92.8669C100.018 92.8853 102.871 90.8514 103.009 87.4831C103.111 85.1547 102.071 83.3418 100.046 82.3018ZM76.1733 77.6635H81.1613C82.3209 77.6635 83.2228 78.593 83.2228 79.725C83.2228 80.8661 82.3209 81.7865 81.1613 81.7865H76.1733V77.6635ZM83.4805 92.554H87.401L83.8946 84.7866C85.68 83.8111 86.9132 81.9061 86.9132 79.725C86.9132 76.5683 84.3364 73.9915 81.1613 73.9915H76.1733H72.4829V92.554H76.1733V85.4769H80.2134L83.4805 92.554ZM70.403 77.6635V73.9915H58.4299V92.554H70.403V88.8912H62.1019V85.1087H67.8354V81.4459H62.1019V77.6635H70.403ZM52.5124 73.9915L48.2882 87.0782L44.0732 73.9915H40.2448L46.2267 92.554H50.3589L56.3408 73.9915H52.5124ZM34.4929 92.554H38.1557V73.9915H34.4929V92.554ZM28.5017 73.9915V85.891L20.6147 73.9915H16.952V92.554H20.5963V80.5809L28.5109 92.554H32.1737V73.9915H28.5017ZM11.2185 73.9915V85.7529C11.2185 87.6304 9.69077 89.1673 7.80416 89.1673H7.05872C5.1813 89.1673 3.64439 87.6396 3.64439 85.7529V73.9915H0V85.7529C0 89.6458 3.15663 92.8025 7.0495 92.8025H7.79496C11.697 92.8025 14.8445 89.6458 14.8445 85.7529V73.9915H11.2185Z" fill="#1466A3"/>
<path d="M114.541 104.987V103.561H117.412V102.447H114.541V101.104H117.79V99.9533H113.124V106.128H117.909V104.978H114.541V104.987ZM107.556 102.199C107.556 102.871 107.114 103.276 106.24 103.276H105.071V101.122H106.24C107.114 101.122 107.556 101.518 107.556 102.199ZM109.111 106.138L107.721 104.15C108.522 103.809 108.991 103.128 108.991 102.199C108.991 100.809 107.961 99.9533 106.304 99.9533H103.626V106.128H105.053V104.408H106.295H106.369L107.556 106.128H109.111V106.138ZM96.1441 104.987V103.561H99.0154V102.447H96.1441V101.104H99.3928V99.9533H94.7268V106.128H99.5124V104.978H96.1441V104.987ZM88.8369 99.9625V102.401H86.03V99.9625H84.6035V106.138H86.03V103.607H88.8369V106.138H90.2634V99.9625H88.8369ZM76.238 99.9625V103.717L73.1642 99.9625H71.977V106.138H73.385V102.383L76.4681 106.138H77.646V99.9625H76.238ZM63.8875 103.727L64.863 101.361L65.8386 103.727H63.8875ZM66.8417 106.138H68.3418L65.5809 99.9625H64.1728L61.4211 106.138H62.8844L63.4274 104.812H66.2987L66.8417 106.138ZM56.5988 104.757C56.2398 104.951 55.8717 105.024 55.4852 105.024C54.298 105.024 53.4789 104.205 53.4789 103.045C53.4789 101.868 54.298 101.067 55.5036 101.067C56.1294 101.067 56.654 101.288 57.1049 101.766L58.0252 100.92C57.427 100.22 56.5251 99.8521 55.4392 99.8521C53.4697 99.8521 52.0433 101.186 52.0433 103.045C52.0433 104.904 53.4697 106.239 55.4116 106.239C56.295 106.239 57.2338 105.963 57.9056 105.457V102.953H56.5988V104.757ZM44.9754 105.024C43.871 105.024 43.0427 104.223 43.0427 103.045C43.0427 101.868 43.871 101.067 44.9754 101.067C46.0797 101.067 46.908 101.868 46.908 103.045C46.908 104.223 46.0797 105.024 44.9754 105.024ZM44.9754 106.248C46.9172 106.248 48.3529 104.895 48.3529 103.055C48.3529 101.214 46.9172 99.8613 44.9754 99.8613C43.0243 99.8613 41.5979 101.223 41.5979 103.055C41.5979 104.886 43.0243 106.248 44.9754 106.248ZM33.7661 106.138H38.294V104.969H35.1926V99.9533H33.7661V106.138ZM27.1767 106.248C28.9437 106.248 29.7996 105.365 29.7996 104.334C29.7996 102.07 26.2104 102.852 26.2104 101.711C26.2104 101.325 26.5325 101.002 27.3884 101.002C27.9314 101.002 28.5296 101.159 29.1002 101.49L29.5419 100.404C28.9713 100.045 28.1707 99.8613 27.3976 99.8613C25.6398 99.8613 24.7932 100.736 24.7932 101.785C24.7932 104.076 28.3823 103.285 28.3823 104.444C28.3823 104.822 28.0418 105.107 27.1951 105.107C26.4497 105.107 25.6766 104.84 25.1521 104.463L24.6643 105.54C25.2073 105.954 26.192 106.248 27.1767 106.248Z" fill="#1466A3"/>
</svg>
