<svg width="96" height="107" viewBox="0 0 96 107" fill="none" xmlns="http://www.w3.org/2000/svg">
<path fill-rule="evenodd" clip-rule="evenodd" d="M46.3689 17.6862L27.768 7.72767V12.2283L46.3689 17.6862ZM44.4085 15.0079L33.548 4.71802V9.19108L44.4085 15.0079ZM49.0565 17.6862L67.6574 7.73687V12.2283L49.0565 17.6862ZM51.0169 15.0079L61.8774 4.71802V9.19108L51.0169 15.0079ZM47.0684 54.9893L47.7127 55.1826L48.357 54.9893V38.8734C49.0657 38.6065 49.5719 37.9254 49.5719 37.1247C49.5719 36.0939 48.7435 35.2655 47.7127 35.2655C46.6819 35.2655 45.8535 36.1031 45.8535 37.1247C45.8535 37.9254 46.3597 38.6065 47.0684 38.8734V54.9893ZM22.5955 47.8103L47.004 54.9709C44.4085 46.6599 41.3068 40.9167 37.6989 37.7321C41.1964 34.3267 43.2489 31.0778 43.8655 27.9853H47.7219H51.5783C52.195 31.0778 54.2474 34.3175 57.7449 37.7321C54.137 40.9167 51.0353 46.6599 48.4398 54.9709L72.8484 47.8103V12.2007L51.5507 18.4501L51.3482 25.3254H52.2318C52.7288 25.3254 53.1337 25.7304 53.1337 26.2274C53.1337 26.7244 52.7288 27.1293 52.2318 27.1293H47.7403H43.2396C42.7426 27.1293 42.3377 26.7244 42.3377 26.2274C42.3377 25.7304 42.7426 25.3254 43.2396 25.3254H44.1232L43.9207 18.4501L22.6231 12.2007V47.8103H22.5955Z" fill="#FFC001"/>
<path d="M36.3369 78.84C37.9384 78.9688 38.2605 80.4046 40.5339 79.8616C41.7672 76.3458 57.3493 71.2008 62.6875 69.7098C63.4422 69.4981 64.1877 69.268 64.924 69.0195C64.9792 69.0287 65.0437 69.0379 65.0989 69.0471C70.5936 69.7742 69.4891 75.3517 78.9598 68.0071C73.9714 70.1424 74.8181 66.3596 70.3451 66.737C71.6336 66.0651 72.8761 65.3012 74.0542 64.4544C76.2631 64.0679 76.5669 64.6845 78.426 65.338C81.9235 66.0099 84.6754 61.8589 86.1941 59.3463C82.2916 63.037 81.9235 59.3187 77.9014 61.1226C78.9967 59.9721 79.9999 58.7296 80.8834 57.4043C83.7826 55.6463 84.4545 57.4043 86.7923 55.9685C88.7527 54.4314 89.6087 51.6335 90.1977 49.3233C88.1085 53.3638 85.6787 50.529 83.2581 53.1337C83.9483 51.6151 84.5282 50.0412 85.0068 48.4398C87.5839 45.559 88.854 48.0164 90.75 44.4177C91.5047 42.6137 91.7164 40.7269 91.8452 38.7941C90.1977 43.1567 88.4306 40.5889 86.2769 43.5709C86.2217 43.663 86.1573 43.7642 86.1112 43.8562C86.1296 43.755 86.1481 43.6538 86.1665 43.5433C86.4886 41.7762 86.7279 40.0735 86.9119 38.2879C89.5258 33.8701 92.0937 38.5456 92.1029 28.2465C91.2102 32.2594 88.3754 30.391 87.2617 33.6032C87.363 31.5967 87.4182 29.5903 87.4366 27.5747C89.489 23.2029 92.0201 27.6299 91.8452 18.2788C91.0169 21.8407 88.311 20.2116 87.455 23.2305C87.455 21.1964 87.4458 19.1532 87.4642 17.1191C88.8079 13.5849 91.6704 17.1651 91.8728 9.42472C90.8512 12.2871 88.3938 10.7409 87.547 13.3363C87.6115 11.4035 87.7219 9.47074 87.9336 7.55634C89.9308 4.62953 91.3758 8.13618 92.8208 2.32857C91.385 4.27978 89.1853 2.4022 88.2097 4.88723C88.1361 2.01564 85.1908 2.93602 85.3657 0C83.3225 6.54392 86.4518 4.12332 87.7219 7.53794C87.501 9.46154 87.3722 11.4035 87.2985 13.3363C86.6174 10.6028 83.9299 11.9374 83.4789 8.69762C82.669 16.843 85.4301 13.1891 87.2065 17.1191C87.1789 19.1624 87.1697 21.1964 87.1605 23.2397C86.3229 20.2116 83.5618 21.8407 82.8071 18.2236C82.2733 27.3814 85.7615 23.5894 87.1237 27.5839C87.0868 29.5903 87.0316 31.5967 86.9212 33.594C86.1756 30.3542 83.212 31.9833 82.4481 28.0901C81.9879 38.2695 84.8595 33.4467 86.553 38.2511C86.3597 40.0182 86.1204 41.721 85.7891 43.4697C85.7615 43.5617 85.7523 43.6814 85.7339 43.7734C85.7247 43.709 85.7063 43.4973 85.6879 43.4421C84.7675 40.0735 82.3929 41.9695 81.6382 37.7081C81.3897 39.2819 81.1136 41.0123 81.224 42.5953C81.7854 46.286 84.0219 44.7306 84.611 48.3017C84.1324 49.8848 83.5525 51.431 82.8623 52.9312C83.2028 49.7007 79.6409 50.1148 79.7422 46.3045C79.1807 47.9151 78.288 50.1056 78.4997 51.8268C79.0611 54.2934 80.8927 54.1185 80.5061 57.119C79.6318 58.4167 78.6469 59.6316 77.5609 60.7545C78.8678 57.1374 75.5176 57.4687 76.4104 53.281C74.9838 55.2782 73.1246 57.2478 73.6124 59.7881C74.137 61.5092 74.6801 62.2271 73.7597 64.0126C72.5908 64.841 71.3667 65.5773 70.0966 66.24C72.4528 63.7641 69.2958 61.6657 71.3667 58.5456C62.7519 64.5096 68.7528 64.2059 64.8688 68.3384C64.8596 68.3568 64.7676 68.4397 64.7491 68.4581C63.9852 68.7066 63.2213 68.9367 62.4482 69.1484C54.4132 71.3481 38.6103 72.2224 36.3369 78.84Z" fill="#FFC001"/>
<path d="M59.0979 78.84C57.4965 78.9688 57.1743 80.4046 54.901 79.8616C53.6677 76.3458 38.0856 71.2008 32.7473 69.7098C31.9926 69.4981 31.2471 69.268 30.5108 69.0195C30.4556 69.0287 30.3912 69.0379 30.336 69.0471C24.8413 69.7742 25.9457 75.3517 16.475 68.0071C21.4635 70.1424 20.6167 66.3596 25.0898 66.737C23.8012 66.0651 22.5587 65.3012 21.3806 64.4544C19.1717 64.0679 18.868 64.6845 17.0088 65.338C13.5114 66.0099 10.7594 61.8589 9.24077 59.3463C13.1432 63.037 13.5114 59.3187 17.5334 61.1226C16.4382 59.9721 15.435 58.7296 14.5514 57.4043C11.6522 55.6463 10.9803 57.4043 8.64252 55.9685C6.68211 54.4314 5.82615 51.6335 5.2371 49.3233C7.32637 53.3638 9.7562 50.529 12.1768 53.1337C11.4865 51.6151 10.9067 50.0412 10.4281 48.4398C7.85101 45.559 6.58086 48.0164 4.68487 44.4177C3.93016 42.6137 3.71848 40.7269 3.58963 38.7941C5.23711 43.1567 7.00425 40.5889 9.15794 43.5709C9.21317 43.663 9.2776 43.7642 9.32362 43.8562C9.30521 43.755 9.28679 43.6538 9.26839 43.5433C8.94625 41.7762 8.70697 40.0735 8.52289 38.2879C5.909 33.8701 3.34112 38.5456 3.33192 28.2465C4.22469 32.2594 7.05948 30.391 8.17314 33.6032C8.0719 31.5967 8.01666 29.5903 7.99825 27.5747C5.9458 23.2029 3.41476 27.6299 3.58963 18.2788C4.41797 21.8407 7.12389 20.2116 7.97985 23.2305C7.97985 21.1964 7.98907 19.1532 7.97066 17.1191C6.6269 13.5849 3.7645 17.1651 3.56201 9.42472C4.58364 12.2871 7.04106 10.7409 7.88781 13.3363C7.82338 11.4035 7.71294 9.47074 7.50126 7.55634C5.50402 4.62953 4.05901 8.13618 2.61401 2.32857C4.04981 4.27978 6.24953 2.4022 7.22514 4.88723C7.29877 2.01564 10.244 2.93602 10.0691 0C12.1124 6.54392 8.98308 4.12332 7.71295 7.53794C7.93384 9.46154 8.06268 11.4035 8.13631 13.3363C8.81739 10.6028 11.5049 11.9374 11.9559 8.69762C12.7658 16.843 10.0047 13.1891 8.22835 17.1191C8.25596 19.1624 8.26516 21.1964 8.27437 23.2397C9.11192 20.2116 11.8731 21.8407 12.6278 18.2236C13.1616 27.3814 9.67336 23.5894 8.3112 27.5839C8.34801 29.5903 8.40323 31.5967 8.51368 33.594C9.25919 30.3542 12.2228 31.9833 12.9867 28.0901C13.4469 38.2695 10.5753 33.4467 8.88183 38.2511C9.07511 40.0182 9.31441 41.721 9.64575 43.4697C9.67336 43.5617 9.68255 43.6814 9.70096 43.7734C9.71016 43.709 9.72857 43.4973 9.74698 43.4421C10.6674 40.0735 13.042 41.9695 13.7967 37.7081C14.0452 39.2819 14.3213 41.0123 14.2108 42.5953C13.6494 46.286 11.4129 44.7306 10.8238 48.3017C11.3024 49.8848 11.8823 51.431 12.5726 52.9312C12.232 49.7007 15.7939 50.1148 15.6927 46.3045C16.2541 47.9151 17.1469 50.1056 16.9352 51.8268C16.3737 54.2934 14.5422 54.1185 14.9287 57.119C15.8031 58.4167 16.7879 59.6316 17.874 60.7545C16.567 57.1374 19.9172 57.4687 19.0244 53.281C20.451 55.2782 22.3102 57.2478 21.8224 59.7881C21.2978 61.5092 20.7548 62.2271 21.6751 64.0126C22.844 64.841 24.0681 65.5773 25.3383 66.24C22.9821 63.7641 26.139 61.6657 24.0681 58.5456C32.6829 64.5096 26.682 64.2059 30.5661 68.3384C30.5753 68.3568 30.6673 68.4397 30.6857 68.4581C31.4496 68.7066 32.2135 68.9367 32.9866 69.1484C41.0124 71.3481 56.8154 72.2224 59.0979 78.84Z" fill="#FFC001"/>
<path d="M95.4253 84.6575H92.6917L89.7833 90.4835L86.8933 84.6575H84.1414L88.55 93.5116V97.0827H91.0074V93.5116L95.4253 84.6575ZM82.9081 84.6575H74.2104V87.1149H77.3306V97.0827H79.788V87.1149H82.9081V84.6575ZM70.354 97.0827H72.8115V84.6575H70.354V97.0827ZM66.967 90.2166C65.338 89.3331 62.3836 89.784 62.4204 88.1366C62.4204 87.8696 62.6228 87.5015 63.0554 87.253C63.488 87.0045 64.8133 86.5535 67.28 87.9709L68.5041 85.8632C65.0526 83.8936 62.8529 84.5563 61.8405 85.1361C60.7084 85.7896 59.9813 86.9216 59.9629 88.0997C59.9353 90.1798 61.3435 91.4683 63.6445 91.8457C64.3624 91.9561 65.2275 92.0666 65.8166 92.3887C66.6909 92.8397 66.829 94.0638 65.835 94.5332C64.482 95.1499 62.4664 94.9014 61.2515 93.8061L59.742 95.7297C60.598 96.5212 61.8221 97.2483 63.8746 97.2852C63.9022 97.2852 63.9206 97.3036 63.939 97.3036C66.9487 97.322 68.8631 95.9506 68.9551 93.7049C69.0195 92.131 68.32 90.9161 66.967 90.2166ZM50.9892 87.1149H54.3302C55.1033 87.1149 55.7107 87.7316 55.7107 88.4955C55.7107 89.2594 55.1033 89.8761 54.3302 89.8761H50.9892V87.1149ZM55.8857 97.0827H58.5087L56.1618 91.8825C57.3583 91.229 58.1774 89.9589 58.1774 88.4955C58.1774 86.3878 56.4563 84.6575 54.3302 84.6575H50.9892H48.5226V97.0827H50.9892V92.3427H53.6951L55.8857 97.0827ZM47.1236 87.1149V84.6575H39.1071V97.0827H47.1236V94.6253H41.5645V92.0942H45.4025V89.6368H41.5645V87.1057H47.1236V87.1149ZM35.1494 84.6575L32.3239 93.4196L29.4983 84.6575H26.9396L30.9433 97.0827H33.7044L37.7081 84.6575H35.1494ZM23.0832 97.0827H25.5406V84.6575H23.0832V97.0827ZM19.0703 84.6575V92.628L13.7873 84.6575H11.3299V97.0827H13.7689V89.0661L19.0611 97.0827H21.5186V84.6575H19.0703ZM7.50112 84.6575V92.536C7.50112 93.7969 6.47949 94.8185 5.21856 94.8185H4.72157C3.46064 94.8185 2.43901 93.7969 2.43901 92.536V84.6575H0V92.536C0 95.1407 2.10768 97.2576 4.72157 97.2576H5.21856C7.83245 97.2576 9.94013 95.1499 9.94013 92.536V84.6575H7.50112Z" fill="#FFC001"/>
<path d="M76.6772 105.403V104.446H78.6007V103.7H76.6772V102.798H78.8493V102.034H75.72V106.167H78.9229V105.403H76.6772ZM71.9924 103.544C71.9924 103.995 71.6979 104.262 71.1088 104.262H70.3265V102.817H71.1088C71.6979 102.817 71.9924 103.084 71.9924 103.544ZM73.0416 106.176L72.112 104.851C72.6459 104.621 72.9588 104.17 72.9588 103.544C72.9588 102.614 72.2685 102.044 71.1641 102.044H69.3693V106.176H70.3265V105.026H71.1641H71.2101L72.0108 106.176H73.0416ZM64.3624 105.403V104.446H66.286V103.7H64.3624V102.798H66.5345V102.034H63.4052V106.167H66.6082V105.403H64.3624ZM59.466 102.044V103.673H57.5884V102.044H56.6312V106.176H57.5884V104.483H59.466V106.176H60.4232V102.044H59.466ZM51.0261 102.044V104.556L48.9736 102.044H48.1821V106.176H49.1301V103.663L51.1918 106.176H51.9741V102.044H51.0261ZM42.7611 104.565L43.4145 102.982L44.068 104.565H42.7611ZM44.7399 106.176H45.7431L43.8931 102.044H42.9451L41.1044 106.176H42.0891L42.4573 105.292H44.3809L44.7399 106.176ZM37.883 105.256C37.6437 105.385 37.3952 105.431 37.1375 105.431C36.346 105.431 35.7937 104.878 35.7937 104.105C35.7937 103.323 36.346 102.78 37.1467 102.78C37.5701 102.78 37.9106 102.927 38.2144 103.249L38.831 102.679C38.426 102.209 37.8278 101.961 37.1007 101.961C35.7846 101.961 34.8273 102.853 34.8273 104.096C34.8273 105.338 35.7845 106.231 37.0823 106.231C37.6713 106.231 38.2972 106.047 38.7574 105.707V104.032H37.883V105.256ZM30.1058 105.431C29.3695 105.431 28.808 104.897 28.808 104.105C28.808 103.314 29.3603 102.78 30.1058 102.78C30.8421 102.78 31.4035 103.314 31.4035 104.105C31.4035 104.897 30.8421 105.431 30.1058 105.431ZM30.1058 106.25C31.4035 106.25 32.3699 105.348 32.3699 104.114C32.3699 102.881 31.4035 101.979 30.1058 101.979C28.7988 101.979 27.8416 102.89 27.8416 104.114C27.8416 105.339 28.7988 106.25 30.1058 106.25ZM22.5955 106.176H25.6235V105.394H23.5526V102.034H22.5955V106.176ZM18.1868 106.25C19.3649 106.25 19.9448 105.661 19.9448 104.97C19.9448 103.452 17.5426 103.976 17.5426 103.212C17.5426 102.955 17.7635 102.743 18.3249 102.743C18.693 102.743 19.0888 102.853 19.4754 103.065L19.7699 102.338C19.3833 102.099 18.8495 101.97 18.3341 101.97C17.156 101.97 16.5946 102.559 16.5946 103.258C16.5946 104.795 18.9968 104.262 18.9968 105.035C18.9968 105.292 18.7667 105.477 18.196 105.477C17.699 105.477 17.1836 105.302 16.8339 105.044L16.5117 105.762C16.8707 106.047 17.5242 106.25 18.1868 106.25Z" fill="#FFC001"/>
</svg>
