<svg width="140" height="107" viewBox="0 0 140 107" fill="none" xmlns="http://www.w3.org/2000/svg">
<path fill-rule="evenodd" clip-rule="evenodd" d="M16.53 74.0386H122.484V95.511H16.53V74.0386ZM115.186 106.252H139.023L130.574 95.511L139.023 84.7702H125.347V98.3734H109.617L115.186 106.252ZM113.575 79.8278V85.8378L108.651 79.8278H106.755V89.7218H109.019V83.7118L113.952 89.7218H115.83V79.8278H113.575ZM98.9316 87.9455C97.1645 87.9455 95.8392 86.657 95.8392 84.7794C95.8392 82.9018 97.1645 81.6133 98.9316 81.6133C100.699 81.6133 102.024 82.9018 102.024 84.7794C102.033 86.657 100.699 87.9455 98.9316 87.9455ZM98.9316 89.8967C102.043 89.8967 104.343 87.7338 104.343 84.7794C104.343 81.825 102.043 79.6621 98.9316 79.6621C95.8116 79.6621 93.5198 81.8434 93.5198 84.7794C93.5198 87.7154 95.8116 89.8967 98.9316 89.8967ZM88.8259 89.7311H91.1176V79.837H88.8259V89.7311ZM81.4536 89.7311H83.7454V81.6961H86.9115V79.8278H78.2875V81.6961H81.4536V89.7311ZM71.0441 85.8655L72.618 82.0735L74.1918 85.8655H71.0441ZM75.7749 89.7311H78.1771L73.75 79.837H71.4951L67.0865 89.7311H69.4335L70.3078 87.6142H74.9005L75.7749 89.7311ZM62.2729 89.8967C63.994 89.8967 65.4298 89.2708 66.3594 88.1296L64.8868 86.7766C64.2241 87.5497 63.3866 87.9455 62.4018 87.9455C60.5518 87.9455 59.2356 86.6478 59.2356 84.7794C59.2356 82.911 60.5518 81.6133 62.4018 81.6133C63.3958 81.6133 64.2241 82.0091 64.8868 82.773L66.3594 81.42C65.4298 80.2879 63.994 79.6713 62.2913 79.6713C59.208 79.6713 56.9163 81.8066 56.9163 84.7886C56.9163 87.7614 59.208 89.8967 62.2729 89.8967ZM50.1055 89.8967C52.9219 89.8967 54.5877 88.286 54.5877 85.3684V79.8278H52.3236V85.2856C52.3236 87.1632 51.5137 87.9455 50.1147 87.9455C48.7249 87.9455 47.9058 87.1724 47.9058 85.2856V79.8278H45.614V85.3684C45.6232 88.286 47.2983 89.8967 50.1055 89.8967ZM35.6371 87.8443V81.7053H37.7264C39.696 81.7053 40.9753 82.8834 40.9753 84.7702C40.9753 86.6662 39.6868 87.8351 37.7264 87.8351H35.6371V87.8443ZM33.3546 89.7311H37.846C41.0858 89.7311 43.3039 87.7798 43.3039 84.7794C43.3039 81.779 41.0858 79.8278 37.846 79.8278H33.3546V89.7311ZM25.4577 87.8903V85.5985H30.0504V83.813H25.4577V81.6685H30.6579V79.8278H23.1752V89.7218H30.8419V87.8811H25.4577V87.8903ZM23.8378 106.252H0L8.44909 95.511L0 84.7702H13.6769V98.3734H29.4061L23.8378 106.252Z" fill="black"/>
<path fill-rule="evenodd" clip-rule="evenodd" d="M112.636 53.3636L113.906 53.3912L113.842 55.9315L114.827 55.9591L114.891 53.4189L116.078 53.4465L116.005 56.3272L117.026 56.3549L117.127 52.2132L111.651 52.0843L111.55 56.3272L112.562 56.3549L112.636 53.3636ZM114.891 47.7861C114.302 47.8598 113.897 47.5192 113.796 46.7553L113.667 45.7337L115.563 45.4944L115.692 46.516C115.793 47.2799 115.489 47.7125 114.891 47.7861ZM111.605 49.6085L113.197 48.1635C113.593 48.8354 114.237 49.1667 115.057 49.0655C116.272 48.909 116.916 47.9058 116.723 46.4516L116.419 44.0954L110.989 44.7949L111.154 46.0558L112.664 45.8625L112.802 46.9578L112.811 47.0222L111.43 48.2647L111.605 49.6085ZM110.574 39.1346L111.798 38.794L112.489 41.2422L113.437 40.9753L112.746 38.5271L113.888 38.205L114.67 40.9753L115.646 40.6992L114.523 36.714L109.249 38.205L110.4 42.2915L111.375 42.0153L110.574 39.1346ZM112.452 31.9096L110.528 32.8944L109.396 30.6763L111.32 29.6915L110.74 28.5594L105.862 31.0536L106.442 32.1857L108.439 31.1641L109.571 33.3822L107.574 34.4038L108.154 35.5359L113.032 33.0416L112.452 31.9096ZM106.341 22.3192L103.819 24.4913L104.555 20.2576L103.874 19.466L99.7231 23.0463L100.542 23.9943L103.064 21.8222L102.328 26.0652L103.009 26.8567L107.16 23.2764L106.341 22.3192ZM96.4373 17.3676L98.4069 16.2447L97.8087 18.4352L96.4373 17.3676ZM97.1921 20.6625L98.2413 21.4817L99.6679 15.6557L98.6831 14.8917L93.3909 17.7173L94.4125 18.518L95.517 17.8922L97.5234 19.4568L97.1921 20.6625ZM91.2556 14.9102C90.8875 14.9194 90.5745 14.8273 90.2708 14.6709C89.332 14.1923 89.0191 13.2167 89.4793 12.3055C89.9486 11.3759 90.9243 11.0722 91.8722 11.56C92.3692 11.8085 92.6914 12.195 92.8571 12.7565L93.9247 12.4527C93.7314 11.6612 93.17 11.0077 92.3141 10.566C90.7586 9.77443 89.0927 10.253 88.3472 11.7256C87.6017 13.1983 88.1907 14.8273 89.7278 15.6096C90.4273 15.9686 91.274 16.125 92.0195 15.9962L93.0319 14.0174L92.0011 13.4928L91.2556 14.9102ZM82.5764 11.3851C81.6468 11.0722 81.1866 10.1518 81.5272 9.16698C81.8677 8.18218 82.7881 7.7496 83.7177 8.06253C84.6473 8.37546 85.1075 9.29583 84.7669 10.2806C84.4264 11.2654 83.506 11.698 82.5764 11.3851ZM82.2267 12.4067C83.8558 12.9681 85.448 12.241 85.9818 10.6948C86.5156 9.14857 85.6965 7.60234 84.0674 7.04091C82.4292 6.47948 80.8369 7.20657 80.3123 8.75281C79.7784 10.299 80.5884 11.8453 82.2267 12.4067ZM73.5935 10.5476L77.5788 11.0446L77.7076 10.0229L74.9833 9.68239L75.5355 5.27377L74.2746 5.11731L73.5935 10.5476ZM68.8444 10.4647C70.409 10.4187 71.1453 9.61797 71.1177 8.70679C71.0625 6.70036 67.8964 7.48268 67.8688 6.47026C67.8595 6.12052 68.1449 5.8352 68.8904 5.8168C69.3782 5.80759 69.9028 5.92725 70.4182 6.20336L70.7863 5.22775C70.2709 4.92403 69.5622 4.77677 68.872 4.79518C67.3165 4.8412 66.5894 5.63272 66.6078 6.5623C66.663 8.59634 69.8292 7.80482 69.8568 8.82645C69.866 9.15778 69.5714 9.42469 68.8167 9.4431C68.1633 9.4615 67.4638 9.24982 66.9944 8.92769L66.5894 9.89408C67.0956 10.253 67.9792 10.4923 68.8444 10.4647ZM61.5089 5.48546L60.294 5.76158L59.4196 8.45829L57.45 6.41504L56.1431 6.71877L59.0055 9.67319L59.4473 11.5784L60.6806 11.2931L60.248 9.40628L61.5089 5.48546ZM53.2347 13.6216L54.4128 13.1522L52.7653 9.02892L54.3944 8.37546L54.0078 7.41826L49.5716 9.1946L49.9581 10.1518L51.5872 9.49832L53.2347 13.6216ZM48.5131 15.9686L49.6084 15.3335L46.8657 10.5936L45.7704 11.2286L48.5131 15.9686ZM44.5831 18.6377C45.8625 17.7265 46.0281 16.6497 45.4943 15.9042C44.3254 14.2659 42.1349 16.6773 41.5551 15.8581C41.3526 15.5728 41.4262 15.1771 42.0429 14.7445C42.4386 14.4592 42.9448 14.2751 43.5339 14.2199L43.2946 13.2075C42.6964 13.2443 42.0245 13.5112 41.463 13.9161C40.1929 14.8181 40.0272 15.8858 40.5703 16.6497C41.7484 18.3064 43.9389 15.8858 44.5279 16.7233C44.7212 16.9994 44.6199 17.3768 44.0033 17.8094C43.4695 18.1867 42.77 18.3984 42.1993 18.3892L42.4018 19.42C43.0093 19.4384 43.8744 19.1439 44.5831 18.6377ZM37.6711 19.7882C38.1037 20.2023 38.0944 20.7269 37.5514 21.2884L36.8335 22.0339L35.453 20.7178L36.1709 19.9722C36.7139 19.4108 37.2385 19.3648 37.6711 19.7882ZM41.1593 21.1963L39.0332 20.865C39.3002 20.1379 39.1529 19.42 38.5638 18.8586C37.6711 18.0118 36.493 18.1499 35.4806 19.2083L33.8423 20.9202L37.7999 24.703L38.6743 23.7826L37.5698 22.7242L38.3337 21.9234L38.3798 21.8774L40.2113 22.172L41.1593 21.1963ZM33.603 28.541L32.5722 27.8047L34.0448 25.7338L33.244 25.1632L31.7714 27.234L30.805 26.5438L32.4709 24.1968L31.6426 23.6077L29.2404 26.9855L33.7042 30.1608L36.1617 26.7002L35.3333 26.1112L33.603 28.541ZM27.0591 30.7775L29.9491 33.916L25.6969 33.8424L25.1355 35.0941L31.0996 35.1677L31.6058 34.0264L27.5653 29.627L27.0591 30.7775ZM29.0655 40.5427L29.4797 39.3462L24.2979 37.5699L23.8838 38.7664L29.0655 40.5427ZM22.7517 43.58L26.0283 44.169L22.2731 46.2583L22.089 47.2891L27.4825 48.2647L27.7034 47.0314L24.4268 46.4424L28.1912 44.3439L28.3752 43.3223L22.9818 42.3467L22.7517 43.58ZM27.4917 53.5753C27.4548 52.0199 26.5437 51.1179 24.9238 51.1547L21.8589 51.2283L21.8866 52.4801L24.9054 52.4064C25.9454 52.3788 26.3872 52.8206 26.4056 53.5937C26.424 54.3576 26.0006 54.827 24.9606 54.8454L21.9418 54.9191L21.9694 56.1892L25.0343 56.1156C26.6633 56.0788 27.5377 55.1308 27.4917 53.5753ZM32.1672 53.8146C32.1488 53.3728 32.1396 52.9311 32.1396 52.4801C32.1396 31.8452 48.8721 15.1126 69.507 15.1218C90.1419 15.1218 106.874 31.8452 106.874 52.4801C106.874 52.9219 106.865 53.3728 106.847 53.8146C106.718 57.5238 109.442 60.6807 113.124 61.104L121.122 62.0152C121.693 58.9227 121.987 55.7382 121.987 52.4893C121.987 23.4973 98.4898 0 69.4978 0C40.5058 0 17.0085 23.4973 17.0085 52.4893C17.0085 55.7474 17.3031 58.9319 17.8737 62.0152L25.8718 61.104C29.5717 60.6807 32.2961 57.5238 32.1672 53.8146Z" fill="black"/>
<path fill-rule="evenodd" clip-rule="evenodd" d="M40.1656 55.657C50.796 55.9147 60.5428 59.5225 69.4521 65.1461C62.2179 58.8967 51.9188 54.0739 38.7666 53.8438L39.5397 55.6385L40.1656 55.657ZM65.1907 60.2589C61.2699 55.7766 56.0882 53.2916 50.391 51.4692L51.5875 54.258C56.4011 55.5465 60.9846 57.5345 65.1907 60.2589ZM98.849 55.657C88.2186 55.9147 78.4718 59.5225 69.5625 65.1461C76.7967 58.8967 87.0957 54.0739 100.248 53.8438L99.4749 55.6385L98.849 55.657ZM73.8239 60.2589C77.7447 55.7766 82.9264 53.2916 88.6236 51.4692L87.4271 54.258C82.6135 55.5465 78.0392 57.5345 73.8239 60.2589ZM40.138 57.0099L41.8315 60.9399C50.3818 62.0536 58.5456 64.7687 66.3228 69.0853C66.8014 71.9845 72.2224 71.9845 72.701 69.0853C80.4782 64.7687 88.642 62.0536 97.1923 60.9399L98.8858 57.0099C88.9917 57.2492 79.2449 60.4706 69.5073 66.7936C59.7697 60.4706 50.0321 57.2492 40.138 57.0099Z" fill="black"/>
<path fill-rule="evenodd" clip-rule="evenodd" d="M69.5071 63.9305C69.8477 63.9305 70.0962 63.682 70.1698 63.3507L73.7041 45.799H74.2931C75.0018 45.799 75.5816 45.2192 75.5816 44.5105C75.5816 43.8018 75.0018 43.222 74.2931 43.222C71.0994 43.222 67.9149 43.222 64.7212 43.222C64.0125 43.222 63.4326 43.8018 63.4326 44.5105C63.4326 45.2192 64.0125 45.799 64.7212 45.799H65.3102L68.8445 63.3507C68.9181 63.6912 69.1666 63.9305 69.5071 63.9305ZM63.4603 39.9915H75.5541C76.2627 39.9915 76.8426 40.5713 76.8426 41.28C76.8426 41.9887 76.2627 42.5685 75.5541 42.5685H63.4603C62.7516 42.5685 62.1717 41.9887 62.1717 41.28C62.1625 40.5713 62.7516 39.9915 63.4603 39.9915Z" fill="black"/>
<path fill-rule="evenodd" clip-rule="evenodd" d="M69.2404 38.8136C63.0095 29.9596 77.8828 30.07 68.6146 19.4304C72.1028 27.0972 56.1618 33.0336 69.2404 38.8136ZM71.3389 34.6351C72.1856 32.6103 75.5174 30.8523 73.0048 26.9499C72.8575 26.7843 72.701 26.6094 72.5354 26.4345C71.9095 31.2941 65.8166 32.4906 69.9215 38.3258L70.3081 38.8688C71.2469 36.4759 76.7047 33.8896 74.505 29.1588C75.2965 31.2757 72.7931 33.8067 71.3389 34.6351Z" fill="black"/>
</svg>
