<svg width="124" height="107" viewBox="0 0 124 107" fill="none" xmlns="http://www.w3.org/2000/svg">
<path fill-rule="evenodd" clip-rule="evenodd" d="M87.0053 9.80125V49.5492L61.7981 67.7437L36.591 49.5584V9.81045C46.8708 11.7155 56.7641 17.2097 61.7981 24.4065C66.8322 17.2005 76.7255 11.7063 87.0053 9.80125ZM61.7981 0C65.8659 0 69.1606 3.29469 69.1606 7.36244C69.1606 11.4302 65.8659 14.7249 61.7981 14.7249C57.7304 14.7249 54.4357 11.4302 54.4357 7.36244C54.4357 3.29469 57.7304 0 61.7981 0ZM29.6703 15.5992L22.6667 13.0867V54.8686L61.7981 69.8328L93.9168 52.4206V15.5992L100.92 13.0867V54.8686L61.7889 69.8328L29.6703 52.4206V15.5992Z" fill="#011A6D"/>
<path d="M123.588 78.2798H120.045L116.281 85.8263L112.535 78.2798H108.973L114.688 89.7468V94.3759H117.863V89.7468L123.588 78.2798ZM107.381 78.2798H96.1167V81.4548H100.157V94.3667H103.332V81.4548H107.372V78.2798H107.381ZM91.1194 94.3667H94.2945V78.2706H91.1194V94.3667ZM86.7388 85.4766C84.6221 84.3262 80.8028 84.9152 80.8488 82.7801C80.8488 82.4396 81.1065 81.9518 81.6771 81.6297C82.2385 81.3076 83.9502 80.7278 87.1529 82.5592L88.745 79.8259C84.2816 77.2675 81.4194 78.1325 80.1126 78.878C78.6401 79.7247 77.7014 81.188 77.683 82.7249C77.6462 85.4214 79.4776 87.0871 82.4502 87.5749C83.3797 87.7129 84.5024 87.8602 85.2663 88.2743C86.3891 88.8541 86.5731 90.4462 85.2847 91.0536C83.5361 91.8543 80.9224 91.5322 79.3487 90.1057L77.3977 92.5998C78.502 93.6213 80.0942 94.5692 82.7447 94.6152C82.7815 94.6152 82.8091 94.6336 82.8275 94.6336C86.7296 94.652 89.2052 92.885 89.3248 89.9677C89.3893 87.9522 88.4874 86.3877 86.7388 85.4766ZM66.0411 81.4548H70.3665C71.3697 81.4548 72.1611 82.2555 72.1611 83.2494C72.1611 84.2342 71.3789 85.044 70.3665 85.044H66.0411V81.4548ZM72.3728 94.3667H75.7687L72.7317 87.6301C74.2778 86.7834 75.3454 85.1361 75.3454 83.2402C75.3454 80.5069 73.1091 78.2706 70.3573 78.2706H66.0319H62.8292V94.3667H66.0319V88.2283H69.5291L72.3728 94.3667ZM61.0346 81.4548V78.2798H50.6536V94.3759H61.0346V91.2009H53.8287V87.9246H58.7983V84.7495H53.8287V81.4548H61.0346ZM45.5183 78.2798L41.8555 89.6272L38.1927 78.2798H34.8796L40.0701 94.3759H43.6501L48.8406 78.2798H45.5183ZM29.8915 94.3667H33.0666V78.2706H29.8915V94.3667ZM24.701 78.2798V88.5964L17.8631 78.2798H14.6881V94.3759H17.8447V83.9949L24.701 94.3759H27.876V78.2798H24.701ZM9.71842 78.2798V88.4768C9.71842 90.1057 8.39318 91.4309 6.76424 91.4309H6.12003C4.49109 91.4309 3.16585 90.1057 3.16585 88.4768V78.2798H0V88.4768C0 91.8543 2.73331 94.5876 6.11083 94.5876H6.75504C10.1326 94.5876 12.8659 91.8543 12.8659 88.4768V78.2798H9.71842Z" fill="#011A6D"/>
<path d="M99.3099 105.155V103.913H101.795V102.947H99.3099V101.787H102.126V100.793H98.0767V106.149H102.227V105.155H99.3099ZM93.2451 102.735C93.2451 103.315 92.8585 103.665 92.1039 103.665H91.0915V101.796H92.1039C92.8585 101.806 93.2451 102.146 93.2451 102.735ZM94.5979 106.149L93.3923 104.428C94.0917 104.134 94.4967 103.545 94.4967 102.735C94.4967 101.529 93.604 100.793 92.1683 100.793H89.8491V106.149H91.0915V104.658H92.1683H92.2327L93.2635 106.149H94.5979ZM83.3518 105.155V103.913H85.8366V102.947H83.3518V101.787H86.1679V100.793H82.1186V106.149H86.2691V105.155H83.3518ZM77.0201 100.793V102.91H74.5905V100.793H73.3481V106.149H74.5905V103.95H77.0201V106.149H78.2625V100.793H77.0201ZM66.0868 100.793V104.042L63.4272 100.793H62.3964V106.149H63.6204V102.901L66.2893 106.149H67.3109V100.793H66.0868ZM55.3837 104.06L56.2304 102.008L57.0771 104.06H55.3837ZM57.9421 106.149H59.2398L56.847 100.793H55.623L53.2394 106.149H54.5094L54.988 104.999H57.4728L57.9421 106.149ZM49.0704 104.962C48.7575 105.128 48.4446 105.192 48.1041 105.192C47.0825 105.192 46.3647 104.484 46.3647 103.48C46.3647 102.459 47.0733 101.769 48.1133 101.769C48.6563 101.769 49.1072 101.962 49.4937 102.376L50.2852 101.64C49.7606 101.032 48.9876 100.71 48.0397 100.71C46.3371 100.71 45.0947 101.87 45.0947 103.48C45.0947 105.091 46.3371 106.251 48.0213 106.251C48.7851 106.251 49.595 106.011 50.184 105.57V103.398H49.052V104.962H49.0704ZM38.9839 105.192C38.0267 105.192 37.3089 104.493 37.3089 103.48C37.3089 102.459 38.0267 101.769 38.9839 101.769C39.941 101.769 40.6588 102.468 40.6588 103.48C40.6588 104.493 39.941 105.192 38.9839 105.192ZM38.9839 106.241C40.668 106.241 41.9196 105.073 41.9196 103.471C41.9196 101.87 40.668 100.701 38.9839 100.701C37.2905 100.701 36.0573 101.879 36.0573 103.471C36.0573 105.063 37.2997 106.241 38.9839 106.241ZM29.2654 106.149H33.1951V105.137H30.5078V100.793H29.2654V106.149ZM23.5503 106.241C25.078 106.241 25.8235 105.478 25.8235 104.585C25.8235 102.615 22.7129 103.296 22.7129 102.312C22.7129 101.971 22.9982 101.695 23.7344 101.695C24.213 101.695 24.7191 101.833 25.2161 102.118L25.6026 101.18C25.1057 100.867 24.4154 100.701 23.7436 100.701C22.2251 100.701 21.4889 101.456 21.4889 102.367C21.4889 104.355 24.5995 103.665 24.5995 104.668C24.5995 104.999 24.305 105.238 23.5687 105.238C22.9245 105.238 22.2527 105.008 21.8018 104.677L21.3784 105.606C21.8386 105.993 22.6945 106.241 23.5503 106.241Z" fill="#011A6D"/>
</svg>
